<?xml version="1.0" encoding="utf-8"?>
<!-- Generator: Adobe Illustrator 22.0.1, SVG Export Plug-In . SVG Version: 6.00 Build 0)  -->
<svg version="1.1" xmlns="http://www.w3.org/2000/svg" xmlns:xlink="http://www.w3.org/1999/xlink" x="0px" y="0px"
	 viewBox="0 0 300 350" style="enable-background:new 0 0 300 350;" xml:space="preserve">
<style type="text/css">
	.st0{fill:#79BD34;stroke:#040000;stroke-width:3;stroke-miterlimit:10;}
	.st1{fill:none;stroke:#040000;stroke-width:3;stroke-miterlimit:10;}
	.st2{fill:#ED8428;stroke:#040000;stroke-width:3;stroke-miterlimit:10;}
	.st3{fill:#FFFFFF;stroke:#040000;stroke-width:3;stroke-miterlimit:10;}
	.st4{fill:#040000;stroke:#040000;stroke-width:3;stroke-miterlimit:10;}
	.st5{fill:#D61F37;stroke:#040000;stroke-width:3;stroke-miterlimit:10;}
</style>
<g id="レイヤー_2">
</g>
<g id="レイヤー_1">
	<path class="st0" d="M89.7,87.2L84,50.6c-0.3-1.7,1.7-2.9,3-1.7l27.9,23.4"/>
	<line class="st1" x1="87.4" y1="65.7" x2="98.6" y2="59"/>
	<line class="st1" x1="89.2" y1="77" x2="107.2" y2="66.4"/>
	<path class="st0" d="M187.7,72.4l30.9-20.5c1.4-1,3.3,0.3,2.8,2L211.8,89"/>
	<line class="st1" x1="206.3" y1="61.3" x2="217" y2="68.8"/>
	<line class="st1" x1="196.7" y1="67.6" x2="213.8" y2="79.6"/>
	<circle class="st2" cx="151" cy="155.2" r="90.2"/>
	<circle class="st3" cx="150.8" cy="139.8" r="38"/>
	<circle class="st4" cx="150.8" cy="139.8" r="12.8"/>
	<path class="st5" d="M140.2,188.7h21.7c0.3,0,0.5,0.3,0.4,0.5c-0.7,1.6-3.2,6.4-9.7,7.8c-6.2,1.4-11.2-4.6-13-7.2
		C139.3,189.4,139.6,188.7,140.2,188.7z"/>
</g>
<g id="レイヤー_3">
	<path class="st2" d="M64.6,177.7c0,0-0.3,35.7,5.9,44.7c6.9,10.1,10.7,2.2,10.7,2.2l-3.6-9.6l-1.7-11.8l-1.4-5.6"/>
	<path class="st2" d="M237.9,175.5c0,0,0.1,37.9-6,46.9c-6.9,10.1-10.7,2.2-10.7,2.2l3.6-9.6l1.7-11.8l1.4-5.6"/>
	<path class="st2" d="M122.4,238.7l2.2,25.2l-7,4.5c-2.1,1.4-1.3,4.7,1.2,4.9c7,0.6,16.5,0.5,16.3-4.1c-0.2-7.2,0.9-27.1,0.9-27.1"
		/>
	<path class="st2" d="M179.8,238.7l-2.2,25.2l7,4.5c2.1,1.4,1.3,4.7-1.2,4.9c-7,0.6-16.5,0.5-16.3-4.1c0.2-7.2-0.9-27.1-0.9-27.1"/>
</g>
</svg>
