<?xml version="1.0" encoding="utf-8"?>
<!-- Generator: Adobe Illustrator 22.0.1, SVG Export Plug-In . SVG Version: 6.00 Build 0)  -->
<svg version="1.1" xmlns="http://www.w3.org/2000/svg" xmlns:xlink="http://www.w3.org/1999/xlink" x="0px" y="0px"
	 viewBox="0 0 300 350" style="enable-background:new 0 0 300 350;" xml:space="preserve">
<style type="text/css">
	.st0{fill:#79539F;stroke:#79539F;stroke-miterlimit:10;}
	.st1{fill:#79539F;stroke:#040000;stroke-width:3;stroke-miterlimit:10;}
	.st2{fill:#FFFFFF;stroke:#040000;stroke-width:2;stroke-miterlimit:10;}
	.st3{fill:#FFFFFF;stroke:#040000;stroke-miterlimit:10;}
	.st4{fill:#040000;}
	.st5{fill:none;stroke:#040000;stroke-width:2;stroke-miterlimit:10;}
</style>
<g id="レイヤー_1">
</g>
<g id="レイヤー_2">
</g>
<g id="レイヤー_3">
</g>
<g id="レイヤー_4">
</g>
<g id="レイヤー_5">
</g>
<g id="レイヤー_6">
</g>
<g id="レイヤー_7">
</g>
<g id="レイヤー_8">
</g>
<g id="レイヤー_9">
</g>
<g id="レイヤー_10">
	<path class="st0" d="M42.4,208.7"/>
	<path class="st1" d="M267.3,222.3c-2.4-1.4-5.7-3.6-9.5-7c-1.3-5.1-3.1-10.8-6-16.9c-5-10.8-11.3-19-16.9-25
		c0.1-0.8,0.2-1.6,0.2-2.4c0-4.8-2.2-9.1-5.7-12.2c8-1.7,13.9-8.4,13.9-16.3c0-6.9-4.6-12.9-11.1-15.4c4.6-3,7.7-8,7.7-13.7
		c0-9.1-7.8-16.5-17.6-16.7c1.1-2.2,1.8-4.6,1.8-7.2c0-9.2-8.1-16.7-18.1-16.7c-2.7,0-5.3,0.6-7.6,1.6c0.4-1.3,0.6-2.7,0.6-4.1
		c0-9.2-8.1-16.7-18.1-16.7c-5.2,0-9.8,2-13.1,5.2c-2.4-6.6-9.2-11.3-17.1-11.3c-9.2,0-16.7,6.3-17.9,14.5c-3.1-5-9-8.4-15.7-8.4
		c-10,0-18.1,7.5-18.1,16.7c0,1.4,0.2,2.8,0.6,4.1c-2.3-1-4.9-1.6-7.6-1.6c-10,0-18.1,7.5-18.1,16.7c0,2.6,0.7,5,1.8,7.2
		c-9.8,0.2-17.6,7.6-17.6,16.7c0,5.7,3,10.7,7.7,13.7c-6.5,2.5-11.1,8.5-11.1,15.4c0,7.9,5.9,14.5,13.9,16.3
		c-3.5,3.1-5.7,7.4-5.7,12.2c0,1.1,0.1,2.1,0.3,3.2c-5.5,6-11.7,14.1-16.6,24.7c-2.8,6.1-4.7,11.9-6,16.9c-3.8,3.5-7.1,5.7-9.5,7
		c-1.6,0.9-4.1,2.3-3.9,2.9c0.3,0.9,5.4-0.5,7.5,1.5c0.9,1,1.5,2.2,1.5,2.2c0.3,0.6,0.4,1.2,0.4,1.3c0.5,2-0.3,3.2,0,3.4
		c0.8,0.6,4-5.1,8-5c2.8,0.1,4.3,2.9,5,2.5c1.1-0.7-2.9-7.8-4-11.9c-1.8-6.8,1.2-17.7,22.4-35.8l0-1.4c3.1,3,7.4,4.9,12.1,5.1
		c-0.9,1.9-1.3,4.1-1.3,6.3c0,9.2,8.1,16.7,18.1,16.7c1.7,0,3.3-0.2,4.9-0.6c0.2,9,8.2,16.3,18.1,16.3c5.2,0,9.8-2,13.1-5.2
		c2.7,6,9.2,10.2,16.7,10.2c7.2,0,13.5-4,16.4-9.6c3.2,2.9,7.6,4.6,12.5,4.6c9.8,0,17.8-7.3,18.1-16.3c1.5,0.4,3.2,0.6,4.9,0.6
		c10,0,18.1-7.5,18.1-16.7c0-2.2-0.5-4.3-1.3-6.3c5-0.2,9.4-2.3,12.5-5.5l0,1.3c21.2,18.1,24.1,29,22.4,35.8
		c-1.1,4.1-5.1,11.2-4,11.9c0.7,0.4,2.2-2.4,5-2.5c4-0.1,7.2,5.5,8,5c0.4-0.3-0.4-1.4,0-3.4c0-0.2,0.2-0.7,0.4-1.3
		c0,0,0.6-1.2,1.5-2.2c2-2,7.2-0.6,7.5-1.5C271.5,224.6,269,223.2,267.3,222.3z"/>
	<path class="st1" d="M119.7,226.3c-2.8,8.9-5.2,21.7-2.9,36.5c0.5,3.2,1.2,6.2,2,9c-0.4,0.3-0.8,0.6-1.4,1.1c-5.3,4-8.7,6-8.5,6.4
		c0.3,0.7,10.8-1.5,11.4-1c0.3,0.2,0.5,0.5,0.5,0.5c0,0,0.2,0.2,0.3,0.3c0.5,0.6,1.1,6.6,1.6,6.7c0.6,0.1,1.2-7.5,5-9
		c3-1.2,6.5,2.1,7,1.5c0.7-0.9-6.1-6.8-9-10.4c-4.8-6.1-8.3-17.8-0.2-42.4"/>
	<path class="st1" d="M180.4,226.3c2.8,8.9,5.2,21.7,2.9,36.5c-0.5,3.2-1.2,6.2-2,9c0.4,0.3,0.8,0.6,1.4,1.1c5.3,4,8.7,6,8.5,6.4
		c-0.3,0.7-10.8-1.5-11.4-1c-0.3,0.2-0.5,0.5-0.5,0.5c0,0-0.2,0.2-0.3,0.3c-0.5,0.6-1.1,6.6-1.6,6.7c-0.6,0.1-1.2-7.5-5-9
		c-3-1.2-6.5,2.1-7,1.5c-0.7-0.9,6.1-6.8,9-10.4c4.8-6.1,8.3-17.8,0.2-42.4"/>
	<path class="st2" d="M136.2,95.5c0,12-8.1,21.8-18.1,21.8c-10,0-18.1-9.8-18.1-21.8c0-1.3-0.1-4.1,1.1-7.4
		c2.3-6.7,8.9-14.3,17-14.3C128,73.7,136.2,85,136.2,95.5z"/>
	<ellipse class="st2" cx="97.9" cy="150.3" rx="18.1" ry="21.8"/>
	<ellipse class="st2" cx="180.8" cy="95.5" rx="18.1" ry="21.8"/>
	<ellipse class="st2" cx="149" cy="185.2" rx="18.1" ry="21.8"/>
	<ellipse class="st2" cx="203.9" cy="152.4" rx="18.1" ry="21.8"/>
	<path class="st3" d="M99.9,89.4c2.3,1.7,8.9,6,18.1,6.1c9.2,0.1,15.7-3.9,18.1-5.5"/>
	<path class="st3" d="M79.8,144.1c2.3,1.7,8.9,6,18.1,6.1c9.2,0.1,15.7-3.9,18.1-5.5"/>
	<path class="st3" d="M162.6,89.4c2.3,1.7,8.9,6,18.1,6.1c9.2,0.1,15.7-3.9,18.1-5.5"/>
	<path class="st3" d="M131,179.1c2.3,1.7,8.9,6,18.1,6.1c9.2,0.1,15.7-3.9,18.1-5.5"/>
	<path class="st3" d="M185.8,146.3c2.3,1.7,8.9,6,18.1,6.1c9.2,0.1,15.7-3.9,18.1-5.5"/>
	<path class="st2" d="M113.1,95.2c-0.7,1.9-1.9,5.8-1.1,10.8c1,6.7,4.8,10.8,6.1,12.2"/>
	<path class="st2" d="M93,150.5c-0.7,1.9-1.9,5.8-1.1,10.8c1,6.7,4.8,10.8,6.1,12.2"/>
	<path class="st2" d="M144.1,185.1c-0.7,1.9-1.9,5.8-1.1,10.8c1,6.7,4.8,10.8,6.1,12.2"/>
	<path class="st2" d="M200.2,151.9c-0.7,1.9-1.9,5.8-1.1,10.8c1,6.7,4.8,10.8,6.1,12.2"/>
	<path class="st2" d="M175.8,95.2c-0.7,1.9-1.9,5.8-1.1,10.8c1,6.7,4.8,10.8,6.1,12.2"/>
	<path class="st3" d="M116.9,95.8c-0.6,2-1.4,6-0.4,10.8c1.1,5.6,3.9,9.3,5.2,11"/>
	<path class="st3" d="M96.9,151.1c-0.6,2-1.4,6-0.4,10.8c1.1,5.6,3.9,9.3,5.2,11"/>
	<path class="st3" d="M147.7,185.7c-0.6,2-1.4,6-0.4,10.8c1.1,5.6,3.9,9.3,5.2,11"/>
	<path class="st3" d="M204.1,152.5c-0.6,2-1.4,6-0.4,10.8c1.1,5.6,3.9,9.3,5.2,11"/>
	<path class="st3" d="M179.8,95.8c-0.6,2-1.4,6-0.4,10.8c1.1,5.6,3.9,9.3,5.2,11"/>
	<g>
		<g>
			<path class="st4" d="M116.8,96.4c-0.1,1-0.3,2-0.1,3c0.1,0.8,0,1.6,0.2,2.3c0.3,1.2,2.4,0.7,2.8-0.2c0.1-0.3,0.2-0.5,0.3-0.8
				c0.2-1-1.2-1-1.7-0.9c-1.7,0.3-2.8,3-0.8,3.7c1.3,0.5,3.4-1.4,1.7-2c0.2,0.3,0.2,0.4,0.2,0.1c0.1-0.3-0.1-0.3-0.5,0.2
				c-0.6-0.3-1.2-0.6-1.7-0.9c0,0.1-0.1,0.2-0.1,0.3c0.9-0.1,1.9-0.1,2.8-0.2c-0.2-0.6,0-1.4-0.1-2c-0.1-0.9,0-1.8,0.1-2.7
				C119.9,94.7,116.9,95,116.8,96.4L116.8,96.4z"/>
		</g>
	</g>
	<g>
		<g>
			<path class="st4" d="M116.4,100.9c-0.1,1.9,0.3,3.3,1.1,5c0.9-0.3,1.9-0.6,2.8-0.9c-0.3-0.4-0.7-0.8-1-1.2
				c-0.5-0.6-2.9,0.1-2.8,0.9c0.2,2.4,1.2,4.7,2.3,6.8c0.9-0.3,1.9-0.6,2.8-0.9c-0.3-0.5-0.7-1-1.2-1.4c-0.5-0.5-3.2,0.2-2.8,0.9
				c0.6,1.2,1.3,2.1,2.3,3c0.5,0.4,3.2-0.1,2.8-0.9c-0.2-0.4-0.3-0.7-0.5-1.1c-0.3-0.7-2.8-0.2-2.9,0.6c0,0.4-0.1,0.8-0.1,1.2
				c0.9-0.2,1.9-0.5,2.8-0.7c-0.1-0.1-0.3-0.2-0.4-0.3c-0.6-0.4-3.4,0.2-2.7,1.1c0.5,0.7,1.1,1.4,1.7,2c0.5,0.6,2.8-0.1,2.8-0.9
				c0-0.2,0-0.4,0-0.6c-0.9,0.3-1.9,0.6-2.8,0.9c1,1.2,1.5,1.8,3,1.3c0.1,0,1.8-0.7,1.2-1.1c-0.6-0.4-1.2-0.9-1.8-1.3
				c-0.5-0.3-3.2,0.1-2.8,0.9c0.4,0.7,0.3,0.7,0.9,1.2c0.9-0.4,1.8-0.7,2.7-1.1c-1.1-0.9-2.7-0.6-3.6,0.4c-0.1,0.1-0.1,0.2-0.1,0.4
				c0.4,0.9,1.1,1.5,1.7,2.2c0.5,0.6,2.3,0,2.7-0.6c0.1-0.2,0.3-0.4,0.4-0.7c0.6-1-2.2-0.6-2.7,0.1c-0.1,0.2-0.3,0.4-0.4,0.7
				c0.9-0.2,1.8-0.4,2.7-0.6c-0.5-0.6-1-1.1-1.4-1.7c-0.6,0.2-1.3,0.5-1.9,0.7c0,0.1,0,0.1,0,0.2c0.6,0.5,3.4-0.4,2.7-1.1
				c-0.2-0.3-0.5-0.6-0.7-1c-0.9,0.3-1.9,0.6-2.8,0.9c0.6,0.4,1.2,0.9,1.8,1.3c0.4-0.4,0.8-0.8,1.2-1.1c-0.1,0-0.2,0-0.3,0.1
				c0.5,0,1,0,1.5,0.1c-0.5-0.4-0.9-0.9-1.3-1.4c-0.5-0.6-2.8,0.1-2.8,0.9c0,0.2,0,0.4,0,0.6c0.9-0.3,1.9-0.6,2.8-0.9
				c-0.6-0.7-1.1-1.3-1.7-2c-0.9,0.4-1.8,0.7-2.7,1.1c0.1,0.1,0.3,0.2,0.4,0.3c0.5,0.4,2.7,0.1,2.8-0.7c0-0.4,0.1-0.8,0.1-1.2
				c-1,0.2-1.9,0.4-2.9,0.6c0.2,0.4,0.3,0.7,0.5,1.1c0.9-0.3,1.9-0.6,2.8-0.9c-1-0.9-1.5-1.5-2.1-2.7c-0.9,0.3-1.9,0.6-2.8,0.9
				c0.5,0.4,0.8,0.9,1.2,1.4c0.4,0.6,3.1-0.2,2.8-0.9c-1-2.2-2-4.4-2.3-6.8c-0.9,0.3-1.9,0.6-2.8,0.9c0.3,0.4,0.7,0.8,1,1.2
				c0.5,0.6,3.2-0.2,2.8-0.9c-0.8-1.5-1.3-2.8-1.1-4.6C119.3,99.5,116.4,100.1,116.4,100.9L116.4,100.9z"/>
		</g>
	</g>
	<g>
		<g>
			<path class="st4" d="M125.5,115.5c0-0.1,0.1-0.2,0.1-0.2c-0.9,0.3-1.7,0.6-2.6,0.8c0,0,0.1,0,0.1,0c-0.1-0.1-0.2-0.1-0.3-0.2
				c0,0,0,0.1,0.1,0.1c0.2-0.2,0.4-0.4,0.6-0.7c-0.1,0-0.2,0.1-0.2,0.1c0.7,0.1,1.3,0.3,2,0.4c0.3-0.2,0.5-0.4,0.8-0.6
				c0.8-0.7-0.3-0.8-0.9-0.7c0,0-0.1,0-0.1,0c0.3,0,0.6,0,0.9,0c-0.9-0.3-3.2,0.1-3,1.5c0.1,0.7,2,0,2.3-0.1c0.6-0.3,2-0.8,1.9-1.6
				c0,0.1-0.1,0.2-0.1,0.3c0.3-0.4,0.7-0.6,1-1c-0.9,0.1-1.8,0.2-2.8,0.3c-0.5,0.8-1.2,1.7-2.1,1.9c0.5,0.1,1.1,0.2,1.6,0.3
				c-1.4,0.1-1.7,0.2-1,0.3c-0.1-0.2-0.3-0.4-0.4-0.6c-0.1,0.1-0.2,0.3-0.3,0.4c-0.2,0.1-0.2,0.1,0,0c-0.3,0.1-0.6,0.1-0.9,0.2
				c-0.5,0.2-0.8,0.4-1.1,0.9c0.6-0.3,1.1-0.6,1.7-0.9c0,0,0,0-0.1,0c0.1,0.3,0.2,0.7,0.3,1C124,117.1,125.2,116.5,125.5,115.5
				c0.3-0.8-2.5-0.4-2.8,0.4c-0.1,0.4-0.3,0.6-0.7,0.8c-0.2,0.1-1,0.4-0.9,0.8c0.1,0.4,0.9,0.3,1.2,0.2c0.4-0.1,0.9-0.2,1.3-0.4
				c0.2-0.1,0.3-0.2,0.4-0.3c0.2-0.2,0.1-0.1-0.1,0c-0.5,0.2-0.9,0.3-1.4,0.5c1.3-0.2,2.7-0.7,3.5-1.8c0.3-0.4,0-0.6-0.4-0.6
				c-1.1-0.1-3.4,0.1-3.7,1.5c-0.2,0.7,1.3,0.4,1.6,0.3c2-0.6,3.6-1.7,4.7-3.5c0.3-0.5-0.9-0.4-1-0.4c-0.5,0.1-1.4,0.2-1.7,0.7
				c-0.4,0.5-1.2,0.9-1.1,1.5c0-0.1,0.1-0.2,0.1-0.3c0.3-0.3-0.1,0-0.3,0.1c-0.2,0.1-0.4,0.2-0.6,0.3c0.8,0,1.5-0.1,2.3-0.1
				c0,0,0-0.1,0-0.1c-0.4,0.2-0.8,0.4-1.2,0.6c0.1,0,0.1,0,0.2,0c-0.4,0-0.9,0-1.3,0.1c0.4,0.1,0.8,0.1,1.2,0.1
				c-0.3-0.2-0.6-0.5-0.9-0.7c-0.3,0.2-0.5,0.4-0.8,0.6c-0.4,0.3-0.4,0.6,0.1,0.7c0.6,0.2,1.4-0.1,1.9-0.4c0.1,0,0.2-0.1,0.2-0.1
				c0.1-0.1,0.7-0.4,0.6-0.7c-0.1-0.2-0.2-0.3-0.4-0.4c-0.7-0.3-2.3,0.1-2.6,0.8c0,0.1-0.1,0.2-0.1,0.2c-0.3,0.5,1,0.4,1.2,0.4
				C124.4,116.3,125.2,116,125.5,115.5L125.5,115.5z"/>
		</g>
	</g>
	<g>
		<g>
			<path class="st4" d="M121.2,97.5c0.4-0.1,0.9-0.2,1.3-0.3c1.4-0.3,1.6-1.9-0.1-1.8c-0.6,0-1.1,0-1.7,0.1
				c-0.1,0.6-0.2,1.3-0.3,1.9c5.5-0.9,10.5-2.8,15.3-5.7c-0.8-0.1-1.6-0.1-2.4-0.2c1.2,8.5-1.5,16.6-7.5,22.7
				c-1.2,1.3,1.6,1.5,2.4,0.7c6.4-6.5,9.3-15.2,8.1-24.2c-0.1-1-1.9-0.5-2.4-0.2c-4.1,2.5-8.4,4.1-13.1,4.9c-1.5,0.2-2.4,2-0.3,1.9
				c0.6,0,1.1,0,1.7-0.1c0-0.6-0.1-1.2-0.1-1.8c-0.4,0.1-0.9,0.2-1.3,0.3C119,96.2,119.4,98,121.2,97.5L121.2,97.5z"/>
		</g>
	</g>
	<g>
		<g>
			<path class="st4" d="M126.7,113.2c-0.7,1-1.5,1.5-2.5,2.1c0.8-0.1,1.7-0.2,2.5-0.3c0.2-0.3,0.4-0.6,0.7-0.9
				c0.1-0.1,0.3-0.2,0.4-0.3c0.1-0.1,0.6-0.3,0.1-0.1c-0.5,0.1-1,0.2-1.4,0.3c0,0,0.1,0,0.1,0c-0.1,0-0.3,0-0.4-0.1
				c0,0-1.9,1.6-2.1,1.7c-0.5,0.4,0.5,0.4,0.7,0.4c0.6-0.1,1.4-0.3,1.9-0.7c0.7-0.6,1.4-1.1,2.1-1.7c0.2-0.2,0.4-0.4,0.3-0.6
				c-0.2-0.3-0.8-0.2-1.1-0.1c-1.6,0.2-3.2,1.2-4,2.6c-0.2,0.3,0.7,0.3,0.8,0.3c0.6-0.1,1.2-0.2,1.7-0.5c1.3-0.7,2.3-1.4,3.2-2.6
				c0.3-0.4-1-0.2-1.1-0.2C127.9,112.6,127,112.8,126.7,113.2L126.7,113.2z"/>
		</g>
	</g>
	<g>
		<g>
			<path class="st4" d="M125.4,116.9c0.5-0.3,0.9-0.7,1.3-1.2c0.2-0.2,0.3-0.5,0.5-0.7c0.1-0.1,0.1-0.1,0.2-0.2
				c0.3-0.2,0.2-0.2-0.3,0c-0.5-0.3-0.9-0.7-1.4-1c-0.1,0.3-0.6,0.6-0.8,0.8c-0.1,0.1-0.2,0.2-0.4,0.4c0.4-0.2,0.5-0.3,0.2-0.2
				c-0.3,0-0.6,0.1-0.9,0.2c-0.6,0.1-1.3,0.8-1.2,1.5c0.2,0.8,1.1,0.8,1.7,0.7c0.5-0.1,1-0.2,1.5-0.4c0.5-0.2,0.8-0.5,1.2-0.9
				c0.8-0.7,1.5-1.3,1.7-2.3c0.1-0.7-0.8-1.1-1.4-1c-1,0.1-1.8,0.6-2.5,1.3c-0.5,0.6-0.8,1.1-1.4,1.5c-0.5,0.4-0.7,1.2-0.1,1.6
				C123.9,117.5,124.8,117.3,125.4,116.9L125.4,116.9z"/>
		</g>
	</g>
	<g>
		<g>
			<path class="st4" d="M130.8,111.5c0.2-0.3,0.4-0.6,0.7-0.9c-0.9,0-1.9,0.1-2.8,0.1c0,0,0,0.1,0,0.1c0.2-0.2,0.4-0.4,0.5-0.6
				c0,0-0.1,0-0.1,0.1c0.7,0.2,1.4,0.5,2.1,0.7c0.3-0.3,0.6-0.6,0.9-1c0.1-0.1,0.7-1.1,0.4-0.9c-0.8-0.2-1.5-0.3-2.3-0.5
				c-0.1,0.1-0.2,0.3-0.3,0.4c0.9,0,1.8,0.1,2.7,0.1c0.9-1.5,2.1-3,2.2-4.7c0.1-1.3-2.4-0.5-2.8,0.1c0,0.1-0.1,0.1-0.1,0.2
				c0.9,0,1.9-0.1,2.8-0.1c0.2-0.5,0.3-0.9,0.5-1.4c0.3-1.1-2.6-0.6-2.9,0.4c-0.1,0.4-0.3,0.8-0.4,1.2c1-0.1,1.9-0.2,2.9-0.4
				c0.1-0.3,0.1-0.5,0.1-0.8c0-1.3-2.6-0.6-2.9,0.4c-0.1,0.3-0.2,0.6-0.2,0.9c-0.1,0.6,0.8,0.7,1.3,0.6c1.1-0.2,2-0.6,2.1-1.7
				c0.1-1.2-2.7-0.6-2.9,0.4c0,0.3-0.1,0.6-0.3,0.9c0.9,0,1.8,0.1,2.7,0.1c0.1-0.2,0.2-0.4,0.3-0.6c-0.9,0-1.9,0.1-2.8,0.1
				c-0.1,0.4-0.2,0.7-0.4,1c-0.7,1.2,2.2,0.9,2.7,0.1c0.3-0.5,0.5-0.9,0.6-1.5c0.3-1.1-2.5-0.6-2.8,0.1c-0.1,0.2-0.2,0.4-0.3,0.6
				c-0.6,1.3,2.2,0.9,2.7,0.1c0.2-0.4,0.4-0.8,0.5-1.3c-1,0.1-1.9,0.2-2.9,0.4c0,0.2-0.1,0.3-0.1,0.5c0.5-0.3,1-0.5,1.5-0.8
				c-0.1,0-0.2,0-0.2,0c0.4,0.2,0.8,0.4,1.3,0.6c0-0.3,0.1-0.6,0.2-0.9c-1,0.1-1.9,0.2-2.9,0.4c0,0.3,0,0.5-0.1,0.8
				c-0.2,1.2,2.6,0.5,2.9-0.4c0.1-0.4,0.3-0.8,0.4-1.2c-1,0.1-1.9,0.2-2.9,0.4c-0.1,0.5-0.3,0.9-0.5,1.4c-0.4,1,2.4,0.5,2.8-0.1
				c0-0.1,0.1-0.1,0.1-0.2c-0.9,0-1.9,0.1-2.8,0.1c-0.1,1.6-1.1,3-2,4.3c-0.7,1.2,2.2,0.9,2.7,0.1c0.1-0.1,0.2-0.3,0.3-0.4
				c0.8-1.2-1.8-0.8-2.3-0.5c-0.9,0.6-1.1,1.6-1.9,2.4c-1.2,1.2,1.5,1.1,2.1,0.7c0.3-0.2,0.7-0.4,0.7-0.8c0-1.3-2.4-0.5-2.8,0.1
				c-0.2,0.3-0.4,0.6-0.7,0.9C127.3,112.5,130.2,112.3,130.8,111.5L130.8,111.5z"/>
		</g>
	</g>
	<g>
		<g>
			<path class="st4" d="M135.2,103.8c0-0.2,0.1-0.3,0.1-0.5c-1,0.1-1.9,0.3-2.9,0.4c-0.1,0.3-0.2,0.5-0.3,0.8c1-0.1,1.9-0.3,2.9-0.4
				c0.1-0.6,0.3-1.2,0.4-1.9c-1,0.2-1.9,0.4-2.9,0.6c0.1,0.5,0,1-0.3,1.4c-0.3,0.6,0.3,0.7,0.8,0.8c0.6,0,1.5-0.2,1.9-0.8
				c0.5-0.7,0.7-1.5,0.7-2.4c-1,0.3-1.9,0.5-2.9,0.8c0.2,1-0.4,1.7-0.8,2.5c-0.3,0.6,1,0.6,1.2,0.5c0.6-0.1,1.3-0.3,1.7-0.9
				c0.3-0.5,0.5-0.9,0.8-1.4c0.2-0.5,0.2-1,0.1-1.5c-0.1-0.9-3-0.2-2.9,0.8c0,0.6-0.1,1.1-0.5,1.6c0.9,0,1.8,0,2.7,0
				c0.4-0.7,0.6-1.4,0.5-2.2c-0.1-0.5-1.1-0.4-1.4-0.3c-0.4,0.1-1.4,0.4-1.5,0.9c-0.1,0.6-0.3,1.2-0.4,1.9c-0.1,0.6,0.9,0.6,1.2,0.5
				c0.6-0.1,1.4-0.3,1.7-0.9c0.1-0.3,0.2-0.5,0.3-0.8c0.2-0.6-0.9-0.6-1.2-0.5c-0.6,0.1-1.4,0.3-1.7,0.9c-0.1,0.3-0.2,0.6-0.2,0.9
				C132.3,105.4,135.2,104.8,135.2,103.8L135.2,103.8z"/>
		</g>
	</g>
	<g>
		<g>
			<path class="st4" d="M133.6,95.2c0,3-0.1,5.7-1,8.7c-0.4,1.3,2.6,0.9,2.9-0.3c0.9-2.9,1-5.6,1-8.7
				C136.6,93.5,133.6,94,133.6,95.2L133.6,95.2z"/>
		</g>
	</g>
	<g>
		<g>
			<path class="st4" d="M133.6,95.3c0.1,1,0,2-0.4,2.9c-0.2,0.4,1,0.2,1.1,0.2c0.4-0.1,1.5-0.3,1.7-0.8c0.4-1,0.6-2.1,0.5-3.1
				C136.4,94,133.5,94.6,133.6,95.3L133.6,95.3z"/>
		</g>
	</g>
	<g>
		<g>
			<path class="st4" d="M133.5,95.4c0.4,1.4,0.1,2.7-0.3,4.1c-0.3,1.3,2.6,0.9,2.9-0.3c0.4-1.5,0.7-3,0.2-4.6
				C136,93.4,133.1,94.2,133.5,95.4L133.5,95.4z"/>
		</g>
	</g>
	<g>
		<g>
			<path class="st4" d="M133.3,95.1c0,0.2,0.1,0.4,0.1,0.6c0.9-0.3,1.9-0.7,2.8-1c0-0.1,0-0.1-0.1,0c-0.3,0.3-0.6,0.6-0.9,0.9
				c0,0,0,0,0,0c-0.5,0.1-1,0.1-1.5,0.2c-0.2-0.2-0.3-0.2-0.2-0.1c0,0.1,0,0.2,0.1,0.3c0,0.2,0,0.4,0,0.6c0,0.4-0.1,0.8-0.1,1.2
				c-0.1,1.3,2.8,0.8,2.9-0.3c0.1-0.8,0.3-1.8,0.1-2.6c-0.3-1-1.6-1.1-2.4-0.7c-0.3,0.2-0.8,0.4-0.9,0.9c0,0.4,0.1,0.6,0.3,0.9
				c0.5,0.9,3.1,0.1,2.8-1c-0.1-0.2-0.1-0.4-0.1-0.6c-0.1-0.7-1.2-0.6-1.7-0.5C134,94,133.2,94.4,133.3,95.1L133.3,95.1z"/>
		</g>
	</g>
	<g>
		<g>
			<path class="st4" d="M132.7,103.1c-0.2,1.6-0.7,2.9-1.4,4.3c-0.3,0.5,1,0.4,1.2,0.4c0.5-0.1,1.4-0.3,1.7-0.8
				c0.7-1.4,1.2-2.7,1.4-4.3C135.7,101.8,132.8,102.3,132.7,103.1L132.7,103.1z"/>
		</g>
	</g>
	<g>
		<g>
			<path class="st4" d="M118.7,96.8c0.3,6.6,1.3,12.2,3.9,18.4c0.3,0.8,2.7,0,2.9-0.6c0.1-0.3,0.4-1.5,0.4-1.6
				c-0.4,0.3-0.9,0.5-1.3,0.8c2.1-0.4,3.4-1.7,4.4-3.5c-1,0.2-1.9,0.3-2.9,0.5c-0.2,0.9-0.5,1.7-1.1,2.4c1-0.2,1.9-0.3,2.9-0.5
				c0.1-0.2,0.2-0.4,0.3-0.6c0.4-0.7-2.3,0-2.6,0.1c-0.1,0.1-0.3,0.2-0.4,0.3c0.6,0,1.3-0.1,1.9-0.1c-1.1-0.8-2.4-5.4-2.5-6.6
				c-0.3-1.8-1.6-8.5,0.1-9.5c-0.8,0-1.5,0.1-2.3,0.1c0.5,3.2,1.5,6.2,1.9,9.4c0.2,1.9,0,4.7,1.5,6.2c0.4,0.4,1.5,0,1.9-0.1
				c1.8-0.7,2.6-1.7,2.3-3.5c-0.2-1.7-3.2-13.1-1.1-13.8c-0.5,0-1.1-0.1-1.6-0.1c0.4,2.4,0.8,4.7,1.2,7.1c0.4,2.2,1.3,5,0.4,7.1
				c-0.3,0.6,2.5,0.3,2.9-0.5c0.8-1.9,0.2-4-0.2-6c-0.4-2.8-0.9-5.7-1.4-8.5c-0.1-0.5-1.4-0.2-1.6-0.1c-1.2,0.4-1.9,0.6-3,1.3
				c-0.2,0.1-0.7,0.3-0.6,0.6c0.7,2.9,0.7,5.9,1.1,8.9c0.1,1.1,2,6.2,0.5,6.7c0.6,0,1.3-0.1,1.9-0.1c-1.6-1.7-1.2-5.3-1.5-7.4
				c-0.4-2.7-1.3-5.3-1.7-8c-0.1-0.7-2,0-2.3,0.1c-1.8,1.1-2.4,1.1-2.3,3.3c0.1,1.8,0.7,3.6,0.9,5.4c0.2,1.9,0.3,3.4,1,5.1
				c1.5,3.4,1.8,4.9,5.3,2.8c-0.9,0-1.7,0.1-2.6,0.1c-0.1,0.2-0.2,0.4-0.3,0.6c-0.3,0.5,2.4,0.3,2.9-0.5c0.6-0.7,0.9-1.5,1.1-2.4
				c0.2-0.8-2.5-0.1-2.9,0.5c-0.7,1.2-2.2,1.5-2.9,2.5c-0.5,0.7-0.3,1-0.6,1.9c1-0.2,1.9-0.4,2.9-0.6c-2.6-6.2-3.6-11.7-3.9-18.4
				C121.6,95.4,118.6,95.9,118.7,96.8L118.7,96.8z"/>
		</g>
	</g>
	<g>
		<g>
			<path class="st4" d="M133.1,103.9c0.3-3.7,0.7-7.4,1.5-11.1c0.2-1.1-2.5-0.2-2.8,0.2c-0.3,0.5-0.8,0.9-1.4,1.2
				c-0.3,0.1-1.1,0.5-0.9,0.9c0.3,0.9,0.5,1.7,0.5,2.6c0,0.8,2.8,0.2,2.9-0.6c0.1-1.3,0.1-2.5-0.4-3.7c-0.4-0.9-3.3,0-2.9,0.8
				c0.5,1.1,0.5,2.1,0.4,3.3c1-0.2,1.9-0.4,2.9-0.6c0-0.9-0.2-1.8-0.5-2.6c-0.3,0.3-0.6,0.6-0.9,0.9c1.2-0.5,2.2-1.1,3-2.2
				c-0.9,0.1-1.9,0.1-2.8,0.2c-0.7,3.7-1.2,7.4-1.5,11.1C130.1,105.4,133,104.8,133.1,103.9L133.1,103.9z"/>
		</g>
	</g>
	<g>
		<g>
			<path class="st4" d="M96.8,151.5c-0.1,1-0.3,2-0.1,3c0.1,0.8,0,1.6,0.2,2.3c0.3,1.2,2.4,0.7,2.8-0.2c0.1-0.3,0.2-0.5,0.3-0.8
				c0.2-0.9-1.2-1-1.7-0.9c-1.7,0.3-2.8,2.9-0.8,3.7c1.2,0.5,3.4-1.3,1.7-2c0.1,0.3,0.2,0.3,0.2,0.1c0.1-0.3-0.1-0.3-0.5,0.2
				c-0.6-0.3-1.2-0.6-1.7-0.9c0,0.1-0.1,0.2-0.1,0.3c0.9-0.1,1.9-0.1,2.8-0.2c-0.2-0.6,0-1.4-0.1-2c-0.1-0.9,0-1.8,0.1-2.7
				C99.9,149.8,97,150.2,96.8,151.5L96.8,151.5z"/>
		</g>
	</g>
	<g>
		<g>
			<path class="st4" d="M96.4,156c-0.1,1.9,0.3,3.3,1.1,5c0.9-0.3,1.9-0.6,2.8-0.9c-0.3-0.4-0.7-0.8-1-1.2c-0.6-0.7-2.9,0-2.8,0.9
				c0.2,2.4,1.2,4.7,2.3,6.8c0.9-0.3,1.9-0.6,2.8-0.9c-0.3-0.5-0.7-1-1.2-1.4c-0.5-0.6-3.2,0.1-2.8,0.9c0.6,1.2,1.3,2.1,2.3,3.1
				c0.5,0.5,3.2,0,2.8-0.9c-0.2-0.4-0.3-0.7-0.5-1.1c-0.4-0.8-2.8-0.3-2.9,0.6c0,0.4-0.1,0.8-0.1,1.2c0.9-0.2,1.9-0.5,2.8-0.7
				c-0.1-0.1-0.3-0.2-0.4-0.3c-0.7-0.5-3.5,0.1-2.7,1.1c0.5,0.7,1.1,1.4,1.7,2c0.6,0.7,2.8,0,2.8-0.9c0-0.2,0-0.4,0-0.6
				c-0.9,0.3-1.9,0.6-2.8,0.9c1,1.1,1.5,1.9,3.1,1.4c0.2-0.1,1.8-0.8,1.2-1.3c-0.6-0.4-1.2-0.9-1.8-1.3c-0.5-0.4-3.3,0-2.8,0.9
				c0.4,0.7,0.3,0.7,0.9,1.3c0.9-0.4,1.8-0.7,2.7-1.1c-1.1-0.9-2.6-0.7-3.6,0.4c-0.1,0.1-0.1,0.3-0.1,0.4c0.4,0.9,1.1,1.5,1.7,2.2
				c0.6,0.7,2.3,0.1,2.7-0.5c0.1-0.2,0.3-0.4,0.4-0.7c0.7-1.1-2.2-0.8-2.7,0c-0.1,0.2-0.3,0.4-0.4,0.7c0.9-0.2,1.8-0.4,2.7-0.5
				c-0.5-0.5-1-1.1-1.4-1.7c-0.6,0.3-1.3,0.5-1.9,0.8c0,0,0,0.1-0.1,0.1c0.7,0.6,3.5-0.4,2.7-1.1c-0.2-0.3-0.5-0.6-0.7-0.9
				c-0.9,0.3-1.9,0.6-2.8,0.9c0.6,0.4,1.2,0.9,1.8,1.3c0.4-0.4,0.8-0.8,1.2-1.3c-0.1,0-0.2,0-0.3,0.1c0.5,0,1,0.1,1.5,0.1
				c-0.5-0.4-0.9-0.9-1.3-1.4c-0.6-0.7-2.8,0-2.8,0.9c0,0.2,0,0.4,0,0.6c0.9-0.3,1.9-0.6,2.8-0.9c-0.6-0.7-1.1-1.3-1.7-2
				c-0.9,0.4-1.8,0.7-2.7,1.1c0.1,0.1,0.3,0.2,0.4,0.3c0.6,0.4,2.7,0.2,2.8-0.7c0-0.4,0.1-0.8,0.1-1.2c-1,0.2-1.9,0.4-2.9,0.6
				c0.2,0.4,0.3,0.7,0.5,1.1c0.9-0.3,1.9-0.6,2.8-0.9c-0.9-0.9-1.5-1.5-2.1-2.7c-0.9,0.3-1.9,0.6-2.8,0.9c0.5,0.4,0.8,0.9,1.2,1.4
				c0.5,0.7,3.2-0.1,2.8-0.9c-1-2.2-2-4.4-2.3-6.8c-0.9,0.3-1.9,0.6-2.8,0.9c0.3,0.4,0.7,0.8,1,1.2c0.5,0.6,3.2-0.1,2.8-0.9
				c-0.8-1.5-1.3-2.8-1.1-4.6C99.3,154.5,96.4,155.1,96.4,156L96.4,156z"/>
		</g>
	</g>
	<g>
		<g>
			<path class="st4" d="M105.5,170.7c0-0.1,0.1-0.2,0.1-0.2c-0.9,0.3-1.7,0.6-2.6,0.9c0,0,0.1,0,0.1,0c-0.1-0.1-0.2-0.2-0.3-0.3
				c0,0,0,0.1,0.1,0.1c0.3-0.3,0.6-0.6,0.9-1c-0.1,0-0.2,0.1-0.2,0.1c0.6,0.3,1.2,0.5,1.7,0.8c0.3-0.2,0.5-0.4,0.8-0.6
				c0.9-0.7-0.3-1.1-1-1c0,0-0.1,0-0.1,0c0.3,0,0.6,0.1,1,0.1c-1.1-0.4-3.2,0-3,1.5c0.1,0.9,2,0.2,2.3,0c0.7-0.4,2-0.8,1.9-1.7
				c0,0.1-0.1,0.3-0.1,0.4c0.3-0.4,0.7-0.6,1-1c-0.9,0-1.8,0-2.7,0c-0.5,0.9-1.2,1.7-2.2,2c0.5,0.2,1.1,0.3,1.6,0.5
				c-0.3,0.1-0.6,0.2-1,0.4c-0.2-0.3-0.3-0.5-0.5-0.8c-0.5,0.7-1.7,0.4-2.2,1.3c0.5-0.3,1-0.5,1.5-0.8c0,0,0,0-0.1,0
				c0.1,0.5,0.2,0.9,0.4,1.4C104.1,172.3,105.2,171.7,105.5,170.7c0.4-1-2.5-0.7-2.8,0.3c-0.1,0.4-0.4,0.5-0.8,0.7
				c-0.3,0.1-1,0.5-0.9,1c0.1,0.5,0.9,0.4,1.2,0.4c0.4-0.1,0.8-0.2,1.2-0.4c0.2-0.1,1-0.7,0.2-0.2c-0.4,0.1-0.7,0.2-1.1,0.4
				c1.4-0.2,2.7-0.7,3.5-1.9c0.3-0.4-0.1-0.7-0.5-0.8c-1.3-0.1-3.3,0-3.7,1.6c-0.2,0.8,1.3,0.6,1.6,0.5c1.9-0.6,3.6-1.7,4.5-3.4
				c0.3-0.6-0.3-0.8-0.8-0.8c-0.7,0-1.5,0.2-1.9,0.8c-0.4,0.5-1.2,0.8-1.1,1.6c0.1-0.2,0.2-0.4,0.3-0.6c-0.2,0.2-0.8,0.4-1.1,0.6
				c0.8,0,1.6,0,2.3,0c0,0,0,0,0-0.1c-0.4,0.2-0.8,0.5-1.2,0.7c0.1,0,0.1,0,0.2,0c-0.4,0-0.9,0-1.3,0c0.4,0.1,0.8,0.2,1.2,0.1
				c-0.3-0.3-0.6-0.7-1-1c-0.3,0.2-0.5,0.4-0.8,0.6c-0.4,0.3-0.4,0.7,0,0.9c0.5,0.3,1.3,0.1,1.7-0.1c0.1,0,0.2-0.1,0.2-0.1
				c0.2-0.1,1.1-0.6,0.9-1c-0.1-0.2-0.2-0.3-0.5-0.4c-0.8-0.3-2.2,0-2.6,0.9c0,0.1-0.1,0.2-0.1,0.2c-0.3,0.6,1,0.6,1.2,0.6
				C104.5,171.5,105.2,171.3,105.5,170.7L105.5,170.7z"/>
		</g>
	</g>
	<g>
		<g>
			<path class="st4" d="M101.2,152.4c0.4-0.1,0.9-0.2,1.3-0.3c0.9-0.2,2-1.4,0.4-1.4c-0.6,0-1.1,0-1.7,0.1c-0.3,0.5-0.5,1-0.8,1.5
				c5.5-0.9,10.5-2.8,15.3-5.7c-0.8,0-1.6,0-2.3,0c1.2,8.6-1.5,16.9-7.7,23.1c-0.8,0.8,2.1,0.6,2.7,0c6.3-6.4,9.2-15,7.9-23.9
				c-0.1-0.8-2-0.2-2.3,0c-4.1,2.5-8.4,4.1-13.1,4.9c-0.8,0.1-2.7,1.5-0.8,1.5c0.6,0,1.1,0,1.7-0.1c0.1-0.5,0.3-0.9,0.4-1.4
				c-0.4,0.1-0.9,0.2-1.3,0.3C99.1,151.5,99.4,152.8,101.2,152.4L101.2,152.4z"/>
		</g>
	</g>
	<g>
		<g>
			<path class="st4" d="M106.9,167.6c-0.3,0.4-0.6,0.8-1,1.1c-0.4,0.3-0.8,0.6-1.3,0.8c0.7,0.3,1.4,0.7,2,1c0.1-0.3,0.3-0.5,0.5-0.7
				c0.1-0.1,0.2-0.2,0.3-0.3c0,0,0.4-0.2,0.1-0.1c-0.3,0-0.5,0-0.8,0.1c0,0,0.1,0,0.1,0c-0.3-0.1-0.6-0.3-0.8-0.4c0,0,0,0,0.1,0.1
				c0-0.2-0.1-0.4-0.1-0.5c0.2-0.3,0.3-0.4,0.1-0.2c-0.1,0.1-0.2,0.1-0.3,0.2c-0.2,0.1-0.3,0.3-0.5,0.4c-0.3,0.3-0.7,0.6-1,0.8
				c-0.5,0.4-0.7,1.1-0.2,1.5c0.6,0.4,1.6,0.3,2.1-0.2c0.7-0.6,1.4-1.1,2.1-1.7c0.3-0.3,0.6-0.6,0.7-1.1c0-0.6-0.5-0.9-1-1
				c-0.9-0.1-1.8,0.4-2.5,0.9c-0.6,0.5-1.1,1.1-1.5,1.8c-0.2,0.4,0,0.9,0.4,1.1c0.5,0.2,1.2,0.2,1.6-0.1c1.3-0.7,2.5-1.5,3.4-2.8
				C110.4,167,107.7,166.6,106.9,167.6L106.9,167.6z"/>
		</g>
	</g>
	<g>
		<g>
			<path class="st4" d="M105.3,171.7c0.5-0.3,0.9-0.7,1.3-1.1c0.2-0.2,0.4-0.5,0.6-0.7c0.1-0.1,0.1-0.2,0.2-0.3
				c0.3-0.2,0.2-0.2-0.4,0.1c-0.4-0.2-0.8-0.5-1.3-0.7c-0.1,0.5-0.5,0.7-0.8,1c-0.1,0.1-0.4,0.3-0.5,0.5c0.6-0.2,0.6-0.3,0.2-0.2
				c-0.1,0-0.3,0.1-0.4,0.1c-0.5,0.1-1.5,0.3-1.6,1c-0.1,0.6,0.8,0.8,1.3,0.7c1.2-0.2,2.2-0.4,3.1-1.2c0.7-0.6,1.5-1.2,1.7-2.2
				c0.1-0.7-0.9-0.7-1.3-0.7c-1,0.1-1.8,0.5-2.5,1.3c-0.5,0.5-0.8,1.2-1.4,1.6c-0.4,0.3-0.8,0.9-0.2,1.2
				C103.8,172.3,104.8,172.1,105.3,171.7L105.3,171.7z"/>
		</g>
	</g>
	<g>
		<g>
			<path class="st4" d="M110.8,166.7c0.2-0.3,0.4-0.6,0.7-0.9c-0.9,0-1.9,0-2.8,0c0,0,0,0.1,0,0.1c0.2-0.2,0.3-0.5,0.5-0.7
				c0,0-0.1,0-0.1,0.1c0.7,0.3,1.4,0.6,2.1,1c0.4-0.4,1.2-1.8,1.4-1.9c-0.8-0.2-1.5-0.5-2.3-0.7c-0.1,0.1-0.2,0.3-0.3,0.4
				c0.9,0.1,1.8,0.2,2.7,0.2c0.9-1.5,2.1-3,2.2-4.8c0.1-1.5-2.4-0.8-2.8,0c0,0.1-0.1,0.1-0.1,0.2c0.9,0.1,1.8,0.2,2.7,0.2
				c0.2-0.5,0.4-1.1,0.6-1.6c0.4-1.3-2.6-0.8-2.9,0.3c-0.1,0.4-0.3,0.8-0.4,1.2c1-0.1,1.9-0.2,2.9-0.3c0.1-0.3,0.1-0.5,0.1-0.8
				c0-1.5-2.6-0.8-2.9,0.3c-0.1,0.3-0.2,0.6-0.2,0.9c-0.1,0.7,0.8,0.9,1.3,0.8c1.1-0.2,2-0.6,2.1-1.9c0.1-1.4-2.7-0.9-2.9,0.3
				c0,0.3-0.1,0.6-0.3,0.8c0.9,0.1,1.8,0.2,2.7,0.2c0.1-0.2,0.2-0.4,0.3-0.6c-0.9,0-1.9,0-2.8,0c-0.1,0.4-0.2,0.7-0.5,1
				c-0.8,1.3,2.1,1.2,2.7,0.2c0.3-0.5,0.5-1,0.6-1.5c0.3-1.3-2.4-0.8-2.8,0c-0.1,0.2-0.2,0.4-0.3,0.6c-0.7,1.5,2.2,1.2,2.7,0.2
				c0.2-0.4,0.4-0.8,0.5-1.3c-1,0.1-1.9,0.2-2.9,0.3c0,0.1,0,0.1,0.1,0.2c0.4-0.2,0.9-0.4,1.3-0.6c-0.1,0-0.2,0-0.2,0
				c0.4,0.3,0.9,0.6,1.3,0.8c0-0.3,0.1-0.6,0.2-0.9c-1,0.1-1.9,0.2-2.9,0.3c0,0.3,0,0.5-0.1,0.8c-0.2,1.5,2.6,0.8,2.9-0.3
				c0.1-0.4,0.3-0.8,0.4-1.2c-1,0.1-1.9,0.2-2.9,0.3c-0.1,0.4-0.2,0.8-0.4,1.1c-0.7,1.5,2.2,1.2,2.7,0.2c0-0.1,0.1-0.1,0.1-0.2
				c-0.9,0-1.9,0-2.8,0c-0.1,1.6-1.2,3-2,4.3c-0.8,1.3,2.1,1.2,2.7,0.2c0.1-0.1,0.2-0.3,0.3-0.4c0.8-1.3-1.8-1.1-2.3-0.7
				c-0.8,0.6-1.1,1.6-1.9,2.4c-0.4,0.4-0.3,0.9,0.2,1.2c0.6,0.3,1.4,0.1,1.9-0.3c0.3-0.2,0.6-0.5,0.6-0.9c0-1.5-2.3-0.7-2.8,0
				c-0.2,0.3-0.4,0.6-0.7,0.9c-0.4,0.6,0.4,1,0.9,1.1C109.6,167.7,110.4,167.3,110.8,166.7L110.8,166.7z"/>
		</g>
	</g>
	<g>
		<g>
			<path class="st4" d="M115.2,158.9c0-0.2,0-0.4,0.1-0.6c-1,0.2-1.9,0.3-2.9,0.5c-0.1,0.3-0.2,0.5-0.3,0.8c1-0.2,1.9-0.3,2.9-0.5
				c0.1-0.6,0.3-1.2,0.4-1.9c-1,0.2-1.9,0.4-2.9,0.6c0.1,0.6,0,1.1-0.3,1.7c-0.3,0.4,1,0.3,1.2,0.3c0.6-0.1,1.3-0.3,1.7-0.8
				c0.4-0.6,0.6-1.3,0.6-2.1c-1,0.3-1.9,0.5-2.9,0.8c0.1,0.5,0.1,0.9-0.2,1.3c-0.2,0.4-0.5,0.9-0.7,1.3c-0.2,0.5,1,0.3,1.2,0.3
				c0.5-0.1,1.4-0.3,1.7-0.8c0.5-1,1-1.7,0.9-2.9c-0.1-0.6-2.9,0-2.9,0.8c0,0.7-0.1,1.3-0.5,1.8c1-0.2,1.9-0.3,2.9-0.5
				c0.4-0.6,0.5-1.3,0.4-1.9c-0.1-0.6-2.8,0.1-2.9,0.6c-0.1,0.6-0.3,1.2-0.4,1.9c-0.1,0.7,2.6,0.1,2.9-0.5c0.1-0.3,0.2-0.5,0.3-0.8
				c0.2-0.6-2.6-0.1-2.9,0.5c-0.1,0.3-0.2,0.5-0.2,0.8C112.3,160.2,115.2,159.7,115.2,158.9L115.2,158.9z"/>
		</g>
	</g>
	<g>
		<g>
			<path class="st4" d="M113.7,150.6c0,3-0.1,5.7-1,8.5c-0.2,0.7,2.6,0.3,2.9-0.5c0.9-3,1-5.7,1-8.8
				C116.6,149.3,113.7,149.7,113.7,150.6L113.7,150.6z"/>
		</g>
	</g>
	<g>
		<g>
			<path class="st4" d="M113.6,150.4c0.1,1,0,1.9-0.4,2.8c-0.3,0.6,1,0.6,1.2,0.5c0.6-0.1,1.4-0.3,1.7-0.9c0.4-1,0.6-2.1,0.4-3.2
				C116.4,148.8,113.5,149.4,113.6,150.4L113.6,150.4z"/>
		</g>
	</g>
	<g>
		<g>
			<path class="st4" d="M113.5,150.5c0.4,1.4,0.1,2.7-0.3,4.1c-0.3,1.3,2.6,0.9,2.9-0.3c0.4-1.5,0.7-3,0.2-4.6
				C116,148.5,113.1,149.3,113.5,150.5L113.5,150.5z"/>
		</g>
	</g>
	<g>
		<g>
			<path class="st4" d="M113.3,150.2c0,0.2,0.1,0.4,0.1,0.6c1-0.3,1.9-0.5,2.9-0.8c-0.1-0.1-0.2-0.3-0.2-0.5
				c-0.2,0.2-0.4,0.4-0.6,0.6c0,0,0,0,0,0c-0.7,0.1-1.4,0.2-2,0.4c0.2,0,0.1,1,0.1,1.1c0,0.5-0.1,1-0.2,1.4c0,0.4,2.8,0.1,2.9-0.8
				c0.1-0.7,0.4-1.8,0.1-2.5c-0.4-0.9-2-0.4-2.6-0.1C113.7,149.8,113.3,150,113.3,150.2c-0.1,0.3,0,0.4,0.1,0.6
				c0.4,0.6,3.1-0.1,2.9-0.8c-0.1-0.2-0.1-0.4-0.1-0.6C116.2,148.9,113.2,149.5,113.3,150.2L113.3,150.2z"/>
		</g>
	</g>
	<g>
		<g>
			<path class="st4" d="M112.7,158.1c-0.2,1.5-0.7,2.7-1.4,4c-0.3,0.6,0.3,1.1,0.9,1.2c0.7,0.1,1.6-0.2,1.9-0.9
				c0.8-1.5,1.3-2.9,1.5-4.5C115.9,156.4,112.9,156.8,112.7,158.1L112.7,158.1z"/>
		</g>
	</g>
	<g>
		<g>
			<path class="st4" d="M98.7,151.9c0.3,6.6,1.3,12.2,3.9,18.4c0.4,0.9,2.6,0.1,2.9-0.6c0.1-0.4,0.3-1.4,0.4-1.6
				c-0.4,0.3-0.9,0.5-1.3,0.8c2.1-0.5,3.4-1.7,4.4-3.5c-1,0.1-1.9,0.3-2.9,0.4c-0.3,0.7-0.6,1.5-1,2.2c0.9,0,1.8,0,2.7-0.1
				c0.1-0.2,0.2-0.4,0.3-0.6c0.7-1.1-1.8-0.5-2.2-0.3c-0.2,0.1-0.5,0.3-0.7,0.4c0.6,0,1.3,0,1.9-0.1c-1.1-0.8-2.4-5.3-2.5-6.6
				c-0.3-1.8-1.6-8.4,0.1-9.4c-0.8,0-1.5,0-2.3,0.1c0.5,3.2,1.5,6.2,1.9,9.4c0.2,1.9,0,4.7,1.5,6.2c0.4,0.4,1.5,0.1,1.9-0.1
				c1.9-0.7,2.6-1.8,2.3-3.6c-0.3-1.7-3.2-13-1.1-13.7c-0.5-0.1-1.1-0.1-1.6-0.2c0.4,2.4,0.8,4.7,1.2,7.1c0.4,2.2,1.3,5,0.4,7.1
				c-0.3,0.7,2.5,0.4,2.9-0.4c0.8-1.9,0.1-4.1-0.2-6c-0.4-2.8-0.9-5.7-1.4-8.5c-0.1-0.5-1.4-0.3-1.6-0.2c-1.2,0.4-1.9,0.7-3,1.3
				c-0.2,0.1-0.7,0.4-0.6,0.7c0.4,1.6,2.8,15.1,1.6,15.5c0.6,0,1.3,0,1.9-0.1c-1.6-1.7-1.2-5.3-1.5-7.4c-0.4-2.7-1.3-5.3-1.7-8
				c-0.1-0.8-2-0.1-2.3,0.1c-1.9,1.1-2.4,1.1-2.2,3.3c0.1,1.8,0.7,3.6,0.9,5.4c0.1,1.6,0.2,3.1,0.8,4.6c1.4,3.2,1.7,5.7,5.3,3.6
				c-0.7-0.1-1.5-0.2-2.2-0.3c-0.1,0.2-0.2,0.4-0.3,0.6c-0.6,1,2.2,0.7,2.7-0.1c0.8-1.4,0.7-1,1.2-2.6c0.3-1-2.5-0.2-2.9,0.4
				c-0.7,1.2-2.2,1.5-2.9,2.4c-0.5,0.7-0.3,1.1-0.6,1.9c1-0.2,1.9-0.4,2.9-0.6c-2.6-6.2-3.6-11.7-3.9-18.4
				C101.6,150.4,98.6,150.9,98.7,151.9L98.7,151.9z"/>
		</g>
	</g>
	<g>
		<g>
			<path class="st4" d="M113.1,159.1c0.3-3.7,0.7-7.4,1.5-11.1c0.3-1.4-2.4-0.5-2.8,0c-0.3,0.5-0.8,0.9-1.4,1.1
				c-0.4,0.1-1,0.6-0.8,1.1c0.3,0.8,0.5,1.5,0.5,2.4c0,1.4,2.8,0.8,2.9-0.3c0.1-1.3,0.1-2.5-0.4-3.8c-0.5-1.1-3.4-0.3-2.9,0.8
				c0.5,1.1,0.5,2.1,0.4,3.3c1-0.1,1.9-0.2,2.9-0.3c0-1-0.1-1.9-0.5-2.9c-0.3,0.4-0.6,0.7-0.8,1.1c1.3-0.5,2.2-1.2,2.9-2.3
				c-0.9,0-1.9,0-2.8,0c-0.7,3.7-1.2,7.4-1.5,11.1C110.1,160.8,113,160.3,113.1,159.1L113.1,159.1z"/>
		</g>
	</g>
	<g>
		<g>
			<path class="st4" d="M147.7,186.4c-0.1,0.9-0.3,2-0.1,2.9c0.1,0.8,0,1.6,0.2,2.3c0.3,1,2.5,0.4,2.8-0.3c0.1-0.3,0.2-0.5,0.3-0.8
				c0.2-0.9-1.2-0.7-1.7-0.6c-0.8,0.2-1.5,0.6-1.8,1.4c-0.2,0.7-0.1,1.5,0.6,1.8c0.7,0.3,1.5,0.2,2.1-0.2c0.3-0.2,0.9-1,0.2-1.2
				c-0.1-0.2-0.1-0.4,0-0.6c-0.3,0.2-0.6,0.3-1,0.5c0.1,0,0.2,0,0.3-0.1c-0.6-0.2-1.1-0.4-1.7-0.6c0,0.1-0.1,0.2-0.1,0.3
				c0.9-0.1,1.9-0.2,2.8-0.3c-0.2-0.6,0-1.4-0.1-2c-0.1-0.9,0-1.8,0.1-2.7C150.7,184.8,147.8,185.3,147.7,186.4L147.7,186.4z"/>
		</g>
	</g>
	<g>
		<g>
			<path class="st4" d="M147.2,190.8c-0.1,1.9,0.3,3.3,1.1,5c0.9-0.3,1.9-0.6,2.8-0.9c-0.3-0.4-0.7-0.8-1-1.2
				c-0.5-0.6-2.9,0-2.8,0.9c0.2,2.4,1.2,4.7,2.3,6.8c0.9-0.3,1.9-0.6,2.8-0.9c-0.3-0.5-0.7-1-1.2-1.4c-0.5-0.5-3.2,0.2-2.8,0.9
				c0.6,1.2,1.3,2.1,2.3,3c0.5,0.5,3.2-0.1,2.8-0.9c-0.2-0.4-0.3-0.7-0.5-1.1c-0.4-0.8-2.8-0.2-2.9,0.6c0,0.4-0.1,0.8-0.1,1.2
				c0.9-0.2,1.9-0.5,2.8-0.7c-0.1-0.1-0.3-0.2-0.4-0.3c-0.6-0.5-3.4,0.2-2.7,1.1c0.5,0.7,1.1,1.4,1.7,2c0.6,0.6,2.8,0,2.8-0.9
				c0-0.2,0-0.4,0-0.6c-0.9,0.3-1.9,0.6-2.8,0.9c1,1.2,1.5,1.8,3.1,1.4c0.2,0,1.8-0.7,1.2-1.2c-0.6-0.4-1.2-0.9-1.8-1.3
				c-0.5-0.4-3.2,0.1-2.8,0.9c0.4,0.7,0.3,0.7,0.9,1.3c0.9-0.4,1.8-0.7,2.7-1.1c-1.1-0.9-2.7-0.7-3.6,0.4c-0.1,0.1-0.1,0.2-0.1,0.4
				c0.4,0.9,1.1,1.5,1.7,2.2c0.5,0.6,2.3,0,2.7-0.6c0.1-0.2,0.3-0.4,0.4-0.7c0.7-1-2.2-0.7-2.7,0c-0.1,0.2-0.3,0.4-0.4,0.7
				c0.9-0.2,1.8-0.4,2.7-0.6c-0.5-0.6-1-1.1-1.4-1.7c-0.6,0.3-1.3,0.5-1.9,0.8c0,0.1,0,0.1,0,0.2c0.7,0.6,3.4-0.4,2.7-1.1
				c-0.2-0.3-0.5-0.6-0.7-0.9c-0.9,0.3-1.9,0.6-2.8,0.9c0.6,0.4,1.2,0.9,1.8,1.3c0.4-0.4,0.8-0.8,1.2-1.2c-0.1,0-0.2,0-0.3,0.1
				c0.5,0,1,0.1,1.5,0.1c-0.5-0.4-0.9-0.9-1.3-1.4c-0.5-0.6-2.8,0-2.8,0.9c0,0.2,0,0.4,0,0.6c0.9-0.3,1.9-0.6,2.8-0.9
				c-0.6-0.7-1.1-1.3-1.7-2c-0.9,0.4-1.8,0.7-2.7,1.1c0.1,0.1,0.3,0.2,0.4,0.3c0.6,0.4,2.7,0.1,2.8-0.7c0-0.4,0.1-0.8,0.1-1.2
				c-1,0.2-1.9,0.4-2.9,0.6c0.2,0.4,0.3,0.7,0.5,1.1c0.9-0.3,1.9-0.6,2.8-0.9c-0.9-0.9-1.5-1.5-2.1-2.7c-0.9,0.3-1.9,0.6-2.8,0.9
				c0.5,0.4,0.8,0.9,1.2,1.4c0.5,0.6,3.2-0.2,2.8-0.9c-1-2.2-2-4.4-2.3-6.8c-0.9,0.3-1.9,0.6-2.8,0.9c0.3,0.4,0.7,0.8,1,1.2
				c0.5,0.6,3.2-0.2,2.8-0.9c-0.8-1.5-1.3-2.8-1.1-4.6C150.2,189.3,147.3,189.9,147.2,190.8L147.2,190.8z"/>
		</g>
	</g>
	<g>
		<g>
			<path class="st4" d="M156.3,205.7c0-0.1,0.1-0.2,0.1-0.2c-0.8,0.2-1.7,0.4-2.5,0.7c0,0,0,0,0,0c0.3-0.4,0.5-0.8,0.8-1.2
				c-0.1,0-0.2,0.1-0.2,0.1c0.6,0.3,1.2,0.6,1.7,0.9c0.3-0.2,0.5-0.4,0.8-0.6c0.9-0.7-0.3-1.2-1-1.1c0,0-0.1,0-0.1,0
				c0.3,0,0.6,0.1,1,0.1c-1.1-0.4-3.2,0-3,1.6c0.1,0.9,2,0.3,2.4,0.1c0.7-0.4,2-0.8,1.9-1.8c0,0.1-0.1,0.3-0.1,0.4
				c-0.3,0.4,0.4-0.3,0.4-0.3c0.2-0.2,0.4-0.5,0.6-0.7c-0.9,0-1.8-0.1-2.7-0.1c-0.5,0.9-1.2,1.7-2.2,2c0.6,0.2,1.1,0.4,1.7,0.6
				c-1,0.3-1.2,0.4-0.6,0.4c-0.3-0.3-0.5-0.6-0.8-0.9c-0.3,0.4-0.5,0.3-1,0.4c-0.5,0.2-0.9,0.4-1.1,0.9c0.5-0.3,1-0.5,1.5-0.8
				c0,0,0,0-0.1,0c0.1,0.5,0.3,1,0.4,1.5c1.1-0.5,2.1-1,2.5-2.2c0.3-1-2.6-0.7-2.9,0.3c-0.1,0.4-0.4,0.5-0.8,0.6
				c-0.3,0.1-1,0.5-0.9,1c0.1,0.5,0.9,0.5,1.3,0.4c0.4-0.1,0.8-0.2,1.2-0.4c0.2-0.1,1-0.7,0.2-0.2c-0.4,0.1-0.7,0.3-1.1,0.4
				c1.4-0.2,2.6-0.7,3.5-1.9c0.4-0.6-0.4-0.8-0.8-0.9c-1.2-0.1-3,0.2-3.4,1.6c-0.2,0.8,1.3,0.7,1.7,0.6c1.9-0.6,3.5-1.7,4.5-3.4
				c0.3-0.6-0.3-0.9-0.8-0.9c-0.7,0-1.5,0.3-1.9,0.8c-0.4,0.6-1.2,0.8-1.1,1.6c0.1-0.2,0.2-0.4,0.3-0.6c-0.2,0.2-0.8,0.4-1.1,0.6
				c0.8,0,1.6,0,2.4,0.1c0,0,0,0,0,0c-0.4,0.2-0.8,0.5-1.2,0.7c0.1,0,0.1,0,0.2,0c-0.5,0-0.9,0-1.4,0c0.4,0.2,0.8,0.2,1.3,0.1
				c-0.3-0.4-0.7-0.7-1-1.1c-0.3,0.2-0.5,0.4-0.8,0.6c-0.4,0.3-0.4,0.7,0,1c0.5,0.3,1.3,0.1,1.7-0.1c0.1,0,0.2-0.1,0.2-0.1
				c0.5-0.2,1.1-0.6,0.8-1.2c-0.1-0.1-0.2-0.2-0.4-0.3c-0.7-0.3-2.1-0.1-2.5,0.7c0,0.1-0.1,0.2-0.1,0.2
				C153,206.9,155.9,206.6,156.3,205.7L156.3,205.7z"/>
		</g>
	</g>
	<g>
		<g>
			<path class="st4" d="M152.1,187.5c0.4-0.1,0.9-0.2,1.3-0.3c1.5-0.3,1.6-1.9-0.1-1.9c-0.6,0-1.1,0-1.7,0.1c-0.1,0.7-0.2,1.3-0.3,2
				c5.5-0.9,10.5-2.8,15.3-5.7c-0.8-0.1-1.6-0.1-2.4-0.2c1.2,8.5-1.5,16.6-7.5,22.7c-1.3,1.3,1.6,1.6,2.4,0.7
				c6.4-6.5,9.3-15.2,8.1-24.2c-0.1-1-1.9-0.5-2.4-0.2c-4.1,2.5-8.4,4.1-13.1,4.9c-1.5,0.3-2.4,2-0.3,2c0.6,0,1.1,0,1.7-0.1
				c0-0.6-0.1-1.3-0.1-1.9c-0.4,0.1-0.9,0.2-1.3,0.3C149.8,186.1,150.3,187.9,152.1,187.5L152.1,187.5z"/>
		</g>
	</g>
	<g>
		<g>
			<path class="st4" d="M157.6,202.8c-0.6,0.9-1.4,1.4-2.4,1.9c0.8,0.2,1.5,0.4,2.3,0.6c0.2-0.3,0.3-0.6,0.6-0.8
				c0.1-0.1,0.7-0.5,0.3-0.3c-0.3,0-0.5,0.1-0.8,0.1c0,0,0.1,0,0.1,0c-0.3-0.1-0.5-0.2-0.8-0.3c0,0,0,0,0.1,0.1
				c0-0.1-0.1-0.3-0.1-0.4c0.2-0.2,0.2-0.2,0,0c-0.1,0-0.1,0.1-0.2,0.1c-0.2,0.2-0.4,0.3-0.6,0.5c-0.4,0.3-0.8,0.6-1.1,0.9
				c-0.5,0.4-0.3,1,0.3,1.1c0.7,0.2,1.5-0.1,2-0.5c0.7-0.6,1.5-1.1,2.1-1.7c0.2-0.2,0.5-0.5,0.4-0.9c0-0.5-0.6-0.7-1-0.7
				c-1.6-0.1-3.3,1.4-4,2.7c-0.3,0.4,0,0.8,0.5,0.9c0.6,0.2,1.3-0.1,1.8-0.3c1.3-0.7,2.4-1.5,3.3-2.8c0.4-0.6-0.3-0.9-0.8-1
				C158.8,201.9,158,202.2,157.6,202.8L157.6,202.8z"/>
		</g>
	</g>
	<g>
		<g>
			<path class="st4" d="M156.4,206c0.5-0.3,0.9-0.6,1.2-1.1c0.2-0.2,0.3-0.4,0.5-0.7c0.1-0.1,0.2-0.3,0.3-0.4c0.4-0.4,0.1-0.3-1,0.2
				c-0.3-0.1-0.5-0.2-0.8-0.3c-0.1,0.6-0.5,0.9-1,1.3c-0.3,0.3-0.8,0.6,0,0.3c1-0.4-0.1,0-0.4,0c-0.4,0.1-1.6,0.3-1.7,0.8
				c-0.1,0.5,1,0.3,1.2,0.3c1.1-0.2,2.3-0.4,3.2-1.2c0.6-0.5,1.5-1.1,1.6-2c0.1-0.4-0.6-0.3-0.8-0.3c-1,0.1-2.2,0.4-2.9,1.2
				c-0.6,0.6-0.9,1.3-1.6,1.8c-0.4,0.3-0.4,0.6,0.2,0.6C155,206.6,155.8,206.4,156.4,206L156.4,206z"/>
		</g>
	</g>
	<g>
		<g>
			<path class="st4" d="M161.5,201.8c0.2-0.3,0.4-0.6,0.7-0.9c-0.9-0.1-1.8-0.3-2.7-0.4c0,0,0,0.1,0,0.1c0.3-0.3,0.5-0.7,0.8-1
				c0,0-0.1,0-0.1,0.1c0.6,0.5,1.3,0.9,1.9,1.4c0.4-0.4,0.7-0.8,1-1.3c0.1-0.1,0.7-0.9,0.3-0.7c-0.7-0.4-1.5-0.8-2.2-1.2
				c-0.1,0.1-0.2,0.3-0.3,0.4c0.8,0.3,1.6,0.6,2.5,1c1-1.6,2.2-3.2,2.3-5.1c0.1-1.6-2.3-1-2.9-0.1c0,0.1-0.1,0.1-0.1,0.2
				c0.9,0.1,1.9,0.3,2.8,0.4c0.2-0.5,0.3-0.9,0.5-1.4c0.5-1.7-2.4-1.7-2.8-0.4c-0.1,0.4-0.3,0.8-0.4,1.2c1,0,1.9,0.1,2.9,0.1
				c0.1-0.3,0.1-0.5,0.1-0.8c0-1.4-2.5-1.3-2.9-0.1c-0.1,0.4-0.2,0.8-0.3,1.2c-0.1,1,1.1,1.1,1.8,1c1.1-0.2,1.6-0.9,1.6-1.9
				c0.1-1.6-2.7-1.1-2.9,0.2c-0.1,0.3-0.2,0.5-0.3,0.8c0.9,0.1,1.9,0.3,2.8,0.4c0.1-0.2,0.2-0.4,0.3-0.6c-1,0-1.9-0.1-2.9-0.1
				c-0.1,0.2-0.2,0.5-0.3,0.7c-1,1.6,1.7,2.2,2.5,1c0.4-0.6,0.6-1.1,0.8-1.8c0.4-1.5-2.4-1.1-2.9-0.1c-0.1,0.2-0.2,0.4-0.3,0.6
				c-0.7,1.6,2.1,1.5,2.8,0.4c0.3-0.4,0.4-0.9,0.5-1.4c-1,0.1-2,0.1-2.9,0.2c0,0,0,0.1,0,0.1c0.3-0.2,0.6-0.4,0.9-0.6
				c-0.1,0-0.2,0-0.2,0c0.6,0.3,1.2,0.6,1.8,1c0-0.2,0.1-0.4,0.1-0.6c-1,0-1.9-0.1-2.9-0.1c0,0.3,0,0.5-0.1,0.8
				c-0.2,1.5,2.5,1.2,2.9,0.1c0.1-0.4,0.3-0.8,0.4-1.2c-0.9-0.1-1.9-0.3-2.8-0.4c-0.1,0.5-0.3,0.9-0.5,1.4c-0.7,1.6,2.1,1.5,2.8,0.4
				c0-0.1,0.1-0.1,0.1-0.2c-1,0-1.9-0.1-2.9-0.1c-0.1,1.5-1.1,2.7-1.8,4c-1,1.6,1.7,2.1,2.5,1c0.1-0.1,0.2-0.3,0.3-0.4
				c1-1.5-1.2-1.9-2.2-1.2c-0.8,0.6-1.1,1.7-1.9,2.4c-1.1,1.1,1,1.9,1.9,1.4c0.5-0.3,0.9-0.6,0.9-1.2c0-1.4-2.1-1.2-2.7-0.4
				c-0.2,0.3-0.4,0.6-0.7,0.9C158,202.4,160.7,203,161.5,201.8L161.5,201.8z"/>
		</g>
	</g>
	<g>
		<g>
			<path class="st4" d="M166.1,193.9c0-0.2,0-0.3,0.1-0.5c-0.9,0-1.9,0-2.8,0.1c-0.1,0.2-0.1,0.4-0.2,0.5c0.9,0,1.9,0,2.8-0.1
				c0.1-0.6,0.3-1.2,0.4-1.9c-1,0.2-1.9,0.4-2.9,0.5c0.1,0.5,0,0.9-0.3,1.3c-0.4,0.6,0.3,1,0.8,1c0.7,0.1,1.5-0.3,1.9-0.8
				c0.5-0.7,0.7-1.6,0.7-2.5c-1,0.3-1.9,0.5-2.9,0.8c0.1,0.9-0.4,1.5-0.8,2.2c-0.3,0.6,0.3,1,0.8,1c0.6,0,1.6-0.2,1.9-0.8
				c0.3-0.5,0.6-1,0.8-1.5c0.2-0.6,0.2-1.1,0.1-1.7c-0.1-0.7-1.2-0.6-1.7-0.5c-0.6,0.2-1.3,0.6-1.2,1.2c0,0.6-0.2,1.1-0.5,1.5
				c0.9,0.1,1.8,0.1,2.7,0.2c0.4-0.7,0.6-1.5,0.4-2.3c-0.1-0.6-1.1-0.6-1.5-0.5c-0.5,0.1-1.3,0.4-1.4,1c-0.1,0.6-0.3,1.2-0.4,1.9
				c-0.3,1.3,2.5,0.8,2.8-0.1c0.1-0.3,0.3-0.7,0.4-1c0.2-0.6-0.7-0.8-1.1-0.8c-0.6,0-1.4,0.3-1.7,0.8c-0.2,0.3-0.3,0.6-0.2,0.9
				c0,0.7,0.7,0.8,1.3,0.8C164.9,195,166.1,194.6,166.1,193.9L166.1,193.9z"/>
		</g>
	</g>
	<g>
		<g>
			<path class="st4" d="M164.5,185.4c0,3-0.1,5.7-1,8.5c-0.1,0.5,2.6,0.2,2.9-0.5c0.9-3,1-5.7,1-8.8
				C167.4,184.2,164.5,184.6,164.5,185.4L164.5,185.4z"/>
		</g>
	</g>
	<g>
		<g>
			<path class="st4" d="M164.4,185.2c0.1,1,0,1.9-0.4,2.8c-0.3,0.6,1,0.6,1.2,0.6c0.6-0.1,1.4-0.4,1.7-1c0.4-1,0.6-2.1,0.4-3.2
				C167.2,183.5,164.3,184.1,164.4,185.2L164.4,185.2z"/>
		</g>
	</g>
	<g>
		<g>
			<path class="st4" d="M164.4,185.3c0.4,1.4,0.1,2.7-0.2,4.1c-0.3,1.2,2.6,0.8,2.9-0.3c0.4-1.5,0.7-3,0.2-4.6
				C166.9,183.4,164,184.2,164.4,185.3L164.4,185.3z"/>
		</g>
	</g>
	<g>
		<g>
			<path class="st4" d="M164.2,185c0,0.2,0.1,0.4,0.1,0.6c0.9-0.3,1.9-0.7,2.8-1c0-0.1,0,0,0,0c-0.3,0.3-0.6,0.6-0.8,1c0,0,0,0,0,0
				c-0.5,0-1,0.1-1.5,0.1c-0.2-0.3-0.3-0.4-0.3-0.2c0,0.1,0,0.1,0,0.2c0,0.2,0,0.4,0,0.6c0,0.4-0.1,0.8-0.1,1.2
				c-0.2,1.5,2.8,1.1,2.9-0.2c0.1-0.8,0.3-1.8,0.1-2.6c-0.3-1.1-1.6-1.3-2.5-0.9c-0.3,0.2-0.8,0.5-0.8,1c0,0.4,0.1,0.7,0.3,1
				c0.6,1,3.1,0.2,2.8-1c-0.1-0.2-0.1-0.4-0.1-0.6c-0.1-0.7-1.2-0.7-1.7-0.6C164.8,183.8,164.1,184.3,164.2,185L164.2,185z"/>
		</g>
	</g>
	<g>
		<g>
			<path class="st4" d="M163.6,192.9c-0.2,1.5-0.7,2.7-1.4,4c-0.3,0.6,0.3,1.1,0.9,1.2c0.7,0.1,1.6-0.2,1.9-0.9
				c0.8-1.5,1.3-2.9,1.5-4.5C166.7,191.2,163.8,191.6,163.6,192.9L163.6,192.9z"/>
		</g>
	</g>
	<g>
		<g>
			<path class="st4" d="M149.6,186.7c0.3,6.6,1.3,12.2,3.9,18.4c0.5,1.2,2.6,0.3,2.9-0.5c0.2-0.6-0.1-0.7,0-0.8
				c0.2-0.2,0.8-0.2,1-0.5c1-1,1.8-1.6,2.5-2.8c-0.9,0-1.9,0-2.8,0.1c-0.3,0.7-0.7,1.4-1,2.2c0.9,0.1,1.8,0.1,2.7,0.2
				c0.1-0.2,0.2-0.4,0.3-0.6c0.8-1.3-1.8-0.9-2.3-0.6c-0.2,0.1-0.5,0.3-0.7,0.4c0.6,0,1.2,0,1.7-0.1c-1-0.7-2.2-5.5-2.3-6.4
				c-0.2-1.4-0.1-2.8-0.3-4.1c-0.3-2.1-1.7-3.8,0.4-5.1c-0.8,0-1.6-0.1-2.4-0.1c0.5,3.2,1.5,6.2,1.9,9.4c0.2,1.9,0,4.8,1.5,6.3
				c0.5,0.5,1.4,0.3,1.9,0.1c1.9-0.7,2.5-2,2.2-3.8c-0.3-1.7-3.1-12.8-1-13.4c-0.6-0.1-1.1-0.3-1.7-0.4c0.3,2.1,0.7,4.2,1,6.4
				c0.3,2.1,1.4,5.6,0.6,7.5c-0.6,1.4,2.3,1.2,2.7,0.2c0.8-1.9,0.3-3.7,0-5.6c-0.5-3.1-1-6.1-1.5-9.2c-0.1-0.6-1.3-0.6-1.7-0.4
				c-1.2,0.4-1.9,0.7-3,1.3c-0.3,0.2-0.6,0.5-0.5,0.9c0.4,1.7,2.8,14.8,1.6,15.3c0.6,0,1.3,0.1,1.9,0.1c-1.6-1.7-1.1-5.2-1.5-7.3
				c-0.4-2.7-1.3-5.3-1.7-8c-0.2-1-1.9-0.4-2.4-0.1c-1.9,1.1-2.4,1.2-2.2,3.5c0.2,1.8,0.7,3.6,0.9,5.4c0.1,1.6,0.2,3,0.8,4.6
				c1.3,3.3,1.8,5.9,5.4,3.8c-0.8-0.2-1.5-0.4-2.3-0.6c-0.1,0.2-0.2,0.4-0.3,0.6c-0.8,1.2,2.2,1.1,2.7,0.2c0.8-1.4,0.7-1.1,1.2-2.6
				c0.4-1.2-2.4-0.6-2.8,0.1c-0.7,1.2-2.3,1.6-3,2.6c-0.4,0.7-0.3,1.3-0.6,2c1-0.2,1.9-0.4,2.9-0.5c-2.6-6.2-3.6-11.7-3.9-18.4
				C152.4,184.8,149.5,185.5,149.6,186.7L149.6,186.7z"/>
		</g>
	</g>
	<g>
		<g>
			<path class="st4" d="M164,193.6c0.3-3.7,0.7-7.4,1.5-11.1c0.1-0.4-2.6,0.3-2.9,0.7c-0.4,0.6-0.9,1.1-1.6,1.3
				c-0.1,0-0.7,0.3-0.6,0.5c0.3,0.9,0.5,1.7,0.5,2.6c0,0.4,2.8-0.1,2.9-0.8c0.1-1.3,0.1-2.3-0.4-3.5c-0.3-0.6-3.1,0.4-2.9,0.8
				c0.5,1.2,0.5,2.3,0.4,3.5c1-0.3,1.9-0.5,2.9-0.8c0-0.9-0.2-1.8-0.5-2.6c-0.2,0.2-0.4,0.3-0.6,0.5c1.2-0.5,2.1-1.1,2.8-2.1
				c-1,0.2-1.9,0.4-2.9,0.7c-0.7,3.7-1.2,7.4-1.5,11.1C161.1,194.7,163.9,194.4,164,193.6L164,193.6z"/>
		</g>
	</g>
	<g>
		<g>
			<path class="st4" d="M203.2,153.1c-0.1,0.9-0.3,2-0.1,2.9c0.1,0.8,0,1.6,0.2,2.3c0.3,1,2.5,0.4,2.8-0.3c0.1-0.3,0.2-0.5,0.3-0.8
				c0.2-0.9-1.2-0.7-1.7-0.6c-0.8,0.2-1.6,0.6-1.8,1.4c-0.2,0.7-0.1,1.5,0.6,1.8c0.7,0.3,1.5,0.1,2.1-0.3c0.3-0.2,0.9-0.9,0.2-1.2
				c-0.1-0.2-0.1-0.4,0-0.6c-0.3,0.2-0.6,0.3-1,0.5c0.1,0,0.2,0,0.3-0.1c-0.6-0.2-1.1-0.4-1.7-0.6c0,0.1,0,0.2-0.1,0.3
				c0.9-0.1,1.9-0.2,2.8-0.3c-0.2-0.6,0-1.4-0.1-2c-0.1-0.9,0-1.8,0.1-2.7C206.3,151.6,203.3,152.1,203.2,153.1L203.2,153.1z"/>
		</g>
	</g>
	<g>
		<g>
			<path class="st4" d="M202.7,156.2c-0.1,1.8,0.3,3.2,1.1,4.8c0.9-0.3,1.9-0.6,2.8-0.9c-0.3-0.4-0.7-0.8-1-1.2
				c-0.4-0.5-2.9,0.1-2.8,0.9c0.2,2.4,1.2,4.7,2.3,6.8c1-0.3,1.9-0.5,2.9-0.8c-0.6-0.8-0.5-0.8-1.2-1.5c-0.4-0.5-3.1,0.3-2.8,0.9
				c0.6,1.2,1.3,2.1,2.3,3c0.4,0.4,3.1-0.2,2.8-0.9c-0.2-0.4-0.3-0.7-0.5-1.1c-0.4-0.8-2.8,0-2.9,0.8c0,0.4-0.1,0.8-0.1,1.2
				c0.9-0.3,1.9-0.6,2.8-0.9c-0.1-0.1-0.3-0.2-0.4-0.3c-0.5-0.4-3.3,0.3-2.7,1c0.5,0.7,1.1,1.4,1.7,2c0.5,0.5,2.8-0.1,2.8-0.9
				c0-0.2,0-0.4,0-0.6c-0.9,0.3-1.9,0.6-2.8,0.9c1,1.2,1.5,1.7,3,1.3c0.1,0,1.8-0.6,1.2-1c-0.6-0.4-1.2-0.9-1.8-1.3
				c-0.4-0.3-3.2,0.2-2.8,0.9c0.4,0.8,0.3,0.6,0.9,1.2c0.9-0.3,1.8-0.7,2.7-1c-1-0.8-2.7-0.6-3.6,0.4c-0.1,0.1-0.1,0.2-0.1,0.3
				c0.4,0.8,1.1,1.5,1.7,2.2c0.5,0.6,2.4-0.2,2.8-0.7c0.1-0.2,0.3-0.4,0.4-0.7c0.3-0.4-2.4-0.3-2.9,0.5c-0.1,0.2-0.3,0.4-0.4,0.7
				c0.9-0.2,1.9-0.5,2.8-0.7c-0.5-0.6-1-1.2-1.5-1.8c-0.6,0.2-1.3,0.5-1.9,0.7c0,0.1,0,0.2,0,0.2c0.6,0.5,3.3-0.5,2.7-1
				c-0.2-0.3-0.5-0.7-0.7-1c-0.9,0.3-1.9,0.6-2.8,0.9c0.6,0.4,1.2,0.9,1.8,1.3c0.4-0.3,0.8-0.7,1.2-1c-0.1,0-0.2,0-0.3,0.1
				c0.5,0,1,0,1.5,0c-0.5-0.4-0.9-0.9-1.3-1.4c-0.4-0.5-2.8,0.1-2.8,0.9c0,0.2,0,0.4,0,0.6c0.9-0.3,1.9-0.6,2.8-0.9
				c-0.6-0.7-1.1-1.3-1.7-2c-0.9,0.3-1.8,0.7-2.7,1c0.1,0.1,0.3,0.2,0.4,0.3c0.6,0.4,2.7-0.1,2.8-0.9c0-0.4,0.1-0.8,0.1-1.2
				c-1,0.3-1.9,0.5-2.9,0.8c0.2,0.4,0.3,0.7,0.5,1.1c0.9-0.3,1.9-0.6,2.8-0.9c-0.9-0.8-1.6-1.7-2.1-2.8c-0.9,0.3-1.9,0.6-2.8,0.9
				c0.4,0.4,0.7,0.8,1.1,1.3c0.5,0.7,3.2-0.2,2.9-0.8c-1-2.2-2-4.4-2.3-6.8c-0.9,0.3-1.9,0.6-2.8,0.9c0.3,0.4,0.7,0.8,1,1.2
				c0.4,0.5,3.1-0.3,2.8-0.9c-0.8-1.6-1.3-3-1.1-4.8C205.7,154.9,202.8,155.3,202.7,156.2L202.7,156.2z"/>
		</g>
	</g>
	<g>
		<g>
			<path class="st4" d="M212.9,172.4c0-0.1,0.1-0.2,0.1-0.2c-0.8,0.2-1.7,0.4-2.5,0.7c0,0,0.1,0,0.1,0c-0.1-0.1-0.2-0.2-0.3-0.3
				c0,0,0,0.1,0.1,0.1c0.3-0.3,0.6-0.7,0.9-1c-0.1,0-0.2,0.1-0.2,0.1c0.6,0.3,1.2,0.6,1.7,0.8c0.3-0.2,0.5-0.4,0.8-0.6
				c0.9-0.7-0.3-1.2-1-1c0,0-0.1,0-0.1,0c0.3,0,0.6,0.1,1,0.1c-1.1-0.4-3.2,0-3,1.5c0.1,0.9,2,0.3,2.3,0c0.7-0.4,2-0.8,1.9-1.7
				c0,0.1-0.1,0.3-0.1,0.4c0.3-0.4,0.7-0.6,1-1c-0.9,0-1.8,0-2.7-0.1c-0.5,0.9-1.2,1.7-2.2,2c0.5,0.2,1.1,0.4,1.6,0.5
				c-0.3,0.1-0.6,0.3-1,0.4c-0.2-0.3-0.3-0.5-0.5-0.8c-0.3,0.4-0.5,0.3-1,0.5c-0.5,0.2-0.9,0.4-1.2,0.9c0.5-0.3,1-0.5,1.5-0.8
				c0,0,0,0-0.1,0c0.1,0.5,0.3,0.9,0.4,1.4c1.1-0.5,2.1-1,2.5-2.2c0.3-1-2.6-0.6-2.9,0.4c-0.1,0.4-0.4,0.5-0.8,0.6
				c-0.3,0.1-1,0.5-0.9,1c0.1,0.5,0.9,0.5,1.3,0.4c0.4-0.1,0.8-0.2,1.2-0.4c0.2-0.1,1-0.7,0.2-0.2c-0.4,0.1-0.7,0.2-1.1,0.4
				c1.4-0.2,2.6-0.7,3.5-1.9c0.3-0.4-0.1-0.8-0.5-0.8c-1.3-0.1-3.3,0-3.7,1.6c-0.2,0.8,1.3,0.7,1.6,0.5c1.9-0.6,3.6-1.7,4.5-3.4
				c0.3-0.6-0.3-0.8-0.8-0.9c-0.7,0-1.5,0.2-1.9,0.8c-0.4,0.5-1.2,0.8-1.1,1.6c0.1-0.2,0.2-0.4,0.3-0.6c-0.2,0.2-0.8,0.4-1.1,0.6
				c0.8,0,1.6,0,2.3,0c0,0,0,0,0-0.1c-0.4,0.2-0.8,0.5-1.2,0.7c0.1,0,0.1,0,0.2,0c-0.4,0-0.9,0-1.3,0c0.4,0.1,0.8,0.2,1.2,0.1
				c-0.3-0.3-0.6-0.7-1-1c-0.3,0.2-0.5,0.4-0.8,0.6c-0.4,0.3-0.4,0.7,0,0.9c0.5,0.3,1.3,0.1,1.7-0.1c0.1,0,0.2-0.1,0.2-0.1
				c0.2-0.1,1.1-0.6,0.9-1c-0.1-0.2-0.2-0.4-0.5-0.5c-0.7-0.3-2.1-0.1-2.5,0.7c0,0.1-0.1,0.2-0.1,0.2
				C209.6,173.6,212.5,173.3,212.9,172.4L212.9,172.4z"/>
		</g>
	</g>
	<g>
		<g>
			<path class="st4" d="M207.6,154.1c0.4-0.1,0.9-0.2,1.3-0.3c1.4-0.3,1.7-1.7,0-1.7c-0.6,0-1.1,0-1.7,0.1c-0.1,0.6-0.2,1.2-0.4,1.7
				c5.5-0.9,10.5-2.8,15.3-5.7c-0.8,0-1.6-0.1-2.4-0.1c1.2,8.5-1.5,16.7-7.5,22.8c-1.2,1.2,1.6,1.3,2.4,0.6
				c6.4-6.5,9.3-15.1,8.1-24.2c-0.1-0.9-1.9-0.4-2.4-0.1c-4.1,2.5-8.4,4.1-13.1,4.9c-1.4,0.2-2.4,1.8-0.4,1.7c0.6,0,1.1,0,1.7-0.1
				c0-0.6,0-1.1,0-1.7c-0.4,0.1-0.9,0.2-1.3,0.3C205.4,152.9,205.8,154.5,207.6,154.1L207.6,154.1z"/>
		</g>
	</g>
	<g>
		<g>
			<path class="st4" d="M213.2,169.6c-0.6,0.9-1.4,1.4-2.4,1.9c0.7,0.2,1.5,0.3,2.2,0.5c0.3-0.5,0.8-1.1,1.3-1.3
				c-0.4,0.1-0.8,0.2-1.1,0.2c0,0,0.1,0,0.1,0c-0.3-0.1-0.5-0.2-0.8-0.3c0,0,0,0,0.1,0.1c0-0.1-0.1-0.3-0.1-0.4
				c0,0.1-0.7,0.5-0.8,0.7c-0.4,0.3-0.8,0.6-1.1,0.9c-0.5,0.4-0.3,0.9,0.3,1c0.7,0.1,1.5-0.1,2-0.5c0.7-0.6,1.4-1.1,2.1-1.7
				c0.2-0.2,0.5-0.5,0.4-0.8c0-0.5-0.6-0.6-1-0.6c-1.6,0-3.3,1.3-4,2.7c-0.2,0.4,0,0.7,0.5,0.8c0.6,0.1,1.3-0.1,1.8-0.4
				c1.3-0.7,2.4-1.5,3.3-2.7c0.4-0.6-0.3-0.8-0.8-0.8C214.4,168.8,213.5,169,213.2,169.6L213.2,169.6z"/>
		</g>
	</g>
	<g>
		<g>
			<path class="st4" d="M211.7,173.4c0.5-0.3,0.9-0.7,1.3-1.1c0.2-0.2,0.4-0.5,0.6-0.8c0.3-0.4,0.4-0.3-0.1-0.2
				c-0.4-0.3-0.9-0.5-1.3-0.8c-0.1,0.5-0.6,0.7-0.9,1c-0.1,0.1-0.2,0.2-0.3,0.3c-0.2,0.2-0.1,0.2,0.2-0.1c0,0-0.8,0.2-0.9,0.2
				c-0.5,0.1-1.4,0.6-1.2,1.3c0.2,0.7,1.2,0.6,1.7,0.5c0.5-0.1,1.1-0.2,1.6-0.4c0.5-0.2,0.8-0.5,1.2-0.9c0.7-0.7,1.4-1.2,1.6-2.1
				c0.1-0.7-0.8-0.9-1.3-0.8c-1,0.1-1.8,0.5-2.5,1.3c-0.5,0.6-0.8,1.1-1.4,1.6c-0.5,0.3-0.8,1-0.2,1.4
				C210.2,173.9,211.2,173.7,211.7,173.4L211.7,173.4z"/>
		</g>
	</g>
	<g>
		<g>
			<path class="st4" d="M217,168.6c0.2-0.3,0.4-0.6,0.7-0.9c-0.9-0.1-1.8-0.2-2.7-0.3c0,0,0,0.1,0,0.1c0.2-0.3,0.3-0.5,0.5-0.8
				c0,0-0.1,0-0.1,0.1c0.7,0.4,1.5,0.7,2.2,1.1c0.3-0.3,0.6-0.7,0.9-1.1c0.1-0.1,0.7-1.1,0.5-0.9c-0.7-0.4-1.5-0.7-2.2-1.1
				c-0.1,0.1-0.2,0.3-0.3,0.4c0.9,0.2,1.7,0.4,2.6,0.6c0.9-1.5,2.1-3,2.2-4.8c0.1-1.6-2.4-0.9-2.9-0.1c0,0.1-0.1,0.1-0.1,0.2
				c0.9,0.1,1.8,0.2,2.8,0.3c0.2-0.5,0.4-1.1,0.6-1.6c0.4-1.3-2.5-1.1-2.9-0.1c-0.1,0.4-0.3,0.8-0.4,1.2c1,0,1.9,0,2.9,0.1
				c0.1-0.3,0.1-0.5,0.1-0.8c0-1.6-2.6-1-2.9,0.2c-0.1,0.3-0.2,0.6-0.2,0.9c-0.1,1,1.1,1,1.7,0.9c1-0.2,1.6-0.9,1.7-1.9
				c0.1-1.5-2.7-1-2.9,0.2c0,0.3-0.2,0.6-0.3,0.8c0.9,0.1,1.8,0.2,2.8,0.3c0.1-0.2,0.2-0.4,0.3-0.6c-1,0-1.9,0-2.9-0.1
				c-0.1,0.4-0.2,0.7-0.5,1c-0.4,0.6,0.3,1.2,0.9,1.2c0.8,0.1,1.5-0.3,1.9-0.9c0.3-0.5,0.5-1,0.6-1.5c0.4-1.4-2.4-1-2.9-0.1
				c-0.1,0.2-0.2,0.4-0.3,0.6c-0.7,1.5,2.2,1.4,2.8,0.3c0.2-0.4,0.4-0.9,0.5-1.3c-1,0.1-2,0.1-2.9,0.2c0,0.1,0,0.1,0,0.2
				c0.3-0.2,0.6-0.4,0.9-0.6c-0.1,0-0.2,0-0.2,0c0.6,0.3,1.2,0.6,1.7,0.9c0-0.3,0.1-0.6,0.2-0.9c-1,0.1-2,0.1-2.9,0.2
				c0,0.3,0,0.5-0.1,0.8c-0.2,1.4,2.5,1.1,2.9,0.1c0.1-0.4,0.3-0.8,0.4-1.2c-1,0-1.9,0-2.9-0.1c-0.1,0.4-0.2,0.7-0.4,1.1
				c-0.7,1.6,2.2,1.4,2.8,0.3c0-0.1,0.1-0.1,0.1-0.2c-1,0-1.9,0-2.9-0.1c-0.1,1.6-1.2,2.9-2,4.2c-0.8,1.3,2,1.6,2.6,0.6
				c0.1-0.1,0.2-0.3,0.3-0.4c1-1.5-1.3-1.8-2.2-1.1c-0.8,0.6-1.1,1.7-1.9,2.4c-0.5,0.5-0.2,1.1,0.2,1.3c0.6,0.4,1.4,0.1,1.9-0.2
				c0.4-0.2,0.6-0.6,0.6-1c0-1.3-2.1-1.1-2.7-0.3c-0.2,0.3-0.4,0.6-0.7,0.9C213.5,169.2,216.2,169.7,217,168.6L217,168.6z"/>
		</g>
	</g>
	<g>
		<g>
			<path class="st4" d="M221.6,160.5c0-0.1,0-0.2,0.1-0.3c-0.9,0.1-1.9,0.1-2.8,0.2c-0.1,0.3-0.2,0.5-0.3,0.8c1-0.1,1.9-0.2,2.9-0.4
				c0.1-0.6,0.3-1.2,0.4-1.9c-1,0.2-1.9,0.4-2.9,0.6c0.1,0.5,0,1-0.3,1.4c-0.3,0.6,0.3,0.8,0.8,0.8c0.7,0,1.5-0.2,1.9-0.8
				c0.5-0.7,0.7-1.5,0.7-2.4c-1,0.3-1.9,0.5-2.9,0.8c0.1,0.9-0.3,1.5-0.7,2.3c-0.6,1.2,2.3,0.9,2.7,0c0.3-0.5,0.6-1,0.8-1.5
				c0.2-0.5,0.2-1,0.1-1.6c-0.1-0.6-1.3-0.4-1.6-0.3c-0.5,0.1-1.3,0.5-1.3,1.1c0,0.6-0.1,1.1-0.5,1.6c0.9,0,1.8,0,2.7,0
				c0.4-0.7,0.6-1.4,0.5-2.2c-0.1-0.5-1.1-0.4-1.4-0.4c-0.5,0.1-1.3,0.4-1.5,0.9c-0.1,0.6-0.3,1.2-0.4,1.9c-0.1,0.6,0.9,0.7,1.2,0.6
				c0.6-0.1,1.4-0.4,1.6-1c0.1-0.3,0.2-0.5,0.3-0.8c0.3-1.1-2.5-0.5-2.8,0.2c-0.2,0.4-0.3,0.7-0.3,1.1c0,0.2,0.4,0.4,0.6,0.4
				c0.3,0.1,0.7,0,1.1-0.1C220.9,161.4,221.6,161.1,221.6,160.5L221.6,160.5z"/>
		</g>
	</g>
	<g>
		<g>
			<path class="st4" d="M220,152.2c0,3-0.1,5.6-1,8.5c-0.3,0.9,2.6,0.5,2.9-0.4c0.9-3,1-5.8,1-8.9C222.9,150.6,220,151.1,220,152.2
				L220,152.2z"/>
		</g>
	</g>
	<g>
		<g>
			<path class="st4" d="M220,151.9c0.1,1,0,1.9-0.4,2.9c-0.2,0.5,1,0.4,1.2,0.4c0.5-0.1,1.5-0.3,1.7-0.8c0.4-1,0.6-2.1,0.5-3.2
				C222.8,150.5,219.9,151.1,220,151.9L220,151.9z"/>
		</g>
	</g>
	<g>
		<g>
			<path class="st4" d="M219.9,152.1c0.4,1.4,0.1,2.7-0.3,4c-0.2,0.7,0.8,1,1.4,1c0.7,0,1.4-0.5,1.6-1.2c0.4-1.5,0.7-3.1,0.2-4.6
				C222.4,149.9,219.5,150.7,219.9,152.1L219.9,152.1z"/>
		</g>
	</g>
	<g>
		<g>
			<path class="st4" d="M219.7,151.8c0,0.2,0.1,0.4,0.1,0.6c1-0.3,1.9-0.5,2.9-0.8c0,0-0.2-0.3-0.2-0.3c-0.2,0.2-0.4,0.4-0.6,0.6
				c0,0,0,0,0,0c-0.6,0.1-1.2,0.2-1.8,0.4c0,0,0,0,0.1,0c-0.2-0.1-0.3-0.1-0.5-0.2c0.3,0.2,0.3,0.7,0.2,1c0,0.4-0.1,0.9-0.1,1.3
				c-0.1,1.1,2.8,0.5,2.9-0.4c0.1-0.8,0.4-1.9,0.1-2.6c-0.4-1.1-1.9-0.7-2.7-0.3C220.1,151.2,219.7,151.4,219.7,151.8
				c-0.1,0.2,0,0.3,0.1,0.6c0.3,0.5,1.1,0.4,1.6,0.3c0.4-0.1,1.4-0.5,1.3-1.1c-0.1-0.2-0.1-0.4-0.1-0.6
				C222.5,150.1,219.6,150.7,219.7,151.8L219.7,151.8z"/>
		</g>
	</g>
	<g>
		<g>
			<path class="st4" d="M219.1,159.7c-0.2,1.5-0.7,2.7-1.3,4.1c-0.6,1.2,2.3,0.8,2.7,0c0.7-1.5,1.3-2.8,1.6-4.5
				C222.2,158.2,219.2,158.7,219.1,159.7L219.1,159.7z"/>
		</g>
	</g>
	<g>
		<g>
			<path class="st4" d="M205.1,153.5c0.3,6.6,1.3,12.2,3.9,18.4c0.4,1,2.6,0.2,2.9-0.6c0.2-0.4,0.3-1.3,0.4-1.6
				c-0.4,0.3-0.8,0.6-1.3,0.9c2-0.4,3.3-1.6,4.3-3.4c-0.9,0.1-1.9,0.1-2.8,0.2c-0.3,0.7-0.6,1.5-1,2.2c0.9,0,1.8,0,2.7,0
				c0.1-0.2,0.2-0.4,0.3-0.6c0.7-1.1-1.8-0.6-2.2-0.4c-0.2,0.1-0.5,0.3-0.7,0.4c0.6,0,1.3,0,1.9,0c-1.1-0.8-2.4-5.3-2.5-6.6
				c-0.3-1.9-1.6-8.3,0.1-9.3c-0.8,0-1.6,0-2.3,0c0.5,3.2,1.5,6.2,1.9,9.4c0.2,1.9,0,4.7,1.5,6.3c0.4,0.5,1.4,0.2,1.9,0
				c1.9-0.7,2.5-1.8,2.3-3.6c-0.3-1.7-3.2-12.9-1.1-13.6c-0.5-0.1-1.1-0.2-1.6-0.3c0.4,2.4,0.8,4.7,1.2,7.1c0.4,2.2,1.3,5,0.4,7.1
				c-0.3,0.8,2.5,0.5,2.9-0.4c0.8-1.9,0.1-4.1-0.2-6c-0.4-2.8-0.9-5.7-1.4-8.5c-0.1-0.6-1.3-0.4-1.6-0.3c-1.2,0.4-1.9,0.7-3,1.3
				c-0.2,0.1-0.6,0.4-0.6,0.8c0.4,1.6,2.8,15,1.6,15.4c0.6,0,1.3,0,1.9,0c-1.6-1.7-1.1-5.3-1.5-7.4c-0.4-2.7-1.3-5.3-1.7-8
				c-0.1-0.8-2-0.2-2.3,0c-1.9,1.1-2.4,1.2-2.2,3.4c0.1,1.8,0.7,3.6,0.9,5.4c0.1,1.6,0.2,3.1,0.8,4.6c1.4,3.2,1.7,5.8,5.3,3.6
				c-0.7-0.1-1.5-0.3-2.2-0.4c-0.1,0.2-0.2,0.4-0.3,0.6c-0.7,1.1,2.2,0.8,2.7,0c0.8-1.4,0.7-1.1,1.2-2.6c0.3-1-2.5-0.4-2.8,0.2
				c-0.7,1.3-2.2,1.6-2.9,2.5c-0.5,0.7-0.4,1.2-0.7,2c1-0.2,1.9-0.4,2.9-0.6c-2.6-6.2-3.6-11.7-3.9-18.4
				C207.9,151.8,205,152.4,205.1,153.5L205.1,153.5z"/>
		</g>
	</g>
	<g>
		<g>
			<path class="st4" d="M219.5,160.7c0.3-3.7,0.7-7.4,1.5-11.1c0.3-1.5-2.4-0.6-2.8,0c-0.4,0.5-0.8,0.9-1.4,1
				c-0.4,0.1-1,0.7-0.8,1.2c0.3,0.8,0.5,1.5,0.5,2.4c0,1.4,2.8,0.9,2.9-0.3c0.1-1.3,0.1-2.5-0.4-3.8c-0.6-1.2-3.4-0.3-2.9,0.8
				c0.5,1.1,0.5,2.1,0.4,3.3c1-0.1,1.9-0.2,2.9-0.3c0-1-0.1-1.9-0.5-2.9c-0.3,0.4-0.6,0.8-0.8,1.2c1.3-0.5,2.1-1.3,2.9-2.3
				c-0.9,0-1.9,0-2.8,0c-0.7,3.7-1.2,7.4-1.5,11.1C216.5,162.3,219.4,161.9,219.5,160.7L219.5,160.7z"/>
		</g>
	</g>
	<g>
		<g>
			<path class="st4" d="M179.9,96.1c-0.1,0.9-0.3,2-0.1,2.9c0.1,0.8,0,1.6,0.2,2.3c0.3,1.1,2.5,0.5,2.8-0.3c0.1-0.3,0.2-0.5,0.3-0.8
				c0.2-0.9-1.2-0.8-1.7-0.7c-1.6,0.3-2.9,2.6-0.9,3.4c1,0.4,3.4-1.1,1.7-1.7c0.2-0.1,0.3-0.3,0.3-0.4c-0.3,0.2-0.6,0.3-1,0.5
				c0.1,0,0.2,0,0.3-0.1c-0.6-0.2-1.1-0.5-1.7-0.7c0,0.1-0.1,0.2-0.1,0.3c0.9-0.1,1.9-0.2,2.8-0.3c-0.2-0.6,0-1.4-0.1-2
				c-0.1-0.9,0-1.8,0.1-2.7C183,94.5,180,95,179.9,96.1L179.9,96.1z"/>
		</g>
	</g>
	<g>
		<g>
			<path class="st4" d="M178.9,100.5c-0.1,1.9,0.3,3.4,1.2,5c0.9-0.3,1.9-0.7,2.8-1c-0.3-0.4-0.7-0.8-1-1.2c-0.7-0.9-2.9-0.2-2.8,1
				c0.2,2.4,1.2,4.7,2.3,6.8c0.9-0.3,1.9-0.7,2.8-1c-0.3-0.5-0.7-1-1.2-1.4c-0.8-0.8-3.4-0.1-2.7,1.2c0.6,1.1,1.3,2,2.2,2.9
				c0.6,0.6,3.4,0.2,2.8-1c-0.2-0.4-0.3-0.7-0.5-1.1c-0.5-1-2.8-0.7-2.9,0.5c0,0.4-0.1,0.8-0.1,1.2c0.9-0.3,1.7-0.6,2.6-0.9
				c-0.1-0.1-0.3-0.2-0.4-0.3c-0.8-0.6-3.3,0.3-2.5,1.4c0.5,0.7,1.1,1.4,1.7,2c0.6,0.7,2.8,0.4,2.8-0.7c0-0.2,0-0.4,0-0.6
				c-0.9,0.2-1.9,0.5-2.8,0.7c0.9,1.1,1.6,2,3.1,1.6c0.7-0.2,1.8-1.1,0.9-1.7c-0.6-0.4-1.2-0.9-1.8-1.3c-0.9-0.6-3.1,0.2-2.5,1.4
				c0.1,0.5,0.4,0.8,0.8,1.1c0.8-0.5,1.6-0.9,2.5-1.4c-1-0.8-2.4-0.7-3.2,0.3c-0.1,0.2-0.4,0.5-0.3,0.8c0.4,0.9,1.1,1.5,1.7,2.3
				c0.7,0.8,2.2,0.3,2.7-0.5c0.1-0.2,0.3-0.4,0.4-0.7c0.8-1.3-2.1-1.2-2.8-0.3c-0.1,0.2-0.3,0.4-0.4,0.7c0.9-0.2,1.8-0.3,2.7-0.5
				c-0.7-1.2-1.7-1.4-3.2-0.5c0.8,0.7,3.4-0.5,2.5-1.4c-0.4-0.3-0.7-0.6-0.8-1.1c-0.8,0.5-1.6,0.9-2.5,1.4c0.6,0.4,1.2,0.9,1.8,1.3
				c0.3-0.6,0.6-1.1,0.9-1.7c0.7-0.3,0.7-0.6,0-1c-0.6-0.7-2.8-0.4-2.8,0.7c0,0.2,0,0.4,0,0.6c0.9-0.2,1.9-0.5,2.8-0.7
				c-0.6-0.7-1.1-1.3-1.7-2c-0.8,0.5-1.6,0.9-2.5,1.4c0.1,0.1,0.3,0.2,0.4,0.3c0.7,0.5,2.5,0.1,2.6-0.9c0-0.4,0.1-0.8,0.1-1.2
				c-1,0.2-1.9,0.3-2.9,0.5c0.2,0.4,0.3,0.7,0.5,1.1c0.9-0.3,1.9-0.7,2.8-1c-1-0.9-1.6-1.7-2.2-2.9c-0.9,0.4-1.8,0.8-2.7,1.2
				c0.5,0.4,0.8,0.9,1.2,1.4c0.6,0.9,3.3,0.1,2.8-1c-1-2.2-2-4.4-2.3-6.8c-0.9,0.3-1.9,0.7-2.8,1c0.3,0.4,0.7,0.8,1,1.2
				c0.6,0.8,3.3,0.1,2.8-1c-0.8-1.5-1.2-2.8-1.1-4.5C181.9,98.8,179,99.3,178.9,100.5L178.9,100.5z"/>
		</g>
	</g>
	<g>
		<g>
			<path class="st4" d="M188.5,115.5c0-0.1,0.1-0.2,0.1-0.2c-0.8,0.2-1.7,0.4-2.5,0.7c0,0,0,0,0,0c0.2-0.4,0.5-0.9,0.7-1.3
				c-0.1,0-0.2,0.1-0.2,0.1c0.5,0.4,1,0.8,1.5,1.2c0.3-0.2,0.5-0.4,0.8-0.6c0.3-0.3,0.7-0.7,0.4-1.1c-0.3-0.4-1.1-0.3-1.6-0.2
				c0,0-0.1,0-0.1,0c0.4,0,0.7,0,1.1,0c-1.2-0.4-2.9,0.3-2.7,1.7c0.1,0.8,1.6,0.5,2.1,0.3c0.8-0.5,2.3-0.9,2.2-2
				c-0.1,0.2-0.2,0.5-0.3,0.7c0.4-0.5,0.8-0.8,1.2-1.3c-0.9-0.1-1.8-0.1-2.7-0.2c-0.5,0.9-1.2,1.6-2.2,1.9c0.6,0.2,1.1,0.5,1.7,0.7
				c-1,0.3-1.2,0.5-0.6,0.5c-0.3-0.3-0.6-0.7-0.8-1c-0.3,0.4-0.6,0.2-1,0.4c-0.5,0.2-0.9,0.5-1.1,0.9c0.5-0.3,1-0.6,1.5-0.8
				c0,0,0,0-0.1,0c0.1,0.5,0.3,1.1,0.4,1.6c1.1-0.5,2.1-1.1,2.5-2.3c0.2-0.7-0.9-0.8-1.3-0.8c-0.7,0.1-1.4,0.4-1.6,1.1
				c-0.1,0.3-0.5,0.4-0.8,0.6c-0.4,0.2-1,0.6-0.8,1.1c0.1,0.5,0.9,0.6,1.3,0.5c0.4-0.1,0.8-0.2,1.2-0.4c0.2-0.1,0.3-0.3,0.4-0.4
				c0.1-0.2,0-0.1-0.3,0.2c-0.4,0.1-0.7,0.3-1.1,0.4c1.5-0.2,2.6-0.7,3.5-1.9c0.4-0.6-0.4-1-0.8-1c-1.3-0.1-3,0.2-3.4,1.7
				c-0.2,0.9,1.3,0.8,1.7,0.7c1.9-0.6,3.5-1.7,4.5-3.5c0.3-0.6-0.3-1-0.8-1c-0.7-0.1-1.5,0.3-1.9,0.8c-0.5,0.6-1.2,0.8-1.1,1.7
				c0.1-0.2,0.2-0.5,0.3-0.7c0.3-0.3,0.1-0.1-0.1,0.1c-0.2,0.1-0.4,0.2-0.6,0.3c0.7,0.1,1.4,0.2,2.1,0.3c0,0,0,0,0,0
				c-0.4,0.3-0.8,0.5-1.1,0.8c0.1,0,0.1,0,0.2,0c-0.4,0-0.7,0-1.1,0c0.5,0.2,0.9,0.1,1.4,0c-0.4-0.5-0.8-0.9-1.2-1.4
				c-0.3,0.2-0.5,0.4-0.8,0.6c-0.4,0.3-0.8,0.8-0.3,1.2c0.5,0.4,1.3,0.3,1.8,0c0.1,0,0.2-0.1,0.2-0.1c0.5-0.3,1.1-0.7,0.7-1.3
				c-0.1-0.1-0.2-0.2-0.4-0.3c-0.7-0.3-2.1-0.2-2.5,0.7c0,0.1-0.1,0.2-0.1,0.2C185.1,116.7,188.1,116.5,188.5,115.5L188.5,115.5z"/>
		</g>
	</g>
	<g>
		<g>
			<path class="st4" d="M184.3,97.1c0.4-0.1,0.9-0.2,1.3-0.3c0.9-0.2,1.9-1.7,0.3-1.6c-0.6,0-1.1,0-1.7,0.1
				c-0.2,0.6-0.5,1.1-0.7,1.7c5.5-0.9,10.5-2.8,15.3-5.7c-0.8,0-1.6-0.1-2.4-0.1c1.2,8.5-1.5,16.7-7.5,22.8
				c-1.2,1.2,1.6,1.3,2.3,0.5c6.4-6.5,9.3-15.1,8.1-24.1c-0.1-0.9-2-0.3-2.4-0.1c-4.1,2.5-8.4,4.1-13.1,4.9
				c-0.9,0.2-2.6,1.8-0.7,1.7c0.6,0,1.1,0,1.7-0.1c0.1-0.5,0.2-1.1,0.3-1.6c-0.4,0.1-0.9,0.2-1.3,0.3
				C182.1,96,182.5,97.5,184.3,97.1L184.3,97.1z"/>
		</g>
	</g>
	<g>
		<g>
			<path class="st4" d="M189.9,112.7c-0.6,0.9-1.4,1.5-2.4,2c0.8,0,1.5,0,2.3,0c0.2-0.3,0.4-0.6,0.7-0.9c0.1-0.1,0.2-0.2,0.3-0.3
				c0.1,0,0.4-0.2,0.2-0.1c-0.5,0.1-1,0.2-1.4,0.2c0,0,0.1,0,0.1,0c-0.1,0-0.3-0.1-0.4-0.1c0-0.1,0-0.1-0.1,0
				c-0.1,0.1-0.2,0.1-0.3,0.2c-0.2,0.1-0.3,0.3-0.5,0.4c-0.3,0.3-0.7,0.6-1,0.8c-0.4,0.3-0.4,0.7,0.2,0.8c0.6,0.1,1.5-0.1,2-0.5
				c0.7-0.6,1.4-1.1,2.1-1.7c0.2-0.2,0.6-0.5,0.5-0.8c-0.1-0.4-0.7-0.4-1-0.3c-1.7,0.1-3.3,1.3-4.1,2.8c-0.2,0.3,0.5,0.4,0.7,0.4
				c0.5,0,1.1-0.1,1.6-0.4c1.3-0.7,2.4-1.5,3.3-2.7c0.4-0.5-0.3-0.6-0.7-0.6C191.3,112,190.2,112.2,189.9,112.7L189.9,112.7z"/>
		</g>
	</g>
	<g>
		<g>
			<path class="st4" d="M188.6,115.9c0.4-0.3,0.9-0.7,1.2-1.1c0.2-0.2,0.3-0.5,0.5-0.7c0.1-0.1,0.2-0.2,0.3-0.3
				c0.3-0.2,0.1-0.2-0.6,0.2c-0.4-0.1-0.8-0.3-1.2-0.4c-0.1,0.6-0.6,0.9-1,1.3c-0.3,0.2-0.7,0.5,0,0.2c0.8-0.3,0.3-0.1,0.1-0.1
				c-0.2,0-0.4,0.1-0.6,0.1c-0.4,0.1-1.6,0.3-1.7,0.9c-0.1,0.6,0.9,0.4,1.2,0.4c1.2-0.2,2.3-0.4,3.2-1.2c0.6-0.6,1.4-1.1,1.6-2
				c0.1-0.6-0.9-0.4-1.2-0.4c-1,0.1-2,0.5-2.6,1.3c-0.5,0.6-0.9,1.2-1.5,1.7c-0.5,0.3-0.3,0.7,0.2,0.8
				C187.2,116.5,188.1,116.3,188.6,115.9L188.6,115.9z"/>
		</g>
	</g>
	<g>
		<g>
			<path class="st4" d="M193.9,111.2c0.2-0.3,0.4-0.6,0.7-0.9c-0.9,0-1.9,0-2.8,0.1c0,0,0,0.1,0,0.1c0.2-0.2,0.4-0.5,0.5-0.7
				c0,0-0.1,0-0.1,0.1c0.7,0.3,1.4,0.6,2.1,0.9c0.4-0.4,1.2-1.8,1.4-1.9c-0.8-0.2-1.5-0.4-2.3-0.6c-0.1,0.1-0.2,0.3-0.3,0.4
				c0.9,0.1,1.8,0.1,2.7,0.2c0.9-1.5,2.1-3,2.2-4.8c0.1-1.4-2.4-0.7-2.8,0.1c0,0.1-0.1,0.1-0.1,0.2c0.9,0.1,1.8,0.1,2.7,0.2
				c0.2-0.5,0.4-1.1,0.6-1.6c0.3-1.2-2.6-0.8-2.9,0.3c-0.1,0.4-0.3,0.8-0.4,1.2c1-0.1,1.9-0.2,2.9-0.3c0.1-0.3,0.1-0.5,0.1-0.8
				c0-1.4-2.6-0.7-2.9,0.3c-0.1,0.3-0.2,0.6-0.2,0.9c-0.1,0.7,0.8,0.9,1.3,0.8c1.1-0.2,2-0.6,2.1-1.8c0.1-1.4-2.7-0.8-2.9,0.3
				c0,0.3-0.1,0.6-0.3,0.8c0.9,0.1,1.8,0.1,2.7,0.2c0.1-0.2,0.2-0.4,0.3-0.6c-0.9,0-1.9,0-2.8,0.1c-0.1,0.4-0.2,0.7-0.4,1
				c-0.8,1.2,2.1,1.1,2.7,0.2c0.3-0.5,0.5-1,0.6-1.5c0.3-1.3-2.5-0.7-2.8,0.1c-0.1,0.2-0.2,0.4-0.3,0.6c-0.7,1.4,2.2,1.1,2.7,0.2
				c0.2-0.4,0.4-0.8,0.5-1.3c-1,0.1-1.9,0.2-2.9,0.3c0,0.1,0,0.2,0.1,0.2c0.5-0.2,0.9-0.4,1.4-0.6c-0.1,0-0.2,0-0.2,0
				c0.4,0.3,0.9,0.5,1.3,0.8c0-0.3,0.1-0.6,0.2-0.9c-1,0.1-1.9,0.2-2.9,0.3c0,0.3,0,0.5-0.1,0.8c-0.2,1.4,2.6,0.7,2.9-0.3
				c0.1-0.4,0.3-0.8,0.4-1.2c-1,0.1-1.9,0.2-2.9,0.3c-0.1,0.4-0.2,0.8-0.4,1.1c-0.6,1.5,2.2,1.1,2.7,0.2c0-0.1,0.1-0.1,0.1-0.2
				c-0.9,0-1.9,0-2.8,0.1c-0.1,1.6-1.2,3-2,4.3c-0.8,1.3,2.1,1.1,2.7,0.2c0.1-0.1,0.2-0.3,0.3-0.4c0.8-1.2-1.8-1-2.3-0.6
				c-0.9,0.6-1.1,1.6-1.9,2.4c-0.4,0.4-0.3,0.9,0.2,1.1c0.6,0.3,1.4,0,1.9-0.3c0.3-0.2,0.6-0.5,0.6-0.9c0-1.4-2.4-0.6-2.8,0.1
				c-0.2,0.3-0.4,0.6-0.7,0.9c-0.4,0.6,0.4,1,0.8,1C192.7,112.2,193.5,111.8,193.9,111.2L193.9,111.2z"/>
		</g>
	</g>
	<g>
		<g>
			<path class="st4" d="M198.3,103.7c0-0.2,0-0.3,0.1-0.4c-0.9,0-1.9,0-2.8,0c0,0.2-0.1,0.3-0.2,0.5c0.9,0,1.9,0,2.8,0
				c0.1-0.6,0.3-1.2,0.4-1.9c-1,0.2-1.9,0.3-2.9,0.5c0.1,0.5-0.1,0.9-0.3,1.3c-0.3,0.6,0.2,1,0.7,1.2c0.6,0.1,1.5-0.1,1.9-0.6
				c0.6-0.9,0.9-1.7,0.8-2.8c-1,0.3-1.9,0.5-2.9,0.8c0.1,0.8-0.4,1.5-0.8,2.2c-0.3,0.6,0.3,1.1,0.9,1.2c0.7,0.1,1.5-0.2,1.9-0.9
				c0.3-0.5,0.6-1,0.8-1.5c0.2-0.6,0.2-1.1,0.1-1.8c-0.1-0.7-1.2-0.7-1.7-0.6c-0.7,0.2-1.2,0.6-1.2,1.4c0,0.4-0.1,0.9-0.3,1.2
				c0.9,0.2,1.7,0.4,2.6,0.6c0.4-0.7,0.5-1.5,0.4-2.3c-0.1-0.6-1.1-0.7-1.5-0.6c-0.6,0.1-1.3,0.5-1.4,1.1c-0.1,0.6-0.3,1.2-0.4,1.9
				c-0.1,0.6,0.7,0.9,1.1,0.9c0.6,0,1.4-0.3,1.7-0.9c0.1-0.3,0.3-0.7,0.4-1.1c0.2-0.6-0.7-0.9-1.1-0.9c-0.6,0-1.4,0.3-1.7,0.9
				c-0.2,0.3-0.2,0.6-0.2,1c0,0.7,0.7,1,1.3,0.9C197.3,104.9,198.3,104.5,198.3,103.7L198.3,103.7z"/>
		</g>
	</g>
	<g>
		<g>
			<path class="st4" d="M196.7,95.2c0,3-0.1,5.6-1,8.5c-0.2,0.8,2.6,0.4,2.9-0.4c0.9-3,1-5.7,1-8.8
				C199.6,93.7,196.7,94.2,196.7,95.2L196.7,95.2z"/>
		</g>
	</g>
	<g>
		<g>
			<path class="st4" d="M196.7,95c0.1,1,0,1.9-0.4,2.8c-0.3,0.6,1,0.6,1.2,0.5c0.6-0.1,1.4-0.3,1.7-0.9c0.4-1,0.6-2.1,0.4-3.2
				C199.5,93.3,196.5,94,196.7,95L196.7,95z"/>
		</g>
	</g>
	<g>
		<g>
			<path class="st4" d="M196.6,95.1c0.4,1.4,0.1,2.8-0.2,4.2c-0.2,0.6,2.7,0.2,2.9-0.5c0.4-1.5,0.7-3,0.3-4.5
				C199.3,93.7,196.4,94.4,196.6,95.1L196.6,95.1z"/>
		</g>
	</g>
	<g>
		<g>
			<path class="st4" d="M196.4,94.8c0,0.2,0.1,0.4,0.1,0.6c1-0.3,1.9-0.5,2.9-0.8c0,0-0.2-0.3-0.2-0.3c-0.2,0.2-0.4,0.4-0.6,0.6
				c0,0,0,0,0,0c-0.6,0.1-1.2,0.2-1.8,0.4c0,0,0,0,0.1,0c-0.2-0.1-0.3-0.1-0.5-0.2c0.3,0.2,0.3,0.7,0.2,1c0,0.4-0.1,0.9-0.1,1.3
				c-0.1,1.1,2.8,0.6,2.9-0.4c0.1-0.8,0.4-1.9,0.1-2.6c-0.4-1.1-1.9-0.7-2.7-0.3c-0.2,0.1-0.5,0.4-0.6,0.6c0,0.3,0,0.5,0.2,0.7
				c0.3,0.5,1.1,0.4,1.6,0.3c0.4-0.1,1.4-0.5,1.3-1.1c-0.1-0.2-0.1-0.4-0.1-0.6C199.2,93.1,196.3,93.7,196.4,94.8L196.4,94.8z"/>
		</g>
	</g>
	<g>
		<g>
			<path class="st4" d="M195.8,102.9c-0.2,1.5-0.7,2.8-1.4,4.1c-0.2,0.4,1,0.2,1.1,0.2c0.5-0.1,1.5-0.3,1.7-0.8
				c0.7-1.4,1.2-2.8,1.5-4.4C198.7,101.9,195.9,102.1,195.8,102.9L195.8,102.9z"/>
		</g>
	</g>
	<g>
		<g>
			<path class="st4" d="M181.4,96.5c0.3,6.6,1.3,12.2,3.9,18.4c0.3,0.8,2.6,0,2.9-0.6c0.1-0.3,0.3-1.5,0.4-1.6
				c-0.4,0.3-0.9,0.5-1.3,0.8c2.1-0.5,3.4-1.7,4.4-3.5c-1,0.2-1.9,0.3-2.9,0.5c-0.2,0.9-0.5,1.7-1.1,2.4c1-0.2,1.9-0.3,2.9-0.5
				c0.1-0.2,0.2-0.4,0.3-0.6c0.4-0.7-2.1-0.2-2.3-0.1c-0.2,0.1-0.5,0.3-0.7,0.4c0.6,0,1.3-0.1,1.9-0.1c-1.1-0.8-2.4-5.3-2.5-6.6
				c-0.3-1.8-1.6-8.4,0.1-9.4c-0.8,0-1.5,0.1-2.3,0.1c0.5,3.2,1.5,6.2,1.9,9.4c0.2,1.9,0,4.7,1.5,6.2c0.4,0.4,1.5,0.1,1.9-0.1
				c1.8-0.7,2.6-1.7,2.3-3.5c-0.2-1.7-3.2-13.1-1.1-13.7c-0.5-0.1-1.1-0.1-1.6-0.2c0.4,2.4,0.8,4.7,1.2,7.1c0.4,2.2,1.3,5,0.4,7.1
				c-0.3,0.7,2.5,0.4,2.9-0.5c0.8-1.9,0.1-4-0.2-6c-0.4-2.8-0.9-5.7-1.4-8.5c-0.1-0.5-1.4-0.2-1.6-0.2c-1.2,0.4-1.9,0.6-3,1.3
				c-0.2,0.1-0.7,0.4-0.6,0.7c0.4,1.7,2.9,15.1,1.7,15.5c0.6,0,1.3-0.1,1.9-0.1c-1.6-1.7-1.2-5.3-1.5-7.4c-0.4-2.7-1.3-5.3-1.7-8
				c-0.1-0.7-2-0.1-2.3,0.1c-1.8,1.1-2.4,1.1-2.2,3.3c0.1,1.8,0.7,3.6,0.9,5.4c0.1,1.6,0.2,3.1,0.8,4.6c1.4,3.3,1.7,5.7,5.3,3.5
				c-0.8,0-1.5,0-2.3-0.1c-0.1,0.2-0.2,0.4-0.3,0.6c-0.3,0.5,2.4,0.3,2.9-0.5c0.6-0.7,0.9-1.5,1.1-2.4c0.3-0.9-2.5-0.2-2.9,0.5
				c-0.7,1.2-2.2,1.5-2.9,2.5c-0.5,0.7-0.3,1.1-0.6,1.9c1-0.2,1.9-0.4,2.9-0.6c-2.6-6.2-3.6-11.7-3.9-18.4
				C184.3,95,181.4,95.5,181.4,96.5L181.4,96.5z"/>
		</g>
	</g>
	<g>
		<g>
			<path class="st4" d="M196.2,103.4c0.2-3.7,0.7-7.4,1.4-11c0.1-0.7-2.5,0.1-2.9,0.5c-0.3,0.5-0.7,0.9-1.2,1.1
				c-0.2,0.1-1.1,0.4-1,0.7c0.3,0.9,0.5,1.7,0.5,2.6c0,0.4,2.8,0,2.9-0.8c0.1-1.3,0.1-2.3-0.4-3.5c-0.3-0.7-3.1,0.3-2.9,0.8
				c0.5,1.2,0.5,2.3,0.4,3.5c1-0.3,1.9-0.5,2.9-0.8c0-0.9-0.2-1.8-0.5-2.6c-0.3,0.2-0.6,0.5-1,0.7c1.3-0.5,2.3-1.1,3.1-2.3
				c-1,0.2-1.9,0.4-2.9,0.5c-0.7,3.7-1.2,7.5-1.5,11.2C193.3,104.6,196.1,104.3,196.2,103.4L196.2,103.4z"/>
		</g>
	</g>
	<path class="st5" d="M133.3,131.5c3.5,1.5,9.8,3.6,17.8,3.5c7.5-0.1,13.4-2.1,16.9-3.5"/>
</g>
</svg>
