<?xml version="1.0" encoding="utf-8"?>
<!-- Generator: Adobe Illustrator 22.0.1, SVG Export Plug-In . SVG Version: 6.00 Build 0)  -->
<svg version="1.1" xmlns="http://www.w3.org/2000/svg" xmlns:xlink="http://www.w3.org/1999/xlink" x="0px" y="0px"
	 viewBox="0 0 300 350" style="enable-background:new 0 0 300 350;" xml:space="preserve">
<style type="text/css">
	.st0{fill:#79BD34;stroke:#040000;stroke-width:3;stroke-miterlimit:10;}
	.st1{fill:none;stroke:#040000;stroke-width:3;stroke-miterlimit:10;}
	.st2{fill:#E4802B;stroke:#000000;stroke-width:3;stroke-miterlimit:10;}
	.st3{fill:#FFFFFF;stroke:#040000;stroke-width:3;stroke-miterlimit:10;}
	.st4{fill:#D61F37;stroke:#040000;stroke-width:3;stroke-miterlimit:10;}
	.st5{fill:#040000;stroke:#040000;stroke-width:3;stroke-miterlimit:10;}
	.st6{fill:#E4802B;stroke:#040000;stroke-width:3;stroke-miterlimit:10;}
</style>
<g id="レイヤー_2">
	<path class="st0" d="M135.2,58.7l13.5-34.5c0.6-1.6,2.9-1.6,3.5,0l12.2,34.3"/>
	<line class="st1" x1="144" y1="38.9" x2="157.1" y2="38.9"/>
	<line class="st1" x1="139.8" y1="49.6" x2="160.8" y2="49.6"/>
	<path class="st2" d="M249.7,163c0,57.7-44.6,110.2-99.7,110.2S50.3,220.7,50.3,163S94.9,58.4,150,58.4S249.7,105.2,249.7,163z"/>
	<circle class="st3" cx="150.6" cy="139.6" r="45.3"/>
	<path class="st4" d="M138,198h25.9c0.3,0,0.5,0.3,0.4,0.6c-0.8,1.9-3.8,7.6-11.6,9.3c-7.4,1.7-13.3-5.5-15.5-8.6
		C136.9,198.8,137.3,198,138,198z"/>
	<circle class="st5" cx="150.6" cy="139.6" r="15.2"/>
</g>
<g id="レイヤー_1">
</g>
<g id="レイヤー_3">
	<path class="st6" d="M52.3,152.3c0,0-34.4,5-22.1,14.3c7.1,5.3,22.1,9.4,22.1,9.4"/>
	<path class="st6" d="M247.5,152.3c0,0,34.4,5,22.1,14.3c-7.1,5.3-22.1,9.4-22.1,9.4"/>
	<path class="st6" d="M88.3,246.6c0,5.4,9.8,51.7,19.1,34.9c9.4-16.8,0,0,9.4-16.8"/>
	<path class="st6" d="M213.5,243.9c0,0-8.6,53.4-17.9,36.5s-9.4-16.8-9.4-16.8"/>
</g>
</svg>
