<?xml version="1.0" encoding="utf-8"?>
<!-- Generator: Adobe Illustrator 22.0.1, SVG Export Plug-In . SVG Version: 6.00 Build 0)  -->
<svg version="1.1" id="レイヤー_1" xmlns="http://www.w3.org/2000/svg" xmlns:xlink="http://www.w3.org/1999/xlink" x="0px"
	 y="0px" viewBox="0 0 300 350" style="enable-background:new 0 0 300 350;" xml:space="preserve">
<style type="text/css">
	.st0{fill:#F0CFA9;stroke:#040000;stroke-width:3;stroke-miterlimit:10;}
	.st1{fill:#C34794;stroke:#000000;stroke-width:3;stroke-miterlimit:10;}
	.st2{fill:none;stroke:#040000;stroke-width:3;stroke-miterlimit:10;}
	.st3{fill:#FFFFFF;stroke:#040000;stroke-width:3;stroke-miterlimit:10;}
	.st4{fill:#040000;stroke:#040000;stroke-width:3;stroke-miterlimit:10;}
	.st5{fill:#2AA1C1;stroke:#040000;stroke-width:3;stroke-miterlimit:10;}
	.st6{fill:#DECE2E;stroke:#040000;stroke-width:3;stroke-miterlimit:10;}
</style>
<g>
	<path class="st0" d="M89.5,179.5l-23.9,23.3c-1.4,1.4-3.6,1.2-4.7-0.4c-1.9-2.6-5.1-5.6-8.5-2.9c-3.1,2.5-2,5.1-0.4,6.9
		c1.1,1.3,1,3.1-0.2,4.3c-2.5,2.3-5.3,6.3-1.8,10.5c3.6,4.4,8.2,1,10.8-1.7c1.1-1.2,3-1.1,4,0.2c2,2.5,5.2,5.2,8.5,0.9
		c4.3-5.8-3.9-11.3-3.9-11.3L89.4,192"/>
	<path class="st0" d="M209.3,177.7l25.1,25.1c1.4,1.4,3.6,1.2,4.7-0.4c1.9-2.6,5.1-5.6,8.5-2.9c3.1,2.5,2,5.1,0.4,6.9
		c-1.1,1.3-1,3.1,0.2,4.3c2.5,2.3,5.3,6.3,1.8,10.5c-3.6,4.4-8.2,1-10.8-1.7c-1.1-1.2-3-1.1-4,0.2c-2,2.5-5.2,5.2-8.5,0.9
		c-4.3-5.8,3.9-11.3,3.9-11.3l-22.1-20.4"/>
	<path class="st0" d="M125,269.4l0.3,30.8c0,1.9-1.7,3.4-3.6,3.1c-3.2-0.5-7.5-0.3-8,4c-0.4,4,2.2,5,4.6,5.2
		c1.7,0.1,2.9,1.5,2.9,3.2c-0.1,3.4,0.7,8.2,6.1,8.7c5.7,0.5,6.5-5,6.4-8.9c0-1.6,1.4-2.9,3-2.7c3.2,0.4,7.4,0,6.6-5.3
		c-1-7.2-10.7-5.3-10.7-5.3l1.1-28.1"/>
	<path class="st0" d="M171.9,268.8l-0.1,31c0,1.9-1.7,3.4-3.6,3.1c-3.2-0.5-7.5-0.3-8,4c-0.4,4,2.2,5,4.6,5.2
		c1.7,0.1,2.9,1.5,2.9,3.2c-0.1,3.4,0.7,8.2,6.1,8.7c5.7,0.5,6.5-5,6.4-8.9c0-1.6,1.4-2.9,3-2.7c3.2,0.4,7.4,0,6.6-5.3
		c-1-7.2-10.7-5.3-10.7-5.3l0.6-34.1"/>
	<ellipse class="st1" cx="150" cy="183.3" rx="63.1" ry="98.6"/>
	<line class="st1" x1="117.2" y1="98.7" x2="101.1" y2="77.4"/>
	<line class="st1" x1="183.9" y1="101.4" x2="200.1" y2="80"/>
	<line class="st1" x1="150" y1="83.5" x2="150" y2="58.5"/>
	<line class="st2" x1="143.1" y1="189.1" x2="156.9" y2="189.1"/>
	<ellipse class="st3" cx="123" cy="159.2" rx="15.9" ry="9.9"/>
	<ellipse class="st4" cx="123" cy="159.2" rx="5.7" ry="9.2"/>
	<ellipse class="st3" cx="177" cy="158.7" rx="15.9" ry="9.9"/>
	<ellipse class="st4" cx="177" cy="158.7" rx="5.7" ry="9.2"/>
	<g>
		<path class="st5" d="M109.7,66.4c1.1-1.3,1.9-2.9,2.1-4.8c0.5-4.8-2.9-9.1-7.7-9.6c-2.2-0.2-4.2,0.3-5.9,1.5
			c-1.2-2.7-3.8-4.8-7-5.1c-4.8-0.5-9.1,2.9-9.6,7.7c-0.1,0.8-0.1,1.6,0.1,2.4c-0.4-0.1-0.9-0.2-1.3-0.3c-4.8-0.5-9.1,2.9-9.6,7.7
			c-0.4,4,1.9,7.6,5.4,9c-1.4,1.4-2.3,3.2-2.6,5.3c-0.5,4.8,2.9,9.1,7.7,9.6c2.7,0.3,5.3-0.7,7.1-2.4c0.8,3.4,3.8,6.2,7.5,6.6
			c4.8,0.5,9.1-2.9,9.6-7.7c0.1-1,0-2-0.2-3c0.2,0,0.3,0.1,0.5,0.1c4.8,0.5,9.1-2.9,9.6-7.7C115.9,71.4,113.4,67.7,109.7,66.4z
			 M90.7,79c-0.7-2.7-2.6-5-5.2-6c1.4-1.4,2.3-3.2,2.6-5.3c0.1-0.8,0.1-1.6-0.1-2.4c0.4,0.1,0.9,0.2,1.3,0.3
			c2.2,0.2,4.2-0.3,5.9-1.5c1,2.2,2.8,3.9,5,4.7c-1.1,1.3-1.9,2.9-2.1,4.8c-0.1,1,0,2,0.2,3c-0.2,0-0.3-0.1-0.5-0.1
			C95.1,76.2,92.5,77.2,90.7,79z"/>
		<circle class="st6" cx="93" cy="71.7" r="9.1"/>
	</g>
	<g>
		<path class="st5" d="M166.4,39.7c0.9-1.5,1.3-3.3,1.1-5.1c-0.4-4.8-4.6-8.3-9.4-7.9c-2.2,0.2-4.1,1.2-5.5,2.6
			c-1.7-2.5-4.7-3.9-7.9-3.7c-4.8,0.4-8.3,4.6-7.9,9.4c0.1,0.8,0.3,1.6,0.5,2.3c-0.4,0-0.9,0-1.4,0c-4.8,0.4-8.3,4.6-7.9,9.4
			c0.3,4,3.3,7.1,7.1,7.8c-1.1,1.6-1.7,3.6-1.5,5.7c0.4,4.8,4.6,8.3,9.4,7.9c2.7-0.2,5-1.7,6.4-3.8c1.5,3.2,4.9,5.3,8.6,5
			c4.8-0.4,8.3-4.6,7.9-9.4c-0.1-1-0.4-2-0.8-2.9c0.2,0,0.3,0,0.5,0c4.8-0.4,8.3-4.6,7.9-9.4C173.4,43.4,170.3,40.3,166.4,39.7z
			 M150.3,55.8c-1.2-2.5-3.5-4.3-6.3-4.9c1.1-1.6,1.7-3.6,1.5-5.7c-0.1-0.8-0.3-1.6-0.5-2.3c0.4,0,0.9,0,1.4,0
			c2.2-0.2,4.1-1.2,5.5-2.6c1.4,1.9,3.5,3.3,5.9,3.6c-0.9,1.5-1.3,3.3-1.1,5.1c0.1,1,0.4,2,0.8,2.9c-0.2,0-0.3,0-0.5,0
			C154,52.2,151.7,53.7,150.3,55.8z"/>
		<circle class="st6" cx="151.1" cy="48.2" r="9.1"/>
	</g>
	<g>
		<path class="st5" d="M224.8,77c1.6-0.6,3.1-1.7,4.1-3.2c2.7-4,1.7-9.4-2.3-12.1c-1.8-1.2-3.9-1.7-5.9-1.5c0.2-3-1.1-6-3.8-7.8
			c-4-2.7-9.4-1.7-12.1,2.3c-0.5,0.7-0.8,1.4-1.1,2.1c-0.3-0.3-0.7-0.6-1-0.9c-4-2.7-9.4-1.7-12.1,2.3c-2.3,3.3-1.9,7.6,0.5,10.5
			c-1.9,0.5-3.6,1.7-4.7,3.4c-2.7,4-1.7,9.4,2.3,12.1c2.2,1.5,5,1.9,7.4,1.2c-0.9,3.4,0.4,7.2,3.5,9.3c4,2.7,9.4,1.7,12.1-2.3
			c0.6-0.9,1-1.8,1.2-2.7c0.1,0.1,0.3,0.2,0.4,0.3c4,2.7,9.4,1.7,12.1-2.3C227.9,84.4,227.5,79.9,224.8,77z M202.2,79.2
			c0.7-2.7,0-5.6-1.8-7.7c1.9-0.5,3.6-1.7,4.7-3.4c0.5-0.7,0.8-1.4,1.1-2.1c0.3,0.3,0.7,0.6,1,0.9c1.8,1.2,3.9,1.7,5.9,1.5
			c-0.2,2.4,0.6,4.7,2.2,6.5c-1.6,0.6-3.1,1.7-4.1,3.2c-0.6,0.9-1,1.8-1.2,2.7c-0.1-0.1-0.3-0.2-0.4-0.3
			C207.3,78.8,204.6,78.5,202.2,79.2z"/>
		<circle class="st6" cx="207.6" cy="73.9" r="9.1"/>
	</g>
</g>
</svg>
