<?xml version="1.0" encoding="utf-8"?>
<!-- Generator: Adobe Illustrator 22.0.1, SVG Export Plug-In . SVG Version: 6.00 Build 0)  -->
<svg version="1.1" xmlns="http://www.w3.org/2000/svg" xmlns:xlink="http://www.w3.org/1999/xlink" x="0px" y="0px"
	 viewBox="0 0 300 350" style="enable-background:new 0 0 300 350;" xml:space="preserve">
<style type="text/css">
	.st0{fill:#6E4C8E;}
	.st1{fill:none;stroke:#000000;stroke-width:2;stroke-miterlimit:10;}
	.st2{fill:#6E4C8E;stroke:#000000;stroke-width:3;stroke-miterlimit:10;}
	.st3{fill:#FFFFFF;stroke:#040000;stroke-width:2;stroke-miterlimit:10;}
	.st4{fill:#FFFFFF;stroke:#040000;stroke-miterlimit:10;}
	.st5{fill:#040000;}
	.st6{fill:none;stroke:#040000;stroke-width:2;stroke-miterlimit:10;}
</style>
<g id="レイヤー_2">
	<g>
		<g>
			<path class="st0" d="M88.6,186c-0.7,10.3,1.1,18.5,6.9,27.1c5.4,7.9,18.4,0.4,13-7.6c-1.8-2.7-3.9-5.4-4.7-8.7
				c-0.9-3.5-0.4-7.3-0.2-10.8C104.2,176.4,89.2,176.4,88.6,186L88.6,186z"/>
		</g>
	</g>
	<g>
		<g>
			<path class="st0" d="M93.5,167.5c4.3,2.5,9,4.4,13.7,6.1c2.2,0.8,4.4,1.5,6.7,2.2c1.1,0.3,2.2,0.7,3.4,1c2.1,0.7,3.2,2,1-1
				c-0.3-1.9-0.5-3.9-0.8-5.8c-0.7,3.2-1.6,6-1.4,9.3c0.6,9.6,15.6,9.7,15,0c-0.2-4,2.2-7.1,0.1-11.1c-1.7-3.2-5.1-4.3-8.3-5.4
				c-7.5-2.4-15-4.4-21.8-8.3C92.7,149.7,85.2,162.7,93.5,167.5L93.5,167.5z"/>
		</g>
	</g>
	<g>
		<g>
			<path class="st0" d="M109.1,163c-0.3,20.1,3.2,40.1,9.5,59.2c4.8-1.3,9.6-2.7,14.5-4c-7.8-19.7-14-40-18.5-60.7
				c-1.5-6.8-13.5-7.5-14.5,0c-4,29.5-0.3,58.6,3.8,87.9c1.2,8.3,15.7,6.4,14.7-2c-3.1-27.6-8.2-54.9-15.5-81.7
				c-2.4-8.8-13.7-5.9-14.7,2c-1.8,14.1-6.7,31.1-1,44.8c4.6-1.9,9.1-3.9,13.7-5.8c-1-2-2-4-3-6c-2.7-5.4-12.7-4.6-13.7,1.8
				c-1.4,9,0,17.6,5,25.4c5.2,8,12.1,15.2,18.1,22.6c6.2,7.6,12.5,15.2,18.7,22.8c5.8,7,11.6,14,18.8,19.7c3.4,2.7,7.2,2.9,10.6,0
				c8.8-7.5,15.2-17.4,21.9-26.8c7.7-10.8,15.4-21.6,23.1-32.4c-4.3-2.5-8.6-5-13-7.6c-1.9,3.6-3.7,7.3-5.6,10.9
				c-4.5,8.8,7.2,15,13,7.6c2.4-3.2,4.9-6.3,7.3-9.5c1.1-1.5,2.3-2.9,3.4-4.4c0.6-0.7,1.1-1.5,1.7-2.2c1.7-1.9,1.5-2-0.8-0.3
				c-2.8-1.1-5.6-2.3-8.5-3.4c0.1,0.1,0.1,0.3,0.2,0.4c0-2.5,0-5,0-7.6c-0.1,0.2-0.2,0.3-0.2,0.5c2.8-1.1,5.6-2.3,8.5-3.4
				c-0.1,0-0.2,0-0.3-0.1c1.8,2.4,3.7,4.8,5.5,7.2c1.1-9.4,2.5-18.8,4.3-28.2c-4.8,0-9.6,0-14.5,0c1.3,5.4,1.5,10.6,1,16.1
				c4.9-0.7,9.8-1.3,14.7-2c-4.5-11.6-5.1-24.9-6.9-37.1c-1.1-7.7-12.6-6.6-14.5,0c-8,28.1-13.4,56.9-19.2,85.5
				c4.9,0.7,9.8,1.3,14.7,2c-0.5-21.7,1.9-43.2,7.2-64.3c-4.9-0.7-9.8-1.3-14.7-2c-1,16.8-3.2,33.5-14.7,46.7
				c-5.4,6.3-11.3,12.1-15.8,19.2c-1.8,2.7-3.4,6.3-6.2,8.2c-1.2,0.9-1.9,0.4-3,0.9c-1.6,0.8,0.1-2.4-0.1,1c-0.3,1.3-0.7,2.5-1,3.8
				c-0.5,0.4-1,0.8-1.5,1.2c0.9-0.3,1.8-0.6,2.6-0.9c1.5-0.5,2.9-1,4.4-1.5c2.9-1,5.9-2,8.9-2.9c7.6-2.4,6.8-15.6-2-14.7
				c-7.7,0.7-15.4,0.7-23.1-0.6c0,4.8,0,9.6,0,14.5c10.5-3,21-6.1,31.5-9.1c7.2-2.1,7.1-12.3,0-14.5c-15.5-4.7-31.4-7.5-47.6-8.5
				c0,5,0,10,0,15c3.3-0.3,6.4,2.7,9.4,3.8c4.9,1.8,9.8,0.9,14.8-0.1c4.8-1,9.6-2.2,14.3-3.6c2.4-0.7,4.7-1.5,7-2.4
				c1.1-0.4,2.2-0.8,3.3-1.2c0.4-0.2,0.9-0.3,1.4-0.4c0.9-0.2,0.9-0.3,0-0.1c1.9-4.6,3.9-9.1,5.8-13.7c-10.7-3.7-22-5.7-33.3-5.8
				c-5.5-0.1-10.9,0.5-16.4,1c-1.2,0.1-2.4,0.2-3.6,0.4c-0.9,0.1-1.8,0.2-2.7,0.2c1.3,1.5,2.6,2.9,3.9,4.4c0.2-0.1,0.2-3,0.2-3.4
				c0-0.5,0.8-4.3-0.2-2.7c-1.5,1.1-3,2.3-4.5,3.4c2.4-0.4,5.7,0.6,8.2,0.8c2.6,0.2,5.3,0.5,7.9,0.7c6,0.5,11.9,1,17.9,1.6
				c11.6,1,23.2,2,34.7,3c2.6,0.2,5.2-1.6,6.5-3.7c2.9-4.7,2.5-10.4-0.6-14.9c-3.3-4.8-8.9-6.5-14.3-7.3c-13-2-26.2-3.6-39.4-3.6
				c-0.6,0-6-0.4-5.9-0.6c-0.1,0.1,0.3,2.1,0.3,2.1c-0.2-0.2,4.6-0.5,4.4-0.5c5.9,0,11.7,0.5,17.6,0.7c12.9,0.5,25.8,1.1,38.7,1.6
				c-0.7-4.9-1.3-9.8-2-14.7c-4.6,1.1-7.2,4.3-10.2,7.6c-1.8,2-1.8,1.6-4.5,0.9c-3.4-0.9-6.8-2.2-10.1-3.4
				c-6.3-2.1-12.6-4.2-18.8-6.3c-3.1-1.1-6.3-2.1-9.4-3.2c-1.5-0.5-3.1-1.3-4.7-1.6c-2-0.3-0.9-1.8-0.5,0.3
				c-1.7,3.1-3.5,6.2-5.2,9.2c8.1-2.5,16-3,24.4-2.1c7.7,0.9,15.3,2.5,23.1,2.1c7.4-0.4,14.5-2,21.3-4.9c6.1-2.6,14.5-6.5,17.4-12.8
				c1.6-3.4,1.1-7.4-1.5-10.2c-2.9-3.1-7.4-3.4-11.3-3.7c-8.1-0.7-16.1,0.4-24.2,1.3c-8.2,0.8-16.1,1.1-24.3,0
				c-8.9-1.1-17.2-2.2-26.1-0.8c-7.1,1.1-6.3,10.3-1.8,13.7c5.6,4.1,14.6,3.4,21.2,3.8c8.3,0.5,16.7,0.8,25,0.8
				c7.2,0,17.1,1.5,23.7-1.9c6.3-3.2,11.3-10.6,15.6-16.1c3.3-4.2,2.7-11-3.3-12.5c-8.9-2.3-18.5,1.4-27.5,2.4
				c-9.1,1-18.3,1.2-27.5,0.9c-9.2-0.3-18.4-1.1-27.5-2.2c-4.4-0.5-8.8-1.1-13.1-1.8c-3.2-0.5-6.5-0.8-8.8-3.4
				c-1.1,4.2-2.2,8.4-3.3,12.5c31.5-7.2,63.9-5.4,95.9-3.7c0-5,0-10,0-15c-15.1,1-30.3,2.1-45.4,3.1c-14.2,0.9-27.1,0-39.1-8.3
				c0,4.3,0,8.6,0,13c10.8-6.4,25.5-6.1,37.6-6.8c7-0.4,14-0.6,21.1-0.7c4.1,0,12.9-1.6,16,1.8c0.5-3.9,1-7.9,1.5-11.8
				c-4.7,2.8-10.3,1.6-15.4,0.5c-7-1.5-13.9-2.8-21.1-3.7c-14.2-1.7-28.6-1.5-42.8,0.4c2.2,3.8,4.3,7.5,6.5,11.3
				c4.1-9.2,19.9-8.7,28.3-9.2c13.6-0.7,27.4-0.6,41-0.7c7.9-0.1,9.6-9.8,3.8-14c-21.4-15.4-47.4-4.5-71.1-4.2c2.5,2.5,5,5,7.5,7.5
				c0.7-8.1,19-6.8,24.2-6.7c5.2,0.1,9.5,1.3,14.2,3.6c5.5,2.6,10.4,4.1,16.4,2.9c9.5-1.8,5.5-16.3-4-14.5c-2.6,0.5-5.7-1.9-7.9-2.9
				c-3.2-1.5-6.4-2.7-9.9-3.3c-6.9-1.2-13.9-1-20.9-0.5c-13.1,1-25.9,6.7-27.2,21.3c-0.4,4,3.7,7.5,7.5,7.5
				c20.4-0.2,45.2-11,63.5,2.2c1.3-4.7,2.5-9.3,3.8-14c-16.2,0.2-32.5-0.3-48.7,1.3c-12.2,1.2-27.9,3.3-33.6,16
				c-2,4.5,0.2,12.1,6.5,11.3c15.4-2.1,31.1-2.3,46.5,0.2c13.2,2.1,27.8,8.2,40.3,0.6c4.2-2.5,4.9-8.2,1.5-11.8
				c-5.5-5.9-13.3-6.1-20.9-6.1c-8.3-0.1-16.6,0.1-24.9,0.5c-15.4,0.8-33.4,0.8-47.1,9c-5.1,3-4.6,9.8,0,13
				c12.8,8.9,27.6,11.4,42.9,10.6c16.4-0.8,32.8-2.2,49.2-3.3c9.6-0.7,9.7-14.5,0-15c-33.4-1.9-67-3.4-99.9,4.2
				c-5.8,1.3-6.8,8.5-3.3,12.5c5.7,6.6,14.8,7.2,22.9,8.3c9.8,1.4,19.6,2.5,29.5,3.1c9.8,0.6,19.6,0.7,29.4,0
				c5.1-0.4,10.1-1,15.2-1.7c4.3-0.7,9.6-2.8,14-1.7c-1.1-4.2-2.2-8.4-3.3-12.5c-1.8,2.3-3.7,4.6-5.6,6.8c-1.6,1.8-3.8,5.4-6,6.4
				c-2.1,1-6.1,0.3-8.4,0.3c-3.5,0-7.1,0-10.6,0c-6.4-0.1-12.8-0.3-19.2-0.6c-3.5-0.2-7-0.4-10.6-0.7c-2.3-0.2-5,0.2-6.9-1.3
				c-0.6,4.6-1.2,9.1-1.8,13.7c12.2-2,24.7,2.6,37.1,2c5.9-0.3,11.8-1.1,17.7-1.6c3.1-0.3,6.2-0.5,9.3-0.6c2,0,7.1-0.6,8.7,0.7
				c-1.1-1.5-2.3-3-3.4-4.5c0.1,0.3,0.2,0.7,0.3,1c0-1.3,0-2.7,0-4c0.5-1.7-1.8,0.8-2.5,1.2c-1.4,0.9-2.8,1.7-4.3,2.5
				c-2.8,1.5-5.8,2.6-8.9,3.4c-6.2,1.7-12.5,1.9-18.9,1.2c-6.9-0.7-13.7-2.2-20.7-2.2c-7.2-0.1-14.4,1.1-21.2,3.1
				c-4,1.2-6.1,5.2-5.2,9.2c1.6,7.2,8.5,9.4,14.7,11.4c8.5,2.8,17,5.7,25.4,8.5c7.2,2.4,15.8,6.9,23.5,5.5c3.4-0.6,6.2-2.3,8.6-4.7
				c1.2-1.2,2.8-4.3,4.4-4.7c8.4-2.1,6.3-14.4-2-14.7c-13.8-0.6-27.6-1.2-41.5-1.7c-11.2-0.5-29.1-3.7-33.6,10.3
				c-1.8,5.8,0.9,11.9,5.9,15.2c5.4,3.5,11.8,2.8,17.9,2.9c6.9,0.1,13.8,0.8,20.7,1.6c3.6,0.4,7.2,0.9,10.8,1.4
				c1.5,0.2,3.2,0.8,4.7,0.9c2.4,0.1,0.1,1.3,1.3-0.7c2.2-1.2,4.3-2.5,6.5-3.7c-14.6-1.3-29.1-2.5-43.7-3.8
				c-7.3-0.6-14.6-1.3-21.8-1.9c-7.6-0.7-12.6,1.5-13.3,9.6c-0.5,5.7-1.7,12.7,3.7,16.3c5.2,3.5,12.8,1.3,18.7,0.7
				c13.8-1.2,27.1,0.3,40.2,4.8c8.4,2.9,12.5-9.2,5.8-13.7c-4.2-2.8-9-2.3-13.5-0.7c-5.5,1.9-11,3.9-16.7,5.3
				c-4.3,1.1-10,3.4-14.2,1.5c-4.5-2-8.1-4.7-13.3-4.2c-9.6,0.8-9.7,14.4,0,15c14.8,0.9,29.4,3.6,43.6,8c0-4.8,0-9.6,0-14.5
				c-10.5,3-21,6.1-31.5,9.1c-6.6,1.9-7.7,13.2,0,14.5c9,1.5,17.9,2,27.1,1.2c-0.7-4.9-1.3-9.8-2-14.7c-4.2,1.3-8.3,2.7-12.4,4.1
				c-3.1,1.1-6.8,2-9.1,4.4c-5.1,5.2-2.9,13,2.4,17.1c4.7,3.6,11.1,4.1,16.6,2.2c6.5-2.3,10.7-8,14.3-13.6
				c7.4-11.5,18.6-20.1,24.7-32.5c6.5-13.4,8.2-28.2,9-42.9c0.5-8.5-12.7-10.1-14.7-2c-5.6,22.3-8.3,45.3-7.7,68.3
				c0.2,8.1,13,10.6,14.7,2c5.8-28.6,11.3-57.4,19.2-85.5c-4.8,0-9.6,0-14.5,0c1.8,12.2,2.4,25.5,6.9,37.1c3.1,8,13.8,6.6,14.7-2
				c0.7-6.8,0.1-13.5-1.5-20.1c-1.7-6.9-13.1-7.4-14.5,0c-2,10.7-3.6,21.4-4.8,32.2c-0.3,3,2.6,6.7,5.5,7.2c0.1,0,0.2,0,0.3,0.1
				c3.1,0.6,6.9-0.4,8.5-3.4c1.5-2.9,1.6-5.5,0-8.4c-1.7-3.1-5.3-4-8.5-3.4c-4.8,0.8-7.7,6.5-10.4,10.1c-3.4,4.4-6.8,8.8-10.1,13.2
				c4.3,2.5,8.6,5,13,7.6c1.9-3.6,3.7-7.3,5.6-10.9c4.5-8.7-7.4-15.4-13-7.6c-7.3,10.3-14.7,20.5-22,30.8
				c-6.4,8.9-12.3,18.3-20.7,25.4c3.5,0,7.1,0,10.6,0c-12.7-10.1-22.3-24-32.5-36.5c-5.4-6.6-10.8-13.2-16.2-19.8
				c-4.7-5.7-9.3-11.8-8.1-19.7c-4.6,0.6-9.1,1.2-13.7,1.8c1,2,2,4,3,6c3.7,7.5,17,2.1,13.7-5.8c-2.6-6.2-2.1-12.5-1.3-19
				c0.9-7.3,1.9-14.5,2.8-21.8c-4.9,0.7-9.8,1.3-14.7,2c7,25.5,12,51.5,15,77.7c4.9-0.7,9.8-1.3,14.7-2c-3.7-26.3-7.4-53.3-3.8-79.9
				c-4.8,0-9.6,0-14.5,0c4.6,20.7,10.8,40.9,18.5,60.7c3.5,8.8,17.6,5.3,14.5-4c-6-17.9-9.3-36.3-9-55.2
				C124.3,153.3,109.3,153.3,109.1,163L109.1,163z"/>
		</g>
	</g>
	<g>
		<g>
			<path class="st0" d="M145.7,56.7c-3.8,6-5.1,12.7-6.3,19.6c-1.3,7.8-2.6,15.5-4,23.3c4.8,0,9.6,0,14.5,0
				c-2.7-7.5-4.4-16.7-2.4-24.6c0.1-0.7,0.3-1.4,0.7-2c-2.7-0.6-3.5-0.2-2.4,1.1c-0.1,1,0.7,2.6,0.9,3.6c1.1,4.9,1.7,10,2.1,15
				c2.5-2.5,5-5,7.5-7.5c-0.8,0-1.5,0.1-2.3,0.1c0.7,4.9,1.3,9.8,2,14.7c3.3-0.5,8.5-0.6,11.4,1.2c-1.2-2.2-2.5-4.3-3.7-6.5
				c0,0.4,0.1,0.8,0.1,1.2c0.3-1.3,0.7-2.5,1-3.8c-3.2,5.6-14.9,0-18.7-1.4c-7.8-2.9-16.4-4.9-24.4-1.6c3.1,3.1,6.2,6.2,9.2,9.2
				c4.7-13.7,10.5-26.9,17.3-39.7c4.6-8.5-8.4-16.1-13-7.6c-7.4,13.9-13.7,28.4-18.8,43.3c-1.7,5,4,11.4,9.2,9.2
				c7.7-3.2,15.1,1.5,22.5,3.8c6.9,2.2,14.3,2.8,21-0.2c6.4-2.8,13.6-11.2,7.3-17.8c-5.6-5.8-17.4-4.9-24.5-3.9
				c-8.4,1.2-6.3,15,2,14.7c0.8,0,1.5-0.1,2.3-0.1c3.8-0.1,7.9-3.3,7.5-7.5c-0.7-8-1.1-17.4-4.5-24.9c-3.2-7-11.4-11.7-18.8-7.7
				c-6.9,3.7-8.2,12.3-8.6,19.4c-0.5,8.2,0.8,16.5,3.5,24.1c2.2,6.3,13.1,7.9,14.5,0c1.2-7.1,2.4-14.2,3.6-21.4
				c1-6.1,1.7-12.6,5.1-17.9C163.8,56.1,150.9,48.5,145.7,56.7L145.7,56.7z"/>
		</g>
	</g>
</g>
<g id="レイヤー_1">
	<path class="st1" d="M93.6,77.3"/>
	<g>
		<g>
			<path class="st2" d="M86.6,188.2l-3.2,20.5l43.5-21.6c0,0,3.8-17.6,4.8-10c1,7.6,1,7.6,1,7.6s13-9,7.8-2.6
				c-5.2,6.5-5.2,6.5-5.2,6.5s16.2-1,8.7,1.6c-7.5,2.6-7.5,2.6-7.5,2.6s9.1,10.3,0.6,6.5c-8.4-3.8-4.1-1.8-4.1-1.8l-4.1-1.9
				c0,0-55.5,36-57.5,23.3c-2-12.7,4.2-66.2,4.2-66.2C77,126,82,115.5,82,115.5s0,0-19.1-7.7s-2.3-30.5-2.3-30.5
				c0.9,21.3,24.7,24.8,24.7,24.8c1.9-13.2,10-22.1,10-22.1S78.5,65.9,80.1,53s11.4-18.4,11.4-18.4c-13,15.7,14.6,34.6,14.6,34.6
				C124.5,48.1,141,46.5,141,46.5"/>
			<path class="st2" d="M86.5,218.9c0,0,0,76.4,13.4,104.4l-22.6,5.6c0,0-11.7,2.6-1.7,2.4c9.9-0.2-10.4,4.3-0.2,4.3
				c10.5,0-8.1,5.8-0.9,4.8c11.3-1.6-2.2,4,6.5,3.6c0,0,39.4-3.2,40.2-11.3l0-39.5l28.8-1.2"/>
		</g>
		<g>
			<path class="st2" d="M139.9,47.3"/>
			<path class="st2" d="M212.2,188.2l3.2,20.5l-43.5-21.6c0,0-3.8-17.6-4.8-10s-1,7.6-1,7.6s-13-9-7.8-2.6c5.2,6.5,5.2,6.5,5.2,6.5
				s-16.2-1-8.7,1.6c7.5,2.6,7.5,2.6,7.5,2.6s-9.1,10.3-0.6,6.5s4.1-1.8,4.1-1.8l4.1-1.9c0,0,55.5,36,57.5,23.3
				c2-12.7-4.2-66.2-4.2-66.2c-1.4-26.8-6.4-37.3-6.4-37.3s0,0,19.1-7.7s2.3-30.5,2.3-30.5c-0.9,21.3-24.7,24.8-24.7,24.8
				c-1.9-13.2-10-22.1-10-22.1s16.8-14.1,15.2-27.1c-1.6-13-11.4-18.4-11.4-18.4c13,15.7-14.6,34.6-14.6,34.6
				c-18.4-21.1-34.9-22.7-34.9-22.7c-9.2-15.3,3.5-39.3,3.5-39.3s-30.5,5.1-21.4,39.5"/>
			<path class="st2" d="M212.3,218.9c0,0,0,76.4-13.4,104.4l22.6,5.6c0,0,11.7,2.6,1.7,2.4c-9.9-0.2,10.4,4.3,0.2,4.3
				c-10.5,0,8.1,5.8,0.9,4.8c-11.3-1.6,2.2,4-6.5,3.6c0,0-39.4-3.2-40.2-11.3l0-39.5l-28.8-1.2"/>
		</g>
	</g>
</g>
<g id="レイヤー_3">
	<ellipse class="st3" cx="149.2" cy="112.1" rx="25.4" ry="37.6"/>
	<path class="st4" d="M123.8,101.6c3.3,3,12.4,10.3,25.4,10.5c12.8,0.2,22-6.7,25.4-9.5"/>
	<path class="st3" d="M142.3,110.6c-1,3.3-2.6,10.1-1.6,18.6c1.4,11.5,6.7,18.7,8.6,21"/>
	<path class="st4" d="M147.9,112.7c-0.8,3.5-1.9,10.3-0.6,18.7c1.5,9.7,5.4,16.1,7.3,18.9"/>
	<g>
		<g>
			<path class="st5" d="M148.7,113.1c-0.1,1.6-0.4,3.3-0.2,4.9c0.2,1.3,0,2.7,0.3,4c0.3,1.3,2.6,0.3,2.9-0.5
				c0.1-0.3,0.2-0.6,0.2-0.9c0.1-0.9-1.2-0.8-1.7-0.7c-1.8,0.4-3.4,3.5-1.3,4.5c1,0.5,3.6-0.9,2.3-1.5c-1-0.5,0.6-1.6-0.6-1.3
				c-0.6-0.2-1.1-0.5-1.7-0.7c0,0.3-0.1,0.6-0.2,0.9c1-0.2,1.9-0.4,2.9-0.5c-0.3-1.1-0.1-2.4-0.2-3.5c-0.2-1.6,0-3.2,0.1-4.9
				C151.7,111.5,148.7,112,148.7,113.1L148.7,113.1z"/>
		</g>
	</g>
	<g>
		<g>
			<path class="st5" d="M147.3,120.6c-0.2,3.1,0.4,5.7,1.6,8.5c0.9-0.3,1.9-0.7,2.8-1c-0.5-0.7-0.9-1.3-1.4-2c-0.7-1-2.9-0.1-2.8,1
				c0.3,4.1,1.7,8,3.2,11.8c0.9-0.3,1.9-0.7,2.8-1c-0.4-0.9-1-1.7-1.6-2.4c-0.6-0.8-3.3-0.1-2.8,1c0.8,2,1.8,3.6,3.2,5.2
				c0.6,0.7,3.2,0.2,2.8-1c-0.2-0.6-0.5-1.2-0.7-1.9c-0.4-1.1-2.8-0.6-2.9,0.5c-0.1,0.7-0.2,1.3-0.1,2c0.9-0.2,1.9-0.5,2.8-0.7
				c-0.2-0.2-0.4-0.4-0.6-0.6c-0.8-0.7-3.5-0.1-2.7,1.2c0.8,1.2,1.5,2.3,2.4,3.5c0.6,0.8,2.8,0.3,2.8-0.7c0-0.3,0-0.7,0-1
				c-0.9,0.2-1.9,0.5-2.8,0.7c1,1.4,1.8,3.2,3.7,2.5c0.7-0.3,1.7-1,0.9-1.7c-0.9-0.8-1.7-1.5-2.6-2.3c-0.6-0.6-3,0.1-2.6,1.2
				c0.5,1.2,0.4,1.1,1.3,2.1c0.9-0.4,1.8-0.8,2.7-1.2c-0.8-0.9-2.1-1.5-3.3-0.6c-1.9,1.5,0.6,3.7,1.6,5.1c0.6,0.8,2.3,0.3,2.7-0.5
				c0.2-0.4,0.4-0.8,0.6-1.1c0.7-1.4-2.2-1.3-2.8-0.3c-0.2,0.4-0.4,0.8-0.6,1.1c0.9-0.2,1.8-0.3,2.7-0.5c-0.6-1.5-1.8-2.2-3.6-2
				c0.8,0.8,3.6-0.1,2.7-1.2c-0.3-0.6-0.7-1.1-1-1.7c-0.9,0.4-1.7,0.8-2.6,1.2c0.9,0.8,1.7,1.5,2.6,2.3c0.3-0.6,0.6-1.1,0.9-1.7
				c0.3-0.8,0.1-1.4-0.6-1.9c-0.5-0.8-2.8-0.3-2.8,0.7c0,0.3,0,0.7,0,1c0.9-0.2,1.9-0.5,2.8-0.7c-0.8-1.1-1.6-2.3-2.4-3.5
				c-0.9,0.4-1.8,0.8-2.7,1.2c0.2,0.2,0.4,0.4,0.6,0.6c0.6,0.6,2.8,0.4,2.8-0.7c-0.1-0.7,0-1.4,0.1-2c-1,0.2-1.9,0.3-2.9,0.5
				c0.2,0.6,0.5,1.2,0.7,1.9c0.9-0.3,1.9-0.7,2.8-1c-1.4-1.5-2.2-2.8-3-4.7c-0.9,0.3-1.9,0.7-2.8,1c0.7,0.7,1.2,1.5,1.6,2.4
				c0.5,0.9,3.2,0.1,2.8-1c-1.5-3.8-2.8-7.7-3.2-11.8c-0.9,0.3-1.9,0.7-2.8,1c0.5,0.7,0.9,1.3,1.4,2c0.6,0.9,3.2,0.1,2.8-1
				c-1.1-2.7-1.7-5-1.6-8C150.3,119,147.3,119.4,147.3,120.6L147.3,120.6z"/>
		</g>
	</g>
	<g>
		<g>
			<path class="st5" d="M154.1,114.3c0.6-0.2,1.2-0.4,1.8-0.5c1.3-0.4,1.7-1.7,0-1.6c-0.8,0-1.6,0.1-2.4,0.1c0,0.5,0,1.1,0,1.6
				c7.6-1.5,14.4-4.8,20.6-9.4c-0.8,0-1.6-0.1-2.4-0.1c1.7,14.2-1.7,28.9-10.8,40.1c-0.8,1,2.1,0.9,2.7,0.1
				c9.3-11.4,12.8-26.5,11-40.9c-0.1-0.9-2-0.4-2.4-0.1c-5.8,4.4-12.1,7.4-19.2,8.8c-1.4,0.3-1.7,1.7,0,1.6c0.8,0,1.6-0.1,2.4-0.1
				c0-0.5,0-1.1,0-1.6c-0.6,0.2-1.2,0.4-1.8,0.5C151.9,113.3,152.3,114.8,154.1,114.3L154.1,114.3z"/>
		</g>
	</g>
	<g>
		<g>
			<path class="st5" d="M167,139.2c0.3-0.5,0.6-1.1,0.9-1.6c-0.9,0-1.9,0-2.8,0.1c0.1-0.1,0.2-0.2,0.4-0.3c0.7,0.3,1.4,0.6,2.1,0.9
				c0.8-1,1.3-2.9,2.3-3.7c-0.9-0.1-1.7-0.3-2.6-0.4c-0.1,0.2-0.3,0.5-0.4,0.7c0.9,0.1,1.8,0.1,2.7,0.2c1.3-2.5,2.9-5.1,3-8
				c0-1.3-2.4-0.8-2.8,0.1c-0.1,0.1-0.1,0.2-0.2,0.3c0.9,0,1.9,0,2.8-0.1c0.3-0.8,0.5-1.5,0.7-2.4c0.3-1.3-2.6-0.8-2.9,0.3
				c-0.2,0.7-0.4,1.4-0.5,2.1c1-0.1,1.9-0.2,2.9-0.3c0.1-0.4,0.1-0.9,0.1-1.3c0-1.4-2.7-0.8-2.9,0.3c-0.2,0.5-0.2,1-0.3,1.6
				c-0.1,0.9,1.2,0.8,1.7,0.7c1.3-0.3,1.8-1,1.9-2.3c0.1-1.4-2.7-0.8-2.9,0.3c-0.2,0.5-0.3,1.1-0.5,1.6c0.9,0.1,1.8,0.1,2.7,0.2
				c0.1-0.3,0.3-0.7,0.4-1c-0.9,0-1.9,0-2.8,0.1c-0.1,0.7-0.3,1.3-0.7,1.9c-0.7,1.3,2.2,1.2,2.7,0.2c0.4-0.8,0.7-1.5,0.8-2.4
				c0.3-1.3-2.5-0.8-2.8,0.1c-0.1,0.3-0.3,0.7-0.4,1c-0.6,1.4,2.3,1.2,2.7,0.2c0.4-0.9,0.4-1.1,0.7-2.1c-1,0.1-1.9,0.2-2.9,0.3
				c-0.1,0.3-0.1,0.6-0.2,1c0.4-0.3,0.8-0.5,1.1-0.8c-0.1,0-0.2,0-0.3,0.1c0.6,0.2,1.1,0.5,1.7,0.7c0-0.5,0.1-1.1,0.3-1.6
				c-1,0.1-1.9,0.2-2.9,0.3c0,0.4,0,0.9-0.1,1.3c-0.2,1.4,2.6,0.7,2.9-0.3c0.2-0.7,0.4-1.4,0.5-2.1c-1,0.1-1.9,0.2-2.9,0.3
				c-0.2,0.8-0.4,1.6-0.7,2.4c-0.4,1.2,2.4,0.8,2.8-0.1c0.1-0.1,0.1-0.2,0.2-0.3c-0.9,0-1.9,0-2.8,0.1c-0.1,2.8-1.6,5.2-2.8,7.6
				c-0.7,1.3,2.2,1.2,2.7,0.2c0.1-0.2,0.3-0.5,0.4-0.7c0.8-1.4-2-0.9-2.6-0.4c-1.1,0.9-1.3,2.6-2.3,3.7c-1.1,1.3,1.4,1.4,2.1,0.9
				c0.4-0.3,0.7-0.5,0.7-1c0-1.4-2.4-0.7-2.8,0.1c-0.3,0.5-0.6,1.1-0.9,1.6C163.6,140.3,166.5,140.2,167,139.2L167,139.2z"/>
		</g>
	</g>
	<g>
		<g>
			<path class="st5" d="M173.3,118.1c0-0.3,0-0.5,0.1-0.7c-0.9,0-1.9,0-2.8,0c-0.1,0.3-0.2,0.6-0.3,0.9c0.9,0,1.9,0,2.8,0
				c0.2-0.9,0.4-1.8,0.5-2.7c-1,0.2-1.9,0.3-2.9,0.5c0.1,0.7-0.1,1.4-0.4,2.1c-0.3,0.6,0.2,1,0.7,1.2c0.6,0.1,1.5,0,1.9-0.6
				c0.8-1.1,1.1-2.3,1-3.7c-1,0.3-1.9,0.5-2.9,0.8c0.2,1.3-0.6,2.3-1.1,3.4c-0.3,0.6,0.3,1.1,0.9,1.2c0.7,0.1,1.6-0.2,1.9-0.9
				c0.4-0.7,0.8-1.4,1.1-2.2c0.3-0.8,0.3-1.5,0.2-2.3c-0.1-0.7-1.2-0.7-1.7-0.6c-0.7,0.2-1.2,0.6-1.2,1.4c0,0.7-0.1,1.5-0.6,2.1
				c0.9,0.2,1.7,0.4,2.6,0.6c0.6-1,0.7-2,0.6-3.2c-0.1-0.6-1.1-0.7-1.5-0.6c-0.6,0.1-1.3,0.5-1.4,1.1c-0.2,0.9-0.4,1.8-0.5,2.7
				c-0.3,1.4,2.5,1,2.8,0c0.2-0.5,0.3-0.9,0.5-1.4c0.2-0.6-0.7-0.9-1.1-0.9c-0.6,0-1.4,0.3-1.7,0.9c-0.2,0.4-0.3,0.8-0.3,1.3
				C170.4,119.8,173.3,119.3,173.3,118.1L173.3,118.1z"/>
		</g>
	</g>
	<g>
		<g>
			<path class="st5" d="M172.2,105.4c0,4.3-0.2,8.2-1.4,12.4c-0.2,0.8,2.6,0.4,2.9-0.4c1.3-4.3,1.4-8.3,1.4-12.7
				C175.1,104,172.2,104.5,172.2,105.4L172.2,105.4z"/>
		</g>
	</g>
	<g>
		<g>
			<path class="st5" d="M172.1,105.1c0.2,1.4,0,2.8-0.6,4.2c-0.2,0.6,1,0.6,1.2,0.5c0.6-0.1,1.4-0.3,1.7-0.9c0.6-1.5,0.8-3,0.6-4.6
				C174.9,103.5,172,104.1,172.1,105.1L172.1,105.1z"/>
		</g>
	</g>
	<g>
		<g>
			<path class="st5" d="M172,105.3c0.6,2.1,0.2,4.1-0.3,6.1c-0.2,0.6,2.7,0.2,2.9-0.5c0.5-2.1,0.9-4.3,0.4-6.4
				C174.7,103.9,171.8,104.7,172,105.3L172,105.3z"/>
		</g>
	</g>
	<g>
		<g>
			<path class="st5" d="M171.8,104.9c0,0.3,0.1,0.6,0.2,0.8c1-0.3,1.9-0.5,2.9-0.8c0-0.1-0.3-0.4-0.3-0.5c-0.2,0.2-0.4,0.4-0.6,0.6
				c0,0,0,0,0.1,0c-0.6,0.1-1.2,0.2-1.8,0.4c0,0,0.1,0,0.1,0c-0.2-0.1-0.3-0.1-0.5-0.2c0.5,0.4,0.4,1.1,0.3,1.7
				c-0.1,0.6-0.1,1.3-0.2,1.9c-0.1,1.1,2.8,0.6,2.9-0.4c0.1-1.1,0.5-2.6,0.1-3.7c-0.5-1.2-1.9-1-2.9-0.5
				C172.1,104.3,171.7,104.6,171.8,104.9c-0.1,0.3,0,0.5,0.2,0.8c0.5,0.8,3.2,0.2,2.9-0.8c-0.1-0.3-0.1-0.6-0.2-0.8
				C174.5,103.2,171.6,103.8,171.8,104.9L171.8,104.9z"/>
		</g>
	</g>
	<g>
		<g>
			<path class="st5" d="M170.9,116.6c-0.3,2.2-1,4.1-2,6c-0.2,0.4,1,0.2,1.1,0.2c0.5-0.1,1.5-0.3,1.7-0.8c1-2,1.7-4,2.1-6.3
				C173.8,115.6,171,115.8,170.9,116.6L170.9,116.6z"/>
		</g>
	</g>
	<g>
		<g>
			<path class="st5" d="M150.8,113.5c0.5,11.1,1.8,21.1,5.5,31.7c0.3,0.8,2.7,0,2.9-0.6c0.1-0.2,0.1-2.2,0.2-2.2
				c0.2-0.3,1.2-0.5,1.5-0.7c1.5-1.4,2.4-2.5,3.3-4.5c-1,0.2-1.9,0.3-2.9,0.5c-0.3,1.6-0.7,2.7-1.5,4.1c1-0.2,1.9-0.3,2.9-0.5
				c0.2-0.3,0.3-0.7,0.5-1c0.4-0.8-2.3-0.1-2.6,0.1c-0.4,0.3-0.8,0.5-1.2,0.8c0.7-0.1,1.5-0.2,2.2-0.2c-1.1-1-1.5-4.4-2.1-5.9
				c-1-2.3-1.4-4.6-1.6-7.1c-0.1-2.3-0.1-4.5-0.4-6.8c-0.4-3.1-2-6.4,1.1-8.6c-0.9,0.1-1.7,0.2-2.6,0.3c0.7,5.3,2.2,10.5,2.6,15.8
				c0.3,3.4-0.1,8.1,2.1,11c0.3,0.4,1.6,0.1,1.9-0.1c4.1-1.8,2.9-4.9,2.2-8.6c-0.6-3.2-0.9-6.5-1.1-9.7c-0.2-2.5-2.2-10.5,1.1-11.6
				c-0.7,0-1.3,0-2,0c0.5,4,1,7.9,1.6,11.9c0.5,3.9,1.9,8.9,0.6,12.7c-0.2,0.7,2.6,0.4,2.9-0.5c1.2-3.5,0.1-7.6-0.4-11.2
				c-0.6-4.6-1.2-9.1-1.8-13.7c-0.1-0.6-1.7-0.1-2,0c-1.5,0.5-2.6,1.1-3.8,2.1c-0.1,0.1-0.4,0.3-0.3,0.5c0.8,4.4,1,8.9,1.4,13.4
				c0.2,2.4,3.2,12.8,0.5,14c0.6,0,1.3-0.1,1.9-0.1c-2.4-3.1-1.6-8.8-2.1-12.5c-0.6-4.7-1.9-9.3-2.4-14c-0.1-0.8-2.3,0-2.6,0.3
				c-1.2,0.9-2.2,1.3-2.7,2.6c-1,2.4,1.1,7.8,1.2,10.4c0.2,3.4,0.2,6.6,1.4,9.8c0.6,1.5,1.5,5.8,2.6,6.8c0.5,0.5,1.7,0,2.2-0.2
				c0.7-0.3,1.1-0.7,1.7-1.1c-0.9,0-1.7,0.1-2.6,0.1c-0.2,0.3-0.3,0.7-0.5,1c-0.3,0.6,2.5,0.3,2.9-0.5c0.8-1.4,1.2-2.6,1.5-4.1
				c0.2-0.9-2.6-0.2-2.9,0.5c-1,2.3-2.5,2.7-3.9,4.3c-1,1-0.6,1.8-1,3.2c1-0.2,1.9-0.4,2.9-0.6c-3.7-10.5-5.1-20.5-5.5-31.7
				C153.6,112.1,150.7,112.6,150.8,113.5L150.8,113.5z"/>
		</g>
	</g>
	<g>
		<g>
			<path class="st5" d="M170.3,123.7c0.4-5.4,1-10.7,2-16c0.1-0.7-2.5,0.1-2.9,0.5c-0.8,0.7-1.6,1.4-2.5,2c-0.1,0.1-0.7,0.3-0.6,0.6
				c0.5,1.3,0.7,2.5,0.7,3.8c0,0.4,2.8,0,2.9-0.8c0.1-1.8,0.2-3.4-0.6-5.1c-0.3-0.7-3.1,0.3-2.9,0.8c0.8,1.7,0.8,3.3,0.6,5.1
				c1-0.3,1.9-0.5,2.9-0.8c0-1.4-0.2-2.5-0.7-3.8c-0.2,0.2-0.4,0.4-0.6,0.6c1.6-0.7,2.6-1.5,3.7-2.9c-1,0.2-1.9,0.4-2.9,0.5
				c-1,5.4-1.7,10.8-2.1,16.2C167.4,124.9,170.2,124.6,170.3,123.7L170.3,123.7z"/>
		</g>
	</g>
	<path class="st6" d="M140.2,161.6c2,0.9,5.6,2.1,10.2,2c4.3,0,7.7-1.2,9.6-2"/>
</g>
<g id="レイヤー_4">
	<g>
		<g>
			<path class="st5" d="M147.6,113c-0.5,6.4-1.2,12.9-0.1,19.2c0.9,5.8,3,11.5,5.6,16.7c0.4,0.8,3.2-0.2,2.9-0.8
				c-5.8-11.5-6.5-22.9-5.5-35.7C150.6,111.6,147.7,112.2,147.6,113L147.6,113z"/>
		</g>
	</g>
	<g>
		<g>
			<path class="st5" d="M157,147.3c5.8-0.4,9.4-9.2,11.1-13.8c1.7-4.5,2.9-8.9,3.6-13.7c0.7-4.6,2-8.9,1.7-13.6
				c-0.1-0.9-2-0.4-2.4-0.1c-3.9,2.8-8,4.7-12.6,5.9c-0.5,0.1-1.6,0.7-1.1,1.4c2.2,2.9,1.9,7.4,2.4,10.8c0.7,4.3,1.5,8.4,1.2,12.8
				c-0.1,1.2,2.2,0.7,2.6,0.1c2.9-3.3,3.7-4.6,3.3-9.1c-0.5-5.5-1.9-10.8-2.3-16.3c-0.4,0.4-0.8,0.8-1.2,1.2
				c1.7-0.5,3.1-1.1,4.6-1.9c-0.8,0-1.6-0.1-2.4-0.1c1.4,5.2,2.4,13.1-0.9,17.5c-1.2,1.6-3.3,3.3-4.1,5.2c-1.4,3-1.5,6.7-2.9,9.8
				c0.9-0.2,1.8-0.3,2.7-0.5c-0.4-0.4-1-0.3-1.4-0.6c-0.8-0.6-1.8-0.3-2.7-1.1c-1.3-1.2-1.7-2.9-2.1-4.5c-1.3-5.3-2.2-10.4-2-15.9
				c-0.9,0.3-1.7,0.6-2.6,0.9c2.8,1.3,4.2,3.5,4.6,6.5c0.1,1.1,3,0.4,2.9-0.8c-0.3-3,0-5.4,0.8-8.2c-0.9,0.2-1.9,0.5-2.8,0.7
				c2.3,4.1,2.4,9.6,2.3,14.2c0,1.3,2.9,0.7,2.9-0.3c0.1-5.1,0-10.6-2.5-15.1c-0.5-0.9-2.6,0-2.8,0.7c-0.8,2.9-1.1,5.7-0.8,8.7
				c1-0.3,1.9-0.5,2.9-0.8c-0.5-3.4-2.2-5.7-5.2-7.2c-0.6-0.3-2.6-0.1-2.6,0.9c-0.2,5.9,0.8,11.4,2.2,17.1c0.4,1.7,1,3.3,2.4,4.5
				c1,0.8,3.3,0.8,3.9,1.4c0.6,0.6,2.3,0.3,2.7-0.5c1.3-2.9,1.7-5.9,2.7-8.8c1.2-3.3,4.3-5.2,5.8-8.3c2-4.2,0.7-12.1-0.4-16.4
				c-0.3-0.9-1.9-0.4-2.4-0.1c-1.1,0.4-2.2,0.9-3.2,1.3c-0.6,0.2-1.3,0.5-1.2,1.2c0.3,3.7,1,7.3,1.5,10.9c0.8,5.1,1.7,9-2,13.2
				c0.9,0,1.8,0.1,2.6,0.1c0.3-4.5-0.5-8.8-1.2-13.2c-0.6-3.7-0.3-8.1-2.7-11.2c-0.4,0.5-0.7,0.9-1.1,1.4c5.1-1.3,9.7-3.5,14-6.5
				c-0.8,0-1.6-0.1-2.4-0.1c0.5,6.3-1.3,14.3-3.1,20.3c-0.9,3.1-2,6.3-3.4,9.3c-1,2.2-4,8.7-6.7,8.9
				C155.8,145.6,155,147.4,157,147.3L157,147.3z"/>
		</g>
	</g>
</g>
</svg>
