<?xml version="1.0" encoding="utf-8"?>
<!-- Generator: Adobe Illustrator 22.0.1, SVG Export Plug-In . SVG Version: 6.00 Build 0)  -->
<svg version="1.1" xmlns="http://www.w3.org/2000/svg" xmlns:xlink="http://www.w3.org/1999/xlink" x="0px" y="0px"
	 viewBox="0 0 300 350" style="enable-background:new 0 0 300 350;" xml:space="preserve">
<style type="text/css">
	.st0{fill:#ECCCA7;stroke:#040000;stroke-width:3;stroke-miterlimit:10;}
	.st1{fill:#F0CFA9;stroke:#040000;stroke-width:3;stroke-miterlimit:10;}
	.st2{fill:#C34794;stroke:#000000;stroke-width:3;stroke-miterlimit:10;}
	.st3{fill:none;stroke:#040000;stroke-width:3;stroke-miterlimit:10;}
	.st4{fill:#FFFFFF;stroke:#040000;stroke-width:3;stroke-miterlimit:10;}
	.st5{fill:#040000;stroke:#040000;stroke-width:3;stroke-miterlimit:10;}
	.st6{fill:#BD468B;stroke:#000000;stroke-width:3;stroke-miterlimit:10;}
	.st7{fill:#62B73B;stroke:#000000;stroke-width:3;stroke-miterlimit:10;}
</style>
<g id="レイヤー_1">
</g>
<g id="レイヤー_2">
	<path class="st0" d="M60.1,201.4l-20.3,16.4c-3.2,2.5-2.9,7.4,0.4,9.7L71,247.9l0.6,5.3c0.1,1.1,1.7,1.3,2.1,0.2l1.9-5.8l4.5,0.5
		c1.2,0.1,1.7-1.4,0.7-2.1l-4.9-3.8l3.4-3.4c0.7-0.5,0.4-1.7-0.5-1.7l-8.8,0.3l-20.3-16.4l16.1-11.5"/>
	<path class="st0" d="M239.9,201.4l20.3,16.4c3.2,2.5,2.9,7.4-0.4,9.7L229,247.9l-0.6,5.3c-0.1,1.1-1.7,1.3-2.1,0.2l-1.9-5.8
		l-4.5,0.5c-1.2,0.1-1.7-1.4-0.7-2.1l4.9-3.8l-3.4-3.4c-0.7-0.5-0.4-1.7,0.5-1.7l8.8,0.3l20.3-16.4l-16.1-11.5"/>
	<path class="st0" d="M189.4,218.7l-5.2,56.8c0,0,27.5,6.9,13.4,12.2s-31.3-7.2-23.2-12.3L178,227"/>
	<path class="st1" d="M114,217.9l9.4,7.5l3.9,48c8.1,5.2-9,17.6-23.2,12.3s13.4-12.2,13.4-12.2l-5.2-56.8"/>
	<path class="st2" d="M218.6,133.7c-7.6,0-14.8,2-21,5.5c-10-16.8-26.8-27.8-45.9-27.8c-19.1,0-35.9,11-45.9,27.8
		c-6.2-3.5-13.3-5.5-20.9-5.5c-23.5,0-42.6,19.1-42.6,42.6s19.1,42.6,42.6,42.6c8,0,15.6-2.2,22-6.1c10.1,15.8,26.4,26.1,44.9,26.1
		c18.4,0,34.8-10.3,44.9-26.1c6.4,3.9,14,6.1,22,6.1c23.5,0,42.6-19.1,42.6-42.6S242.1,133.7,218.6,133.7z"/>
	<line class="st3" x1="143.9" y1="193.2" x2="159.5" y2="193.2"/>
	<g>
		<ellipse class="st4" cx="116" cy="172.2" rx="18" ry="11.2"/>
		<ellipse class="st5" cx="116" cy="172.2" rx="6.5" ry="10.5"/>
		<ellipse class="st4" cx="187.4" cy="171.6" rx="18" ry="11.2"/>
		<ellipse class="st5" cx="187.4" cy="171.6" rx="6.5" ry="10.5"/>
	</g>
	<line class="st6" x1="151.7" y1="111.5" x2="151.7" y2="67.7"/>
	<path class="st6" d="M150.9,68.8c0,0-20.3-16.6-19.4-1.4C132.3,82.7,150.9,68.8,150.9,68.8z"/>
	<path class="st7" d="M150.9,68.8c0,0-20.3-16.6-19.4-1.4C132.3,82.7,150.9,68.8,150.9,68.8z"/>
	<path class="st7" d="M152.4,68.8c0,0,20.3-16.6,19.4-1.4C171,82.7,152.4,68.8,152.4,68.8z"/>
</g>
</svg>
