<?xml version="1.0" encoding="utf-8"?>
<!-- Generator: Adobe Illustrator 22.0.1, SVG Export Plug-In . SVG Version: 6.00 Build 0)  -->
<svg version="1.1" xmlns="http://www.w3.org/2000/svg" xmlns:xlink="http://www.w3.org/1999/xlink" x="0px" y="0px"
	 viewBox="0 0 300 350" style="enable-background:new 0 0 300 350;" xml:space="preserve">
<style type="text/css">
	.st0{fill:#ECCCA7;stroke:#040000;stroke-width:3;stroke-miterlimit:10;}
	.st1{fill:#F0CFA9;stroke:#040000;stroke-width:3;stroke-miterlimit:10;}
	.st2{fill:#25ABCD;stroke:#000000;stroke-width:3;stroke-miterlimit:10;}
	.st3{fill:#FFFFFF;stroke:#000000;stroke-width:3;stroke-miterlimit:10;}
	.st4{fill:#C34794;stroke:#000000;stroke-width:3;stroke-miterlimit:10;}
	.st5{fill:none;stroke:#040000;stroke-width:2;stroke-miterlimit:10;}
	.st6{fill:#FFFFFF;stroke:#040000;stroke-width:2;stroke-miterlimit:10;}
	.st7{fill:#040000;stroke:#040000;stroke-width:2;stroke-miterlimit:10;}
</style>
<g id="レイヤー_2">
	<path class="st0" d="M81.8,239.2L78,281c0,0,20.3,5.1,9.9,9c-10.4,3.9-23-5.3-17-9.1l2.6-35.6"/>
	<path class="st1" d="M46.4,240.6l6.9,5.5l2.9,35.3c6,3.8-6.7,13-17,9.1c-10.4-3.9,9.9-9,9.9-9l-3.8-41.8"/>
	<circle class="st2" cx="63.3" cy="34.5" r="6.6"/>
	<circle class="st2" cx="149.4" cy="34.5" r="6.6"/>
	<circle class="st2" cx="236.6" cy="34.5" r="6.6"/>
	<path class="st1" d="M32.8,162.3h-6.3c-1.1,0-1.9-1-1.8-2.1c0.3-1.9,0.2-4.4-2.3-4.6c-2.3-0.3-2.9,1.3-3,2.6
		c-0.1,1-0.9,1.7-1.8,1.7c-2-0.1-4.7,0.4-5,3.5c-0.3,3.3,2.9,3.7,5.1,3.7c0.9,0,1.7,0.8,1.5,1.7c-0.2,1.8,0,4.3,3.1,3.8
		c4.1-0.6,3-6.2,3-6.2l7.5,0.3"/>
	<path class="st1" d="M93.5,163.3h6.3c1.1,0,1.9-1,1.8-2.1c-0.3-1.9-0.2-4.4,2.3-4.6c2.3-0.3,2.9,1.3,3,2.6c0.1,1,0.9,1.7,1.8,1.7
		c2-0.1,4.7,0.4,5,3.5c0.3,3.3-2.9,3.7-5.1,3.7c-0.9,0-1.7,0.8-1.5,1.7c0.2,1.8,0,4.3-3.1,3.8c-4.1-0.6-3-6.2-3-6.2l-7.5,0.3"/>
	<path class="st1" d="M119.8,162.3h-6.3c-1.1,0-1.9-1-1.8-2.1c0.3-1.9,0.2-4.4-2.3-4.6c-2.3-0.3-2.9,1.3-3,2.6
		c-0.1,1-0.9,1.7-1.8,1.7c-2-0.1-4.7,0.4-5,3.5c-0.3,3.3,2.9,3.7,5.1,3.7c0.9,0,1.7,0.8,1.5,1.7c-0.2,1.8,0,4.3,3.1,3.8
		c4.1-0.6,3-6.2,3-6.2l7.5,0.3"/>
	<path class="st1" d="M180.3,162.3h6.3c1.1,0,1.9-1,1.8-2.1c-0.3-1.9-0.2-4.4,2.3-4.6c2.3-0.3,2.9,1.3,3,2.6c0.1,1,0.9,1.7,1.8,1.7
		c2-0.1,4.7,0.4,5,3.5c0.3,3.3-2.9,3.7-5.1,3.7c-0.9,0-1.7,0.8-1.5,1.7c0.2,1.8,0,4.3-3.1,3.8c-4.1-0.6-3-6.2-3-6.2l-7.5,0.3"/>
	<path class="st1" d="M206.8,163.4h-6.3c-1.1,0-1.9-1-1.8-2.1c0.3-1.9,0.2-4.4-2.3-4.6c-2.3-0.3-2.9,1.3-3,2.6
		c-0.1,1-0.9,1.7-1.8,1.7c-2-0.1-4.7,0.4-5,3.5c-0.3,3.3,2.9,3.7,5.1,3.7c0.9,0,1.7,0.8,1.5,1.7c-0.2,1.8,0,4.3,3.1,3.8
		c4.1-0.6,3-6.2,3-6.2l7.5,0.3"/>
	<path class="st1" d="M267.2,162.3h6.3c1.1,0,1.9-1,1.8-2.1c-0.3-1.9-0.2-4.4,2.3-4.6c2.3-0.3,2.9,1.3,3,2.6c0.1,1,0.9,1.7,1.8,1.7
		c2-0.1,4.7,0.4,5,3.5c0.3,3.3-2.9,3.7-5.1,3.7c-0.9,0-1.7,0.8-1.5,1.7c0.2,1.8,0,4.3-3.1,3.8c-4.1-0.6-3-6.2-3-6.2l-7.5,0.3"/>
	<path class="st0" d="M168.4,239.6l-3.8,41.8c0,0,20.3,5.1,9.9,9c-10.4,3.9-23-5.3-17-9.1l2.6-35.6"/>
	<path class="st1" d="M132.9,240l6.9,5.5l2.9,35.3c6,3.8-6.7,13-17,9.1c-10.4-3.9,9.9-9,9.9-9l-3.8-41.8"/>
	<path class="st0" d="M255,240.4l-3.8,41.8c0,0,20.3,5.1,9.9,9c-10.4,3.9-23-5.3-17-9.1l2.6-35.6"/>
	<path class="st1" d="M219.5,240.8l6.9,5.5l2.9,35.3c6,3.8-6.7,13-17,9.1c-10.4-3.9,9.9-9,9.9-9l-3.8-41.8"/>
</g>
<g id="レイヤー_1">
	<line class="st3" x1="63.4" y1="67.7" x2="63.4" y2="41.2"/>
	<line class="st3" x1="149.4" y1="68.7" x2="149.4" y2="42.2"/>
	<line class="st3" x1="236.7" y1="68.8" x2="236.7" y2="42.3"/>
	<g>
		<ellipse class="st4" cx="63.4" cy="166.2" rx="29.3" ry="98.5"/>
		<ellipse class="st4" cx="150" cy="166.2" rx="29.3" ry="98.5"/>
		<ellipse class="st4" cx="236.6" cy="166.2" rx="29.3" ry="98.5"/>
	</g>
	<line class="st5" x1="57.9" y1="133.6" x2="69.1" y2="133.6"/>
	<ellipse class="st6" cx="50.8" cy="120.6" rx="8.8" ry="5.5"/>
	<ellipse class="st7" cx="50.8" cy="120.6" rx="3.2" ry="5.1"/>
	<ellipse class="st6" cx="75.9" cy="120.3" rx="8.8" ry="5.5"/>
	<ellipse class="st7" cx="75.9" cy="120.3" rx="3.2" ry="5.1"/>
	<line class="st5" x1="144.6" y1="133.6" x2="155.8" y2="133.6"/>
	<ellipse class="st6" cx="137.5" cy="120.6" rx="8.8" ry="5.5"/>
	<ellipse class="st7" cx="137.5" cy="120.6" rx="3.2" ry="5.1"/>
	<ellipse class="st6" cx="162.5" cy="120.3" rx="8.8" ry="5.5"/>
	<ellipse class="st7" cx="162.5" cy="120.3" rx="3.2" ry="5.1"/>
	<line class="st5" x1="231.5" y1="133.6" x2="242.7" y2="133.6"/>
	<ellipse class="st6" cx="224.5" cy="120.6" rx="8.8" ry="5.5"/>
	<ellipse class="st7" cx="224.5" cy="120.6" rx="3.2" ry="5.1"/>
	<ellipse class="st6" cx="249.5" cy="120.3" rx="8.8" ry="5.5"/>
	<ellipse class="st7" cx="249.5" cy="120.3" rx="3.2" ry="5.1"/>
</g>
<g id="レイヤー_3">
</g>
</svg>
