<?xml version="1.0" encoding="utf-8"?>
<!-- Generator: Adobe Illustrator 22.0.1, SVG Export Plug-In . SVG Version: 6.00 Build 0)  -->
<svg version="1.1" xmlns="http://www.w3.org/2000/svg" xmlns:xlink="http://www.w3.org/1999/xlink" x="0px" y="0px"
	 viewBox="0 0 300 350" style="enable-background:new 0 0 300 350;" xml:space="preserve">
<style type="text/css">
	.st0{fill:#C34794;}
	.st1{fill:none;stroke:#040000;stroke-width:3;stroke-miterlimit:10;}
	.st2{fill:#FFFFFF;stroke:#040000;stroke-width:3;stroke-miterlimit:10;}
	.st3{fill:#040000;stroke:#040000;stroke-width:3;stroke-miterlimit:10;}
	.st4{fill:#ECCCA7;stroke:#040000;stroke-width:3;stroke-miterlimit:10;}
	.st5{fill:#F0CFA9;stroke:#040000;stroke-width:3;stroke-miterlimit:10;}
</style>
<g id="レイヤー_1">
</g>
<g id="レイヤー_6">
	<g>
		<g>
			<g>
				<path class="st0" d="M63.1,90.9c-10.8,20.4-22.4,40.4-34.8,59.9c-1.9,2.9-1,6.6,1.2,9.1c10.2,11.6,15.8,26.4,26.8,37.4
					c3.5-3.5,7.1-7.1,10.6-10.6c-0.8-0.7-1.6-1.5-2.4-2.2c-6-5.6-16.6,1.6-11.8,9.1c4.3,6.7,8.1,13.7,11.3,21
					c2,4.6,8.6,4.5,11.8,1.5c5.4-5.1,10.8-10.2,16.1-15.3c-3.5-3.5-7.1-7.1-10.6-10.6c-1.5,1.8-2.9,3.6-4.4,5.3
					c-6,7.4,4.3,18,10.6,10.6c2.8-3.4,5.9-6.2,9.7-8.5c-3.4-3.4-6.8-6.8-10.3-10.3c-1.5,2.2-3.1,4.4-4.6,6.6
					c-4.2,5.9,4.3,14.8,10.3,10.3c4.6-3.5,9.2-7.1,13.8-10.6c1.1-0.8,2.5-1.6,3.4-2.6c0,0,2.1-1.5,0.9-1.3c1.3-0.2,6.1,4.5,7.3,5.4
					c8.4,6.3,19.2,12.3,25.2,21.1c2.9,4.1,8,4.9,11.8,1.5c8.9-7.8,17.8-15.7,26.7-23.5c-3.9-3-7.9-6.1-11.8-9.1
					c-0.4,0.9-0.7,1.8-1.1,2.6c-1.5,3.5-1.3,7.2,1.9,9.7c2.8,2.2,7.4,2.2,9.8-0.6c2.9-3.2,5.9-6.2,9.3-8.8c-3.9-3-7.9-6.1-11.8-9.1
					c-0.5,0.7-1,1.5-1.4,2.2c-5.3,8.2,7.5,15.4,13,7.6c-0.1,0.2,0.9-0.1,0.4-0.3c-0.9-3.4-1.8-6.8-2.7-10.3c-1,1.6-1.5,3-2,4.8
					c-0.9,3.5,0.7,6.4,3.4,8.5c12.3,9,24.9,17.6,37.8,25.8c3.5,2.2,8.1,0.6,10.3-2.7c6.7-10.4,11.8-21.8,15.1-33.8
					c-4.8-1.3-9.6-2.7-14.5-4c-0.8,3.1-1.5,6.3-2.3,9.4c-1.9,7.9,10,13.8,13.7,5.8c2.1-4.7,4.3-9.4,6.4-14c-4.3,0-8.6,0-13,0
					c-0.1-0.9-0.4-0.6-0.6,0.8c-2.6,6.5,5.8,11.2,11,8.5c10.2-5.4,8.2-19,17.8-25c8.2-5.1,0.7-18.1-7.6-13
					c-5.3,3.3-9.8,7.8-12.4,13.5c-1.5,3.2-2.2,9.7-5.4,11.4c3.7,2.8,7.3,5.6,11,8.5c1.7-4.3,0.9-8.3-0.9-12.4
					c-2.2-4.9-10.7-4.9-13,0c-2.1,4.7-4.3,9.4-6.4,14c4.6,1.9,9.1,3.9,13.7,5.8c0.8-3.1,1.5-6.3,2.3-9.4c2.3-9.4-11.9-13.3-14.5-4
					c-3,10.8-7.5,20.8-13.6,30.2c3.4-0.9,6.8-1.8,10.3-2.7c-12.9-8.2-25.5-16.8-37.8-25.8c1.1,2.8,2.3,5.6,3.4,8.5
					c0.2-0.4,0.3-0.8,0.5-1.2c1.9-3.2,1-8.6-2.7-10.3c-8-3.5-15.9-1.5-20.9,5.7c4.3,2.5,8.6,5,13,7.6c0.5-0.7,1-1.5,1.4-2.2
					c2-3.2,0.9-7.5-1.9-9.7c-3.2-2.5-6.9-1.8-9.8,0.6c-3.4,2.7-6.5,5.6-9.3,8.8c3.9,3,7.9,6.1,11.8,9.1c0.4-0.9,0.7-1.8,1.1-2.6
					c3.2-7.6-5-15-11.8-9.1c-8.9,7.8-17.8,15.7-26.7,23.5c3.9,0.5,7.9,1,11.8,1.5c-8.3-12.1-22.1-20.1-33.6-28.7
					c-6.1-4.5-11.8-6.9-19-2.7c-6.6,3.8-12.5,9.5-18.6,14.1c3.4,3.4,6.8,6.8,10.3,10.3c1.5-2.2,3.1-4.4,4.6-6.6
					c4.4-6.2-4.1-14.1-10.3-10.3c-4.8,3-9,6.5-12.7,10.8c3.5,3.5,7.1,7.1,10.6,10.6c1.5-1.8,2.9-3.6,4.4-5.3
					c6-7.3-3.5-17.4-10.6-10.6c-5.4,5.1-10.8,10.2-16.1,15.3c3.9,0.5,7.9,1,11.8,1.5c-3.2-7.3-7-14.3-11.3-21
					c-3.9,3-7.9,6.1-11.8,9.1c0.8,0.7,1.6,1.5,2.4,2.2c7.1,6.5,17.5-3.8,10.6-10.6c-11-10.9-16.7-25.8-26.8-37.4
					c0.4,3,0.8,6.1,1.2,9.1c12.4-19.5,24.1-39.4,34.8-59.9C80.6,90,67.6,82.4,63.1,90.9L63.1,90.9z"/>
			</g>
		</g>
		<g>
			<g>
				<path class="st0" d="M272,149.2c-6.7-8.3-12-17.6-17.4-26.8c-5.9-10-11.7-20.1-17.6-30.1c-2.4-4.1-8.5-5.1-11.8-1.5
					c-4.7,5-9.9,9-16,12.3c3,3.9,6.1,7.9,9.1,11.8c2.1-1.8,4.3-3.6,6.4-5.4c-3.5-3.5-7.1-7.1-10.6-10.6c-3.1,3.4-6.4,6.6-10.1,9.4
					c3,3.9,6.1,7.9,9.1,11.8c1.9-1.5,3.8-3,5.6-4.4c2.9-2.3,2.6-7.2,0.6-9.8c-2.4-3.2-6.2-3.5-9.7-1.9c-5.4,2.4-10.2,5.8-14.5,9.9
					c-7,6.7,3.5,17,10.6,10.6c3.1-2.8,6.2-5.6,9.3-8.3c7.2-6.5-3.4-16.9-10.6-10.6c-2.9,2.5-5.9,4.8-9.1,6.9
					c-2.7,1.7-6.2,4.4-9.3,4.9c1.3,0,2.7,0,4,0c-2.3-0.7-5.1-3.5-7-5c-2.3-1.7-4.6-3.4-6.8-5.1c-4.5-3.5-9-7-13.4-10.7
					c-4-3.3-8.1-8.2-13.9-7.1c-5.3,1.1-10,6.4-14.1,9.7c-4.6,3.7-9.2,7.4-13.9,11.1c-2.3,1.8-4.5,3.9-6.9,5.6
					c-2.6,1.7-3.4,0.9-6-0.9c-9.9-6.7-19.4-14.2-29-21.2c-3.3-2.4-8.3-0.5-10.3,2.7c-2.3,3.8-0.5,7.8,2.7,10.3
					c12,9,24.6,17.3,37.6,24.9c8.4,4.9,15.9-8.1,7.6-13C103.5,111,91,102.7,79,93.7c-2.5,4.3-5,8.6-7.6,13
					c6.6,4.9,13.3,9.7,19.9,14.6c6.3,4.6,12.9,10.9,21.3,10.7c8-0.2,14.6-7.7,20.4-12.4c3.3-2.7,6.7-5.4,10-8
					c1.5-1.2,3.1-2.5,4.6-3.7c1.3-1,3.5-3.7,5.2-4c-1.3,0-2.7,0-4,0c-0.8-0.3,2.7,2.7,2.6,2.6c1.5,1.2,2.9,2.4,4.4,3.6
					c2.5,2,4.9,4,7.4,5.9c5.7,4.5,11.5,9,17.5,13.2c6.2,4.3,11.4,2.4,17.5-1.1c6-3.4,11.5-7.5,16.7-12.1c-3.5-3.5-7.1-7.1-10.6-10.6
					c-3.1,2.8-6.2,5.6-9.3,8.3c3.5,3.5,7.1,7.1,10.6,10.6c3.4-3.3,7.2-5.6,11.5-7.5c-3-3.9-6.1-7.9-9.1-11.8c-1.9,1.5-3.8,3-5.6,4.4
					c-6.6,5.2,2.3,17,9.1,11.8c4.7-3.6,9.1-7.4,13.1-11.7c6.7-7.2-3.3-16.7-10.6-10.6c-2.1,1.8-4.3,3.6-6.4,5.4
					c-6.7,5.6,1.9,15.7,9.1,11.8c7.1-3.8,13.5-8.7,19-14.6c-3.9-0.5-7.9-1-11.8-1.5c11.8,20.2,22.5,41.7,37.3,59.9
					c2.6,3.2,7.9,2.6,10.6,0C275.1,156.7,274.5,152.3,272,149.2L272,149.2z"/>
			</g>
		</g>
		<g>
			<g>
				<path class="st0" d="M66.9,105.6c-7.7,12.3-12,25.9-13.4,40.3c3.2-2.4,6.3-4.8,9.5-7.2c-7.1-2.5-15.2-3-20.6,3.3
					c-5.6,6.6-2.2,14.5,2.6,20.3c9.4,11.2,19.3,21.9,21.8,37c1.3,8.3,15.8,6.4,14.7-2c-2.2-16.9-6.4-33.5-16.4-47.6
					c-5.5-7.8-18.5-0.3-13,7.6c4.4,6.3,8.8,12.5,13.3,18.8c2.2,3.1,4.4,6.3,6.6,9.4c1.4,2,5.6,6.2,5.5,8.6c1.8-2.4,3.7-4.8,5.5-7.2
					c-1.3,0.2-2.6,0.4-3.8,0.7c3.1,1.7,6.2,3.5,9.2,5.2c-2.3-11.1,0-22.6-2.1-33.8c-1.8-9.7-6.6-18.5-13-25.9
					c-4-4.7-13.5-1.1-12.8,5.3c1.1,9.8,5,18.2,10.3,26.4c5,7.7,10.8,15.1,13.6,23.9c4.8-1.3,9.6-2.7,14.5-4
					c-7.3-22.1-18.2-45-12.6-68.6c-4.8,0-9.6,0-14.5,0c5.5,21.7,11.1,43.4,16.6,65c2.1,8.1,15.2,6.6,14.7-2
					c-0.6-10.8-1.2-21.6-1.8-32.4c-0.6-10.3-1.1-20.9-4.9-30.6c-4.6,1.9-9.1,3.9-13.7,5.8c11,15.9,13.9,35.1,16.7,53.7
					c1.3,8.5,14.8,6.3,14.7-2c-0.2-13-0.4-25.9-0.5-38.9c-4.9,0.7-9.8,1.3-14.7,2c2.7,14.2,5.7,28.2,12.4,41
					c3.8,7.3,13.2,2.9,14-3.8c1.7-13.6-5.9-27.8-1-40.9c-4.9-0.7-9.8-1.3-14.7-2c3.2,25,6.7,50.2,18.9,72.6c3.4,6.2,14.8,3.8,14-3.8
					c-2.9-26.3-5-52.6-6.3-79c-4.9,0.7-9.8,1.3-14.7,2c5.1,28,2.8,57.2,21.2,80.8c4.2,5.4,12.7,0.6,12.8-5.3
					c0.4-15.4-1.7-30.6-3.9-45.8c-1.1-7.6-2.1-15.1-2.8-22.7c-0.3-3.5-0.5-7-0.7-10.5c-0.1-1.9-0.2-3.8-0.1-5.7c0-0.4,0-0.9,0-1.3
					c0.7-1.9,0.2-1.7-1.3,0.6c-1.3,0-2.7,0-4,0c-1.2-1.8-1.6-2.1-1.2-0.9c0.2,0.6,0.3,1.2,0.4,1.8c0.4,1.9,0.7,3.9,1,5.8
					c0.5,3.2,1,6.5,1.5,9.7c1.1,7.4,2.2,14.9,3.1,22.4c1.8,14.6,3.3,29.3,4.4,44c0.5,6.1,8.1,10.4,12.8,5.3
					c11.3-12,12.9-28.4,10.7-44.1c-2.4-17.6-6.4-35-9.7-52.4c-4.2,2.4-8.4,4.9-12.5,7.3c8.8,7.9,12.2,19.1,14.3,30.5
					c2.5,13.8,3.9,27.9,5.6,41.8c0.5,4,3,7.5,7.5,7.5c5.5-0.1,11.5-1,15.5-5.2c5.1-5.4,3.1-12.7,2.1-19.2c-2.2-15.3-4.4-30.6-6.6-46
					c-3.7,2.8-7.3,5.6-11,8.5c4.6,2.7,10,5.4,12.4,10.5c3,6.4,4.6,13.9,6.7,20.7c4.6,14.6,9.3,29.2,13.9,43.8
					c4.6-1.9,9.1-3.9,13.7-5.8c-4-6.6-5.4-14.3-9.2-21.1c-3.4-6-8.3-11.8-8.2-19c0.1-8.2-13.4-10.5-14.7-2c-1.5,9.7-1.5,19,0.3,28.7
					c4.8-1.3,9.6-2.7,14.5-4c-2.5-10.7-5.4-22.6-1.7-33.3c1.8-5.1,5.4-9.4,7.7-14.3c2.7-5.7,3.7-11.6,2-17.8
					c-1.8-6.6-10.1-6.9-13.7-1.8c-1,1.4-1.9,2.8-2.9,4.1c-4.3,6.1,4.2,14.3,10.3,10.3c5-3.3,9.8-7,14.3-11
					c-4.2-2.4-8.4-4.9-12.5-7.3c-0.6,3-2.7,5-4.1,7.6c-1.7,3-2.6,6.1-2.6,9.6c0,7.7,2.5,15.9,4.1,23.4c3.3,15.9,7.2,31.6,11.6,47.2
					c1.4,5,8.9,7.9,12.5,3.3c10.2-12.8,7.7-27.7,3.7-42.5c-4.4-16.2-5.1-32.6-5.5-49.2c-4.7,1.3-9.3,2.5-14,3.8
					c4.3,9,4.1,20,6.1,29.6c2.2,10.5,5.5,20.7,9.6,30.7c1.8,4.4,6.4,7.1,11,4.5c8.8-5,18-12.5,13.4-23.4
					c-4.7-11.3-9.6-22.4-14.4-33.7c-1.6-3.8-7.1-4.5-10.3-2.7c-3.9,2.2-4.3,6.6-2.7,10.3c2.5,5.9,5,11.8,7.6,17.7
					c2.2,5.2,5.9,11.1,6.7,16.7c0-1.3,0-2.7,0-4c-0.4,1.7-5.7,4.9-7.9,6.2c3.7,1.5,7.3,3,11,4.5c-4.4-10.5-7.7-21.3-10-32.5
					c-2.1-10.7-2.5-21.4-7.3-31.4c-3.2-6.8-14.2-3.4-14,3.8c0.4,14.9,0.8,29.9,3.9,44.5c2.2,10.5,10.2,26.7,2.3,36.6
					c4.2,1.1,8.4,2.2,12.5,3.3c-4.1-14.3-7.7-28.8-10.8-43.4c-1.5-6.9-3.2-14-4.1-21c-0.8-5.8,4.8-9.8,5.9-15.4
					c1.5-7.4-6.8-12.4-12.5-7.3c-3.6,3.2-7.3,6-11.2,8.7c3.4,3.4,6.8,6.8,10.3,10.3c1-1.4,1.9-2.8,2.9-4.1
					c-4.6-0.6-9.1-1.2-13.7-1.8c1.4,5.2-2.5,9.9-5.1,14.1c-3.1,5.1-5.3,10.5-6.2,16.4c-1.8,11.8,0.5,23.5,3.2,34.9
					c2.2,9.5,16.2,5.4,14.5-4c-1.3-6.8-1.4-13.9-0.3-20.7c-4.9-0.7-9.8-1.3-14.7-2c-0.1,9,4.2,16.4,8.6,23.8
					c4.5,7.6,6.2,16.3,10.8,23.8c4.3,7.1,16.3,2.5,13.7-5.8c-5.2-16.5-10.5-33-15.7-49.5c-2.3-7.2-3.9-15.4-8.3-21.6
					c-4-5.7-10-9.4-15.9-12.8c-6.2-3.6-11.9,2.3-11,8.5c1.6,10.9,3.1,21.7,4.7,32.6c0.7,5.1,1.5,10.2,2.2,15.3
					c0.1,0.7,0,2.6,0.5,3.2c0.9,1.3,0.1-0.2,0.6-0.2c-1.6,0.2-2.9,0.5-4.5,0.5c2.5,2.5,5,5,7.5,7.5c-2-15.7-3.4-31.7-6.5-47.3
					c-2.6-13.2-7.6-26.4-17.8-35.6c-5.8-5.2-13.9-0.1-12.5,7.3c2.8,15,5.9,30,8.5,45c2.2,12.3,3.5,27-5.7,36.9
					c4.3,1.8,8.5,3.5,12.8,5.3c-1.4-19-3.5-37.9-6.1-56.8c-1.3-9.1-2.6-18.2-4.2-27.2c-1.3-7.2-5.7-15.5-14.6-13.3
					c-8.2,2.1-9.2,10.9-9.1,18c0.1,8.9,1.1,17.8,2.2,26.7c2.4,18.4,5.7,36.6,5.2,55.2c4.3-1.8,8.5-3.5,12.8-5.3
					c-16-20.4-13-50-17.4-74.2c-1.5-8.3-15.1-6.4-14.7,2c1.3,26.4,3.3,52.8,6.3,79c4.7-1.3,9.3-2.5,14-3.8
					c-10.9-19.9-14-42.8-16.9-65c-1.1-8.3-11.6-10.3-14.7-2c-5.6,14.9,2.3,29.8,0.4,44.9c4.7-1.3,9.3-2.5,14-3.8
					c-6.1-11.6-8.5-24.7-10.9-37.4c-1.6-8.4-14.8-6.3-14.7,2c0.2,13,0.4,25.9,0.5,38.9c4.9-0.7,9.8-1.3,14.7-2
					c-3-19.9-6.5-40.4-18.3-57.3c-2.1-3.1-5.8-4.6-9.4-3.1c-3.1,1.3-5.7,5.4-4.3,8.8c3.6,9.2,4,18.8,4.5,28.5
					c0.6,10.2,1.1,20.4,1.7,30.5c4.9-0.7,9.8-1.3,14.7-2c-5.5-21.7-11.1-43.4-16.6-65c-1.8-7-12.8-7.2-14.5,0
					c-6.3,26.9,4.3,51.5,12.6,76.6c3,9.1,17.4,5.3,14.5-4c-2.8-8.7-7.7-16.3-12.7-23.9c-4.5-6.8-9.8-14.1-10.7-22.4
					c-4.3,1.8-8.5,3.5-12.8,5.3c5.5,6.3,8.8,14.2,9.5,22.6c0.9,10.2-0.4,20.3,1.7,30.4c0.9,4.2,5.4,5.9,9.2,5.2
					c1.3-0.2,2.6-0.4,3.8-0.7c3.3-0.6,5.4-4.2,5.5-7.2c0.4-8.4-7.4-16-12-22.4c-5.2-7.3-10.3-14.6-15.5-21.9c-4.3,2.5-8.6,5-13,7.6
					c8.4,11.8,12.5,25.7,14.4,40c4.9-0.7,9.8-1.3,14.7-2c-1.7-10.5-6.7-20-13-28.4c-3.2-4.2-6.5-8.3-10-12.2
					c-0.8-0.9-1.7-1.9-2.5-2.8c-0.3-0.3-0.6-0.7-0.8-1.1c-0.5-1.1-0.8-0.8-1.1,0.8c0.6,0.8,4.1,1.2,5.2,1.6c5,1.7,9.1-2.7,9.5-7.2
					c1.1-11.7,5.1-22.8,11.4-32.7C85,104.9,72,97.4,66.9,105.6L66.9,105.6z"/>
			</g>
		</g>
		<g>
			<g>
				<path class="st0" d="M109.2,176.7c-3.5,0.4-6.4,1.8-9.5,3.3c-2.9,1.4-6,2.8-7.4,5.9c-1.6,3.6-1.1,8.2,2.7,10.3
					c3.3,1.7,8.5,1.1,10.3-2.7c-0.3,0.6-1.8,1.1-0.5,0.7c0.9-0.2,1.8-0.9,2.6-1.2c0.7-0.4,1.5-0.7,2.2-1c0.4-0.2,0.7-0.3,1.1-0.5
					c-0.4,0.3-0.9,0.4-1.4,0.3c3.9-0.4,7.7-3.1,7.5-7.5C116.5,180.5,113.4,176.3,109.2,176.7L109.2,176.7z"/>
			</g>
		</g>
		<g>
			<g>
				<path class="st0" d="M98.4,183c-3,1.5-6.2,2.9-9.2,4.6c-1.5,0.9-2.9,2-4,3.4c-0.5,0.6-0.9,1.2-1.3,1.9c-0.2,0.4-0.4,0.8-0.5,1.2
					c-0.6,1.4-0.5,1.2,0.2-0.6c1.1-0.6,2.2-1.3,3.3-1.9c-0.9,0.3-1.1,0.4-0.7,0.3c-4,0.3-7.5,3.3-7.5,7.5c0,3.8,3.4,7.8,7.5,7.5
					c2.2-0.1,4.5-0.4,6.5-1.6c1.3-0.7,2.6-2,3.4-3.3c0.3-0.4,1.7-3.2,1-2.2c-0.4,0.7-1.6,1.1,0,0.4c0.9-0.4,1.7-0.9,2.5-1.3
					c2.1-1,4.1-2.1,6.2-3.1c3.6-1.8,4.6-6.9,2.7-10.3C106.5,182,102,181.1,98.4,183L98.4,183z"/>
			</g>
		</g>
	</g>
</g>
<g id="レイヤー_2">
</g>
<g id="レイヤー_3">
</g>
<g id="レイヤー_4">
</g>
<g id="レイヤー_5">
	<g>
		<g>
			<polyline class="st1" points="150.2,86.5 111.9,115.3 68.5,86.5 24.5,154.2 			"/>
			<polyline class="st1" points="150.2,220.6 111.9,191.8 68.5,220.6 24.5,152.8 			"/>
		</g>
		<g>
			<polyline class="st1" points="149.8,86.5 188.1,115.3 231.5,86.5 275.5,154.2 			"/>
			<polyline class="st1" points="149.8,220.6 188.1,191.8 231.5,220.6 275.5,152.8 			"/>
		</g>
	</g>
	<ellipse class="st2" cx="73.6" cy="152.8" rx="21.5" ry="13.4"/>
	<ellipse class="st2" cx="150.2" cy="152.8" rx="21.5" ry="13.4"/>
	<ellipse class="st2" cx="226.8" cy="151.9" rx="21.5" ry="13.4"/>
	<ellipse class="st3" cx="73.6" cy="152.8" rx="7.8" ry="12.5"/>
	<ellipse class="st3" cx="150.2" cy="152.8" rx="7.8" ry="12.5"/>
	<ellipse class="st3" cx="226.8" cy="151.9" rx="7.8" ry="12.5"/>
	<line class="st1" x1="142.4" y1="186.7" x2="158" y2="186.7"/>
	<path class="st4" d="M49.4,193.9L29,210.3c-3.2,2.5-2.9,7.4,0.4,9.7l30.8,20.5l0.6,5.3c0.1,1.1,1.7,1.3,2.1,0.2l1.9-5.8l4.5,0.5
		c1.2,0.1,1.7-1.4,0.7-2.1l-4.9-3.8l3.4-3.4c0.7-0.5,0.4-1.7-0.5-1.7l-8.8,0.3l-20.3-16.4L55,202.3"/>
	<path class="st4" d="M249.2,193.9l20.3,16.4c3.2,2.5,2.9,7.4-0.4,9.7l-30.8,20.5l-0.6,5.3c-0.1,1.1-1.7,1.3-2.1,0.2l-1.9-5.8
		l-4.5,0.5c-1.2,0.1-1.7-1.4-0.7-2.1l4.9-3.8l-3.4-3.4c-0.7-0.5-0.4-1.7,0.5-1.7l8.8,0.3l20.3-16.4l-16.1-11.5"/>
	<path class="st4" d="M188.7,193.2l-5.2,56.8c0,0,27.5,6.9,13.4,12.2c-14.1,5.3-31.3-7.2-23.2-12.3l3.5-48.4"/>
	<path class="st5" d="M113.3,194.4l9.4,7.5l3.9,48c8.1,5.2-9,17.6-23.2,12.3s13.4-12.2,13.4-12.2l-5.2-56.8"/>
	<line class="st5" x1="177.2" y1="202.3" x2="186.9" y2="194.6"/>
</g>
</svg>
