<?xml version="1.0" encoding="utf-8"?>
<!-- Generator: Adobe Illustrator 22.0.1, SVG Export Plug-In . SVG Version: 6.00 Build 0)  -->
<svg version="1.1" xmlns="http://www.w3.org/2000/svg" xmlns:xlink="http://www.w3.org/1999/xlink" x="0px" y="0px"
	 viewBox="0 0 300 350" style="enable-background:new 0 0 300 350;" xml:space="preserve">
<style type="text/css">
	.st0{fill:#040000;}
	.st1{fill:#734F96;}
	.st2{fill:#734F96;stroke:#040000;stroke-width:3;stroke-miterlimit:10;}
	.st3{fill:none;stroke:#040000;stroke-width:2;stroke-miterlimit:10;}
	.st4{fill:#FFFFFF;stroke:#040000;stroke-width:2;stroke-miterlimit:10;}
	.st5{fill:#FFFFFF;stroke:#040000;stroke-miterlimit:10;}
	.st6{fill:none;}
</style>
<g id="レイヤー_1">
	<g>
		<g>
			<path class="st0" d="M113.8,155.9c-0.8,7.9,0.1,14.5,4.4,21.3c0.2,0.4,0.8,0.5,1.2,0.4c3.5-0.3,4.3-1.5,6.8-3.6
				c0.3-0.3,0.8-0.9,0.4-1.3c-3.7-3.5-7.2-7.1-8.8-12c-0.4-1.3-3.2-0.6-2.9,0.8c1.4,5.5,2.9,11,4.3,16.4c0.9-0.3,1.9-0.7,2.8-1
				c-1.7-3.2-2.7-6-3-9.6c-0.4-3.6-1.5-7-1.7-10.6c-0.1-1.5-2.9-1.1-2.9,0.2c-0.1,2.2-0.2,4.5-0.2,6.7c1-0.2,1.9-0.3,2.9-0.5
				c-1.1-3.6-1.1-6.9-0.1-10.5c0.4-1.4-2.6-1-2.9,0.2c-1.1,3.8-1.1,7.3,0.1,11c0.4,1.2,2.9,0.7,2.9-0.5c0.1-2.2,0.2-4.5,0.2-6.7
				c-1,0.1-2,0.1-2.9,0.2c0.3,4.2,1.3,8.2,1.8,12.3c0.4,3.3,1.6,6,3.2,8.9c0.6,1,3.1,0.2,2.8-1c-1.4-5.5-2.9-11-4.3-16.4
				c-1,0.3-1.9,0.5-2.9,0.8c1.7,5.1,5.2,8.8,9.1,12.5c0.1-0.4,0.2-0.9,0.4-1.3c-1.1,0.9-2.4,2.6-4.2,2c-1.2-0.4-2.2-4.5-2.6-5.8
				c-1.4-4.3-1.1-8.7-0.7-13.2C116.9,154.2,113.9,154.6,113.8,155.9L113.8,155.9z"/>
		</g>
	</g>
	<g>
		<g>
			<path class="st1" d="M94.8,261.8c3.2,4,6.7,7.6,10.4,11.1c2.1,1.9,5.4-0.5,3.9-3c-4.3-7.5-8.4-15.1-10.3-23.6
				c-1.4,0.8-2.8,1.6-4.2,2.4c9.9,12.5,17.8,26.4,23.5,41.4c1.5-0.6,3-1.3,4.6-1.9c-9.3-17.2-18.5-34.5-26.5-52.3
				c-1.3,1-2.6,2-3.9,3c11.9,13,23.7,25.9,35.6,38.9c2.1,2.3,5-0.6,3.9-3c-9.3-21-17.2-42.6-23.6-64.7c-0.9-3.1-5.7-1.8-4.8,1.3
				c6.5,22.5,14.6,44.5,24.1,65.9c1.3-1,2.6-2,3.9-3c-11.9-13-23.7-25.9-35.6-38.9c-2.1-2.2-5,0.6-3.9,3c8,17.8,17.1,35.1,26.5,52.3
				c1.3,2.4,5.6,0.8,4.6-1.9c-6-15.8-14.3-30.3-24.8-43.6c-1.7-2.1-4.7,0.2-4.2,2.4c2,9,6.3,16.9,10.8,24.8c1.3-1,2.6-2,3.9-3
				c-3.8-3.4-7.2-7.1-10.4-11.1C96.3,255.8,92.8,259.3,94.8,261.8L94.8,261.8z"/>
		</g>
	</g>
	<g>
		<g>
			<path class="st1" d="M87.4,225.7c1.3,5.5,2.9,10.8,4.8,16.1c1.4-0.8,2.8-1.6,4.2-2.4c-6.4-6.1-12.1-12.7-17.1-19.9
				c-1.8-2.6-6.1-0.2-4.3,2.5c3.5,5.4,7,10.8,10.5,16.3c1.6,2.5,4.9,0.8,4.6-1.9c-1.2-8.5-3.5-16.6-7-24.4c-1.1-2.6-5.5-0.7-4.6,1.9
				c2.5,6.9,4.7,13.8,6.8,20.9c0.9,3.1,5.4,1.8,4.8-1.3c-2.3-12.5-4.2-25-5.6-37.6c-0.3-3.1-5-3.3-5,0c-0.1,5.3,0,10.7,0.2,16
				c0.1,3.2,5.1,3.2,5,0c-0.2-5.3-0.3-10.7-0.2-16c-1.7,0-3.3,0-5,0c1.4,13,3.4,26,5.8,38.9c1.6-0.4,3.2-0.9,4.8-1.3
				c-2.1-7-4.3-14-6.8-20.9c-1.5,0.6-3,1.3-4.6,1.9c3.3,7.4,5.4,15.2,6.5,23.2c1.5-0.6,3-1.3,4.6-1.9c-3.5-5.4-7-10.8-10.5-16.3
				c-1.4,0.8-2.9,1.7-4.3,2.5c5.3,7.6,11.2,14.6,17.9,20.9c1.7,1.6,5.1,0,4.2-2.4c-1.9-5.3-3.5-10.6-4.8-16.1
				C91.4,221.3,86.6,222.6,87.4,225.7L87.4,225.7z"/>
		</g>
	</g>
	<g>
		<g>
			<path class="st1" d="M157.9,176.7c1.1,10.5,2.1,21.1,3.2,31.6c0.3,2.9-0.6,3.5,2.9,1.1c3.4-2.3,2.7-1.5,0.7-3.4
				c-1.5-1.5-2.8-3.2-3.9-4.9c-2.7-4.1-4.9-8.5-7-12.9c-8.5-17.9-13.1-37.6-14.1-57.4c-4.9,0.7-9.8,1.3-14.7,2
				c15.1,38.3,30.3,76.7,51,112.4c4.1,7.1,16.8,2.4,13.7-5.8c-10.9-28.9-21.9-57.8-32.8-86.7c-1.8-4.8-8.6-8-12.5-3.3
				c-9.7,11.6-10.7,26.6-12.3,41.1c-1.6,15.7-1.9,32,4.1,46.9c3.1,7.6,14.4,7,14.7-2c0.7-19-1.7-38.1-7.1-56.3
				c-2.7-9.1-6.2-18-10.4-26.6c-3.8-7.8-7.5-16.3-16.2-19.5c-3.6-1.3-8.5,1.5-9.2,5.2c-5.9,30.2-3.8,61.4,6.5,90.4
				c2.6,7.4,15.6,7,14.7-2c-2-19.7-9.3-37.5-21.5-53c-3.3-4.2-11.8-2-12.5,3.3c-3.2,22-1.3,44.2,6.4,65.2c2.4,6.5,12.6,7.7,14.5,0
				c4.1-16.8,1.1-34.6-8.6-48.9c-3.3-4.9-12.4-5-13.7,1.8c-2.6,13.9-1.9,27.9,2.7,41.3c4.6-1.9,9.1-3.9,13.7-5.8
				c-5.4-9-10.7-18-16.1-27c-3.6-6.1-14.5-3.9-14,3.8c0.9,13.6,4.7,26.5,11.3,38.4c3.5,6.2,11.4,3.8,13.7-1.8
				c1.5-3.5,2.9-7,4.4-10.5c-4.8,0-9.6,0-14.5,0c4.2,14.6,8.8,29.2,18.4,41.2c4.1,5.2,9.2,9.8,15,13.1c5.5,3.1,13,3.9,17.4,8.7
				c1.7,1.8,4.9,2.8,7.3,1.9c35.2-12.4,64.9-38.1,81.7-71.5c3.8-7.5-5.4-15.1-11.8-9.1c-22,20.5-42,42.9-60.3,66.8
				c4.3,2.5,8.6,5,13,7.6c11.1-23.2,26.5-43.9,41.8-64.4c2.4-3.3,0.5-8.3-2.7-10.3c-3.8-2.3-7.8-0.5-10.3,2.7
				c-5.5,7.1-10.9,14.2-16.4,21.3c-4.7,6.1-9.2,12.6-14.7,18.1c-10.8,11-26.9,10.7-39.9,17.9c-6.2,3.4-3.8,14.8,3.8,14
				c10.8-1.2,21.6-1.8,32.4-2c9.8-0.1,9.5-14.2,0-15c-12.9-1-25.6-3.5-38-7.3c0,4.8,0,9.6,0,14.5c17.8-7.1,36.1-12.8,54.8-16.9
				c8.7-1.9,6-14.1-2-14.7c-15.6-1.2-31.1-0.2-46.4,2.5c1.9,4.6,3.9,9.1,5.8,13.7c7.2-4.1,14.7-6.6,22.9-7.8
				c-2.4-4.2-4.9-8.4-7.3-12.5c-10.3,8.5-23.3,13.8-36.6,14.9c2.4,1.8,4.8,3.7,7.2,5.5c-2.6-16.1-7.1-31.7-13.3-46.8
				c-3.1-7.5-14.4-7-14.7,2c-0.6,13.5,2.5,26.5,8.7,38.5c3.3,6.3,14.8,3.7,14-3.8c-2.7-24.2-5.8-49.1-19.3-70
				c-4.2-6.5-13.4-3.6-14,3.8c-1.2,14.8-2.2,29.6-3,44.3c4.9-0.7,9.8-1.3,14.7-2c-4.3-27.9-1.8-56.4,6.6-83.3c-4.8,0-9.6,0-14.5,0
				c4,17.9,3.5,37,4.4,55.2c1,18.6,2,37.1,3,55.7c0.5,9.6,14.5,9.7,15,0c1.9-37.8,3.7-75.6,5.6-113.4c-4.9,0.7-9.8,1.3-14.7,2
				c6,40.1,10.6,80.4,13.9,120.8c5,0,10,0,15,0c-3.9-38.7-5.2-77.6-3.9-116.5c-4.9,0.7-9.8,1.3-14.7,2c6.2,35,12.4,70,18.5,105.1
				c1.5,8.6,14.5,6.2,14.7-2c0.9-31.8,1.9-63.6,2.8-95.4c-5,0-10,0-15,0c0.1,26.2,2.5,52.4,6.9,78.3c1.2,7.2,13.2,7.2,14.5,0
				c5.7-33.5,11.5-67,17.2-100.5c-4.9-0.7-9.8-1.3-14.7-2c-1.6,35.2-3.3,70.5-4.9,105.7c-0.4,8.4,12.9,10.3,14.7,2
				c7-30.9,13.9-61.7,20.9-92.6c-4.9-0.7-9.8-1.3-14.7-2c-0.1,35.6-0.8,71.1-2.2,106.6c-0.3,8.3,13.4,10.5,14.7,2
				c4.4-28.3,9.4-56.5,15.1-84.6c-4.8,0-9.6,0-14.5,0c4.5,17.6,3.7,35.9,2.9,53.9c5,0,10,0,15,0c0.2-10.9,3-21.3,8.3-30.8
				c-4.3,0-8.6,0-13,0c4,7.7,6.2,15.9,6.7,24.5c4.7-1.3,9.3-2.5,14-3.8c-6.9-10.4-10.2-22.1-9.6-34.6c0.4-9.8-14.1-9.5-15,0
				c-1.1,11.3-4.3,22.4-9.4,32.5c-3.8,7.4-10.3,20.2-19.9,21.1c-9.5,0.9-9.6,15.9,0,15c14.9-1.4,24.3-13.2,31.2-25.5
				c7.4-13.3,11.7-27.9,13.1-43.1c-5,0-10,0-15,0c-0.7,14.9,3.4,29.8,11.7,42.2c3.8,5.8,14.4,4.1,14-3.8c-0.6-11.3-3.6-22-8.8-32.1
				c-2.6-5-10.3-4.8-13,0c-6.6,11.9-10.1,24.8-10.4,38.4c-0.2,9.7,14.6,9.6,15,0c0.9-19.4,1.4-38.9-3.5-57.9c-1.8-6.9-13-7.4-14.5,0
				c-5.7,28.1-10.7,56.3-15.1,84.6c4.9,0.7,9.8,1.3,14.7,2c1.4-35.5,2.1-71.1,2.2-106.6c0-8.3-12.8-10.4-14.7-2
				c-7,30.9-13.9,61.7-20.9,92.6c4.9,0.7,9.8,1.3,14.7,2c1.6-35.2,3.3-70.5,4.9-105.7c0.4-8.3-13.3-10.4-14.7-2
				c-5.7,33.5-11.5,67-17.2,100.5c4.8,0,9.6,0,14.5,0c-4.1-24.6-6.2-49.4-6.3-74.3c0-9.7-14.7-9.6-15,0c-0.9,31.8-1.9,63.6-2.8,95.4
				c4.9-0.7,9.8-1.3,14.7-2c-6.2-35-12.4-70-18.5-105.1c-1.5-8.6-14.5-6.1-14.7,2c-1.3,38.9,0,77.8,3.9,116.5c0.9,9.5,15.8,9.7,15,0
				c-3.4-41.8-8.2-83.4-14.4-124.8c-1.3-8.7-14.3-6-14.7,2c-1.9,37.8-3.7,75.6-5.6,113.4c5,0,10,0,15,0c-1-19.2-2.1-38.4-3.1-57.7
				c-1-19-0.7-38.7-4.9-57.3c-1.7-7.5-12.4-6.7-14.5,0c-9.3,29.6-11.3,60.7-6.6,91.3c1.3,8.7,14.3,6,14.7-2
				c0.8-14.8,1.7-29.6,3-44.3c-4.7,1.3-9.3,2.5-14,3.8c12,18.6,14.8,40.9,17.3,62.4c4.7-1.3,9.3-2.5,14-3.8
				c-5-9.6-7.1-20.1-6.6-30.9c-4.9,0.7-9.8,1.3-14.7,2c6.3,15,10.7,30.7,13.3,46.8c0.5,3,4.2,5.8,7.2,5.5c17.6-1.5,33.6-8,47.2-19.3
				c2.5-2.1,2.7-6.4,1.2-9.1c-1.8-3.1-5.1-3.9-8.5-3.4c-9.4,1.4-18.3,4.6-26.5,9.3c-7.7,4.5-2.3,15.1,5.8,13.7c14-2.5,28.2-3,42.4-2
				c-0.7-4.9-1.3-9.8-2-14.7c-18.7,4.2-37,9.8-54.8,16.9c-6.6,2.6-7.6,12.2,0,14.5c13.7,4.1,27.7,6.7,41.9,7.8c0-5,0-10,0-15
				c-10.8,0.1-21.6,0.8-32.4,2c1.3,4.7,2.5,9.3,3.8,14c7.1-3.9,15.2-5.1,22.7-7.8c7.7-2.7,14.4-6.6,20.2-12.5
				c5.9-6,10.7-13,15.8-19.6c5.9-7.6,11.7-15.2,17.6-22.8c-4.3-2.5-8.6-5-13-7.6c-15.4,20.5-30.7,41.2-41.8,64.4
				c-4.3,8.9,7.2,15.1,13,7.6c17.5-22.8,37-44.1,58-63.8c-3.9-3-7.9-6.1-11.8-9.1c-15.1,29.8-41.2,53.4-72.8,64.6
				c2.4,0.6,4.9,1.3,7.3,1.9c-4.4-4.8-10.2-6.7-16.1-9c-5.7-2.2-10.4-5.8-14.4-10.4c-9-10.3-12.7-24.1-16.5-37
				c-2.2-7.7-11.8-6.5-14.5,0c-1.5,3.5-2.9,7-4.4,10.5c4.6-0.6,9.1-1.2,13.7-1.8c-5.3-9.5-8.5-19.9-9.3-30.8
				c-4.7,1.3-9.3,2.5-14,3.8c5.4,9,10.7,18,16.1,27c4.2,7.1,16.5,2.5,13.7-5.8c-3.7-10.8-4.8-22-2.7-33.3c-4.6,0.6-9.1,1.2-13.7,1.8
				c7.5,11.1,10.2,24.3,7.1,37.4c4.8,0,9.6,0,14.5,0c-6.7-18.3-9.2-37.9-6.4-57.2c-4.2,1.1-8.4,2.2-12.5,3.3
				c9.5,12.1,15.6,27.1,17.1,42.4c4.9-0.7,9.8-1.3,14.7-2c-9.4-26.4-11.9-54.9-6.5-82.5c-3.1,1.7-6.2,3.5-9.2,5.2
				c1.9,0.7,4,6.2,4.8,7.9c1.9,3.7,3.7,7.4,5.3,11.2c3,7,5.4,14.3,7.3,21.6c4.1,15.4,5.7,31.2,5.1,47.2c4.9-0.7,9.8-1.3,14.7-2
				c-5.1-12.7-5.1-26-3.9-39.4c1-10.7,0.9-25.3,8.2-34c-4.2-1.1-8.4-2.2-12.5-3.3c10.9,28.9,21.9,57.8,32.8,86.7
				c4.6-1.9,9.1-3.9,13.7-5.8c-20.1-34.6-34.9-71.7-49.5-108.8c-2.9-7.3-15.2-7.1-14.7,2c1.2,26.5,8.3,53.7,22.2,76.4
				c3,4.9,6.9,10.4,12.1,13.4c5.1,2.9,12,2.8,15.6-2.3c3.5-5.1,1.3-12.9,0.7-18.6c-0.8-7.7-1.5-15.3-2.3-23c-0.4-4-3.2-7.5-7.5-7.5
				C161.7,169.2,157.5,172.7,157.9,176.7L157.9,176.7z"/>
		</g>
	</g>
	<g>
		<g>
			<path class="st1" d="M201.1,150.5c-8.7,0-17.6,0.1-26-2.5c-7.6-2.4-14.1-7.1-21.8-9.4c-13.7-4.2-29.5-2.7-41.5-11.5
				c-1.9,4.6-3.9,9.1-5.8,13.7c40,9.2,75.5,31.1,107.3,56.5c3-3.9,6.1-7.9,9.1-11.8c-22.8-13.6-44.6-28.7-65.2-45.4
				c-1.8,4.3-3.5,8.5-5.3,12.8c12.2-0.7,23.3,4.3,33.9,9.8c10.7,5.6,21,12.1,30.4,19.5c4.5,3.5,13.5,1.9,12.8-5.3
				c-2.1-22.4-22.1-33.7-42-38.7c-23.3-5.9-46.2-12.1-69.1-19.4c0,4.8,0,9.6,0,14.5c26.5-3.8,53.9,1,77.7,13.2
				c1.9-4.6,3.9-9.1,5.8-13.7c-27.7-8.8-55.4-17.7-83-26.5c-0.7,4.9-1.3,9.8-2,14.7c24.7-3.3,50.1,3.4,69.3,19.6
				c5.3,4.5,15,0.4,12.5-7.3c-4.1-12.8-13.2-23.9-25.5-29.6c-6.3-3-12.7-4.3-19.6-4.9c-7-0.6-14.1-0.4-20-4.7
				c-0.6,4.6-1.2,9.1-1.8,13.7c18.2-5.3,37.3-1.6,52.5,9.7c4.9,3.6,11-1.4,11.3-6.5c0.6-12.2-10.2-19.4-20.8-21.7
				c-5.9-1.3-11.9-2.3-17.9-3.4c-3.2-0.6-6.5-1.2-9.7-1.8c-1.6-0.3-3.2-0.6-4.9-0.9c-0.6-0.1-1.3-0.2-1.9-0.4
				c-2.4-0.9-2.6-0.5-0.7,1.4c-0.3,1.9-0.5,3.9-0.8,5.8c-0.4,0.5-0.8,0.9-1.2,1.4c-1.3,0.3-2.5,0.7-3.8,1c14.9-1.5,30.8,1.5,45,5.8
				c6.9,2.1,13.1-7.6,7.3-12.5c-6.7-5.6-14.3-9-22.9-10c-8.4-1-15.4,1.6-23.3,4.2c-1.2,0.4-6.7,2.5-7.7,0.3c0.4,0.9,3.2-1.1,4.6-1.4
				c8.3-2.2,17.3-0.5,24.7,3.6c2.2,1.2,5.4,1.5,7.6,0c6.6-4.7,7.6-13,2.8-19.6c-2.4-3.2-5.7-5.1-9.6-5.9c-2.3-0.5-4.7-0.5-7-0.4
				c-1.1,0.1-2.3,0.2-3.4,0.3c-2.6-0.1-2.3,0.5,0.7,2c0.3,1.3,0.7,2.5,1,3.8c-0.1-1.9,1.4-4.6,2.1-6.4c0.4-1.1,0.8-2.2,1.2-3.2
				c0.3-0.8,0.6-1.6,0.9-2.4c1.3-2.5-0.8-2.7-6.1-0.5c-0.4-3-0.8-6.1-1.2-9.1c-5,9-0.1,21.9,10.6,23.6c4,0.6,8-1,9.2-5.2
				c1-3.6-1.2-8.6-5.2-9.2c-0.7-0.1-2.2-0.4-1.6-1.5c1.8-3.2,0.9-6.4-1.2-9.1c-4.2-5.4-12.3-3.9-16,1c-1.9,2.4-2.8,5.6-3.9,8.5
				c-1.2,3-2.6,6.1-3.5,9.2c-1.6,6.1,1.5,12.2,7.9,13.5c3.4,0.7,6.7-0.4,10.1-0.3c0.9,0,2.2,0.4,3,0.3c0.1,0.1,0.1,0.2,0.2,0.3
				c0.1,1.4,0.5,0.5,1.4-2.7c2.5,0,5,0,7.6,0c-10.6-5.9-22.7-7.9-34.6-5.5c-10.2,2.1-21.3,11.4-15.7,22.8
				c5.3,10.6,17.9,10.4,27.5,6.8c10.1-3.8,20.5-4.5,29.2,2.8c2.4-4.2,4.9-8.4,7.3-12.5c-11-3.4-22.4-5.5-33.9-6.3
				c-7.6-0.5-28-2.3-23.6,11.6c1.5,4.9,6.4,7.2,11,8.2c5.8,1.2,11.7,2.2,17.5,3.3c5.9,1.1,11.9,2.1,17.7,3.4c3.8,0.9,9.2,2.3,9,7.1
				c3.8-2.2,7.5-4.3,11.3-6.5c-18.1-13.6-42.4-17.6-64-11.3c-6.6,1.9-6.9,10-1.8,13.7c10.8,7.8,24,4.7,36,8.3
				c10.4,3.1,18.8,11.7,22.1,22c4.2-2.4,8.4-4.9,12.5-7.3c-22.1-18.6-51.1-27.8-79.9-24c-8,1.1-10.6,12-2,14.7
				c27.7,8.8,55.4,17.7,83,26.5c8,2.6,13.4-9.8,5.8-13.7c-27.7-14.2-58.5-19.1-89.3-14.7c-7.9,1.1-6.4,12.4,0,14.5
				c20,6.4,40.1,12.7,60.6,17.4c14.2,3.3,37.8,8,39.6,26.3c4.3-1.8,8.5-3.5,12.8-5.3c-11-8.6-22.6-16.4-35.1-22.7
				c-12.4-6.3-25.7-11.8-39.9-11c-5.8,0.3-10.8,8.4-5.3,12.8c21.6,17.5,44.4,33.4,68.2,47.7c7.1,4.2,15.9-6.3,9.1-11.8
				c-33.8-27-71.2-50.6-113.9-60.4c-8.6-2-12.5,8.8-5.8,13.7c13.3,9.7,30,8.5,45,13c8.2,2.5,15.2,7.6,23.5,9.9
				c9.2,2.5,18.9,2.6,28.3,2.6C210.8,165.5,210.8,150.5,201.1,150.5L201.1,150.5z"/>
		</g>
	</g>
	<g>
		<g>
			<path class="st1" d="M154.5,51.6c1.9,9.9,7.4,18.7,11.1,28c3.9,9.8,7,20,9.3,30.3c2.1,9.4,16.6,5.4,14.5-4
				c-2.3-10.3-5.4-20.5-9.3-30.3c-3.7-9.2-9.3-18.2-11.1-28C167.2,38.1,152.7,42.2,154.5,51.6L154.5,51.6z"/>
		</g>
	</g>
	<g>
		<g>
			<path class="st1" d="M93.2,241.3c20.9,3.8,35.6,22.3,57.7,22.9c9.7,0.3,9.6-14.7,0-15c-9.6-0.3-18-5.5-26.1-10.3
				c-8.7-5.1-17.6-10.3-27.6-12.1C87.7,225.1,83.7,239.5,93.2,241.3L93.2,241.3z"/>
		</g>
	</g>
	<path class="st2" d="M147,38.8c-3.5-18.8-4.3-28.5-2.4-29.1c2.1-0.6,7.5,9.4,16,30.3"/>
	<path class="st2" d="M218.5,53.7c11.5-15.2,16.6-23.6,15.1-25c-1.6-1.5-10.9,5.1-27.8,19.9"/>
	<path class="st2" d="M92.1,259.5l9.1,65.2c-17.8,9.8-8.6,12.3,10.4,11.6c19-0.6,18.2-8.8,18.2-8.8l2.8-27.7h20.8"/>
	<path class="st2" d="M213.3,259.5l-9.1,65.2c17.8,9.8,8.6,12.3-10.4,11.6c-19-0.6-18.2-8.8-18.2-8.8l-2.8-27.7h-20.8"/>
	<g>
		<g>
			<path class="st2" d="M147,38.8c-12.8,6.1-51.7,2.9-63.6,21c-47.1,71.7-12,181.3-6.3,190.2c3,4.6,6.4,8.9,6.4,8.9
				c2.5,0.7,4.8,0.8,6.5,0.6c13.7-0.3,17-2,17.3-3.6c0.8-4.8-24.4-21.9-25.4-23.9c0,0-0.3-0.7-0.8-1.6c-0.2-0.5-0.5-0.9-0.6-1.2"/>
		</g>
		<line class="st2" x1="80.5" y1="229.3" x2="80.5" y2="206.4"/>
	</g>
	<g>
		<g>
			<path class="st2" d="M159.1,38.8c12.8,6.1,51.7,2.9,63.6,21c47.1,71.7,12,181.3,6.3,190.2c-3,4.6-6.4,8.9-6.4,8.9
				c-2.5,0.7-4.8,0.8-6.5,0.6c-13.7-0.3-17-2-17.3-3.6c-0.8-4.8,24.4-21.9,25.4-23.9c0,0,0.3-0.7,0.8-1.6c0.2-0.5,0.5-0.9,0.6-1.2"
				/>
		</g>
		<line class="st2" x1="225.6" y1="229.3" x2="225.6" y2="206.4"/>
	</g>
	<path class="st2" d="M226.7,208.4"/>
	<path class="st3" d="M80.5,229.3"/>
	<ellipse class="st4" cx="111.8" cy="113.9" rx="24.7" ry="29.6"/>
	<path class="st5" d="M87.1,105.6c3.2,2.3,12,8.2,24.7,8.3c12.5,0.2,21.4-5.3,24.6-7.5"/>
	<path class="st4" d="M105,113.1c-0.9,2.6-2.5,7.9-1.6,14.7c1.3,9.1,6.5,14.7,8.3,16.6"/>
	<path class="st5" d="M110.3,113.9c-0.8,2.8-1.8,8.2-0.6,14.7c1.4,7.6,5.2,12.7,7.1,14.9"/>
	<g>
		<g>
			<path class="st0" d="M110.8,115.7c-0.1,1.3-0.4,2.6-0.2,3.9c0.2,1,0,2.1,0.3,3.1c0.3,1,2.5,0.4,2.8-0.3c0.2-0.4,0.3-0.6,0.3-1
				c0.2-0.8-1.3-0.7-1.7-0.6c-1.5,0.3-3.5,3-1.3,3.8c0.6,0.2,1.5,0.2,2.1-0.3c0.3-0.2,0.9-0.9,0.2-1.2c0.1-0.6-0.1-0.8-0.6-0.8
				c-0.6-0.2-1.1-0.4-1.7-0.6c0,0.2-0.1,0.3-0.1,0.5c0.9-0.1,1.9-0.2,2.8-0.3c-0.2-0.9-0.1-1.9-0.2-2.8c-0.2-1.3,0-2.5,0.1-3.8
				C113.9,114.1,110.9,114.6,110.8,115.7L110.8,115.7z"/>
		</g>
	</g>
	<g>
		<g>
			<path class="st0" d="M110.2,121.6c-0.2,2.6,0.5,4.7,1.7,7c0.9-0.4,1.8-0.8,2.7-1.3c-0.4-0.5-0.9-1.1-1.3-1.6
				c-0.8-0.9-2.9-0.2-2.8,1c0.3,3.3,1.7,6.4,3.1,9.3c0.9-0.3,1.9-0.7,2.8-1c-0.4-0.7-0.9-1.3-1.6-1.9c-0.9-0.9-3.4-0.1-2.7,1.3
				c0.9,1.7,1.9,2.9,3.2,4.1c0.7,0.6,3.1-0.1,2.6-1.2c-0.2-0.5-0.5-1-0.7-1.5c-0.5-1.1-2.8-0.7-2.9,0.5c0,0.5-0.1,1.1-0.1,1.6
				c0.9-0.3,1.7-0.6,2.6-0.9c-0.2-0.1-0.4-0.3-0.6-0.4c-0.8-0.6-3.3,0.3-2.4,1.5c0.7,0.9,1.5,1.8,2.3,2.7c0.6,0.7,2.8,0.4,2.8-0.7
				c0-0.3,0-0.5,0-0.8c-0.9,0.2-1.9,0.5-2.8,0.7c1.1,1.3,1.9,2.6,3.7,2.1c0.7-0.2,1.8-1.1,0.9-1.8c-0.8-0.6-1.7-1.2-2.5-1.8
				c-0.9-0.6-3.1,0.2-2.4,1.5c0.2,0.6,0.6,1.1,1.1,1.5c0.8-0.5,1.6-1,2.4-1.5c-1.2-1-2.5-1-3.6,0.2c-0.2,0.2-0.4,0.6-0.2,0.8
				c0.5,1.2,1.4,2,2.3,3c0.7,0.9,2.2,0.3,2.7-0.5c0.2-0.3,0.4-0.6,0.6-0.9c0.9-1.3-2.1-1.3-2.8-0.3c-0.2,0.3-0.4,0.6-0.6,0.9
				c0.9-0.2,1.8-0.3,2.7-0.5c-0.7-1.3-1.8-1.7-3.4-1.1c0.8,0.7,3.4-0.5,2.4-1.5c-0.5-0.4-0.9-0.9-1.1-1.5c-0.8,0.5-1.6,1-2.4,1.5
				c0.8,0.6,1.7,1.2,2.5,1.8c0.3-0.6,0.6-1.2,0.9-1.8c0.3-0.6,0.2-1-0.5-1.4c-0.6-0.7-2.8-0.4-2.8,0.7c0,0.3,0,0.5,0,0.8
				c0.9-0.2,1.9-0.5,2.8-0.7c-0.8-0.9-1.6-1.8-2.3-2.7c-0.8,0.5-1.6,1-2.4,1.5c0.2,0.1,0.4,0.3,0.6,0.4c0.7,0.5,2.5,0.1,2.6-0.9
				c0-0.5,0.1-1.1,0.1-1.6c-1,0.2-1.9,0.3-2.9,0.5c0.2,0.5,0.5,1,0.7,1.5c0.9-0.4,1.7-0.8,2.6-1.2c-1.3-1.2-2-2.2-2.8-3.7
				c-0.9,0.4-1.8,0.8-2.7,1.3c0.6,0.5,1.1,1.2,1.6,1.9c0.6,0.9,3.3,0.1,2.8-1c-1.4-2.9-2.7-6-3.1-9.3c-0.9,0.3-1.9,0.7-2.8,1
				c0.4,0.5,0.9,1.1,1.3,1.6c0.8,1,3.3,0.1,2.7-1.3c-1.1-2.1-1.6-3.6-1.4-6C113.2,119.9,110.2,120.3,110.2,121.6L110.2,121.6z"/>
		</g>
	</g>
	<g>
		<g>
			<path class="st0" d="M121.6,141.7c0.1-0.1,0.1-0.2,0.2-0.3c-0.9,0.2-1.9,0.5-2.8,0.7c0,0,0.1,0.1,0.1,0.1
				c0.2-0.2,0.4-0.4,0.6-0.5c-0.1,0.1-0.2,0.1-0.3,0.2c0.7,0,1.4,0,2.1,0c0.4-0.3,0.7-0.6,1.1-0.9c0.6-0.5-0.9-0.4-1-0.4
				c-0.1,0-0.1,0-0.2,0c0.4,0,0.7,0,1.1,0c-1-0.4-3.6,0-3.4,1.5C119.2,142.7,121.4,141.9,121.6,141.7c0.8-0.3,1.6-0.6,2.2-1.2
				c0.5-0.5,1-1.1,1.5-1.7c-1,0.2-1.9,0.4-2.9,0.5c-0.7,1.3-1.9,2.6-3.3,3c0.5,0,1,0.1,1.5,0.1c0.2-0.5,0-0.5-0.7,0
				c-0.1-0.1-0.2-0.2-0.2-0.3c-0.2,0.3-0.5,0.6-0.6,0.7c-0.3,0.2-0.8,0.1-1.1,0.3c-0.5,0.2-0.9,0.4-1.2,0.9c0.7-0.3,1.4-0.5,2.1-0.8
				c0,0-0.1,0-0.1,0c0.1,0.2,0.1,0.5,0.2,0.7c1.1-0.5,2.4-1.1,2.8-2.4c0.1-0.5-2.6-0.2-2.9,0.5c-0.3,0.8-0.8,1.2-1.6,1.5
				c-0.8,0.3-0.7,0.8,0.2,0.7c0.5-0.1,1.1-0.2,1.6-0.4c0.2-0.1,0.8-0.7,0.5-0.5c-0.6,0.2-1.2,0.4-1.7,0.5c1.8-0.3,3.6-0.8,4.8-2.3
				c0.1-0.2-0.1-0.3-0.2-0.3c-1.3-0.2-4.1,0-4.5,1.6c-0.1,0.5,1.4,0.2,1.5,0.1c2.5-0.8,4.6-2.1,5.9-4.3c0.2-0.4-1-0.2-1.1-0.2
				c-0.6,0.1-1.3,0.3-1.7,0.8c-0.8,1.1-1.8,1.8-2.9,2.4c0.8-0.1,1.7-0.3,2.5-0.4c-0.1-0.2,0-0.4,0.1-0.5c-0.4,0.2-0.9,0.4-1.3,0.7
				c0.1,0,0.1,0,0.2-0.1c-0.5,0-1,0.1-1.5,0.1c0.5,0.2,0.9,0.2,1.5,0.1c-0.3-0.1-0.7-0.2-1-0.4c-0.4,0.3-0.7,0.6-1.1,0.9
				c-0.4,0.3,0.1,0.4,0.4,0.4c0.6,0,1.3-0.2,1.8-0.4c0.1-0.1,0.2-0.1,0.3-0.2c0.1,0,0.7-0.3,0.6-0.5c-0.1-0.2-0.1-0.2-0.3-0.3
				c-0.6-0.3-2.5,0.1-2.8,0.7c-0.1,0.1-0.1,0.2-0.2,0.3c-0.2,0.4,1,0.2,1.1,0.2C120.3,142.3,121.3,142.1,121.6,141.7L121.6,141.7z"
				/>
		</g>
	</g>
	<g>
		<g>
			<path class="st0" d="M116.2,117c0.6-0.1,1.2-0.3,1.8-0.4c1.5-0.4,1.5-2.2-0.2-2.1c-0.8,0-1.5,0.1-2.3,0.1
				c-0.1,0.7-0.2,1.4-0.2,2.2c7.2-1.2,13.8-3.6,20.1-7.4c-0.7-0.2-1.4-0.3-2.1-0.5c1.7,11.5-2.1,22.9-10.4,31.1
				c-1.3,1.3,1.5,1.8,2.4,0.9c8.7-8.7,12.6-20.7,10.8-32.8c-0.1-0.9-1.6-0.8-2.1-0.5c-5.8,3.5-11.9,5.9-18.6,7
				c-1.6,0.3-2.3,2.2-0.2,2.2c0.8,0,1.5-0.1,2.3-0.1c-0.1-0.7-0.1-1.4-0.2-2.1c-0.6,0.1-1.2,0.3-1.8,0.4
				C113.9,115.4,114.4,117.4,116.2,117L116.2,117z"/>
		</g>
	</g>
	<g>
		<g>
			<path class="st0" d="M124.3,138.1c-0.9,1.3-2,2-3.4,2.8c0.7,0.1,1.5,0.3,2.2,0.4c0.5-0.8,1.1-1.7,2-2c-0.4,0.1-0.8,0.2-1.1,0.2
				c0,0,0.1,0,0.1,0c-0.3-0.1-0.5-0.2-0.8-0.2c0,0,0.1,0.1,0.1,0.1c0-0.1-0.1-0.3-0.1-0.4c0,0.3-1,0.9-1.2,1.1
				c-0.5,0.4-1,0.8-1.5,1.2c-0.5,0.4-0.3,0.9,0.3,1c0.7,0.2,1.5-0.1,2-0.5c0.9-0.8,2-1.5,2.8-2.3c0.2-0.2,0.5-0.6,0.5-0.9
				c-0.1-0.5-0.6-0.6-1-0.6c-1.9,0-3.9,1.7-4.8,3.3c-0.2,0.4,0,0.7,0.5,0.8c0.6,0.1,1.3-0.1,1.8-0.4c1.7-0.9,3.2-2,4.3-3.6
				c0.4-0.6-0.3-0.8-0.8-0.8C125.6,137.3,124.7,137.6,124.3,138.1L124.3,138.1z"/>
		</g>
	</g>
	<g>
		<g>
			<path class="st0" d="M121.5,143.1c0.6-0.4,1.2-0.9,1.6-1.5c0.3-0.3,0.5-0.6,0.7-1c0.1-0.2,0.2-0.3,0.4-0.5c0.2-0.1,0.2-0.1,0-0.1
				c-0.4-0.3-0.9-0.6-1.3-0.9c-0.1,0.7-1,1.2-1.4,1.6c-0.1,0.1-0.2,0.2-0.3,0.3c0,0,0.4,0,0.1,0c-0.4,0-0.9,0.2-1.3,0.3
				c-0.6,0.1-1.4,0.7-1.2,1.4c0.2,0.7,1.2,0.7,1.7,0.6c0.6-0.1,1.3-0.2,1.9-0.5c0.6-0.3,1-0.6,1.4-1.1c0.9-0.9,1.8-1.5,2.1-2.8
				c0.1-0.7-0.8-1-1.3-0.9c-1.2,0.1-2.1,0.7-2.9,1.5c-0.7,0.8-1.1,1.6-2,2.2c-0.5,0.4-0.7,1.1-0.2,1.5
				C120,143.7,121,143.5,121.5,143.1L121.5,143.1z"/>
		</g>
	</g>
	<g>
		<g>
			<path class="st0" d="M128.6,136.5c0.3-0.4,0.6-0.9,0.9-1.3c-0.9-0.1-1.8-0.2-2.7-0.3c0.1-0.2,0.2-0.3,0.4-0.5
				c0.7,0.3,1.4,0.7,2.2,1c0.7-0.6,1.3-2.2,1.9-2.7c-0.8-0.3-1.6-0.5-2.3-0.8c-0.1,0.2-0.2,0.4-0.4,0.6c0.9,0.1,1.8,0.2,2.8,0.3
				c1.3-2,2.8-4,2.9-6.4c0.1-1.5-2.4-0.8-2.8,0c-0.1,0.1-0.1,0.2-0.2,0.3c0.9,0.1,1.8,0.2,2.8,0.3c0.3-0.7,0.5-1.4,0.7-2.1
				c0.4-1.3-2.5-1.1-2.8,0c-0.2,0.5-0.3,1.1-0.5,1.6c0.9,0,1.9,0,2.8,0c0.1-0.3,0.1-0.7,0.1-1c0-1.6-2.6-0.9-2.9,0.2
				c-0.2,0.4-0.2,0.8-0.3,1.3c-0.1,0.9,1.1,0.9,1.7,0.8c1.2-0.2,1.7-0.9,1.8-2.1c0.1-1.5-2.7-1-2.9,0.2c-0.1,0.4-0.2,0.8-0.5,1.2
				c0.9,0.1,1.8,0.2,2.8,0.3c0.1-0.3,0.3-0.5,0.4-0.8c-0.9,0-1.9,0-2.8,0c-0.1,0.5-0.3,1-0.6,1.5c-0.8,1.3,2.1,1.3,2.8,0.3
				c0.4-0.7,0.6-1.2,0.8-2c0.3-1.4-2.4-0.9-2.8,0c-0.1,0.3-0.3,0.5-0.4,0.8c-0.7,1.5,2.2,1.3,2.8,0.3c0.3-0.6,0.5-1.1,0.6-1.7
				c-1,0.1-2,0.2-2.9,0.2c0.2,0,0.4,0,0.6-0.1c0.6,0.3,1.1,0.6,1.7,0.8c0-0.4,0.1-0.8,0.3-1.3c-1,0.1-2,0.2-2.9,0.2
				c0,0.3,0,0.7-0.1,1c-0.2,1.4,2.5,1,2.8,0c0.2-0.5,0.3-1.1,0.5-1.6c-0.9,0-1.9,0-2.8,0c-0.1,0.6-0.3,1.1-0.6,1.6
				c-0.7,1.6,2.2,1.3,2.8,0.3c0.1-0.1,0.1-0.2,0.2-0.3c-0.9,0-1.9,0-2.8,0c-0.1,2.2-1.6,4.1-2.8,5.9c-0.8,1.3,2.1,1.3,2.8,0.3
				c0.1-0.2,0.2-0.4,0.4-0.6c0.9-1.3-1.8-1.2-2.3-0.8c-1.1,0.8-1.5,2.2-2.4,3.2c-1.3,1.3,1.4,1.5,2.2,1c0.4-0.2,0.7-0.6,0.7-1
				c0-1.3-2.1-1-2.7-0.3c-0.3,0.4-0.6,0.9-0.9,1.3C125.2,137.2,127.9,137.6,128.6,136.5L128.6,136.5z"/>
		</g>
	</g>
	<g>
		<g>
			<path class="st0" d="M134.8,125.8c0-0.3,0.1-0.5,0.2-0.8c-1,0.2-1.9,0.3-2.9,0.5c-0.1,0.4-0.2,0.7-0.4,1.1c1-0.2,1.9-0.3,2.9-0.5
				c0.2-0.8,0.3-1.7,0.5-2.5c-1,0.2-1.9,0.4-2.9,0.6c0.1,0.8,0,1.6-0.5,2.3c-0.3,0.5,0.9,0.4,1,0.4c0.5-0.1,1.4-0.2,1.8-0.7
				c0.7-0.9,1-1.9,0.9-3c-1,0.3-1.9,0.5-2.9,0.8c0.2,1.4-0.5,2.4-1.1,3.6c-0.3,0.5,1,0.4,1.2,0.4c0.5-0.1,1.4-0.3,1.7-0.8
				c0.7-1.3,1.4-2.3,1.2-3.9c-0.1-0.7-3-0.1-2.9,0.8c0.1,0.8-0.1,1.7-0.6,2.4c0.9-0.1,1.8-0.2,2.8-0.3c0.5-0.8,0.6-1.7,0.5-2.6
				c-0.1-0.7-2.8,0-2.9,0.6c-0.2,0.8-0.3,1.7-0.5,2.5c-0.2,0.9,2.6,0.2,2.9-0.5c0.2-0.3,0.3-0.7,0.4-1.1c0.2-0.8-2.6-0.2-2.9,0.5
				c-0.2,0.4-0.2,0.7-0.2,1.1C131.9,127.2,134.8,126.7,134.8,125.8L134.8,125.8z"/>
		</g>
	</g>
	<g>
		<g>
			<path class="st0" d="M133.7,114c0,4.1-0.1,7.8-1.4,11.8c-0.4,1.3,2.6,0.9,2.9-0.3c1.2-4,1.4-7.6,1.4-11.8
				C136.6,112.3,133.7,112.8,133.7,114L133.7,114z"/>
		</g>
	</g>
	<g>
		<g>
			<path class="st0" d="M133.6,114c0.2,1.4,0,2.7-0.6,3.9c-0.3,0.6,1,0.6,1.2,0.6c0.6-0.1,1.4-0.3,1.7-1c0.6-1.4,0.8-2.8,0.6-4.3
				C136.4,112.3,133.5,112.9,133.6,114L133.6,114z"/>
		</g>
	</g>
	<g>
		<g>
			<path class="st0" d="M133.5,114.2c0.5,1.9,0.1,3.8-0.3,5.6c-0.3,1.3,2.6,0.9,2.9-0.3c0.5-2,0.9-4.1,0.3-6.1
				C136,112.2,133.1,113,133.5,114.2L133.5,114.2z"/>
		</g>
	</g>
	<g>
		<g>
			<path class="st0" d="M133.3,113.7c0,0.3,0.1,0.5,0.2,0.8c0.9-0.3,1.9-0.7,2.8-1c0-0.1-0.1-0.2-0.1-0.2c-0.3,0.3-0.6,0.6-0.9,0.9
				c0,0,0,0,0.1,0c-0.5,0.1-1,0.1-1.5,0.2c-0.3-0.1-0.1,0.2-0.1,0.4c0,0.3,0,0.6-0.1,0.9c-0.1,0.6-0.1,1.1-0.2,1.7
				c-0.1,1.3,2.8,0.8,2.9-0.3c0.1-1.1,0.5-2.4,0.2-3.4c-0.3-1.1-1.6-1.4-2.6-0.9c-0.3,0.2-0.8,0.5-0.9,0.9c0,0.4,0.2,0.8,0.4,1.1
				c0.5,0.9,3.1,0.1,2.8-1c-0.1-0.3-0.1-0.5-0.2-0.8C136,111.8,133.1,112.5,133.3,113.7L133.3,113.7z"/>
		</g>
	</g>
	<g>
		<g>
			<path class="st0" d="M132.4,124.6c-0.3,2.1-1,3.9-2,5.8c-0.3,0.5,1,0.5,1.2,0.4c0.6-0.1,1.4-0.3,1.7-0.9c1-1.9,1.7-3.7,2-5.8
				C135.4,123.3,132.6,123.8,132.4,124.6L132.4,124.6z"/>
		</g>
	</g>
	<g>
		<g>
			<path class="st0" d="M113.3,116c0.5,9,1.8,16.6,5.4,25c0.5,1.1,2.6,0.3,2.9-0.5c0.6-1.6,0.5-0.9,1.5-2c1.2-1.3,2.3-2.1,3.2-3.7
				c-0.9,0-1.9,0.1-2.8,0.1c-0.2,1.1-0.7,2.2-1.4,3c0.9,0,1.8,0.1,2.7,0.1c0.2-0.3,0.3-0.5,0.5-0.8c0.8-1.3-1.8-0.8-2.3-0.6
				c0.8-0.5-0.2-1.8-0.7-2.9c-1.2-2.7-1.8-4.3-2-7.2c-0.2-2.1-0.3-4-0.7-6.1c-0.4-2.6-1.2-3.6,1.2-4.9c-0.8,0-1.6-0.1-2.4-0.1
				c0.7,4.2,2.1,8.3,2.6,12.6c0.3,2.7,0,6.5,2,8.7c0.5,0.5,1.4,0.3,1.9,0.1c3-1.1,3.1-2.9,2.5-5.6c-0.6-2.7-4-16.8-0.7-17.9
				c-0.6-0.1-1.1-0.3-1.7-0.4c0.5,2.9,0.9,5.8,1.4,8.7c0.5,2.9,1.9,7.7,0.8,10.4c-0.6,1.4,2.3,1.1,2.7,0.1c1-2.5,0.4-4.9,0-7.5
				c-0.6-4.2-1.4-8.3-2-12.5c-0.1-0.6-1.3-0.5-1.7-0.4c-1.7,0.5-2.3,0.8-3.8,1.7c-0.3,0.2-0.6,0.5-0.5,0.9c0.8,3.5,1,7,1.4,10.6
				c0.2,1.9,2.8,9.8,0.5,10.6c0.6,0,1.3,0.1,1.9,0.1c-2.2-2.3-1.6-7.1-2-9.9c-0.6-3.7-1.8-7.3-2.4-11c-0.1-0.9-1.9-0.4-2.4-0.1
				c-2,1.2-3,1.4-2.9,3.9c0.1,1.7,0.8,3.3,1,5c0.3,2.3,0,4.7,0.6,7c0.5,2.1,1.7,3.7,2.5,5.7c0.3,0.7,0.2,1.9,0.9,2.3
				c1.3,0.9,2.7-0.1,3.8-0.8c-0.8-0.2-1.5-0.4-2.3-0.6c-0.2,0.3-0.3,0.5-0.5,0.8c-0.8,1.3,2.2,1,2.7,0.1c0.8-1.2,1.2-2.2,1.6-3.5
				c0.3-1.2-2.4-0.6-2.8,0.1c-1.1,1.9-3,2.1-4,3.5c-0.6,0.9-0.5,1.7-0.9,2.7c1-0.2,1.9-0.4,2.9-0.5c-3.6-8.4-4.9-16-5.4-25
				C116.2,114.2,113.3,114.8,113.3,116L113.3,116z"/>
		</g>
	</g>
	<g>
		<g>
			<path class="st0" d="M131.9,126c0.3-5.1,1-10.1,2-15.1c0.3-1.3-2.4-0.4-2.8,0.1c-0.5,0.9-1.2,1.4-2.2,1.7c-0.3,0.1-1,0.6-0.9,1
				c0.4,1.2,0.6,2.3,0.7,3.6c0,0.9,2.8,0.3,2.9-0.6c0.1-1.8,0.2-3.3-0.6-5c-0.5-1-3.3-0.1-2.9,0.8c0.7,1.5,0.7,2.9,0.6,4.6
				c1-0.2,1.9-0.4,2.9-0.6c0-1.3-0.2-2.4-0.7-3.6c-0.3,0.3-0.6,0.7-0.9,1c1.6-0.6,2.8-1.5,3.7-2.9c-0.9,0-1.9,0.1-2.8,0.1
				c-1,5-1.6,10-2,15.1C128.9,127.5,131.8,127,131.9,126L131.9,126z"/>
		</g>
	</g>
	<g>
		<g>
			<path class="st0" d="M109.6,115.3c-0.1,4.9,0.3,9.7,1.6,14.5c0.6,2.3,1.3,4.7,2.3,6.9c0.6,1.4,2.3,1.3,1.8,3.5
				c0.9-0.2,1.9-0.5,2.8-0.7c-3.5-3.3-4.9-9.2-5.1-13.9c-0.2-4.5,0-8.8,4.5-10.3c0.4-0.1,1.5-0.8,0.5-0.9c-1.3-0.1-2.6-0.2-3.9-0.3
				c-0.6,0.4-1.3,0.8-1.9,1.1c3.2,0.2,5.9-0.4,9-1.3c4.3-1.2,8.7-1.7,12.9-3.1c-0.6,0-1.3,0.1-1.9,0.1c0.3,6.3-1.3,11.9-4.8,17.1
				c1-0.2,1.9-0.3,2.9-0.5c1.2-3.9,2-7.7,2.4-11.8c0-0.4-2.7,0.1-2.9,0.7c-1.7,4.2-3.1,8.5-4.3,13c1-0.2,1.9-0.4,2.9-0.7
				c-1.3-4-2-7.8-2.1-12c-1,0.3-1.9,0.5-2.9,0.8c1.8,3.4,2.9,6.8,3.5,10.6c0.1,0.6,2-0.1,2.3-0.2c0.8-0.3,1.5-0.7,2.3-1
				c-0.8,0.1-1.5,0.1-2.3,0.2c0.4,2.1-2.6,5-3.7,6.6c-0.9,1.3-1.4,2.2-3,2.8c-2.2,0.8-2.6-0.2-4.1-2.4c-2.4-3.6-3.1-8.1-3.3-12.3
				c-0.9,0.3-1.9,0.6-2.8,0.9c3.2,3.2,6.2,6.5,9,10c0.5,0.6,3.1-0.4,2.9-0.8c-1.8-3.1-2.7-6.1-2.8-9.7c-0.9,0.3-1.9,0.6-2.8,0.9
				c1,1,2,1.9,3,2.9c0.4,0.5,2.8-0.2,2.8-0.9c0.3-3.8-0.1-7.2-1.3-10.9c-0.2-0.6-3.1,0.2-2.9,0.8c1.2,3.6,1.6,7.1,1.3,10.9
				c0.9-0.3,1.9-0.6,2.8-0.9c-1-1-2-2-3-2.9c-0.4-0.4-2.8,0.2-2.8,0.9c0.1,3.6,1,6.6,2.8,9.7c1-0.3,1.9-0.5,2.9-0.8
				c-2.9-3.5-6-6.9-9.2-10.2c-0.4-0.4-2.8,0.2-2.8,0.9c0.2,4.8,2.2,17.1,9.3,16.6c1.7-0.1,2.9-1.1,4-2.3c1.9-1.9,7-7.8,6.5-10.5
				c-0.1-0.6-2,0.1-2.3,0.2c-0.8,0.3-1.5,0.7-2.3,1c0.8-0.1,1.5-0.1,2.3-0.2c-0.6-3.8-1.7-7.2-3.5-10.6c-0.3-0.6-2.9,0.1-2.9,0.8
				c0.1,4.2,0.8,8,2.1,12c0.2,0.6,2.7-0.1,2.9-0.7c1.2-4.4,2.6-8.7,4.3-13c-1,0.2-1.9,0.4-2.9,0.7c-0.4,3.9-1.2,7.7-2.3,11.5
				c-0.2,0.6,2.5,0,2.9-0.5c3.5-5.3,5.1-11.1,4.8-17.4c0-0.5-1.8,0-1.9,0.1c-2.5,0.9-5.2,0.9-7.7,1.6c-3.8,0.9-7.2,2.6-11.3,2.3
				c-0.6,0-3.3,1-1.9,1.1c4,0.3,3.1-1.2,0.6,0.3c-1.9,1.2-2.2,3.6-2.5,5.8c-0.9,6.2,0.2,14.6,5,19.1c0.4,0.4,2.7-0.2,2.8-0.7
				c0.2-1.1,0.3-1.6-0.3-2.5c-0.3-0.6-1.1-0.8-1.5-1.3c-0.8-1.1-1.2-3-1.6-4.3c-1.8-5.6-2.4-11.3-2.3-17.1
				C112.6,114.1,109.7,114.5,109.6,115.3L109.6,115.3z"/>
		</g>
	</g>
	<g>
		<g>
			<path class="st0" d="M112.8,123.8c-0.4-0.3-0.6-0.8-0.6-1.2c0-0.6-1.2-0.5-1.5-0.4c-0.5,0.1-1.3,0.4-1.4,1
				c-0.3,1-0.2,2.1,0.3,3.1c0.3,0.6,1.1,0.5,1.6,0.4c0.3-0.1,1.5-0.6,1.2-1.1c-0.4-0.9-0.5-1.7-0.3-2.6c-1,0.2-1.9,0.4-2.9,0.6
				c0,0.8,0.5,1.5,1.2,1.9C111.3,125.8,113.9,124.6,112.8,123.8L112.8,123.8z"/>
		</g>
	</g>
	<path class="st3" d="M136.2,164.6c3.2,1.4,8.9,3.3,16.2,3.2c6.9-0.1,12.2-1.9,15.4-3.2"/>
	<path class="st6" d="M91.6,78.8"/>
	<path class="st2" d="M90,51.4c-11.5-15.3-16.5-23.6-15-25c1.6-1.5,10.9,5.2,27.8,20"/>
	<ellipse class="st4" cx="192.8" cy="125.9" rx="24.7" ry="29.6"/>
	<path class="st5" d="M168.1,117.6c3.2,2.3,12,8.2,24.7,8.3c12.5,0.2,21.4-5.3,24.6-7.5"/>
	<path class="st4" d="M186,125.1c-0.9,2.6-2.5,7.9-1.6,14.7c1.3,9.1,6.5,14.7,8.3,16.6"/>
	<path class="st5" d="M191.3,125.9c-0.8,2.8-1.8,8.2-0.6,14.7c1.4,7.6,5.2,12.7,7.1,14.9"/>
	<g>
		<g>
			<path class="st0" d="M191.8,127.7c-0.1,1.3-0.4,2.6-0.2,3.9c0.2,1,0,2.1,0.3,3.1c0.3,1,2.5,0.4,2.8-0.3c0.2-0.4,0.3-0.6,0.3-1
				c0.2-0.8-1.3-0.7-1.7-0.6c-1.5,0.3-3.5,3-1.3,3.8c0.6,0.2,1.5,0.2,2.1-0.3c0.3-0.2,0.9-0.9,0.2-1.2c0.1-0.6-0.1-0.8-0.6-0.8
				c-0.6-0.2-1.1-0.4-1.7-0.6c0,0.2-0.1,0.3-0.1,0.5c0.9-0.1,1.9-0.2,2.8-0.3c-0.2-0.9-0.1-1.9-0.2-2.8c-0.2-1.3,0-2.5,0.1-3.8
				C194.9,126.1,191.9,126.6,191.8,127.7L191.8,127.7z"/>
		</g>
	</g>
	<g>
		<g>
			<path class="st0" d="M191.2,133.6c-0.2,2.6,0.5,4.7,1.7,7c0.9-0.4,1.8-0.8,2.7-1.3c-0.4-0.5-0.9-1.1-1.3-1.6
				c-0.8-0.9-2.9-0.2-2.8,1c0.3,3.3,1.7,6.4,3.1,9.3c0.9-0.3,1.9-0.7,2.8-1c-0.4-0.7-0.9-1.3-1.6-1.9c-0.9-0.9-3.4-0.1-2.7,1.3
				c0.9,1.7,1.9,2.9,3.2,4.1c0.7,0.6,3.1-0.1,2.6-1.2c-0.2-0.5-0.5-1-0.7-1.5c-0.5-1.1-2.8-0.7-2.9,0.5c0,0.5-0.1,1.1-0.1,1.6
				c0.9-0.3,1.7-0.6,2.6-0.9c-0.2-0.1-0.4-0.3-0.6-0.4c-0.8-0.6-3.3,0.3-2.4,1.5c0.7,0.9,1.5,1.8,2.3,2.7c0.6,0.7,2.8,0.4,2.8-0.7
				c0-0.3,0-0.5,0-0.8c-0.9,0.2-1.9,0.5-2.8,0.7c1.1,1.3,1.9,2.6,3.7,2.1c0.7-0.2,1.8-1.1,0.9-1.8c-0.8-0.6-1.7-1.2-2.5-1.8
				c-0.9-0.6-3.1,0.2-2.4,1.5c0.2,0.6,0.6,1.1,1.1,1.5c0.8-0.5,1.6-1,2.4-1.5c-1.2-1-2.5-1-3.6,0.2c-0.2,0.2-0.4,0.6-0.2,0.8
				c0.5,1.2,1.4,2,2.3,3c0.7,0.9,2.2,0.3,2.7-0.5c0.2-0.3,0.4-0.6,0.6-0.9c0.9-1.3-2.1-1.3-2.8-0.3c-0.2,0.3-0.4,0.6-0.6,0.9
				c0.9-0.2,1.8-0.3,2.7-0.5c-0.7-1.3-1.8-1.7-3.4-1.1c0.8,0.7,3.4-0.5,2.4-1.5c-0.5-0.4-0.9-0.9-1.1-1.5c-0.8,0.5-1.6,1-2.4,1.5
				c0.8,0.6,1.7,1.2,2.5,1.8c0.3-0.6,0.6-1.2,0.9-1.8c0.3-0.6,0.2-1-0.5-1.4c-0.6-0.7-2.8-0.4-2.8,0.7c0,0.3,0,0.5,0,0.8
				c0.9-0.2,1.9-0.5,2.8-0.7c-0.8-0.9-1.6-1.8-2.3-2.7c-0.8,0.5-1.6,1-2.4,1.5c0.2,0.1,0.4,0.3,0.6,0.4c0.7,0.5,2.5,0.1,2.6-0.9
				c0-0.5,0.1-1.1,0.1-1.6c-1,0.2-1.9,0.3-2.9,0.5c0.2,0.5,0.5,1,0.7,1.5c0.9-0.4,1.7-0.8,2.6-1.2c-1.3-1.2-2-2.2-2.8-3.7
				c-0.9,0.4-1.8,0.8-2.7,1.3c0.6,0.5,1.1,1.2,1.6,1.9c0.6,0.9,3.3,0.1,2.8-1c-1.4-2.9-2.7-6-3.1-9.3c-0.9,0.3-1.9,0.7-2.8,1
				c0.4,0.5,0.9,1.1,1.3,1.6c0.8,1,3.3,0.1,2.7-1.3c-1.1-2.1-1.6-3.6-1.4-6C194.2,131.9,191.2,132.3,191.2,133.6L191.2,133.6z"/>
		</g>
	</g>
	<g>
		<g>
			<path class="st0" d="M202.6,153.7c0.1-0.1,0.1-0.2,0.2-0.3c-0.9,0.2-1.9,0.5-2.8,0.7c0,0,0.1,0.1,0.1,0.1
				c0.2-0.2,0.4-0.4,0.6-0.5c-0.1,0.1-0.2,0.1-0.3,0.2c0.7,0,1.4,0,2.1,0c0.4-0.3,0.7-0.6,1.1-0.9c0.6-0.5-0.9-0.4-1-0.4
				c-0.1,0-0.1,0-0.2,0c0.4,0,0.7,0,1.1,0c-1-0.4-3.6,0-3.4,1.5C200.2,154.7,202.4,153.9,202.6,153.7c0.8-0.3,1.6-0.6,2.2-1.2
				c0.5-0.5,1-1.1,1.5-1.7c-1,0.2-1.9,0.4-2.9,0.5c-0.7,1.3-1.9,2.6-3.3,3c0.5,0,1,0.1,1.5,0.1c0.2-0.5,0-0.5-0.7,0
				c-0.1-0.1-0.2-0.2-0.2-0.3c-0.2,0.3-0.5,0.6-0.6,0.7c-0.3,0.2-0.8,0.1-1.1,0.3c-0.5,0.2-0.9,0.4-1.2,0.9c0.7-0.3,1.4-0.5,2.1-0.8
				c0,0-0.1,0-0.1,0c0.1,0.2,0.1,0.5,0.2,0.7c1.1-0.5,2.4-1.1,2.8-2.4c0.1-0.5-2.6-0.2-2.9,0.5c-0.3,0.8-0.8,1.2-1.6,1.5
				c-0.8,0.3-0.7,0.8,0.2,0.7c0.5-0.1,1.1-0.2,1.6-0.4c0.2-0.1,0.8-0.7,0.5-0.5c-0.6,0.2-1.2,0.4-1.7,0.5c1.8-0.3,3.6-0.8,4.8-2.3
				c0.1-0.2-0.1-0.3-0.2-0.3c-1.3-0.2-4.1,0-4.5,1.6c-0.1,0.5,1.4,0.2,1.5,0.1c2.5-0.8,4.6-2.1,5.9-4.3c0.2-0.4-1-0.2-1.1-0.2
				c-0.6,0.1-1.3,0.3-1.7,0.8c-0.8,1.1-1.8,1.8-2.9,2.4c0.8-0.1,1.7-0.3,2.5-0.4c-0.1-0.2,0-0.4,0.1-0.5c-0.4,0.2-0.9,0.4-1.3,0.7
				c0.1,0,0.1,0,0.2-0.1c-0.5,0-1,0.1-1.5,0.1c0.5,0.2,0.9,0.2,1.5,0.1c-0.3-0.1-0.7-0.2-1-0.4c-0.4,0.3-0.7,0.6-1.1,0.9
				c-0.4,0.3,0.1,0.4,0.4,0.4c0.6,0,1.3-0.2,1.8-0.4c0.1-0.1,0.2-0.1,0.3-0.2c0.1,0,0.7-0.3,0.6-0.5c-0.1-0.2-0.1-0.2-0.3-0.3
				c-0.6-0.3-2.5,0.1-2.8,0.7c-0.1,0.1-0.1,0.2-0.2,0.3c-0.2,0.4,1,0.2,1.1,0.2C201.3,154.3,202.3,154.1,202.6,153.7L202.6,153.7z"
				/>
		</g>
	</g>
	<g>
		<g>
			<path class="st0" d="M197.2,129c0.6-0.1,1.2-0.3,1.8-0.4c1.5-0.4,1.5-2.2-0.2-2.1c-0.8,0-1.5,0.1-2.3,0.1
				c-0.1,0.7-0.2,1.4-0.2,2.2c7.2-1.2,13.8-3.6,20.1-7.4c-0.7-0.2-1.4-0.3-2.1-0.5c1.7,11.5-2.1,22.9-10.4,31.1
				c-1.3,1.3,1.5,1.8,2.4,0.9c8.7-8.7,12.6-20.7,10.8-32.8c-0.1-0.9-1.6-0.8-2.1-0.5c-5.8,3.5-11.9,5.9-18.6,7
				c-1.6,0.3-2.3,2.2-0.2,2.2c0.8,0,1.5-0.1,2.3-0.1c-0.1-0.7-0.1-1.4-0.2-2.1c-0.6,0.1-1.2,0.3-1.8,0.4
				C194.9,127.4,195.4,129.4,197.2,129L197.2,129z"/>
		</g>
	</g>
	<g>
		<g>
			<path class="st0" d="M205.3,150.1c-0.9,1.3-2,2-3.4,2.8c0.7,0.1,1.5,0.3,2.2,0.4c0.5-0.8,1.1-1.7,2-2c-0.4,0.1-0.8,0.2-1.1,0.2
				c0,0,0.1,0,0.1,0c-0.3-0.1-0.5-0.2-0.8-0.2c0,0,0.1,0.1,0.1,0.1c0-0.1-0.1-0.3-0.1-0.4c0,0.3-1,0.9-1.2,1.1
				c-0.5,0.4-1,0.8-1.5,1.2c-0.5,0.4-0.3,0.9,0.3,1c0.7,0.2,1.5-0.1,2-0.5c0.9-0.8,2-1.5,2.8-2.3c0.2-0.2,0.5-0.6,0.5-0.9
				c-0.1-0.5-0.6-0.6-1-0.6c-1.9,0-3.9,1.7-4.8,3.3c-0.2,0.4,0,0.7,0.5,0.8c0.6,0.1,1.3-0.1,1.8-0.4c1.7-0.9,3.2-2,4.3-3.6
				c0.4-0.6-0.3-0.8-0.8-0.8C206.6,149.3,205.7,149.6,205.3,150.1L205.3,150.1z"/>
		</g>
	</g>
	<g>
		<g>
			<path class="st0" d="M202.5,155.1c0.6-0.4,1.2-0.9,1.6-1.5c0.3-0.3,0.5-0.6,0.7-1c0.1-0.2,0.2-0.3,0.4-0.5c0.2-0.1,0.2-0.1,0-0.1
				c-0.4-0.3-0.9-0.6-1.3-0.9c-0.1,0.7-1,1.2-1.4,1.6c-0.1,0.1-0.2,0.2-0.3,0.3c0,0,0.4,0,0.1,0c-0.4,0-0.9,0.2-1.3,0.3
				c-0.6,0.1-1.4,0.7-1.2,1.4c0.2,0.7,1.2,0.7,1.7,0.6c0.6-0.1,1.3-0.2,1.9-0.5c0.6-0.3,1-0.6,1.4-1.1c0.9-0.9,1.8-1.5,2.1-2.8
				c0.1-0.7-0.8-1-1.3-0.9c-1.2,0.1-2.1,0.7-2.9,1.5c-0.7,0.8-1.1,1.6-2,2.2c-0.5,0.4-0.7,1.1-0.2,1.5
				C201,155.7,202,155.5,202.5,155.1L202.5,155.1z"/>
		</g>
	</g>
	<g>
		<g>
			<path class="st0" d="M209.6,148.5c0.3-0.4,0.6-0.9,0.9-1.3c-0.9-0.1-1.8-0.2-2.7-0.3c0.1-0.2,0.2-0.3,0.4-0.5
				c0.7,0.3,1.4,0.7,2.2,1c0.7-0.6,1.3-2.2,1.9-2.7c-0.8-0.3-1.6-0.5-2.3-0.8c-0.1,0.2-0.2,0.4-0.4,0.6c0.9,0.1,1.8,0.2,2.8,0.3
				c1.3-2,2.8-4,2.9-6.4c0.1-1.5-2.4-0.8-2.8,0c-0.1,0.1-0.1,0.2-0.2,0.3c0.9,0.1,1.8,0.2,2.8,0.3c0.3-0.7,0.5-1.4,0.7-2.1
				c0.4-1.3-2.5-1.1-2.8,0c-0.2,0.5-0.3,1.1-0.5,1.6c0.9,0,1.9,0,2.8,0c0.1-0.3,0.1-0.7,0.1-1c0-1.6-2.6-0.9-2.9,0.2
				c-0.2,0.4-0.2,0.8-0.3,1.3c-0.1,0.9,1.1,0.9,1.7,0.8c1.2-0.2,1.7-0.9,1.8-2.1c0.1-1.5-2.7-1-2.9,0.2c-0.1,0.4-0.2,0.8-0.5,1.2
				c0.9,0.1,1.8,0.2,2.8,0.3c0.1-0.3,0.3-0.5,0.4-0.8c-0.9,0-1.9,0-2.8,0c-0.1,0.5-0.3,1-0.6,1.5c-0.8,1.3,2.1,1.3,2.8,0.3
				c0.4-0.7,0.6-1.2,0.8-2c0.3-1.4-2.4-0.9-2.8,0c-0.1,0.3-0.3,0.5-0.4,0.8c-0.7,1.5,2.2,1.3,2.8,0.3c0.3-0.6,0.5-1.1,0.6-1.7
				c-1,0.1-2,0.2-2.9,0.2c0.2,0,0.4,0,0.6-0.1c0.6,0.3,1.1,0.6,1.7,0.8c0-0.4,0.1-0.8,0.3-1.3c-1,0.1-2,0.2-2.9,0.2
				c0,0.3,0,0.7-0.1,1c-0.2,1.4,2.5,1,2.8,0c0.2-0.5,0.3-1.1,0.5-1.6c-0.9,0-1.9,0-2.8,0c-0.1,0.6-0.3,1.1-0.6,1.6
				c-0.7,1.6,2.2,1.3,2.8,0.3c0.1-0.1,0.1-0.2,0.2-0.3c-0.9,0-1.9,0-2.8,0c-0.1,2.2-1.6,4.1-2.8,5.9c-0.8,1.3,2.1,1.3,2.8,0.3
				c0.1-0.2,0.2-0.4,0.4-0.6c0.9-1.3-1.8-1.2-2.3-0.8c-1.1,0.8-1.5,2.2-2.4,3.2c-1.3,1.3,1.4,1.5,2.2,1c0.4-0.2,0.7-0.6,0.7-1
				c0-1.3-2.1-1-2.7-0.3c-0.3,0.4-0.6,0.9-0.9,1.3C206.2,149.2,208.9,149.6,209.6,148.5L209.6,148.5z"/>
		</g>
	</g>
	<g>
		<g>
			<path class="st0" d="M215.8,137.8c0-0.3,0.1-0.5,0.2-0.8c-1,0.2-1.9,0.3-2.9,0.5c-0.1,0.4-0.2,0.7-0.4,1.1c1-0.2,1.9-0.3,2.9-0.5
				c0.2-0.8,0.3-1.7,0.5-2.5c-1,0.2-1.9,0.4-2.9,0.6c0.1,0.8,0,1.6-0.5,2.3c-0.3,0.5,0.9,0.4,1,0.4c0.5-0.1,1.4-0.2,1.8-0.7
				c0.7-0.9,1-1.9,0.9-3c-1,0.3-1.9,0.5-2.9,0.8c0.2,1.4-0.5,2.4-1.1,3.6c-0.3,0.5,1,0.4,1.2,0.4c0.5-0.1,1.4-0.3,1.7-0.8
				c0.7-1.3,1.4-2.3,1.2-3.9c-0.1-0.7-3-0.1-2.9,0.8c0.1,0.8-0.1,1.7-0.6,2.4c0.9-0.1,1.8-0.2,2.8-0.3c0.5-0.8,0.6-1.7,0.5-2.6
				c-0.1-0.7-2.8,0-2.9,0.6c-0.2,0.8-0.3,1.7-0.5,2.5c-0.2,0.9,2.6,0.2,2.9-0.5c0.2-0.3,0.3-0.7,0.4-1.1c0.2-0.8-2.6-0.2-2.9,0.5
				c-0.2,0.4-0.2,0.7-0.2,1.1C212.9,139.2,215.8,138.7,215.8,137.8L215.8,137.8z"/>
		</g>
	</g>
	<g>
		<g>
			<path class="st0" d="M214.7,126c0,4.1-0.1,7.8-1.4,11.8c-0.4,1.3,2.6,0.9,2.9-0.3c1.2-4,1.4-7.6,1.4-11.8
				C217.6,124.3,214.7,124.8,214.7,126L214.7,126z"/>
		</g>
	</g>
	<g>
		<g>
			<path class="st0" d="M214.6,126c0.2,1.4,0,2.7-0.6,3.9c-0.3,0.6,1,0.6,1.2,0.6c0.6-0.1,1.4-0.3,1.7-1c0.6-1.4,0.8-2.8,0.6-4.3
				C217.4,124.3,214.5,124.9,214.6,126L214.6,126z"/>
		</g>
	</g>
	<g>
		<g>
			<path class="st0" d="M214.5,126.2c0.5,1.9,0.1,3.8-0.3,5.6c-0.3,1.3,2.6,0.9,2.9-0.3c0.5-2,0.9-4.1,0.3-6.1
				C217,124.2,214.1,125,214.5,126.2L214.5,126.2z"/>
		</g>
	</g>
	<g>
		<g>
			<path class="st0" d="M214.3,125.7c0,0.3,0.1,0.5,0.2,0.8c0.9-0.3,1.9-0.7,2.8-1c0-0.1-0.1-0.2-0.1-0.2c-0.3,0.3-0.6,0.6-0.9,0.9
				c0,0,0,0,0.1,0c-0.5,0.1-1,0.1-1.5,0.2c-0.3-0.1-0.1,0.2-0.1,0.4c0,0.3,0,0.6-0.1,0.9c-0.1,0.6-0.1,1.1-0.2,1.7
				c-0.1,1.3,2.8,0.8,2.9-0.3c0.1-1.1,0.5-2.4,0.2-3.4c-0.3-1.1-1.6-1.4-2.6-0.9c-0.3,0.2-0.8,0.5-0.9,0.9c0,0.4,0.2,0.8,0.4,1.1
				c0.5,0.9,3.1,0.1,2.8-1c-0.1-0.3-0.1-0.5-0.2-0.8C217,123.8,214.1,124.5,214.3,125.7L214.3,125.7z"/>
		</g>
	</g>
	<g>
		<g>
			<path class="st0" d="M213.4,136.6c-0.3,2.1-1,3.9-2,5.8c-0.3,0.5,1,0.5,1.2,0.4c0.6-0.1,1.4-0.3,1.7-0.9c1-1.9,1.7-3.7,2-5.8
				C216.4,135.3,213.6,135.8,213.4,136.6L213.4,136.6z"/>
		</g>
	</g>
	<g>
		<g>
			<path class="st0" d="M194.3,128c0.5,9,1.8,16.6,5.4,25c0.5,1.1,2.6,0.3,2.9-0.5c0.6-1.6,0.5-0.9,1.5-2c1.2-1.3,2.3-2.1,3.2-3.7
				c-0.9,0-1.9,0.1-2.8,0.1c-0.2,1.1-0.7,2.2-1.4,3c0.9,0,1.8,0.1,2.7,0.1c0.2-0.3,0.3-0.5,0.5-0.8c0.8-1.3-1.8-0.8-2.3-0.6
				c0.8-0.5-0.2-1.8-0.7-2.9c-1.2-2.7-1.8-4.3-2-7.2c-0.2-2.1-0.3-4-0.7-6.1c-0.4-2.6-1.2-3.6,1.2-4.9c-0.8,0-1.6-0.1-2.4-0.1
				c0.7,4.2,2.1,8.3,2.6,12.6c0.3,2.7,0,6.5,2,8.7c0.5,0.5,1.4,0.3,1.9,0.1c3-1.1,3.1-2.9,2.5-5.6c-0.6-2.7-4-16.8-0.7-17.9
				c-0.6-0.1-1.1-0.3-1.7-0.4c0.5,2.9,0.9,5.8,1.4,8.7c0.5,2.9,1.9,7.7,0.8,10.4c-0.6,1.4,2.3,1.1,2.7,0.1c1-2.5,0.4-4.9,0-7.5
				c-0.6-4.2-1.4-8.3-2-12.5c-0.1-0.6-1.3-0.5-1.7-0.4c-1.7,0.5-2.3,0.8-3.8,1.7c-0.3,0.2-0.6,0.5-0.5,0.9c0.8,3.5,1,7,1.4,10.6
				c0.2,1.9,2.8,9.8,0.5,10.6c0.6,0,1.3,0.1,1.9,0.1c-2.2-2.3-1.6-7.1-2-9.9c-0.6-3.7-1.8-7.3-2.4-11c-0.1-0.9-1.9-0.4-2.4-0.1
				c-2,1.2-3,1.4-2.9,3.9c0.1,1.7,0.8,3.3,1,5c0.3,2.3,0,4.7,0.6,7c0.5,2.1,1.7,3.7,2.5,5.7c0.3,0.7,0.2,1.9,0.9,2.3
				c1.3,0.9,2.7-0.1,3.8-0.8c-0.8-0.2-1.5-0.4-2.3-0.6c-0.2,0.3-0.3,0.5-0.5,0.8c-0.8,1.3,2.2,1,2.7,0.1c0.8-1.2,1.2-2.2,1.6-3.5
				c0.3-1.2-2.4-0.6-2.8,0.1c-1.1,1.9-3,2.1-4,3.5c-0.6,0.9-0.5,1.7-0.9,2.7c1-0.2,1.9-0.4,2.9-0.5c-3.6-8.4-4.9-16-5.4-25
				C197.2,126.2,194.3,126.8,194.3,128L194.3,128z"/>
		</g>
	</g>
	<g>
		<g>
			<path class="st0" d="M212.9,138c0.3-5.1,1-10.1,2-15.1c0.3-1.3-2.4-0.4-2.8,0.1c-0.5,0.9-1.2,1.4-2.2,1.7c-0.3,0.1-1,0.6-0.9,1
				c0.4,1.2,0.6,2.3,0.7,3.6c0,0.9,2.8,0.3,2.9-0.6c0.1-1.8,0.2-3.3-0.6-5c-0.5-1-3.3-0.1-2.9,0.8c0.7,1.5,0.7,2.9,0.6,4.6
				c1-0.2,1.9-0.4,2.9-0.6c0-1.3-0.2-2.4-0.7-3.6c-0.3,0.3-0.6,0.7-0.9,1c1.6-0.6,2.8-1.5,3.7-2.9c-0.9,0-1.9,0.1-2.8,0.1
				c-1,5-1.6,10-2,15.1C209.9,139.5,212.8,139,212.9,138L212.9,138z"/>
		</g>
	</g>
	<g>
		<g>
			<path class="st0" d="M190.6,127.3c-0.1,4.9,0.3,9.7,1.6,14.5c0.6,2.3,1.3,4.7,2.3,6.9c0.6,1.4,2.3,1.3,1.8,3.5
				c0.9-0.2,1.9-0.5,2.8-0.7c-3.5-3.3-4.9-9.2-5.1-13.9c-0.2-4.5,0-8.8,4.5-10.3c0.4-0.1,1.5-0.8,0.5-0.9c-1.3-0.1-2.6-0.2-3.9-0.3
				c-0.6,0.4-1.3,0.8-1.9,1.1c3.2,0.2,5.9-0.4,9-1.3c4.3-1.2,8.7-1.7,12.9-3.1c-0.6,0-1.3,0.1-1.9,0.1c0.3,6.3-1.3,11.9-4.8,17.1
				c1-0.2,1.9-0.3,2.9-0.5c1.2-3.9,2-7.7,2.4-11.8c0-0.4-2.7,0.1-2.9,0.7c-1.7,4.2-3.1,8.5-4.3,13c1-0.2,1.9-0.4,2.9-0.7
				c-1.3-4-2-7.8-2.1-12c-1,0.3-1.9,0.5-2.9,0.8c1.8,3.4,2.9,6.8,3.5,10.6c0.1,0.6,2-0.1,2.3-0.2c0.8-0.3,1.5-0.7,2.3-1
				c-0.8,0.1-1.5,0.1-2.3,0.2c0.4,2.1-2.6,5-3.7,6.6c-0.9,1.3-1.4,2.2-3,2.8c-2.2,0.8-2.6-0.2-4.1-2.4c-2.4-3.6-3.1-8.1-3.3-12.3
				c-0.9,0.3-1.9,0.6-2.8,0.9c3.2,3.2,6.2,6.5,9,10c0.5,0.6,3.1-0.4,2.9-0.8c-1.8-3.1-2.7-6.1-2.8-9.7c-0.9,0.3-1.9,0.6-2.8,0.9
				c1,1,2,1.9,3,2.9c0.4,0.5,2.8-0.2,2.8-0.9c0.3-3.8-0.1-7.2-1.3-10.9c-0.2-0.6-3.1,0.2-2.9,0.8c1.2,3.6,1.6,7.1,1.3,10.9
				c0.9-0.3,1.9-0.6,2.8-0.9c-1-1-2-2-3-2.9c-0.4-0.4-2.8,0.2-2.8,0.9c0.1,3.6,1,6.6,2.8,9.7c1-0.3,1.9-0.5,2.9-0.8
				c-2.9-3.5-6-6.9-9.2-10.2c-0.4-0.4-2.8,0.2-2.8,0.9c0.2,4.8,2.2,17.1,9.3,16.6c1.7-0.1,2.9-1.1,4-2.3c1.9-1.9,7-7.8,6.5-10.5
				c-0.1-0.6-2,0.1-2.3,0.2c-0.8,0.3-1.5,0.7-2.3,1c0.8-0.1,1.5-0.1,2.3-0.2c-0.6-3.8-1.7-7.2-3.5-10.6c-0.3-0.6-2.9,0.1-2.9,0.8
				c0.1,4.2,0.8,8,2.1,12c0.2,0.6,2.7-0.1,2.9-0.7c1.2-4.4,2.6-8.7,4.3-13c-1,0.2-1.9,0.4-2.9,0.7c-0.4,3.9-1.2,7.7-2.3,11.5
				c-0.2,0.6,2.5,0,2.9-0.5c3.5-5.3,5.1-11.1,4.8-17.4c0-0.5-1.8,0-1.9,0.1c-2.5,0.9-5.2,0.9-7.7,1.6c-3.8,0.9-7.2,2.6-11.3,2.3
				c-0.6,0-3.3,1-1.9,1.1c4,0.3,3.1-1.2,0.6,0.3c-1.9,1.2-2.2,3.6-2.5,5.8c-0.9,6.2,0.2,14.6,5,19.1c0.4,0.4,2.7-0.2,2.8-0.7
				c0.2-1.1,0.3-1.6-0.3-2.5c-0.3-0.6-1.1-0.8-1.5-1.3c-0.8-1.1-1.2-3-1.6-4.3c-1.8-5.6-2.4-11.3-2.3-17.1
				C193.6,126.1,190.7,126.5,190.6,127.3L190.6,127.3z"/>
		</g>
	</g>
	<g>
		<g>
			<path class="st0" d="M193.8,135.8c-0.4-0.3-0.6-0.8-0.6-1.2c0-0.6-1.2-0.5-1.5-0.4c-0.5,0.1-1.3,0.4-1.4,1
				c-0.3,1-0.2,2.1,0.3,3.1c0.3,0.6,1.1,0.5,1.6,0.4c0.3-0.1,1.5-0.6,1.2-1.1c-0.4-0.9-0.5-1.7-0.3-2.6c-1,0.2-1.9,0.4-2.9,0.6
				c0,0.8,0.5,1.5,1.2,1.9C192.3,137.8,194.9,136.6,193.8,135.8L193.8,135.8z"/>
		</g>
	</g>
</g>
<g id="レイヤー_2">
	<g>
		<g>
			<path class="st0" d="M113.4,113.6c-0.5,0-0.9,0-1.4,0c-0.7,0-1.7,0.6-1.6,1.5c0.4,2.2,0.7,4.5,1.1,6.7c0.9-0.3,1.9-0.7,2.8-1
				c-0.6-0.5-1.1-1.1-1.6-1.8c-0.7-0.9-2.6-0.3-2.8,0.7c-0.8,3.7,1,6.9,0.6,10.6c1-0.2,1.9-0.3,2.9-0.5c-0.9-2-2.6-11,1.5-10.8
				c1.3,0.1,1,0.5,1.2,2.1c0.3,2.1,0.3,4.2,0.4,6.3c0.1,1.5,3,1.1,2.9-0.2c-0.1-2.9-0.1-5.8-0.2-8.6c-0.9,0.2-1.9,0.5-2.8,0.7
				c3,5,4.2,10.6,5.3,16.3c0.3-0.4,0.5-0.8,0.8-1.2c-0.7,0.3-1.4,0.6-2.1,0.9c0.7,0.2,1.4,0.3,2.1,0.5c-0.3-3.5-0.7-6.9-1-10.4
				c-1,0.3-1.9,0.5-2.9,0.8c0.7,2.2,1.5,4.3,2.5,6.4c0.5,1.1,2.3,0.7,2.8-0.2c1.3-2.3,2.4-4.7,3.3-7.2c-0.9,0.1-1.9,0.1-2.8,0.2
				c0.2,3.2-0.2,5.9-1.3,8.9c-0.6,1.6,2.2,1.4,2.8,0.3c0.7-1.4,1.6-2.8,2.5-4.1c-0.9-0.1-1.8-0.2-2.7-0.3c-0.3,1.3-0.7,2.7-1.1,4
				c0.2,1.5-0.3,2.3-1.5,2.3c-1,0.5-1.4,0-1.3-1.5c-1.5-2.9-1.2-7.8-1-10.8c0.1-1.3,0.1-3.1,0.6-4.3c1.8-3.6,2.8-2.7,4.9-1.3
				c1.4,0.9,1,1.3,2.8,1.1c0.7-0.1,1.4-0.4,1.6-1.2c0.4-1.8-0.9-4.1-1-6c-0.1-1.5-2.9-1.1-2.9,0.2c0,0.8,0,1.5,0,2.3
				c0,1.5,2.9,1.1,2.9-0.2c0-0.8,0-1.5,0-2.3c-1,0.1-2,0.1-2.9,0.2c0.1,1.8,1.3,4.4,1,6c0.5-0.4,1.1-0.8,1.6-1.2
				c0.4,0-2.2-2.5-2.9-2.7c-1.3-0.3-3.8,0.4-5,0.9c-4.5,2-4,9.9-3.6,14c0.2,2.8,0.4,10.3,4.9,9.8c4.3-0.5,5-6.6,5.8-9.8
				c0.3-1.3-2.2-1-2.7-0.3c-1.1,1.5-2,3-2.9,4.6c0.9,0.1,1.8,0.2,2.8,0.3c1.2-3.3,1.6-6.5,1.4-10c-0.1-1.2-2.5-0.6-2.8,0.2
				c-0.9,2.5-1.9,4.9-3.3,7.2c0.9-0.1,1.9-0.1,2.8-0.2c-1-2.1-1.8-4.2-2.5-6.4c-0.4-1.4-3-0.6-2.9,0.8c0.3,3.5,0.7,6.9,1,10.4
				c0.1,0.9,1.6,0.7,2.1,0.5c0.7-0.3,1.4-0.6,2.1-0.9c0.5-0.2,0.9-0.7,0.8-1.2c-1.2-5.9-2.5-11.6-5.6-16.8c-0.5-0.9-2.8-0.3-2.8,0.7
				c0.1,2.9,0.1,5.8,0.2,8.6c1-0.1,2-0.1,2.9-0.2c-0.1-2.7,0.8-12.6-4.1-11.6c-6.2,1.3-6.9,10.5-4.8,15c0.5,1.1,2.8,0.8,2.9-0.5
				c0.4-3.6-1.4-7.1-0.6-10.6c-0.9,0.2-1.9,0.5-2.8,0.7c0.5,0.6,1,1.2,1.6,1.8c0.8,0.8,3,0.3,2.8-1c-0.4-2.2-0.7-4.5-1.1-6.7
				c-0.5,0.5-1.1,1-1.6,1.5c0.5,0,0.9,0,1.4,0C114.8,115.7,115.4,113.6,113.4,113.6L113.4,113.6z"/>
		</g>
	</g>
	<g>
		<g>
			<path class="st0" d="M191.4,127.2c3,0,1.7,1.1,1,3.2c-0.4,1.2-0.5,2.4-0.5,3.7c0.2,3,1.1,6.1,1.8,9c0.7-0.3,1.4-0.6,2.1-0.9
				c-0.6,0-2.3-4.7-2.4-5.3c-0.3-1.5,0.4-3.3-0.4-4.6c-0.3-0.6-2.9,0.1-2.9,0.8c-0.1,1.4,0.6,2.2,1.1,3.5c0.6,1.4,0.4,2.7,0.1,4.2
				c1-0.3,1.9-0.5,2.9-0.8c-0.6-1-0.7-1.6-0.6-2.7c0-0.3-2.8,0-2.9,0.8c-0.1,1.2,0,1.7,0.6,2.7c0.3,0.6,2.8-0.2,2.9-0.8
				c0.3-1.5,0.4-2.8-0.1-4.2c-0.5-1.3-1.2-2.1-1.1-3.5c-1,0.3-1.9,0.5-2.9,0.8c0.6,1,0.2,2,0.2,3.1c0,1.5,0.6,3,1.3,4.3
				c0.8,1.5,1.2,2.9,2.9,2.8c0.3,0,2.2-0.4,2.1-0.9c-1.1-5.4-3.2-10.7,0.3-15.7c0.1-0.2-0.1-0.2-0.2-0.3c-1.1-0.2-2.2-0.3-3.4-0.3
				C192.8,126.1,190.1,127.2,191.4,127.2L191.4,127.2z"/>
		</g>
	</g>
	<g>
		<g>
			<path class="st0" d="M197.9,133c-0.4,3.1,0.3,6,1,9c0.4,1.7,0.9,3.3,1.1,5c0.1,1.2,0.2,6.1-1.8,2.7c-0.5-0.9-3.3-0.1-2.9,0.8
				c0.5,0.8,0.8,1.7,1,2.6c1-0.3,1.9-0.5,2.9-0.8c-1.1-1.8,2.7-6.6,3.6-8.4c1.5-2.8,3-5.5,4.4-8.3c-0.9,0.1-1.9,0.2-2.8,0.4
				c0.1,3.2,0,6.4-0.4,9.6c-0.1,1.2,2.6,0.5,2.9-0.4c0.7-1.9,1.5-3.7,2.5-5.5c-0.9,0.1-1.9,0.2-2.8,0.4c0.6,3.1,0,5.6-2,8
				c0.9-0.1,1.9-0.1,2.8-0.2c0.5-5.1,1.2-10.3,1.9-15.4c0.2-1.1-2.8-0.6-2.9,0.4c-0.7,5.1-1.3,10.3-1.9,15.4
				c-0.1,1.3,2.4,0.3,2.8-0.2c2.1-2.6,2.9-5.6,2.2-8.9c-0.2-1-2.5-0.2-2.8,0.4c-1.1,1.9-2,3.8-2.7,5.9c1-0.1,1.9-0.2,2.9-0.4
				c0.3-3.4,0.5-6.7,0.4-10c0-1-2.5-0.1-2.8,0.4c-2,3.7-3.9,7.3-5.9,11c-0.8,1.5-3.4,4.6-2.4,6.5c0.5,0.8,3.2,0.3,2.9-0.8
				c-0.2-0.9-0.5-1.8-1-2.6c-1,0.3-1.9,0.5-2.9,0.8c1.5,2.6,5,3.9,7,0.8c1.3-2,0.6-5.4,0.2-7.5c-0.8-3.8-2.1-7.2-1.6-11.1
				C201,131.5,198.1,132,197.9,133L197.9,133z"/>
		</g>
	</g>
	<g>
		<g>
			<path class="st0" d="M204.7,128.2c2,0.1,3.6,1.6,4.9,3c0.5,0.5,3.1-0.6,2.7-1c-1.7-1.6-3.3-3-5.8-3.1c-0.6,0-1.5,0.2-2,0.5
				C204.1,128,204.1,128.2,204.7,128.2L204.7,128.2z"/>
		</g>
	</g>
</g>
</svg>
