<?xml version="1.0" encoding="utf-8"?>
<!-- Generator: Adobe Illustrator 22.0.1, SVG Export Plug-In . SVG Version: 6.00 Build 0)  -->
<svg version="1.1" xmlns="http://www.w3.org/2000/svg" xmlns:xlink="http://www.w3.org/1999/xlink" x="0px" y="0px"
	 viewBox="0 0 300 350" style="enable-background:new 0 0 300 350;" xml:space="preserve">
<style type="text/css">
	.st0{fill:#ED8428;stroke:#040000;stroke-width:3;stroke-miterlimit:10;}
	.st1{fill:#79BD34;stroke:#040000;stroke-width:3;stroke-miterlimit:10;}
	.st2{fill:none;stroke:#040000;stroke-width:3;stroke-miterlimit:10;}
	.st3{fill:#FFFFFF;stroke:#040000;stroke-width:3;stroke-miterlimit:10;}
	.st4{fill:#040000;stroke:#040000;stroke-width:3;stroke-miterlimit:10;}
	.st5{fill:#D61F37;stroke:#040000;stroke-width:3;stroke-miterlimit:10;}
</style>
<g id="レイヤー_1">
</g>
<g id="レイヤー_2">
	<path class="st0" d="M112.2,247l15.7,57.5c0.1,0.4-0.1,0.8-0.5,1l-9.5,3.5c-1.8,0.7-1.5,3.4,0.5,3.5l1.5,0.1c0.7,0.1,1,0.9,0.5,1.4
		l-4.1,4c-0.6,0.6,0,1.6,0.8,1.4l6.2-1.6c0.6-0.2,1.1,0.4,1,0.9l-0.1,0.3c-0.2,0.8,0.9,1.3,1.4,0.7l9.7-12.2
		c0.1-0.2,0.2-0.4,0.2-0.6l-3.5-53.7"/>
	<path class="st0" d="M189.6,246l-15.7,57.5c-0.1,0.4,0.1,0.8,0.5,1l9.5,3.5c1.8,0.7,1.5,3.4-0.5,3.5l-1.5,0.1
		c-0.7,0.1-1,0.9-0.5,1.4l4.1,4c0.6,0.6,0,1.6-0.8,1.4l-6.2-1.6c-0.6-0.2-1.1,0.4-1,0.9l0.1,0.3c0.2,0.8-0.9,1.3-1.4,0.7l-9.7-12.2
		c-0.1-0.2-0.2-0.4-0.2-0.6l3.5-53.7"/>
	<g>
		<path class="st1" d="M63.6,96.1c0,0-51.8-31-6.6-76.3c0,0-9.3,41.2,25.8,55.7"/>
		<path class="st2" d="M46.2,78.5c0,0,17.3,2.4,22.6-12.1"/>
		<path class="st2" d="M38.7,58c0,0,11.9,6.5,20.9-2.6"/>
		<path class="st2" d="M43.8,39.4c0,0,3.3,4.8,11.6,1.4"/>
	</g>
	<g>
		<path class="st1" d="M237.8,96.1c0,0,51.8-31,6.6-76.3c0,0,9.3,41.2-25.8,55.7"/>
		<path class="st2" d="M255.2,78.5c0,0-17.3,2.4-22.6-12.1"/>
		<path class="st2" d="M262.7,58c0,0-11.9,6.5-20.9-2.6"/>
		<path class="st2" d="M257.6,39.4c0,0-3.3,4.8-11.6,1.4"/>
	</g>
	<circle class="st0" cx="151" cy="158.3" r="107.2"/>
	<path class="st0" d="M140.3,53.1l8.2-24.3c0.5-0.5,2.6-0.5,3.1,1l8.2,23.1"/>
	<circle class="st3" cx="150.7" cy="140" r="45.1"/>
	<circle class="st4" cx="150.7" cy="140" r="15.2"/>
	<path class="st5" d="M138.1,198.2h25.8c0.3,0,0.5,0.3,0.4,0.6c-0.8,1.9-3.8,7.6-11.5,9.3c-7.4,1.7-13.3-5.5-15.4-8.6
		C137,198.9,137.5,198.2,138.1,198.2z"/>
	<path class="st2" d="M57.8,53.1"/>
	<path class="st2" d="M38.7,53.1"/>
</g>
<g id="レイヤー_3">
	<g>
		<path class="st0" d="M44.8,168.4c-1,4.4-9.3,39.9-11.2,52.8c-1.1,7.5,56.6,0.6,61.2,0.1c0.2,0,0.5,0.1,0.6,0.2l2.5,2.5
			c0.5,0.5,1.4,0.1,1.3-0.6l-0.5-5c0-0.4,0.2-0.7,0.6-0.8l5.1-1.4c0.7-0.2,0.8-1.2,0.1-1.5l-6-2.6c-0.5-0.2-0.6-0.8-0.3-1.2l3-3.6
			c0.5-0.6-0.1-1.5-0.9-1.2L96,208c-0.4,0.2-0.9-0.1-1.1-0.5l-0.9-3.7c-0.2-0.8-1.2-0.8-1.5-0.1l-2.5,7.1c-0.1,0.3-0.4,0.5-0.7,0.5
			l-33.9,1.7c-0.5,0-0.9-0.4-7.8-0.9l6.5-32.7"/>
	</g>
	<g>
		<path class="st0" d="M257.8,168.4c1,4.4,9.3,39.9,11.2,52.8c1.1,7.5-56.6,0.6-61.2,0.1c-0.2,0-0.5,0.1-0.6,0.2l-2.5,2.5
			c-0.5,0.5-1.4,0.1-1.3-0.6l0.5-5c0-0.4-0.2-0.7-0.6-0.8l-5.1-1.4c-0.7-0.2-0.8-1.2-0.1-1.5l6-2.6c0.5-0.2,0.6-0.8,0.3-1.2l-3-3.6
			c-0.5-0.6,0.1-1.5,0.9-1.2l4.4,1.9c0.4,0.2,0.9-0.1,1.1-0.5l0.9-3.7c0.2-0.8,1.2-0.8,1.5-0.1l2.5,7.1c0.1,0.3,0.4,0.5,0.7,0.5
			l33.9,1.7c0.5,0,0.9-0.4,7.8-0.9l-6.5-32.7"/>
	</g>
</g>
</svg>
