<?xml version="1.0" encoding="utf-8"?>
<!-- Generator: Adobe Illustrator 22.0.1, SVG Export Plug-In . SVG Version: 6.00 Build 0)  -->
<svg version="1.1" xmlns="http://www.w3.org/2000/svg" xmlns:xlink="http://www.w3.org/1999/xlink" x="0px" y="0px"
	 viewBox="0 0 300 350" style="enable-background:new 0 0 300 350;" xml:space="preserve">
<style type="text/css">
	.st0{fill:none;stroke:#040000;stroke-width:4;stroke-miterlimit:10;}
	.st1{fill:#79BD34;stroke:#040000;stroke-width:3;stroke-miterlimit:10;}
	.st2{fill:none;stroke:#040000;stroke-width:3;stroke-miterlimit:10;}
	.st3{fill:#ED8428;stroke:#040000;stroke-width:3;stroke-miterlimit:10;}
	.st4{fill:#FFFFFF;stroke:#040000;stroke-width:3;stroke-miterlimit:10;}
	.st5{fill:#040000;stroke:#040000;stroke-width:3;stroke-miterlimit:10;}
	.st6{fill:#D61F37;stroke:#040000;stroke-width:3;stroke-miterlimit:10;}
</style>
<g id="レイヤー_1">
</g>
<g id="レイヤー_3">
	<line class="st0" x1="119.7" y1="243.2" x2="119.7" y2="262.6"/>
	<line class="st0" x1="138" y1="248.4" x2="138" y2="262.6"/>
	<line class="st0" x1="161.3" y1="248.4" x2="161.3" y2="262.6"/>
	<line class="st0" x1="180.3" y1="243.2" x2="180.3" y2="262.6"/>
	<path class="st1" d="M134.7,69.3l13.5-34.5c0.6-1.6,2.9-1.6,3.5,0L163.9,69"/>
	<line class="st2" x1="143.5" y1="49.5" x2="156.6" y2="49.5"/>
	<line class="st2" x1="139.3" y1="60.2" x2="160.3" y2="60.2"/>
</g>
<g id="レイヤー_2">
	<circle class="st3" cx="150" cy="158.2" r="90.2"/>
	<circle class="st4" cx="149.8" cy="142.8" r="38"/>
	<circle class="st5" cx="149.8" cy="142.8" r="12.8"/>
	<path class="st6" d="M139.2,191.7h21.7c0.3,0,0.5,0.3,0.4,0.5c-0.7,1.6-3.2,6.4-9.7,7.8c-6.2,1.4-11.2-4.6-13-7.2
		C138.3,192.4,138.6,191.7,139.2,191.7z"/>
</g>
</svg>
