<?xml version="1.0" encoding="utf-8"?>
<!-- Generator: Adobe Illustrator 22.0.1, SVG Export Plug-In . SVG Version: 6.00 Build 0)  -->
<svg version="1.1" xmlns="http://www.w3.org/2000/svg" xmlns:xlink="http://www.w3.org/1999/xlink" x="0px" y="0px"
	 viewBox="0 0 300 350" style="enable-background:new 0 0 300 350;" xml:space="preserve">
<style type="text/css">
	.st0{fill:#040000;}
	.st1{fill:#734F96;}
	.st2{fill:#734F96;stroke:#040000;stroke-width:3;stroke-miterlimit:10;}
	.st3{fill:none;stroke:#040000;stroke-width:2;stroke-miterlimit:10;}
	.st4{fill:#FFFFFF;stroke:#040000;stroke-width:2;stroke-miterlimit:10;}
	.st5{fill:#FFFFFF;stroke:#040000;stroke-miterlimit:10;}
</style>
<g id="レイヤー_5">
</g>
<g id="レイヤー_9">
</g>
<g id="レイヤー_6">
</g>
<g id="レイヤー_1">
</g>
<g id="レイヤー_2">
</g>
<g id="レイヤー_3">
</g>
<g id="レイヤー_4">
</g>
<g id="レイヤー_7">
</g>
<g id="レイヤー_8">
</g>
<g id="レイヤー_10">
	<g>
		<g>
			<path class="st0" d="M112.8,155.9c-0.8,7.9,0.1,14.5,4.4,21.3c0.2,0.4,0.8,0.5,1.2,0.4c3.5-0.3,4.3-1.5,6.8-3.6
				c0.3-0.3,0.8-0.9,0.4-1.3c-3.7-3.5-7.2-7.1-8.8-12c-0.4-1.3-3.2-0.6-2.9,0.8c1.4,5.5,2.9,11,4.3,16.4c0.9-0.3,1.9-0.7,2.8-1
				c-1.7-3.2-2.7-6-3-9.6c-0.4-3.6-1.5-7-1.7-10.6c-0.1-1.5-2.9-1.1-2.9,0.2c-0.1,2.2-0.2,4.5-0.2,6.7c1-0.2,1.9-0.3,2.9-0.5
				c-1.1-3.6-1.1-6.9-0.1-10.5c0.4-1.4-2.6-1-2.9,0.2c-1.1,3.8-1.1,7.3,0.1,11c0.4,1.2,2.9,0.7,2.9-0.5c0.1-2.2,0.2-4.5,0.2-6.7
				c-1,0.1-2,0.1-2.9,0.2c0.3,4.2,1.3,8.2,1.8,12.3c0.4,3.3,1.6,6,3.2,8.9c0.6,1,3.1,0.2,2.8-1c-1.4-5.5-2.9-11-4.3-16.4
				c-1,0.3-1.9,0.5-2.9,0.8c1.7,5.1,5.2,8.8,9.1,12.5c0.1-0.4,0.2-0.9,0.4-1.3c-1.1,0.9-2.4,2.6-4.2,2c-1.2-0.4-2.2-4.5-2.6-5.8
				c-1.4-4.3-1.1-8.7-0.7-13.2C115.9,154.2,112.9,154.6,112.8,155.9L112.8,155.9z"/>
		</g>
	</g>
	<g>
		<g>
			<path class="st1" d="M93.8,261.8c3.2,4,6.7,7.6,10.4,11.1c2.1,1.9,5.4-0.5,3.9-3c-4.3-7.5-8.4-15.1-10.3-23.6
				c-1.4,0.8-2.8,1.6-4.2,2.4c9.9,12.5,17.8,26.4,23.5,41.4c1.5-0.6,3-1.3,4.6-1.9c-9.3-17.2-18.5-34.5-26.5-52.3
				c-1.3,1-2.6,2-3.9,3c11.9,13,23.7,25.9,35.6,38.9c2.1,2.3,5-0.6,3.9-3c-9.3-21-17.2-42.6-23.6-64.7c-0.9-3.1-5.7-1.8-4.8,1.3
				c6.5,22.5,14.6,44.5,24.1,65.9c1.3-1,2.6-2,3.9-3c-11.9-13-23.7-25.9-35.6-38.9c-2.1-2.2-5,0.6-3.9,3c8,17.8,17.1,35.1,26.5,52.3
				c1.3,2.4,5.6,0.8,4.6-1.9c-6-15.8-14.3-30.3-24.8-43.6c-1.7-2.1-4.7,0.2-4.2,2.4c2,9,6.3,16.9,10.8,24.8c1.3-1,2.6-2,3.9-3
				c-3.8-3.4-7.2-7.1-10.4-11.1C95.3,255.8,91.8,259.3,93.8,261.8L93.8,261.8z"/>
		</g>
	</g>
	<g>
		<g>
			<path class="st1" d="M86.4,225.7c1.3,5.5,2.9,10.8,4.8,16.1c1.4-0.8,2.8-1.6,4.2-2.4c-6.4-6.1-12.1-12.7-17.1-19.9
				c-1.8-2.6-6.1-0.2-4.3,2.5c3.5,5.4,7,10.8,10.5,16.3c1.6,2.5,4.9,0.8,4.6-1.9c-1.2-8.5-3.5-16.6-7-24.4c-1.1-2.6-5.5-0.7-4.6,1.9
				c2.5,6.9,4.7,13.8,6.8,20.9c0.9,3.1,5.4,1.8,4.8-1.3c-2.3-12.5-4.2-25-5.6-37.6c-0.3-3.1-5-3.3-5,0c-0.1,5.3,0,10.7,0.2,16
				c0.1,3.2,5.1,3.2,5,0c-0.2-5.3-0.3-10.7-0.2-16c-1.7,0-3.3,0-5,0c1.4,13,3.4,26,5.8,38.9c1.6-0.4,3.2-0.9,4.8-1.3
				c-2.1-7-4.3-14-6.8-20.9c-1.5,0.6-3,1.3-4.6,1.9c3.3,7.4,5.4,15.2,6.5,23.2c1.5-0.6,3-1.3,4.6-1.9c-3.5-5.4-7-10.8-10.5-16.3
				c-1.4,0.8-2.9,1.7-4.3,2.5c5.3,7.6,11.2,14.6,17.9,20.9c1.7,1.6,5.1,0,4.2-2.4c-1.9-5.3-3.5-10.6-4.8-16.1
				C90.4,221.3,85.6,222.6,86.4,225.7L86.4,225.7z"/>
		</g>
	</g>
	<g>
		<g>
			<path class="st1" d="M156.9,176.7c1.1,10.5,2.1,21.1,3.2,31.6c0.3,2.9-0.6,3.5,2.9,1.1c3.4-2.3,2.7-1.5,0.7-3.4
				c-1.5-1.5-2.8-3.2-3.9-4.9c-2.7-4.1-4.9-8.5-7-12.9c-8.5-17.9-13.1-37.6-14.1-57.4c-4.9,0.7-9.8,1.3-14.7,2
				c15.1,38.3,30.3,76.7,51,112.4c4.1,7.1,16.8,2.4,13.7-5.8c-10.9-28.9-21.9-57.8-32.8-86.7c-1.8-4.8-8.6-8-12.5-3.3
				c-9.7,11.6-10.7,26.6-12.3,41.1c-1.6,15.7-1.9,32,4.1,46.9c3.1,7.6,14.4,7,14.7-2c0.7-19-1.7-38.1-7.1-56.3
				c-2.7-9.1-6.2-18-10.4-26.6c-3.8-7.8-7.5-16.3-16.2-19.5c-3.6-1.3-8.5,1.5-9.2,5.2c-5.9,30.2-3.8,61.4,6.5,90.4
				c2.6,7.4,15.6,7,14.7-2c-2-19.7-9.3-37.5-21.5-53c-3.3-4.2-11.8-2-12.5,3.3c-3.2,22-1.3,44.2,6.4,65.2c2.4,6.5,12.6,7.7,14.5,0
				c4.1-16.8,1.1-34.6-8.6-48.9c-3.3-4.9-12.4-5-13.7,1.8c-2.6,13.9-1.9,27.9,2.7,41.3c4.6-1.9,9.1-3.9,13.7-5.8
				c-5.4-9-10.7-18-16.1-27c-3.6-6.1-14.5-3.9-14,3.8c0.9,13.6,4.7,26.5,11.3,38.4c3.5,6.2,11.4,3.8,13.7-1.8
				c1.5-3.5,2.9-7,4.4-10.5c-4.8,0-9.6,0-14.5,0c4.2,14.6,8.8,29.2,18.4,41.2c4.1,5.2,9.2,9.8,15,13.1c5.5,3.1,13,3.9,17.4,8.7
				c1.7,1.8,4.9,2.8,7.3,1.9c35.2-12.4,64.9-38.1,81.7-71.5c3.8-7.5-5.4-15.1-11.8-9.1c-22,20.5-42,42.9-60.3,66.8
				c4.3,2.5,8.6,5,13,7.6c11.1-23.2,26.5-43.9,41.8-64.4c2.4-3.3,0.5-8.3-2.7-10.3c-3.8-2.3-7.8-0.5-10.3,2.7
				c-5.5,7.1-10.9,14.2-16.4,21.3c-4.7,6.1-9.2,12.6-14.7,18.1c-10.8,11-26.9,10.7-39.9,17.9c-6.2,3.4-3.8,14.8,3.8,14
				c10.8-1.2,21.6-1.8,32.4-2c9.8-0.1,9.5-14.2,0-15c-12.9-1-25.6-3.5-38-7.3c0,4.8,0,9.6,0,14.5c17.8-7.1,36.1-12.8,54.8-16.9
				c8.7-1.9,6-14.1-2-14.7c-15.6-1.2-31.1-0.2-46.4,2.5c1.9,4.6,3.9,9.1,5.8,13.7c7.2-4.1,14.7-6.6,22.9-7.8
				c-2.4-4.2-4.9-8.4-7.3-12.5c-10.3,8.5-23.3,13.8-36.6,14.9c2.4,1.8,4.8,3.7,7.2,5.5c-2.6-16.1-7.1-31.7-13.3-46.8
				c-3.1-7.5-14.4-7-14.7,2c-0.6,13.5,2.5,26.5,8.7,38.5c3.3,6.3,14.8,3.7,14-3.8c-2.7-24.2-5.8-49.1-19.3-70
				c-4.2-6.5-13.4-3.6-14,3.8c-1.2,14.8-2.2,29.6-3,44.3c4.9-0.7,9.8-1.3,14.7-2c-4.3-27.9-1.8-56.4,6.6-83.3c-4.8,0-9.6,0-14.5,0
				c4,17.9,3.5,37,4.4,55.2c1,18.6,2,37.1,3,55.7c0.5,9.6,14.5,9.7,15,0c1.9-37.8,3.7-75.6,5.6-113.4c-4.9,0.7-9.8,1.3-14.7,2
				c6,40.1,10.6,80.4,13.9,120.8c5,0,10,0,15,0c-3.9-38.7-5.2-77.6-3.9-116.5c-4.9,0.7-9.8,1.3-14.7,2c6.2,35,12.4,70,18.5,105.1
				c1.5,8.6,14.5,6.2,14.7-2c0.9-31.8,1.9-63.6,2.8-95.4c-5,0-10,0-15,0c0.1,26.2,2.5,52.4,6.9,78.3c1.2,7.2,13.2,7.2,14.5,0
				c5.7-33.5,11.5-67,17.2-100.5c-4.9-0.7-9.8-1.3-14.7-2c-1.6,35.2-3.3,70.5-4.9,105.7c-0.4,8.4,12.9,10.3,14.7,2
				c7-30.9,13.9-61.7,20.9-92.6c-4.9-0.7-9.8-1.3-14.7-2c-0.1,35.6-0.8,71.1-2.2,106.6c-0.3,8.3,13.4,10.5,14.7,2
				c4.4-28.3,9.4-56.5,15.1-84.6c-4.8,0-9.6,0-14.5,0c4.5,17.6,3.7,35.9,2.9,53.9c5,0,10,0,15,0c0.2-10.9,3-21.3,8.3-30.8
				c-4.3,0-8.6,0-13,0c4,7.7,6.2,15.9,6.7,24.5c4.7-1.3,9.3-2.5,14-3.8c-6.9-10.4-10.2-22.1-9.6-34.6c0.4-9.8-14.1-9.5-15,0
				c-1.1,11.3-4.3,22.4-9.4,32.5c-3.8,7.4-10.3,20.2-19.9,21.1c-9.5,0.9-9.6,15.9,0,15c14.9-1.4,24.3-13.2,31.2-25.5
				c7.4-13.3,11.7-27.9,13.1-43.1c-5,0-10,0-15,0c-0.7,14.9,3.4,29.8,11.7,42.2c3.8,5.8,14.4,4.1,14-3.8c-0.6-11.3-3.6-22-8.8-32.1
				c-2.6-5-10.3-4.8-13,0c-6.6,11.9-10.1,24.8-10.4,38.4c-0.2,9.7,14.6,9.6,15,0c0.9-19.4,1.4-38.9-3.5-57.9c-1.8-6.9-13-7.4-14.5,0
				c-5.7,28.1-10.7,56.3-15.1,84.6c4.9,0.7,9.8,1.3,14.7,2c1.4-35.5,2.1-71.1,2.2-106.6c0-8.3-12.8-10.4-14.7-2
				c-7,30.9-13.9,61.7-20.9,92.6c4.9,0.7,9.8,1.3,14.7,2c1.6-35.2,3.3-70.5,4.9-105.7c0.4-8.3-13.3-10.4-14.7-2
				c-5.7,33.5-11.5,67-17.2,100.5c4.8,0,9.6,0,14.5,0c-4.1-24.6-6.2-49.4-6.3-74.3c0-9.7-14.7-9.6-15,0c-0.9,31.8-1.9,63.6-2.8,95.4
				c4.9-0.7,9.8-1.3,14.7-2c-6.2-35-12.4-70-18.5-105.1c-1.5-8.6-14.5-6.1-14.7,2c-1.3,38.9,0,77.8,3.9,116.5c0.9,9.5,15.8,9.7,15,0
				c-3.4-41.8-8.2-83.4-14.4-124.8c-1.3-8.7-14.3-6-14.7,2c-1.9,37.8-3.7,75.6-5.6,113.4c5,0,10,0,15,0c-1-19.2-2.1-38.4-3.1-57.7
				c-1-19-0.7-38.7-4.9-57.3c-1.7-7.5-12.4-6.7-14.5,0c-9.3,29.6-11.3,60.7-6.6,91.3c1.3,8.7,14.3,6,14.7-2
				c0.8-14.8,1.7-29.6,3-44.3c-4.7,1.3-9.3,2.5-14,3.8c12,18.6,14.8,40.9,17.3,62.4c4.7-1.3,9.3-2.5,14-3.8
				c-5-9.6-7.1-20.1-6.6-30.9c-4.9,0.7-9.8,1.3-14.7,2c6.3,15,10.7,30.7,13.3,46.8c0.5,3,4.2,5.8,7.2,5.5c17.6-1.5,33.6-8,47.2-19.3
				c2.5-2.1,2.7-6.4,1.2-9.1c-1.8-3.1-5.1-3.9-8.5-3.4c-9.4,1.4-18.3,4.6-26.5,9.3c-7.7,4.5-2.3,15.1,5.8,13.7c14-2.5,28.2-3,42.4-2
				c-0.7-4.9-1.3-9.8-2-14.7c-18.7,4.2-37,9.8-54.8,16.9c-6.6,2.6-7.6,12.2,0,14.5c13.7,4.1,27.7,6.7,41.9,7.8c0-5,0-10,0-15
				c-10.8,0.1-21.6,0.8-32.4,2c1.3,4.7,2.5,9.3,3.8,14c7.1-3.9,15.2-5.1,22.7-7.8c7.7-2.7,14.4-6.6,20.2-12.5
				c5.9-6,10.7-13,15.8-19.6c5.9-7.6,11.7-15.2,17.6-22.8c-4.3-2.5-8.6-5-13-7.6c-15.4,20.5-30.7,41.2-41.8,64.4
				c-4.3,8.9,7.2,15.1,13,7.6c17.5-22.8,37-44.1,58-63.8c-3.9-3-7.9-6.1-11.8-9.1c-15.1,29.8-41.2,53.4-72.8,64.6
				c2.4,0.6,4.9,1.3,7.3,1.9c-4.4-4.8-10.2-6.7-16.1-9c-5.7-2.2-10.4-5.8-14.4-10.4c-9-10.3-12.7-24.1-16.5-37
				c-2.2-7.7-11.8-6.5-14.5,0c-1.5,3.5-2.9,7-4.4,10.5c4.6-0.6,9.1-1.2,13.7-1.8c-5.3-9.5-8.5-19.9-9.3-30.8
				c-4.7,1.3-9.3,2.5-14,3.8c5.4,9,10.7,18,16.1,27c4.2,7.1,16.5,2.5,13.7-5.8c-3.7-10.8-4.8-22-2.7-33.3c-4.6,0.6-9.1,1.2-13.7,1.8
				c7.5,11.1,10.2,24.3,7.1,37.4c4.8,0,9.6,0,14.5,0c-6.7-18.3-9.2-37.9-6.4-57.2c-4.2,1.1-8.4,2.2-12.5,3.3
				c9.5,12.1,15.6,27.1,17.1,42.4c4.9-0.7,9.8-1.3,14.7-2c-9.4-26.4-11.9-54.9-6.5-82.5c-3.1,1.7-6.2,3.5-9.2,5.2
				c1.9,0.7,4,6.2,4.8,7.9c1.9,3.7,3.7,7.4,5.3,11.2c3,7,5.4,14.3,7.3,21.6c4.1,15.4,5.7,31.2,5.1,47.2c4.9-0.7,9.8-1.3,14.7-2
				c-5.1-12.7-5.1-26-3.9-39.4c1-10.7,0.9-25.3,8.2-34c-4.2-1.1-8.4-2.2-12.5-3.3c10.9,28.9,21.9,57.8,32.8,86.7
				c4.6-1.9,9.1-3.9,13.7-5.8c-20.1-34.6-34.9-71.7-49.5-108.8c-2.9-7.3-15.2-7.1-14.7,2c1.2,26.5,8.3,53.7,22.2,76.4
				c3,4.9,6.9,10.4,12.1,13.4c5.1,2.9,12,2.8,15.6-2.3c3.5-5.1,1.3-12.9,0.7-18.6c-0.8-7.7-1.5-15.3-2.3-23c-0.4-4-3.2-7.5-7.5-7.5
				C160.7,169.2,156.5,172.7,156.9,176.7L156.9,176.7z"/>
		</g>
	</g>
	<g>
		<g>
			<path class="st1" d="M200.1,150.5c-8.7,0-17.6,0.1-26-2.5c-7.6-2.4-14.1-7.1-21.8-9.4c-13.7-4.2-29.5-2.7-41.5-11.5
				c-1.9,4.6-3.9,9.1-5.8,13.7c40,9.2,75.5,31.1,107.3,56.5c3-3.9,6.1-7.9,9.1-11.8c-22.8-13.6-44.6-28.7-65.2-45.4
				c-1.8,4.3-3.5,8.5-5.3,12.8c12.2-0.7,23.3,4.3,33.9,9.8c10.7,5.6,21,12.1,30.4,19.5c4.5,3.5,13.5,1.9,12.8-5.3
				c-2.1-22.4-22.1-33.7-42-38.7c-23.3-5.9-46.2-12.1-69.1-19.4c0,4.8,0,9.6,0,14.5c26.5-3.8,53.9,1,77.7,13.2
				c1.9-4.6,3.9-9.1,5.8-13.7c-27.7-8.8-55.4-17.7-83-26.5c-0.7,4.9-1.3,9.8-2,14.7c24.7-3.3,50.1,3.4,69.3,19.6
				c5.3,4.5,15,0.4,12.5-7.3c-4.1-12.8-13.2-23.9-25.5-29.6c-6.3-3-12.7-4.3-19.6-4.9c-7-0.6-14.1-0.4-20-4.7
				c-0.6,4.6-1.2,9.1-1.8,13.7c18.2-5.3,37.3-1.6,52.5,9.7c4.9,3.6,11-1.4,11.3-6.5c0.6-12.2-10.2-19.4-20.8-21.7
				c-5.9-1.3-11.9-2.3-17.9-3.4c-3.2-0.6-6.5-1.2-9.7-1.8c-1.6-0.3-3.2-0.6-4.9-0.9c-0.6-0.1-1.3-0.2-1.9-0.4
				c-2.4-0.9-2.6-0.5-0.7,1.4c-0.3,1.9-0.5,3.9-0.8,5.8c-0.4,0.5-0.8,0.9-1.2,1.4c-1.3,0.3-2.5,0.7-3.8,1c14.9-1.5,30.8,1.5,45,5.8
				c6.9,2.1,13.1-7.6,7.3-12.5c-6.7-5.6-14.3-9-22.9-10c-8.4-1-15.4,1.6-23.3,4.2c-1.2,0.4-6.7,2.5-7.7,0.3c0.4,0.9,3.2-1.1,4.6-1.4
				c8.3-2.2,17.3-0.5,24.7,3.6c2.2,1.2,5.4,1.5,7.6,0c6.6-4.7,7.6-13,2.8-19.6c-2.4-3.2-5.7-5.1-9.6-5.9c-2.3-0.5-4.7-0.5-7-0.4
				c-1.1,0.1-2.3,0.2-3.4,0.3c-2.6-0.1-2.3,0.5,0.7,2c0.3,1.3,0.7,2.5,1,3.8c-0.1-1.9,1.4-4.6,2.1-6.4c0.4-1.1,0.8-2.2,1.2-3.2
				c0.3-0.8,0.6-1.6,0.9-2.4c1.3-2.5-0.8-2.7-6.1-0.5c-0.4-3-0.8-6.1-1.2-9.1c-5,9-0.1,21.9,10.6,23.6c4,0.6,8-1,9.2-5.2
				c1-3.6-1.2-8.6-5.2-9.2c-0.7-0.1-2.2-0.4-1.6-1.5c1.8-3.2,0.9-6.4-1.2-9.1c-4.2-5.4-12.3-3.9-16,1c-1.9,2.4-2.8,5.6-3.9,8.5
				c-1.2,3-2.6,6.1-3.5,9.2c-1.6,6.1,1.5,12.2,7.9,13.5c3.4,0.7,6.7-0.4,10.1-0.3c0.9,0,2.2,0.4,3,0.3c0.1,0.1,0.1,0.2,0.2,0.3
				c0.1,1.4,0.5,0.5,1.4-2.7c2.5,0,5,0,7.6,0c-10.6-5.9-22.7-7.9-34.6-5.5c-10.2,2.1-21.3,11.4-15.7,22.8
				c5.3,10.6,17.9,10.4,27.5,6.8c10.1-3.8,20.5-4.5,29.2,2.8c2.4-4.2,4.9-8.4,7.3-12.5c-11-3.4-22.4-5.5-33.9-6.3
				c-7.6-0.5-28-2.3-23.6,11.6c1.5,4.9,6.4,7.2,11,8.2c5.8,1.2,11.7,2.2,17.5,3.3c5.9,1.1,11.9,2.1,17.7,3.4c3.8,0.9,9.2,2.3,9,7.1
				c3.8-2.2,7.5-4.3,11.3-6.5c-18.1-13.6-42.4-17.6-64-11.3c-6.6,1.9-6.9,10-1.8,13.7c10.8,7.8,24,4.7,36,8.3
				c10.4,3.1,18.8,11.7,22.1,22c4.2-2.4,8.4-4.9,12.5-7.3c-22.1-18.6-51.1-27.8-79.9-24c-8,1.1-10.6,12-2,14.7
				c27.7,8.8,55.4,17.7,83,26.5c8,2.6,13.4-9.8,5.8-13.7c-27.7-14.2-58.5-19.1-89.3-14.7c-7.9,1.1-6.4,12.4,0,14.5
				c20,6.4,40.1,12.7,60.6,17.4c14.2,3.3,37.8,8,39.6,26.3c4.3-1.8,8.5-3.5,12.8-5.3c-11-8.6-22.6-16.4-35.1-22.7
				c-12.4-6.3-25.7-11.8-39.9-11c-5.8,0.3-10.8,8.4-5.3,12.8c21.6,17.5,44.4,33.4,68.2,47.7c7.1,4.2,15.9-6.3,9.1-11.8
				c-33.8-27-71.2-50.6-113.9-60.4c-8.6-2-12.5,8.8-5.8,13.7c13.3,9.7,30,8.5,45,13c8.2,2.5,15.2,7.6,23.5,9.9
				c9.2,2.5,18.9,2.6,28.3,2.6C209.8,165.5,209.8,150.5,200.1,150.5L200.1,150.5z"/>
		</g>
	</g>
	<g>
		<g>
			<path class="st1" d="M153.5,51.6c1.9,9.9,7.4,18.7,11.1,28c3.9,9.8,7,20,9.3,30.3c2.1,9.4,16.6,5.4,14.5-4
				c-2.3-10.3-5.4-20.5-9.3-30.3c-3.7-9.2-9.3-18.2-11.1-28C166.2,38.1,151.7,42.2,153.5,51.6L153.5,51.6z"/>
		</g>
	</g>
	<g>
		<g>
			<path class="st1" d="M92.2,241.3c20.9,3.8,35.6,22.3,57.7,22.9c9.7,0.3,9.6-14.7,0-15c-9.6-0.3-18-5.5-26.1-10.3
				c-8.7-5.1-17.6-10.3-27.6-12.1C86.7,225.1,82.7,239.5,92.2,241.3L92.2,241.3z"/>
		</g>
	</g>
	<g>
		<path class="st2" d="M146,38.8c-3.5-18.8-4.3-28.5-2.4-29.1c2.1-0.6,7.5,9.4,16,30.3"/>
		<path class="st2" d="M91.1,259.5l9.1,65.2c-17.8,9.8-8.6,12.3,10.4,11.6c19-0.6,18.2-8.8,18.2-8.8l2.8-27.7h20.8"/>
		<path class="st2" d="M212.3,259.5l-9.1,65.2c17.8,9.8,8.6,12.3-10.4,11.6c-19-0.6-18.2-8.8-18.2-8.8l-2.8-27.7h-20.8"/>
		<g>
			<g>
				<path class="st2" d="M146,38.8c-12.8,6.1-28.9,15.8-43.9,31.4C35,140.1,67.6,246.8,74.2,253.6c3.8,3.9,8.3,5.3,8.3,5.3
					c2.5,0.7,4.8,0.8,6.5,0.6c13.7-0.3,17-2,17.3-3.6c0.8-4.8-24.4-21.9-25.4-23.9c0,0-0.3-0.7-0.8-1.6c-0.2-0.5-0.5-0.9-0.6-1.2"/>
			</g>
			<line class="st2" x1="79.5" y1="229.3" x2="79.5" y2="206.4"/>
		</g>
		<g>
			<g>
				<path class="st2" d="M159.3,39.9c12.8,6.1,28.9,15.8,43.9,31.4c67.1,69.8,34.5,176.5,27.9,183.3c-3.8,3.9-8.3,5.3-8.3,5.3
					c-2.5,0.7-4.8,0.8-6.5,0.6c-13.7-0.3-17-2-17.3-3.6c-0.8-4.8,24.4-21.9,25.4-23.9c0,0,0.3-0.7,0.8-1.6c0.2-0.5,0.5-0.9,0.6-1.2"
					/>
			</g>
			<line class="st2" x1="225.7" y1="230.3" x2="225.7" y2="207.4"/>
		</g>
		<path class="st2" d="M225.7,208.4"/>
	</g>
	<path class="st3" d="M79.5,229.3"/>
	<ellipse class="st4" cx="114.1" cy="152" rx="22.4" ry="27"/>
	<path class="st5" d="M91.7,144.5c2.9,2.1,11,7.4,22.4,7.6c11.3,0.1,19.4-4.8,22.4-6.8"/>
	<path class="st4" d="M107.9,151.3c-0.9,2.3-2.3,7.2-1.4,13.3c1.2,8.2,5.9,13.4,7.6,15.1"/>
	<path class="st5" d="M112.8,152c-0.7,2.5-1.7,7.4-0.5,13.4c1.3,6.9,4.8,11.5,6.5,13.5"/>
	<g>
		<g>
			<path class="st0" d="M113.1,153.6c-0.1,1.2-0.4,2.4-0.2,3.6c0.2,1,0,1.9,0.2,2.9c0.3,1.2,2.5,0.6,2.8-0.2
				c0.1-0.3,0.2-0.6,0.3-0.9c0.2-0.9-1.2-0.9-1.7-0.8c-1.9,0.4-3.1,3.2-0.9,4c1.2,0.4,3.4-1.2,1.7-1.9c0.1-0.2,0.2-0.5,0.4-0.7
				c-0.3,0.2-0.6,0.4-1,0.6c0.1,0,0.2,0,0.3-0.1c-0.6-0.3-1.1-0.5-1.7-0.8c0,0.1-0.1,0.3-0.1,0.4c0.9-0.1,1.9-0.2,2.8-0.2
				c-0.2-0.8-0.1-1.7-0.2-2.5c-0.1-1.1,0-2.3,0.1-3.4C116.1,151.9,113.2,152.3,113.1,153.6L113.1,153.6z"/>
		</g>
	</g>
	<g>
		<g>
			<path class="st0" d="M112.5,159c-0.2,2.4,0.5,4.3,1.6,6.5c0.9-0.4,1.8-0.9,2.6-1.3c-0.4-0.5-0.8-1-1.2-1.4c-0.8-1-2.9-0.3-2.8,1
				c0.3,3.1,1.6,6,2.9,8.7c0.9-0.4,1.8-0.9,2.6-1.3c-0.4-0.7-0.9-1.2-1.4-1.7c-0.9-0.9-3.4-0.2-2.6,1.3c0.8,1.5,1.7,2.6,3,3.8
				c0.7,0.6,3.1-0.1,2.6-1.2c-0.2-0.4-0.4-0.9-0.6-1.3c-0.5-1.1-2.8-0.8-2.9,0.5c0,0.5-0.1,1-0.1,1.5c0.9-0.3,1.7-0.6,2.6-1
				c-0.2-0.1-0.4-0.3-0.5-0.4c-0.9-0.6-3.4,0.3-2.4,1.5c0.7,0.9,1.4,1.7,2.1,2.5c0.7,0.7,2.9,0.5,2.8-0.7c0-0.2,0-0.5,0-0.7
				c-0.9,0.2-1.9,0.5-2.8,0.7c1,1.2,1.8,2.5,3.5,2c0.7-0.2,1.8-1.2,0.8-1.9c-0.8-0.5-1.5-1.1-2.3-1.6c-1-0.7-3.1,0.2-2.4,1.5
				c0.4,0.9,0.5,0.9,1.2,1.6c0.7-0.6,1.5-1.1,2.2-1.7c-1.1-0.9-2.4-0.9-3.5,0.2c-0.2,0.2-0.3,0.6-0.2,0.8c0.5,1.1,1.3,1.9,2.1,2.8
				c0.6,0.7,2,0.6,2.5-0.2c0.2-0.3,0.4-0.5,0.6-0.8c1-1.5-1.7-2.1-2.4-0.9c-0.2,0.3-0.4,0.5-0.6,0.8c0.8-0.1,1.7-0.1,2.5-0.2
				c-0.7-1.3-1.8-1.6-3.3-0.8c1,0.9,3.4-0.5,2.2-1.7c-0.3-0.4-0.5-0.8-0.8-1.2c-0.8,0.5-1.6,1-2.4,1.5c0.8,0.5,1.5,1.1,2.3,1.6
				c0.3-0.6,0.6-1.3,0.8-1.9c0.5-0.4,0.4-0.8-0.3-1.2c-0.6-0.8-2.9-0.5-2.8,0.7c0,0.2,0,0.5,0,0.7c0.9-0.2,1.9-0.5,2.8-0.7
				c-0.7-0.8-1.4-1.6-2.1-2.5c-0.8,0.5-1.6,1-2.4,1.5c0.2,0.1,0.4,0.3,0.5,0.4c0.8,0.6,2.5,0.1,2.6-1c0-0.5,0.1-1,0.1-1.5
				c-1,0.2-1.9,0.3-2.9,0.5c0.2,0.4,0.4,0.9,0.6,1.3c0.9-0.4,1.7-0.8,2.6-1.2c-1.2-1.1-1.8-2-2.5-3.4c-0.9,0.4-1.8,0.9-2.6,1.3
				c0.6,0.5,1,1.1,1.4,1.7c0.8,1.1,3.3,0.1,2.6-1.3c-1.2-2.6-2.4-5.3-2.7-8.2c-0.9,0.3-1.8,0.7-2.8,1c0.4,0.5,0.8,1,1.2,1.4
				c0.9,1,3.4,0.1,2.6-1.3c-1-1.9-1.4-3.2-1.3-5.4C115.5,157.2,112.5,157.6,112.5,159L112.5,159z"/>
		</g>
	</g>
	<g>
		<g>
			<path class="st0" d="M123.1,177.3c0-0.1,0.1-0.2,0.1-0.3c-0.9,0.3-1.7,0.6-2.6,0.9c0,0-0.1-0.1-0.1-0.1c0.2-0.3,0.4-0.5,0.6-0.8
				c-0.1,0.1-0.2,0.1-0.3,0.2c0.7,0.2,1.4,0.4,2,0.6c0.3-0.3,0.7-0.5,1-0.8c0.9-0.7-0.3-1-0.9-0.9c-0.1,0-0.1,0-0.2,0
				c0.3,0,0.6,0,0.9,0.1c-1.1-0.4-3.3,0.1-3.1,1.6c0.1,0.8,2,0.2,2.3,0c0.7-0.4,1.6-0.7,2.1-1.3c0.1-0.1,0.1-0.2,0.1-0.4
				c0.1,0.1,0.2,0.1,0.3-0.2c0.3-0.3,0.6-0.6,0.8-0.9c-0.9,0-1.8,0-2.7,0c-0.7,1.2-1.7,2.3-3,2.7c0.5,0.2,1.1,0.3,1.6,0.5
				c-0.2,0.1-0.4,0.1-0.6,0.2c-0.1-0.2-0.3-0.5-0.4-0.7c-0.7,0.9-2.1,0.6-2.7,1.6c0.5-0.2,1-0.5,1.6-0.7c0,0-0.1,0-0.1,0
				c0.1,0.4,0.2,0.8,0.3,1.3C121.5,179.2,122.8,178.5,123.1,177.3c0.4-1-2.5-0.6-2.8,0.3c-0.2,0.6-0.6,0.8-1.1,1
				c-0.3,0.1-1,0.5-0.9,0.9c0.1,0.4,0.9,0.4,1.2,0.3c0.4-0.1,0.8-0.2,1.2-0.4c0.1-0.1,1-0.7,0.2-0.3c-0.4,0.1-0.7,0.2-1.1,0.4
				c1.6-0.2,3-0.8,4-2.1c0.3-0.4-0.1-0.7-0.4-0.7c-1.4-0.2-3.6,0-4,1.7c-0.2,0.8,1.3,0.5,1.6,0.5c2.2-0.7,4.2-2,5.4-4
				c0.7-1.2-2.2-0.6-2.7,0c-0.5,0.6-1.4,1-1.4,1.8c0.1-0.2,0.2-0.4,0.3-0.6c-0.3,0.3-1,0.6-1.4,0.8c0.8,0,1.6,0,2.3,0
				c0-0.1,0-0.1,0-0.2c-0.4,0.2-0.8,0.4-1.2,0.7c0.1,0,0.1,0,0.2-0.1c-0.4,0-0.9,0-1.3,0c0.4,0.2,0.8,0.2,1.3,0.1
				c-0.3-0.3-0.6-0.6-0.9-0.9c-0.3,0.3-0.7,0.5-1,0.8c-0.4,0.3-0.4,0.7,0.1,0.9c0.6,0.2,1.4-0.1,1.9-0.3c0.1-0.1,0.2-0.1,0.3-0.2
				c0.2-0.1,0.7-0.5,0.6-0.8c-0.1-0.2-0.2-0.3-0.5-0.4c-0.8-0.3-2.2,0.1-2.6,0.9c0,0.1-0.1,0.2-0.1,0.3c-0.3,0.6,1,0.6,1.2,0.5
				C122.1,178.1,122.8,177.9,123.1,177.3L123.1,177.3z"/>
		</g>
	</g>
	<g>
		<g>
			<path class="st0" d="M118.1,154.9c0.5-0.1,1.1-0.3,1.6-0.4c1.5-0.4,1.5-2.2-0.2-2.1c-0.7,0-1.4,0.1-2.1,0.1
				c0.1,0.7,0.1,1.4,0.2,2.1c6.4-1.1,12.4-3.3,17.9-6.7c-0.7-0.2-1.4-0.3-2.1-0.5c1.5,10.5-1.9,20.7-9.4,28.2
				c-1.3,1.3,1.5,1.9,2.4,0.9c7.9-7.9,11.5-18.8,9.9-29.9c-0.1-0.9-1.6-0.8-2.1-0.5c-5.4,3.3-11,5.4-17.2,6.4
				c-1.5,0.3-1.5,2.2,0.2,2.1c0.7,0,1.4-0.1,2.1-0.1c-0.1-0.7-0.1-1.4-0.2-2.1c-0.5,0.1-1.1,0.3-1.6,0.4
				C115.8,153.3,116.3,155.4,118.1,154.9L118.1,154.9z"/>
		</g>
	</g>
	<g>
		<g>
			<path class="st0" d="M125.3,173.9c-0.7,1-1.7,1.6-2.7,2.2c0.7,0.3,1.3,0.6,2,0.9c0.2-0.4,0.5-0.7,0.8-1c0.1-0.1,0.3-0.2,0.4-0.3
				c0,0,0.5-0.3,0.2-0.2c-0.3,0-0.5,0-0.8,0.1c0,0,0.1,0,0.1,0c-0.3-0.1-0.5-0.2-0.8-0.4c0,0,0.1,0.1,0.1,0.1c0-0.2-0.1-0.3-0.1-0.5
				c0.2-0.2,0.2-0.2,0-0.1c-0.1,0.1-0.2,0.2-0.3,0.3c-0.2,0.2-0.4,0.3-0.6,0.5c-0.4,0.3-0.9,0.7-1.3,1c-0.5,0.4-0.8,1-0.2,1.4
				c0.6,0.4,1.6,0.2,2.1-0.2c0.9-0.7,1.7-1.4,2.6-2.1c0.3-0.3,0.7-0.7,0.7-1.1c0-0.6-0.5-0.9-1-0.9c-1-0.1-2,0.5-2.8,1.1
				c-0.7,0.6-1.3,1.3-1.8,2.1c-0.6,1.1,1.4,1.3,2,0.9c0.8-0.5,1.7-0.9,2.4-1.5c0.7-0.6,1.3-1.3,1.9-2.1c0.4-0.6-0.4-1.1-0.9-1.1
				C126.5,173,125.7,173.3,125.3,173.9L125.3,173.9z"/>
		</g>
	</g>
	<g>
		<g>
			<path class="st0" d="M123,178.4c0.6-0.4,1.1-0.8,1.6-1.3c0.2-0.3,0.4-0.5,0.6-0.8c0.1-0.2,0.2-0.3,0.3-0.4
				c0.3-0.2,0.2-0.2-0.2-0.1c-0.4-0.2-0.8-0.4-1.3-0.6c-0.1,0.6-0.6,0.9-1.1,1.4c-0.2,0.2-0.4,0.4-0.6,0.6c0.4-0.1,0.3-0.2,0-0.1
				c-0.2,0-0.4,0.1-0.5,0.1c-0.5,0.1-1.5,0.3-1.6,1c-0.1,0.6,0.9,0.7,1.3,0.6c1.3-0.2,2.5-0.4,3.5-1.4c0.8-0.8,1.8-1.4,2-2.5
				c0.1-0.6-0.9-0.7-1.3-0.6c-1.1,0.1-2,0.6-2.7,1.4c-0.6,0.7-1,1.5-1.8,2c-0.4,0.3-0.8,0.8-0.3,1.1
				C121.5,179,122.5,178.7,123,178.4L123,178.4z"/>
		</g>
	</g>
	<g>
		<g>
			<path class="st0" d="M129.6,172.3c0.3-0.4,0.5-0.8,0.8-1.2c-0.9,0-1.9,0-2.8,0c0.1-0.2,0.3-0.3,0.4-0.5c0.7,0.3,1.4,0.6,2.1,0.9
				c0.4-0.4,0.8-0.8,1.1-1.2c0.2-0.2,0.5-1.1,0.7-1.2c-0.8-0.2-1.5-0.4-2.3-0.7c-0.1,0.2-0.2,0.3-0.3,0.5c0.9,0.1,1.8,0.1,2.7,0.2
				c1.1-1.8,2.6-3.6,2.7-5.8c0.1-1.4-2.4-0.7-2.8,0c0,0.1-0.1,0.2-0.1,0.2c0.9,0.1,1.8,0.1,2.7,0.2c0.3-0.6,0.5-1.3,0.7-1.9
				c0.3-1.3-2.6-0.8-2.9,0.3c-0.2,0.5-0.3,1-0.5,1.5c1-0.1,1.9-0.2,2.9-0.3c0.1-0.3,0.1-0.6,0.1-0.9c0-1.5-2.6-0.8-2.9,0.3
				c-0.1,0.4-0.2,0.7-0.2,1.1c-0.1,0.7,0.8,0.9,1.3,0.8c1.3-0.2,2.1-0.7,2.2-2c0.1-1.4-2.7-0.8-2.9,0.3c0,0.4-0.2,0.8-0.4,1.1
				c0.9,0.1,1.8,0.1,2.7,0.2c0.1-0.2,0.2-0.5,0.3-0.7c-0.9,0-1.9,0-2.8,0c-0.1,0.5-0.3,0.9-0.6,1.3c-0.8,1.3,2.1,1.2,2.7,0.2
				c0.4-0.6,0.6-1.1,0.8-1.8c0.3-1.3-2.5-0.8-2.8,0c-0.1,0.2-0.2,0.5-0.3,0.7c-0.7,1.4,2.2,1.2,2.7,0.2c0.3-0.5,0.5-1,0.6-1.6
				c-1,0.1-1.9,0.2-2.9,0.3c0,0.1,0,0.3,0,0.4c0.4-0.2,0.9-0.4,1.3-0.6c-0.1,0-0.2,0-0.3,0.1c0.4,0.3,0.9,0.5,1.3,0.8
				c0-0.4,0.1-0.8,0.2-1.1c-1,0.1-1.9,0.2-2.9,0.3c0,0.3,0,0.6-0.1,0.9c-0.2,1.4,2.6,0.7,2.9-0.3c0.2-0.5,0.3-1,0.5-1.5
				c-1,0.1-1.9,0.2-2.9,0.3c-0.1,0.5-0.3,1-0.5,1.4c-0.6,1.5,2.2,1.1,2.7,0.2c0-0.1,0.1-0.2,0.1-0.2c-0.9,0-1.9,0-2.8,0
				c-0.1,2-1.4,3.7-2.5,5.3c-0.8,1.3,2.1,1.1,2.7,0.2c0.1-0.2,0.2-0.3,0.3-0.5c0.8-1.2-1.8-1-2.3-0.7c-1,0.7-1.3,2-2.2,2.9
				c-1.3,1.3,1.4,1.3,2.1,0.9c0.4-0.2,0.7-0.5,0.7-1c0-1.5-2.3-0.6-2.8,0c-0.3,0.4-0.5,0.8-0.8,1.2
				C126.1,173.3,129,173.2,129.6,172.3L129.6,172.3z"/>
		</g>
	</g>
	<g>
		<g>
			<path class="st0" d="M135.1,163.1c0-0.3,0-0.4,0.1-0.6c-1,0-1.9,0-2.9,0c-0.1,0.2-0.2,0.5-0.3,0.7c1,0,1.9,0,2.9,0
				c0.2-0.8,0.3-1.5,0.5-2.3c-1,0.2-1.9,0.3-2.9,0.5c0.1,0.6-0.1,1.2-0.4,1.7c-0.3,0.6,0.2,1.1,0.7,1.2c0.6,0.1,1.5-0.1,1.9-0.6
				c0.7-1,1-2,0.9-3.3c-1,0.3-1.9,0.5-2.9,0.8c0.2,1.1-0.5,1.9-1,2.8c-0.3,0.6,0.3,1.1,0.9,1.2c0.7,0.1,1.5-0.2,1.9-0.9
				c0.3-0.6,0.7-1.2,1-1.9c0.3-0.7,0.3-1.3,0.1-2.1c-0.1-0.7-1.2-0.7-1.7-0.6c-0.7,0.2-1.2,0.6-1.2,1.4c0,0.6-0.1,1.2-0.5,1.6
				c0.9,0.2,1.7,0.4,2.6,0.6c0.5-0.9,0.7-1.8,0.5-2.8c-0.1-0.6-1.1-0.7-1.5-0.6c-0.6,0.1-1.3,0.5-1.4,1.1c-0.2,0.8-0.3,1.5-0.5,2.3
				c-0.1,0.6,0.7,0.9,1.2,0.9c0.6,0,1.4-0.3,1.7-0.9c0.2-0.4,0.3-0.8,0.4-1.2c0.2-0.6-0.7-0.9-1.2-0.9c-0.6,0-1.4,0.3-1.7,0.9
				c-0.2,0.4-0.3,0.7-0.3,1.1c0,0.7,0.7,1,1.3,0.9C134.1,164.2,135.2,163.8,135.1,163.1L135.1,163.1z"/>
		</g>
	</g>
	<g>
		<g>
			<path class="st0" d="M133.9,152.4c0,3.7-0.1,7-1.2,10.6c-0.2,0.5,2.6,0.2,2.9-0.5c1.1-3.7,1.3-7,1.3-10.8
				C136.8,151.2,133.9,151.6,133.9,152.4L133.9,152.4z"/>
		</g>
	</g>
	<g>
		<g>
			<path class="st0" d="M133.8,152.1c0.2,1.3,0,2.4-0.5,3.6c-0.2,0.5,1,0.3,1.1,0.2c0.4-0.1,1.5-0.3,1.7-0.8
				c0.5-1.2,0.7-2.5,0.6-3.9C136.6,150.8,133.7,151.4,133.8,152.1L133.8,152.1z"/>
		</g>
	</g>
	<g>
		<g>
			<path class="st0" d="M133.7,152.3c0.5,1.7,0.1,3.4-0.3,5.1c-0.3,1.2,2.6,0.8,2.9-0.3c0.4-1.8,0.8-3.7,0.3-5.6
				C136.2,150.4,133.4,151.2,133.7,152.3L133.7,152.3z"/>
		</g>
	</g>
	<g>
		<g>
			<path class="st0" d="M133.5,151.9c0,0.3,0.1,0.5,0.2,0.7c1-0.3,1.9-0.5,2.9-0.8c0,0-0.2-0.4-0.2-0.4c-0.2,0.2-0.4,0.4-0.6,0.6
				c0,0,0,0,0.1,0c-0.6,0.1-1.2,0.2-1.8,0.4c0,0,0,0,0.1,0c-0.2-0.1-0.3-0.1-0.5-0.2c0.4,0.3,0.3,0.9,0.3,1.4
				c-0.1,0.6-0.1,1.1-0.2,1.7c-0.1,1.1,2.8,0.6,2.9-0.4c0.1-0.9,0.5-2.3,0.1-3.2c-0.5-1.2-1.9-0.9-2.8-0.4
				C133.8,151.3,133.4,151.6,133.5,151.9c-0.1,0.2,0,0.4,0.2,0.7c0.3,0.5,1.1,0.4,1.6,0.3c0.4-0.1,1.4-0.5,1.3-1.1
				c-0.1-0.2-0.1-0.5-0.2-0.7C136.2,150.2,133.3,150.8,133.5,151.9L133.5,151.9z"/>
		</g>
	</g>
	<g>
		<g>
			<path class="st0" d="M132.7,161.7c-0.3,1.8-0.8,3.4-1.7,5c-0.7,1.3,2.2,1.1,2.7,0.1c0.9-1.8,1.6-3.5,1.9-5.5
				C135.8,160.2,132.9,160.6,132.7,161.7L132.7,161.7z"/>
		</g>
	</g>
	<g>
		<g>
			<path class="st0" d="M115.4,154c0.4,8.3,1.6,15,4.9,22.7c0.4,1,2.6,0.2,2.9-0.6c0.6-1.5,0-0.7,1.1-1.8c1.3-1.2,2.2-1.7,3.1-3.4
				c-0.9,0.1-1.9,0.1-2.8,0.2c-0.4,0.9-0.8,1.8-1.2,2.8c0.9,0,1.8,0,2.7,0c0.1-0.2,0.3-0.5,0.4-0.7c0.7-1.2-1.8-0.7-2.2-0.4
				c-0.3,0.2-0.6,0.4-1,0.5c0.6,0,1.3,0,1.9,0c-1.4-1-2.9-6.6-3.1-8.1c-0.3-2.5-2.1-10.3,0.3-11.7c-0.8,0-1.6,0-2.3,0
				c0.7,4.1,2,8,2.4,12.2c0.2,2.3,0.1,5.4,1.8,7.2c0.4,0.5,1.4,0.2,1.9,0c2.2-0.8,2.9-2.2,2.6-4.3c-0.4-2.4-4.1-16.1-1-17
				c-0.5-0.1-1.1-0.2-1.6-0.3c0.5,2.9,1,5.8,1.4,8.7c0.4,2.7,1.6,6.2,0.5,8.8c-0.4,0.9,2.5,0.6,2.9-0.4c1-2.3,0.2-5-0.2-7.4
				c-0.6-3.5-1.1-7-1.7-10.5c-0.1-0.6-1.3-0.4-1.6-0.3c-1.5,0.5-2.2,0.7-3.6,1.6c-0.3,0.2-0.6,0.4-0.6,0.8c0.7,3.3,0.9,6.7,1.3,10
				c0.2,1.7,2.5,8.5,0.5,9.2c0.6,0,1.3,0,1.9,0c-1.9-2-1.4-5.8-1.7-8.2c-0.5-3.6-1.7-7.1-2.3-10.7c-0.1-0.9-2-0.2-2.3,0
				c-2.3,1.3-2.8,1.4-2.6,4c0.2,2.2,0.9,4.4,1.1,6.7c0.2,2,0.2,3.8,1,5.7c1.6,3.7,1.9,7,6,4.5c-0.7-0.1-1.5-0.3-2.2-0.4
				c-0.1,0.2-0.3,0.5-0.4,0.7c-0.7,1.1,2.2,0.8,2.7,0c1.1-1.7,0.8-1.2,1.4-3.2c0.3-1.1-2.5-0.4-2.8,0.2c-0.9,1.5-2.8,1.9-3.7,3.2
				c-0.6,0.8-0.5,1.5-0.8,2.4c1-0.2,1.9-0.4,2.9-0.6c-3.3-7.7-4.5-14.4-4.9-22.7C118.2,152.3,115.3,152.9,115.4,154L115.4,154z"/>
		</g>
	</g>
	<g>
		<g>
			<path class="st0" d="M132.5,163c0.3-4.6,0.9-9.2,1.8-13.7c0.3-1.4-2.4-0.5-2.8,0.1c-0.5,0.7-1.1,1.2-1.9,1.5
				c-0.4,0.1-1,0.6-0.8,1.1c0.4,1.1,0.6,1.9,0.6,3c0,1.4,2.8,0.8,2.9-0.3c0.1-1.6,0.2-3.1-0.5-4.6c-0.5-1.1-3.4-0.3-2.9,0.8
				c0.6,1.4,0.7,2.6,0.5,4.1c1-0.1,1.9-0.2,2.9-0.3c0-1.2-0.2-2.3-0.6-3.5c-0.3,0.4-0.6,0.7-0.8,1.1c1.5-0.6,2.5-1.4,3.5-2.7
				c-0.9,0-1.9,0-2.8,0.1c-0.9,4.5-1.5,9.1-1.8,13.7C129.5,164.6,132.4,164.1,132.5,163L132.5,163z"/>
		</g>
	</g>
	<ellipse class="st4" cx="188.1" cy="151.7" rx="22.4" ry="27"/>
	<path class="st5" d="M165.7,144.2c2.9,2.1,11,7.4,22.4,7.6c11.3,0.1,19.4-4.8,22.4-6.8"/>
	<path class="st4" d="M182,151c-0.9,2.3-2.3,7.2-1.4,13.3c1.2,8.2,5.9,13.4,7.6,15.1"/>
	<path class="st5" d="M186.8,151.7c-0.7,2.5-1.7,7.4-0.5,13.4c1.3,6.9,4.8,11.5,6.5,13.5"/>
	<g>
		<g>
			<path class="st0" d="M187.1,153.6c-0.1,1.2-0.3,2.4-0.1,3.5c0.1,0.9,0,1.8,0.2,2.7c0.2,0.8,2.6-0.1,2.9-0.6
				c0.1-0.2,0.2-0.4,0.2-0.7c0.1-0.5-0.9-0.4-1.2-0.4c-0.9,0.2-1.9,0.4-2.3,1.3c-0.4,0.8-0.3,1.7,0.6,2c0.7,0.3,3.3-0.8,2.4-1.2
				c-0.6-0.2-0.2-1.2,0.1-1.5c-0.5,0.2-1,0.5-1.6,0.7c0.1,0,0.2,0,0.3-0.1c-0.4-0.1-0.8-0.2-1.2-0.4c0,0.2-0.1,0.5-0.2,0.7
				c1-0.2,1.9-0.4,2.9-0.6c-0.2-0.9-0.1-1.8-0.2-2.7c-0.2-1.2,0-2.3,0.1-3.5C190,152.3,187.2,152.6,187.1,153.6L187.1,153.6z"/>
		</g>
	</g>
	<g>
		<g>
			<path class="st0" d="M186.5,159c-0.1,2.2,0.4,4,1.4,5.9c1-0.3,1.9-0.5,2.9-0.8c-0.4-0.5-0.8-1-1.2-1.4c-0.4-0.5-3,0.1-2.9,0.8
				c0.3,3,1.5,5.8,2.8,8.4c1-0.3,1.9-0.5,2.9-0.8c-0.8-1.1-0.6-0.8-1.5-1.8c-0.4-0.4-3,0.5-2.8,0.9c0.8,1.4,1.6,2.6,2.8,3.7
				c0.4,0.3,3-0.4,2.8-0.9c-0.2-0.4-0.4-0.9-0.6-1.3c-0.3-0.6-2.8,0.2-2.9,0.8c0,0.5-0.1,1-0.1,1.5c0.9-0.3,1.9-0.6,2.8-0.9
				c-0.2-0.1-0.4-0.3-0.5-0.4c-0.5-0.3-3,0.6-2.8,0.9c0.7,0.9,1.4,1.7,2.1,2.5c0.4,0.4,2.9-0.1,2.9-0.8c0-0.2,0-0.5,0-0.7
				c-1,0.3-1.9,0.5-2.9,0.8c1.2,1.5,1.6,2.1,3.4,1.6c0.1,0,1.7-0.5,1.3-0.9c-0.8-0.5-1.5-1.1-2.3-1.6c-0.4-0.3-3,0.4-2.8,0.9
				c0.5,1,0.3,0.7,1.1,1.4c0.9-0.3,1.8-0.6,2.7-1c-1.1-0.9-3-0.5-3.9,0.6c0,0,0,0.1,0,0.1c0.4,1,1.3,1.7,2,2.5
				c0.5,0.5,2.5-0.1,2.9-0.7c0.2-0.3,0.4-0.5,0.6-0.8c0.1-0.2-2.4-0.1-2.8,0.5c-0.2,0.3-0.4,0.5-0.6,0.8c1-0.2,1.9-0.4,2.9-0.7
				c-0.2-0.2-2.3-2.1-1.8-2.7c-0.8,0.3-1.6,0.5-2.4,0.8c0.2,0.1,0.3,0.2,0.5,0.4c0.5,0.4,3.1-0.6,2.7-1c-0.3-0.4-0.6-0.8-0.9-1.3
				c-0.9,0.3-1.9,0.6-2.8,0.9c0.8,0.5,1.5,1.1,2.3,1.6c0.4-0.3,0.8-0.6,1.3-0.9c0.5-0.7,0.4-1.2-0.3-1.6c-0.4-0.5-2.9,0.1-2.9,0.8
				c0,0.2,0,0.5,0,0.7c1-0.3,1.9-0.5,2.9-0.8c-0.7-0.8-1.4-1.6-2.1-2.5c-0.9,0.3-1.9,0.6-2.8,0.9c0.2,0.1,0.4,0.3,0.5,0.4
				c0.5,0.3,2.8-0.2,2.8-0.9c0-0.5,0.1-1,0.1-1.5c-1,0.3-1.9,0.5-2.9,0.8c0.2,0.4,0.4,0.9,0.6,1.3c0.9-0.3,1.9-0.6,2.8-0.9
				c-1.3-1.1-1.9-2-2.7-3.5c-0.9,0.3-1.9,0.6-2.8,0.9c0.4,0.5,0.9,1.1,1.3,1.6c0.4,0.6,3.1-0.4,2.9-0.8c-1.3-2.7-2.5-5.5-2.8-8.4
				c-1,0.3-1.9,0.5-2.9,0.8c0.4,0.5,0.8,1,1.2,1.4c0.4,0.5,3.1-0.4,2.9-0.8c-1-2-1.5-3.7-1.4-5.9C189.4,157.9,186.5,158.2,186.5,159
				L186.5,159z"/>
		</g>
	</g>
	<g>
		<g>
			<path class="st0" d="M197.1,176.9c0-0.1,0.1-0.2,0.1-0.3c-0.9,0.2-1.9,0.5-2.8,0.7c0,0,0.1,0.1,0.1,0.1c0.2-0.2,0.4-0.3,0.6-0.5
				c-0.1,0.1-0.2,0.1-0.3,0.2c0.7,0,1.4,0,2.1,0c0.3-0.3,0.7-0.5,1-0.8c0.6-0.5-0.9-0.4-1-0.3c-0.1,0-0.1,0-0.2,0c0.4,0,0.7,0,1.1,0
				c-0.9-0.3-3.5,0-3.3,1.4C194.7,178,196.9,177.2,197.1,176.9c0.7-0.3,1.5-0.5,2-1.1c0.4-0.5,0.9-1,1.3-1.5
				c-0.9,0.2-1.9,0.4-2.8,0.5c-0.6,1.1-1.6,2.3-2.9,2.7c0.5,0,1,0.1,1.5,0.1c0.2-0.5-0.1-0.5-0.9,0.1c-0.1-0.1-0.2-0.2-0.2-0.3
				c-0.1,0.2-0.3,0.4-0.5,0.5c0.3,0,0.3,0,0.1,0c-0.3,0.1-0.8,0.1-1.1,0.3c-0.5,0.2-0.9,0.4-1.2,0.8c0.7-0.3,1.4-0.5,2.1-0.8
				c0,0-0.1,0-0.1,0c0.1,0.2,0.1,0.4,0.2,0.7C195.6,178.5,196.8,178,197.1,176.9c0.2-0.5-2.5-0.2-2.8,0.5c-0.2,0.7-0.7,1.1-1.4,1.4
				c-0.8,0.3-0.7,0.8,0.2,0.7c0.5-0.1,1.1-0.2,1.5-0.4c0.2-0.1,0.9-0.7,0.5-0.4c-0.6,0.2-1.2,0.4-1.7,0.5c1.7-0.2,3.4-0.7,4.5-2.1
				c0.1-0.2-0.1-0.2-0.2-0.3c-1.2-0.1-3.9,0-4.3,1.5c-0.1,0.5,1.4,0.2,1.5,0.1c2.3-0.7,4.3-1.9,5.5-4c0.2-0.4-1-0.2-1.1-0.2
				c-0.5,0.1-1.4,0.3-1.7,0.7c-0.7,0.9-1.6,1.6-2.6,2.1c0.8-0.1,1.7-0.3,2.5-0.4c-0.1-0.2,0-0.3,0.1-0.5c-0.4,0.2-0.9,0.4-1.3,0.7
				c0.1,0,0.1,0,0.2-0.1c-0.5,0-1,0.1-1.5,0.1c0.5,0.2,0.9,0.1,1.4,0c-0.3-0.1-0.7-0.2-1-0.3c-0.3,0.3-0.7,0.5-1,0.8
				c-0.4,0.3,0.1,0.4,0.4,0.4c0.6,0,1.3-0.2,1.8-0.4c0.1-0.1,0.2-0.1,0.3-0.2c0.1,0,0.7-0.3,0.6-0.5c-0.1-0.1-0.1-0.2-0.3-0.3
				c-0.6-0.2-2.5,0.1-2.8,0.7c0,0.1-0.1,0.2-0.1,0.3c-0.2,0.4,1,0.2,1.1,0.2C195.8,177.6,196.9,177.4,197.1,176.9L197.1,176.9z"/>
		</g>
	</g>
	<g>
		<g>
			<path class="st0" d="M192.1,154.4c0.5-0.1,1.1-0.3,1.6-0.4c1.4-0.3,1.7-1.7,0-1.7c-0.7,0-1.4,0.1-2.1,0.1
				c-0.1,0.6-0.2,1.2-0.4,1.7c6.7-1.1,12.8-3.4,18.7-6.9c-0.8,0-1.6-0.1-2.4-0.1c1.5,10.5-1.9,20.8-9.4,28.4
				c-1.2,1.2,1.6,1.3,2.4,0.6c7.9-7.9,11.5-18.7,9.9-29.7c-0.1-0.9-1.9-0.4-2.4-0.1c-5.1,3.1-10.6,5.2-16.5,6.2
				c-1.4,0.2-2.4,1.8-0.4,1.7c0.7,0,1.4-0.1,2.1-0.1c0-0.6,0-1.1,0-1.7c-0.5,0.1-1.1,0.3-1.6,0.4
				C189.9,153.2,190.3,154.8,192.1,154.4L192.1,154.4z"/>
		</g>
	</g>
	<g>
		<g>
			<path class="st0" d="M199.3,173.7c-0.7,1-1.7,1.7-2.7,2.3c0.7,0.3,1.3,0.6,2,0.9c0.2-0.4,0.5-0.7,0.8-1c0.1-0.1,0.3-0.2,0.4-0.3
				c0.5-0.3,0.5-0.1-0.4-0.1c-0.3-0.1-0.5-0.2-0.8-0.3c0,0,0.1,0.1,0.1,0.1c0-0.2-0.1-0.3-0.1-0.5c0.2-0.2,0.2-0.2,0,0
				c-0.1,0.1-0.2,0.2-0.3,0.3c-0.2,0.2-0.4,0.3-0.6,0.5c-0.4,0.3-0.9,0.7-1.3,1c-0.4,0.4-0.8,0.9-0.2,1.3c0.5,0.4,1.6,0.2,2.1-0.2
				c0.9-0.7,1.7-1.4,2.6-2.1c0.3-0.3,0.7-0.6,0.7-1.1c0-0.6-0.5-0.8-1-0.9c-1-0.1-2,0.5-2.8,1.1c-0.7,0.6-1.4,1.3-1.8,2.1
				c-0.6,1.1,1.4,1.2,2,0.9c1.7-0.9,3.1-1.9,4.3-3.5c0.4-0.6-0.4-1-0.8-1.1C200.5,172.8,199.7,173.1,199.3,173.7L199.3,173.7z"/>
		</g>
	</g>
	<g>
		<g>
			<path class="st0" d="M197.2,177.8c0.5-0.4,1-0.8,1.5-1.3c0.2-0.3,0.4-0.6,0.6-0.9c0.1-0.1,0.2-0.3,0.4-0.4
				c0.3-0.2,0.2-0.2-0.4,0.1c-0.4-0.1-0.8-0.3-1.2-0.4c-0.2,0.7-0.7,1.1-1.2,1.6c-0.2,0.2-0.9,0.7-0.2,0.4c0.7-0.3,0.1-0.1-0.1-0.1
				c-0.2,0-0.5,0.1-0.7,0.1c-0.5,0.1-1.6,0.3-1.7,0.9c-0.1,0.6,0.9,0.5,1.2,0.4c1.3-0.2,2.6-0.4,3.6-1.4c0.7-0.7,1.8-1.4,2-2.4
				c0.1-0.6-0.9-0.5-1.2-0.4c-1.1,0.1-2.1,0.6-2.9,1.4c-0.7,0.8-1.1,1.6-2,2.1c-0.5,0.3-0.3,0.7,0.2,0.8
				C195.8,178.5,196.7,178.2,197.2,177.8L197.2,177.8z"/>
		</g>
	</g>
	<g>
		<g>
			<path class="st0" d="M203.6,171.9c0.3-0.4,0.5-0.8,0.8-1.2c-0.9,0.1-1.9,0.1-2.8,0.2c0.1-0.1,0.3-0.2,0.4-0.3
				c0.7,0.2,1.4,0.4,2,0.6c0.4-0.4,0.8-0.7,1.1-1.2c0.3-0.4,0.6-1.3,0.9-1.5c-0.8-0.1-1.7-0.1-2.5-0.2c-0.1,0.2-0.2,0.3-0.3,0.5
				c0.9,0,1.8,0,2.7,0c1.1-1.8,2.6-3.6,2.7-5.8c0.1-1.1-2.4-0.4-2.8,0.2c0,0.1-0.1,0.2-0.1,0.2c0.9-0.1,1.9-0.1,2.8-0.2
				c0.2-0.6,0.4-1.1,0.6-1.7c0.3-1-2.6-0.5-2.9,0.4c-0.2,0.5-0.3,1-0.5,1.5c1-0.1,1.9-0.3,2.9-0.4c0.1-0.4,0.1-0.7,0.1-1.1
				c0-0.9-2.7-0.1-2.9,0.6c-0.1,0.4-0.2,0.7-0.2,1.1c-0.1,0.6,0.8,0.6,1.2,0.6c1.2-0.2,2.1-0.6,2.2-1.9c0.1-1.1-2.7-0.5-2.9,0.4
				c0,0.4-0.2,0.8-0.4,1.1c0.9-0.1,1.9-0.1,2.8-0.2c0.1-0.2,0.2-0.5,0.3-0.7c-1,0.1-1.9,0.3-2.9,0.4c-0.1,0.5-0.3,1-0.6,1.4
				c-0.7,1.1,2.2,0.8,2.7,0c0.4-0.6,0.6-1.1,0.8-1.8c0.3-1.1-2.5-0.3-2.9,0.4c-0.1,0.2-0.2,0.5-0.3,0.7c-0.4,0.8,2.4,0.5,2.8-0.2
				c0.3-0.5,0.5-0.9,0.6-1.5c-1,0.1-1.9,0.3-2.9,0.4c-0.1,0.2-0.1,0.4-0.2,0.7c0.5-0.2,1-0.5,1.6-0.7c-0.1,0-0.2,0-0.3,0.1
				c0.4,0.2,0.8,0.4,1.2,0.6c0-0.4,0.1-0.8,0.2-1.1c-1,0.2-1.9,0.4-2.9,0.6c0,0.2,0,0.5-0.1,0.7c-0.2,1.1,2.6,0.4,2.9-0.4
				c0.2-0.5,0.3-1,0.5-1.5c-1,0.1-1.9,0.3-2.9,0.4c-0.2,0.6-0.4,1.1-0.6,1.7c-0.4,0.9,2.4,0.4,2.8-0.2c0-0.1,0.1-0.2,0.1-0.2
				c-0.9,0.1-1.9,0.1-2.8,0.2c-0.1,2-1.4,3.7-2.5,5.4c-0.7,1.1,2.2,0.7,2.7,0c0.1-0.2,0.2-0.3,0.3-0.5c0.8-1.2-2.1-0.5-2.5-0.2
				c-0.9,0.7-1.2,1.9-2,2.7c-1.2,1.2,1.5,0.9,2,0.6c0.3-0.2,0.7-0.4,0.7-0.8c0-1.2-2.4-0.3-2.8,0.2c-0.3,0.4-0.5,0.8-0.8,1.2
				C200.2,173,203.1,172.7,203.6,171.9L203.6,171.9z"/>
		</g>
	</g>
	<g>
		<g>
			<path class="st0" d="M209.1,162.8c0-0.2,0-0.4,0.1-0.6c-0.9,0-1.9,0-2.8,0.1c-0.1,0.3-0.1,0.5-0.2,0.7c0.9,0,1.9,0,2.8-0.1
				c0.2-0.8,0.3-1.5,0.5-2.3c-1,0.2-1.9,0.4-2.9,0.5c0.1,0.6,0,1.2-0.4,1.7c-0.4,0.6,0.3,1,0.8,1c0.7,0.1,1.5-0.3,1.9-0.8
				c0.6-0.9,0.9-1.9,0.8-2.9c-1,0.3-1.9,0.5-2.9,0.8c0.2,1.1-0.5,1.9-1,2.9c-0.3,0.6,0.3,1,0.8,1c0.6,0,1.6-0.2,1.9-0.8
				c0.3-0.6,0.7-1.2,1-1.9c0.3-0.7,0.3-1.3,0.2-2c-0.1-0.7-1.2-0.6-1.7-0.5c-0.6,0.2-1.3,0.6-1.2,1.2c0,0.7-0.2,1.4-0.6,2
				c0.9,0.1,1.8,0.1,2.7,0.2c0.5-0.8,0.7-1.7,0.5-2.7c-0.1-0.6-1.1-0.6-1.5-0.5c-0.5,0.1-1.3,0.4-1.4,1c-0.2,0.8-0.3,1.5-0.5,2.3
				c-0.3,1.3,2.5,0.8,2.8-0.1c0.2-0.4,0.3-0.8,0.4-1.2c0.2-0.6-0.7-0.8-1.1-0.8c-0.6,0-1.4,0.3-1.7,0.8c-0.2,0.4-0.3,0.7-0.3,1.1
				c0,0.7,0.7,0.8,1.3,0.8C208,163.8,209.2,163.4,209.1,162.8L209.1,162.8z"/>
		</g>
	</g>
	<g>
		<g>
			<path class="st0" d="M207.9,151.9c0,3.8-0.1,7.1-1.2,10.7c-0.3,1.1,2.6,0.7,2.9-0.3c1.1-3.6,1.2-6.9,1.2-10.7
				C210.8,150.2,207.9,150.8,207.9,151.9L207.9,151.9z"/>
		</g>
	</g>
	<g>
		<g>
			<path class="st0" d="M207.8,151.8c0.2,1.2,0,2.4-0.5,3.6c-0.2,0.6,1,0.5,1.2,0.5c0.6-0.1,1.4-0.3,1.7-0.9
				c0.5-1.2,0.7-2.6,0.6-3.9C210.6,150.3,207.7,150.9,207.8,151.8L207.8,151.8z"/>
		</g>
	</g>
	<g>
		<g>
			<path class="st0" d="M207.7,152c0.5,1.8,0.1,3.5-0.3,5.2c-0.1,0.5,2.7,0.2,2.9-0.5c0.4-1.8,0.8-3.6,0.3-5.5
				C210.4,150.6,207.5,151.4,207.7,152L207.7,152z"/>
		</g>
	</g>
	<g>
		<g>
			<path class="st0" d="M207.5,151.6c0,0.3,0.1,0.5,0.2,0.7c0.9-0.3,1.9-0.7,2.8-1c0-0.1,0-0.1-0.1-0.2c-0.3,0.3-0.6,0.6-0.9,0.8
				c0,0,0,0,0.1,0c-0.5,0.1-1,0.1-1.5,0.2c-0.3-0.1-0.1,0.1-0.1,0.4c0,0.3,0,0.5,0,0.8c-0.1,0.5-0.1,1-0.2,1.5
				c-0.1,1.3,2.8,0.8,2.9-0.3c0.1-1,0.4-2.2,0.1-3.1c-0.3-1.1-1.6-1.2-2.5-0.8c-0.3,0.2-0.8,0.4-0.9,0.8c0,0.4,0.1,0.7,0.3,1
				c0.5,0.8,3.1,0.1,2.8-1c-0.1-0.2-0.1-0.5-0.2-0.7C210.2,149.7,207.3,150.4,207.5,151.6L207.5,151.6z"/>
		</g>
	</g>
	<g>
		<g>
			<path class="st0" d="M206.7,161.5c-0.3,1.9-0.9,3.5-1.8,5.3c-0.3,0.5,1,0.5,1.2,0.5c0.6-0.1,1.4-0.3,1.7-0.9
				c0.9-1.7,1.5-3.3,1.8-5.3C209.7,160.1,206.9,160.7,206.7,161.5L206.7,161.5z"/>
		</g>
	</g>
	<g>
		<g>
			<path class="st0" d="M189.4,153.4c0.4,8.4,1.6,15.2,4.9,23c0.5,1.1,2.4,0.9,2.8-0.2c0.5-1.4,0.3-0.8,1.3-1.8
				c1.2-1.3,2.2-2,3.1-3.5c-0.9-0.1-1.9-0.2-2.8-0.4c-0.2,1.1-0.6,2.1-1.3,3c0.9,0.1,1.9,0.2,2.8,0.4c0.1-0.2,0.3-0.5,0.4-0.7
				c0.7-1.1-1.4-1.5-2-1.1c0.4,0.8,0.5,0.7,0.2-0.1c-0.2-0.7-0.4-1.3-0.8-1.9c-0.7-1.4-1.4-2.6-1.7-4.2c-0.4-1.7-1.5-11.2-0.1-12.1
				c-0.7-0.2-1.4-0.3-2.1-0.5c0.7,4.5,2,8.7,2.5,13.3c0.2,2,0.3,4.6,1.7,6.1c0.4,0.4,1.1,0.6,1.6,0.4c2-0.7,3.1-2,3.1-4
				c0-2.4-1.2-5.2-1.5-7.6c-0.4-3.4-0.6-6.7-1.3-10c-0.3,0.4-0.5,0.9-0.8,1.3c0.8-0.4,1.6-0.7,2.5-1.1c-0.6-0.2-1.2-0.4-1.7-0.6
				c0.4,2.6,0.9,5.2,1.3,7.9c0.4,2.6,1.7,6.8,0.7,9.3c-0.7,1.6,2.3,1.6,2.8,0.4c1-2.3,0.3-4.6,0-7c-0.6-3.8-1.2-7.6-1.8-11.3
				c-0.1-0.7-1.2-0.8-1.7-0.6c-1.6,0.5-1.7,0.5-3.2,1.4c-0.5,0.3-0.9,0.7-0.8,1.3c0.4,2,3.4,18.4,2.1,18.8c0.5,0.1,1.1,0.3,1.6,0.4
				c-1.9-2-1.3-5.6-1.7-8.1c-0.5-3.6-1.7-7.1-2.3-10.7c-0.1-0.9-1.6-0.8-2.1-0.5c-2.3,1.3-3,1.5-2.9,4.2c0.1,2.2,0.9,4.5,1.1,6.7
				c0.1,1.5,0.1,3,0.5,4.5c0.5,1.7,1.4,3,2.1,4.6c0.2,0.5,0.3,1.8,0.8,2.3c1.2,0.9,2.2,0.2,3.4-0.4c-0.7-0.4-1.4-0.7-2-1.1
				c-0.1,0.2-0.3,0.5-0.4,0.7c-0.9,1.4,2.1,1.5,2.8,0.4c0.7-0.9,1.1-1.9,1.3-3c0.5-1.7-2.2-1.5-2.8-0.4c-1.3,2.3-2.9,1.7-3.7,3.1
				c-0.5,0.9-0.3,1.4-0.7,2.3c0.9-0.1,1.9-0.1,2.8-0.2c-3.2-7.5-4.4-14.3-4.9-22.4C192.2,151.6,189.3,152.1,189.4,153.4L189.4,153.4
				z"/>
		</g>
	</g>
	<g>
		<g>
			<path class="st0" d="M206.5,162.7c0.3-4.6,0.9-9.2,1.8-13.7c0.3-1.3-2.2-0.9-2.7-0.3c-0.6,0.8-1.2,1.3-2.1,1.7
				c-0.4,0.2-1,0.7-0.8,1.2c0.4,1,0.6,1.9,0.6,3c0,1.4,2.8,1,2.9-0.3c0.1-1.6,0.2-3.1-0.6-4.6c-0.6-1.2-3.4-0.4-2.9,0.8
				c0.6,1.4,0.6,2.6,0.5,4.1c1-0.1,2-0.2,2.9-0.3c0-1.3-0.2-2.3-0.6-3.5c-0.3,0.4-0.5,0.8-0.8,1.2c1.4-0.5,2.4-1.3,3.3-2.5
				c-0.9-0.1-1.8-0.2-2.7-0.3c-0.9,4.5-1.5,9.1-1.8,13.7C203.5,164.4,206.5,164,206.5,162.7L206.5,162.7z"/>
		</g>
	</g>
	<ellipse class="st4" cx="149.5" cy="97.2" rx="22.4" ry="27"/>
	<path class="st5" d="M127.1,89.7c2.9,2.1,11,7.4,22.4,7.6c11.3,0.1,19.4-4.8,22.4-6.8"/>
	<path class="st4" d="M143.4,96.5c-0.9,2.3-2.3,7.2-1.4,13.3c1.2,8.2,5.9,13.4,7.6,15.1"/>
	<path class="st5" d="M148.2,97.2c-0.7,2.5-1.7,7.4-0.5,13.4c1.3,6.9,4.8,11.5,6.5,13.5"/>
	<g>
		<g>
			<path class="st0" d="M148.6,98.8c-0.1,1.1-0.4,2.4-0.2,3.6c0.2,0.9,0,1.9,0.2,2.9c0.3,1,2.5,0.4,2.8-0.3c0.1-0.3,0.2-0.5,0.3-0.9
				c0.2-0.8-1.3-0.7-1.7-0.6c-0.9,0.2-1.6,0.6-2,1.5c-0.3,0.8-0.2,1.7,0.7,2c0.7,0.3,1.5,0.1,2.1-0.3c0.3-0.2,0.9-0.9,0.2-1.2
				c0.1-0.6-0.2-0.8-0.6-0.6c-0.6-0.2-1.1-0.4-1.7-0.6c0,0.1-0.1,0.3-0.1,0.4c0.9-0.1,1.9-0.2,2.8-0.3c-0.2-0.8-0.1-1.7-0.2-2.5
				c-0.1-1.2,0-2.3,0.1-3.4C151.6,97.3,148.6,97.8,148.6,98.8L148.6,98.8z"/>
		</g>
	</g>
	<g>
		<g>
			<path class="st0" d="M147.9,104.2c-0.2,2.4,0.5,4.3,1.5,6.4c0.9-0.4,1.8-0.8,2.7-1.3c-0.4-0.5-0.8-1-1.2-1.4
				c-0.8-0.9-2.9-0.2-2.8,1c0.3,3,1.5,5.8,2.8,8.4c0.9-0.3,1.9-0.7,2.8-1c-0.4-0.7-0.9-1.2-1.4-1.7c-0.9-0.9-3.4-0.1-2.7,1.3
				c0.8,1.5,1.7,2.6,3,3.8c0.7,0.6,3.1-0.1,2.6-1.2c-0.2-0.4-0.4-0.9-0.6-1.3c-0.5-1.1-2.8-0.7-2.9,0.5c0,0.5-0.1,1-0.1,1.5
				c0.9-0.3,1.7-0.6,2.6-0.9c-0.2-0.1-0.4-0.3-0.5-0.4c-0.8-0.6-3.3,0.3-2.4,1.5c0.7,0.9,1.4,1.7,2.1,2.5c0.6,0.7,2.8,0.4,2.8-0.7
				c0-0.2,0-0.5,0-0.7c-0.9,0.2-1.9,0.5-2.8,0.7c1,1.2,1.8,2.4,3.5,1.9c0.7-0.2,1.8-1.1,0.9-1.8c-0.8-0.5-1.5-1.1-2.3-1.6
				c-0.9-0.6-3.1,0.2-2.4,1.5c0.2,0.6,0.5,1,1,1.4c0.8-0.5,1.6-1,2.4-1.5c-1.1-0.9-2.5-0.9-3.4,0.2c-0.2,0.2-0.4,0.6-0.2,0.8
				c0.5,1.1,1.3,1.9,2.1,2.8c0.7,0.9,2.2,0.3,2.7-0.5c0.2-0.3,0.4-0.5,0.6-0.8c0.9-1.3-2.1-1.3-2.8-0.3c-0.2,0.3-0.4,0.5-0.6,0.8
				c0.9-0.2,1.8-0.3,2.7-0.5c-0.7-1.3-1.8-1.6-3.3-0.9c0.8,0.7,3.4-0.5,2.4-1.5c-0.5-0.3-0.8-0.8-1-1.4c-0.8,0.5-1.6,1-2.4,1.5
				c0.8,0.5,1.5,1.1,2.3,1.6c0.3-0.6,0.6-1.2,0.9-1.8c0.5-0.5,0.4-0.9-0.3-1.2c-0.6-0.7-2.8-0.4-2.8,0.7c0,0.2,0,0.5,0,0.7
				c0.9-0.2,1.9-0.5,2.8-0.7c-0.7-0.8-1.4-1.6-2.1-2.5c-0.8,0.5-1.6,1-2.4,1.5c0.2,0.1,0.4,0.3,0.5,0.4c0.7,0.5,2.5,0.1,2.6-0.9
				c0-0.5,0.1-1,0.1-1.5c-1,0.2-1.9,0.3-2.9,0.5c0.2,0.4,0.4,0.9,0.6,1.3c0.9-0.4,1.7-0.8,2.6-1.2c-1.2-1.1-1.8-2-2.5-3.4
				c-0.9,0.4-1.8,0.8-2.7,1.3c0.6,0.5,1,1.1,1.4,1.7c0.6,0.9,3.3,0.1,2.8-1c-1.3-2.7-2.5-5.5-2.8-8.4c-0.9,0.3-1.9,0.7-2.8,1
				c0.4,0.5,0.8,1,1.2,1.4c0.8,1,3.3,0.1,2.7-1.3c-1-1.9-1.4-3.3-1.3-5.4C151,102.5,148,102.9,147.9,104.2L147.9,104.2z"/>
		</g>
	</g>
	<g>
		<g>
			<path class="st0" d="M158.6,122.4c0-0.1,0.1-0.2,0.1-0.3c-0.9,0.2-1.9,0.5-2.8,0.7c0,0,0.1,0.1,0.1,0.1c0.2-0.2,0.4-0.4,0.6-0.5
				c-0.1,0.1-0.2,0.1-0.3,0.2c0.7,0,1.4,0,2.1,0c0.3-0.3,0.7-0.5,1-0.8c0.6-0.5-0.9-0.4-1-0.4c-0.1,0-0.1,0-0.2,0c0.4,0,0.7,0,1.1,0
				c-1-0.3-3.5,0-3.3,1.4c0.1,0.6,2.3-0.2,2.5-0.4c0.6-0.3,1.4-0.6,1.9-1.2c0.4-0.5,0.9-1,1.3-1.5c-1,0.2-1.9,0.4-2.9,0.5
				c-0.6,1.1-1.6,2.3-2.9,2.7c0.5,0,1,0.1,1.5,0.1c0.2-0.5-0.1-0.5-0.9,0.1c-0.1-0.1-0.2-0.2-0.2-0.3c-0.1,0.2-0.3,0.4-0.5,0.5
				c0.3,0,0.3,0,0.1,0c-0.3,0.1-0.8,0.1-1.1,0.3c-0.5,0.2-0.9,0.4-1.2,0.8c0.7-0.3,1.4-0.5,2.1-0.8c0,0-0.1,0-0.1,0
				c0.1,0.2,0.1,0.5,0.2,0.7C157.1,124,158.3,123.5,158.6,122.4c0.2-0.6-2.5-0.3-2.8,0.4c-0.2,0.7-0.7,1-1.4,1.3
				c-0.8,0.3-0.7,0.8,0.2,0.7c0.5-0.1,1.1-0.2,1.5-0.4c0.2-0.1,0.9-0.7,0.5-0.4c-0.6,0.2-1.2,0.4-1.7,0.5c1.7-0.2,3.4-0.7,4.5-2.2
				c0.1-0.2-0.1-0.3-0.2-0.3c-1.3-0.1-3.9,0-4.3,1.5c-0.1,0.5,1.4,0.2,1.5,0.1c2.3-0.7,4.3-1.9,5.5-4c0.2-0.4-1-0.2-1.1-0.2
				c-0.6,0.1-1.3,0.3-1.7,0.8c-0.7,1-1.6,1.6-2.6,2.1c0.8-0.1,1.7-0.3,2.5-0.4c-0.1-0.2,0-0.3,0.1-0.5c-0.4,0.2-0.9,0.4-1.3,0.7
				c0.1,0,0.1,0,0.2-0.1c-0.5,0-1,0.1-1.5,0.1c0.5,0.2,0.9,0.2,1.5,0.1c-0.3-0.1-0.7-0.2-1-0.4c-0.3,0.3-0.7,0.5-1,0.8
				c-0.4,0.3,0.1,0.4,0.4,0.4c0.6,0,1.3-0.2,1.8-0.4c0.1-0.1,0.2-0.1,0.3-0.2c0.1,0,0.7-0.3,0.6-0.5c-0.1-0.1-0.1-0.2-0.3-0.3
				c-0.6-0.3-2.5,0.1-2.8,0.7c0,0.1-0.1,0.2-0.1,0.3c-0.2,0.4,1,0.2,1.1,0.2C157.3,123.1,158.3,122.9,158.6,122.4L158.6,122.4z"/>
		</g>
	</g>
	<g>
		<g>
			<path class="st0" d="M153.6,100.1c0.5-0.1,1.1-0.3,1.6-0.4c1.5-0.4,1.5-2.2-0.2-2.1c-0.7,0-1.4,0.1-2.1,0.1
				c-0.1,0.7-0.2,1.4-0.2,2.2c6.6-1.1,12.6-3.3,18.3-6.8c-0.7-0.2-1.4-0.3-2.1-0.5c1.5,10.5-1.9,20.7-9.4,28.2
				c-1.3,1.3,1.5,1.8,2.4,0.9c7.9-7.9,11.5-18.8,9.9-29.9c-0.1-0.9-1.6-0.8-2.1-0.5c-5.2,3.2-10.8,5.3-16.8,6.3
				c-1.6,0.3-2.3,2.2-0.2,2.2c0.7,0,1.4-0.1,2.1-0.1c-0.1-0.7-0.1-1.4-0.2-2.1c-0.5,0.1-1.1,0.3-1.6,0.4
				C151.2,98.5,151.8,100.5,153.6,100.1L153.6,100.1z"/>
		</g>
	</g>
	<g>
		<g>
			<path class="st0" d="M160.8,119.2c-0.8,1.2-1.8,1.8-3,2.5c0.7,0.1,1.5,0.3,2.2,0.4c0.4-0.7,1-1.5,1.8-1.8
				c-0.4,0.1-0.8,0.2-1.1,0.2c0,0,0.1,0,0.1,0c-0.3-0.1-0.5-0.2-0.8-0.2c0,0,0.1,0.1,0.1,0.1c0-0.1-0.1-0.3-0.1-0.4
				c0,0.3-0.9,0.8-1.1,0.9c-0.5,0.4-0.9,0.8-1.4,1.1c-0.5,0.4-0.3,0.9,0.3,1c0.7,0.2,1.5-0.1,2-0.5c0.8-0.7,1.8-1.3,2.6-2.1
				c0.2-0.2,0.5-0.5,0.5-0.9c-0.1-0.5-0.6-0.6-1-0.6c-1.8,0-3.7,1.6-4.5,3.1c-0.2,0.4,0,0.7,0.5,0.8c0.6,0.1,1.3-0.1,1.8-0.4
				c1.6-0.9,2.9-1.8,3.9-3.3c0.4-0.6-0.3-0.8-0.8-0.8C162.1,118.4,161.2,118.7,160.8,119.2L160.8,119.2z"/>
		</g>
	</g>
	<g>
		<g>
			<path class="st0" d="M158.5,123.8c0.6-0.4,1.1-0.8,1.5-1.4c0.2-0.3,0.4-0.6,0.6-0.9c0.1-0.2,0.2-0.3,0.4-0.4
				c0.2-0.1,0.1-0.1-0.1,0c-0.4-0.3-0.9-0.6-1.3-0.9c-0.1,0.6-0.9,1-1.3,1.4c0,0-0.3,0.2-0.3,0.3c0-0.1,0.5-0.1,0.1-0.1
				c-0.4,0-0.9,0.2-1.2,0.2c-0.6,0.1-1.4,0.7-1.2,1.4c0.2,0.7,1.2,0.7,1.7,0.6c0.6-0.1,1.2-0.2,1.8-0.4c0.6-0.2,0.9-0.6,1.4-1
				c0.8-0.8,1.7-1.4,1.9-2.6c0.1-0.7-0.8-1-1.3-0.9c-1.1,0.1-2,0.6-2.7,1.5c-0.6,0.7-1,1.4-1.8,2c-0.5,0.4-0.7,1.1-0.2,1.5
				C157,124.4,158,124.2,158.5,123.8L158.5,123.8z"/>
		</g>
	</g>
	<g>
		<g>
			<path class="st0" d="M164.9,117.8c0.3-0.4,0.5-0.8,0.8-1.2c-0.9-0.1-1.8-0.2-2.7-0.3c0,0.1,0,0.1,0,0.2c0.2-0.2,0.3-0.5,0.5-0.7
				c0,0-0.1,0.1-0.1,0.1c0.7,0.3,1.4,0.7,2.2,1c0.6-0.6,1.2-2,1.7-2.4c-0.8-0.3-1.6-0.5-2.3-0.8c-0.1,0.2-0.2,0.3-0.3,0.5
				c0.9,0.1,1.8,0.2,2.8,0.3c1.2-1.8,2.6-3.6,2.7-5.9c0.1-1.5-2.4-0.8-2.8,0c0,0.1-0.1,0.2-0.1,0.2c0.9,0.1,1.8,0.2,2.8,0.3
				c0.3-0.6,0.5-1.3,0.7-2c0.4-1.3-2.5-1.1-2.8,0c-0.2,0.5-0.3,1-0.5,1.5c0.9,0,1.9,0,2.8,0c0.1-0.3,0.1-0.6,0.1-0.9
				c0-1.6-2.6-0.9-2.9,0.2c-0.1,0.4-0.2,0.7-0.2,1.1c-0.1,0.9,1.1,0.9,1.7,0.8c1.1-0.2,1.7-0.9,1.8-2c0.1-1.5-2.7-1-2.9,0.2
				c-0.1,0.4-0.2,0.7-0.4,1.1c0.9,0.1,1.8,0.2,2.8,0.3c0.1-0.2,0.2-0.5,0.3-0.7c-0.9,0-1.9,0-2.8,0c-0.1,0.5-0.3,0.9-0.6,1.3
				c-0.8,1.3,2.1,1.3,2.8,0.3c0.4-0.6,0.6-1.1,0.8-1.8c0.3-1.4-2.4-0.9-2.8,0c-0.1,0.2-0.2,0.5-0.3,0.7c-0.7,1.5,2.2,1.3,2.8,0.3
				c0.3-0.5,0.5-1,0.6-1.6c-1,0.1-2,0.2-2.9,0.2c0.2,0,0.4-0.1,0.6-0.1c0.6,0.3,1.1,0.6,1.7,0.8c0-0.4,0.1-0.8,0.2-1.1
				c-1,0.1-2,0.2-2.9,0.2c0,0.3,0,0.6-0.1,0.9c-0.2,1.4,2.5,1,2.8,0c0.2-0.5,0.3-1,0.5-1.5c-0.9,0-1.9,0-2.8,0
				c-0.1,0.5-0.3,1-0.5,1.4c-0.7,1.6,2.2,1.3,2.8,0.3c0-0.1,0.1-0.2,0.1-0.2c-0.9,0-1.9,0-2.8,0c-0.1,2-1.5,3.7-2.5,5.3
				c-0.8,1.3,2.1,1.3,2.8,0.3c0.1-0.2,0.2-0.3,0.3-0.5c0.9-1.3-1.8-1.2-2.3-0.8c-1,0.7-1.4,2-2.2,2.9c-1.3,1.3,1.4,1.5,2.2,1
				c0.4-0.2,0.6-0.5,0.7-1c0-1.3-2.1-1-2.7-0.3c-0.3,0.4-0.5,0.8-0.8,1.2C161.5,118.5,164.2,118.9,164.9,117.8L164.9,117.8z"/>
		</g>
	</g>
	<g>
		<g>
			<path class="st0" d="M170.6,108c0-0.3,0.1-0.5,0.2-0.7c-1,0.2-1.9,0.3-2.9,0.5c-0.1,0.3-0.2,0.7-0.3,1c1-0.2,1.9-0.3,2.9-0.5
				c0.2-0.8,0.3-1.5,0.5-2.3c-1,0.2-1.9,0.4-2.9,0.6c0.1,0.8,0,1.4-0.4,2.1c-0.3,0.5,0.9,0.4,1,0.4c0.5-0.1,1.4-0.2,1.8-0.7
				c0.6-0.8,0.9-1.7,0.8-2.8c-1,0.3-1.9,0.5-2.9,0.8c0.2,1.3-0.5,2.1-1,3.2c-0.3,0.5,1,0.4,1.2,0.4c0.5-0.1,1.4-0.3,1.7-0.8
				c0.6-1.2,1.3-2.1,1.1-3.5c-0.1-0.7-3-0.1-2.9,0.8c0.1,0.8-0.1,1.5-0.6,2.1c0.9-0.1,1.8-0.2,2.8-0.3c0.4-0.7,0.6-1.5,0.5-2.4
				c-0.1-0.7-2.8,0-2.9,0.6c-0.2,0.8-0.3,1.5-0.5,2.3c-0.2,0.9,2.6,0.2,2.9-0.5c0.1-0.3,0.2-0.6,0.3-1c0.2-0.8-2.6-0.2-2.9,0.5
				c-0.2,0.3-0.2,0.7-0.2,1C167.7,109.4,170.6,108.9,170.6,108L170.6,108z"/>
		</g>
	</g>
	<g>
		<g>
			<path class="st0" d="M169.3,97.3c0,3.8-0.1,7.1-1.2,10.7c-0.4,1.3,2.6,0.9,2.9-0.3c1.1-3.6,1.2-6.9,1.2-10.7
				C172.3,95.6,169.3,96.1,169.3,97.3L169.3,97.3z"/>
		</g>
	</g>
	<g>
		<g>
			<path class="st0" d="M169.2,97.3c0.1,1.2,0,2.4-0.5,3.5c-0.3,0.6,1,0.6,1.2,0.6c0.6-0.1,1.4-0.3,1.7-1c0.5-1.2,0.7-2.6,0.5-3.9
				C172,95.6,169.1,96.3,169.2,97.3L169.2,97.3z"/>
		</g>
	</g>
	<g>
		<g>
			<path class="st0" d="M169.1,97.5c0.5,1.7,0.1,3.4-0.3,5.1c-0.3,1.3,2.6,0.9,2.9-0.3c0.4-1.9,0.8-3.7,0.3-5.6
				C171.7,95.5,168.8,96.3,169.1,97.5L169.1,97.5z"/>
		</g>
	</g>
	<g>
		<g>
			<path class="st0" d="M169,97.1c0,0.3,0.1,0.5,0.2,0.7c0.9-0.3,1.9-0.7,2.8-1c0-0.1,0-0.1-0.1-0.2c-0.3,0.3-0.6,0.6-0.9,0.9
				c0,0,0,0,0.1,0c-0.5,0.1-1,0.1-1.5,0.2c-0.3-0.1-0.1,0-0.1,0.4c0,0.3,0,0.5-0.1,0.8c-0.1,0.5-0.1,1-0.2,1.5
				c-0.1,1.3,2.8,0.8,2.9-0.3c0.1-1,0.4-2.2,0.1-3.1c-0.3-1.1-1.6-1.3-2.5-0.8c-0.3,0.2-0.8,0.5-0.9,0.9c0,0.4,0.1,0.7,0.4,1.1
				c0.5,0.9,3.1,0.1,2.8-1c-0.1-0.2-0.1-0.5-0.2-0.7C171.7,95.1,168.8,95.8,169,97.1L169,97.1z"/>
		</g>
	</g>
	<g>
		<g>
			<path class="st0" d="M168.2,107c-0.3,1.9-0.9,3.5-1.8,5.3c-0.3,0.5,1,0.5,1.2,0.4c0.6-0.1,1.4-0.3,1.7-0.9
				c0.9-1.7,1.5-3.3,1.8-5.3C171.2,105.6,168.3,106.2,168.2,107L168.2,107z"/>
		</g>
	</g>
	<g>
		<g>
			<path class="st0" d="M150.8,99.2c0.4,8.3,1.6,15,4.9,22.7c0.5,1.1,2.6,0.3,2.9-0.5c0.6-1.5,0.3-0.7,1.3-1.8
				c1.1-1.2,2.1-1.9,3-3.4c-0.9,0-1.9,0.1-2.8,0.1c-0.4,0.9-0.8,1.8-1.2,2.7c0.9,0,1.8,0.1,2.7,0.1c0.1-0.2,0.3-0.5,0.4-0.7
				c0.8-1.3-1.8-0.8-2.3-0.6c0.9,0.4,1,0,0.3-1.2c-0.2-0.4-0.4-0.8-0.6-1.3c-0.8-1.8-1.5-3-1.8-5c-0.3-2.5-2-10.3,0.3-11.6
				c-0.8,0-1.6-0.1-2.4-0.1c0.7,4.1,2,8,2.4,12.2c0.2,2.3,0.1,5.4,1.8,7.2c0.5,0.5,1.4,0.3,1.9,0.1c2.3-0.8,2.9-2.3,2.6-4.4
				c-0.4-2.4-4.1-16-1-16.9c-0.6-0.1-1.1-0.3-1.7-0.4c0.4,2.6,0.9,5.2,1.3,7.9c0.4,2.6,1.8,6.9,0.7,9.4c-0.6,1.4,2.3,1.1,2.7,0.1
				c0.9-2.3,0.4-4.5,0-6.9c-0.6-3.8-1.2-7.6-1.8-11.3c-0.1-0.6-1.3-0.5-1.7-0.4c-1.5,0.5-2.2,0.8-3.5,1.6c-0.3,0.2-0.6,0.5-0.5,0.9
				c0.7,3.3,0.9,6.7,1.3,10c0.2,1.7,2.5,8.4,0.5,9.1c0.6,0,1.3,0.1,1.9,0.1c-1.9-2-1.4-5.7-1.7-8.2c-0.5-3.6-1.7-7.1-2.3-10.7
				c-0.2-0.9-1.9-0.4-2.4-0.1c-2.3,1.3-2.8,1.4-2.6,4.1c0.2,2.2,0.9,4.4,1.1,6.7c0.2,2,0.2,3.8,1,5.7c1.5,3.8,2,7.1,6.1,4.6
				c-0.8-0.2-1.5-0.4-2.3-0.6c-0.1,0.2-0.3,0.5-0.4,0.7c-0.7,1.2,2.2,1,2.7,0.1c1.1-1.7,0.8-1.3,1.4-3.2c0.4-1.2-2.4-0.6-2.8,0.1
				c-1,1.7-2.6,1.9-3.7,3.1c-0.6,0.7-0.5,1.6-0.8,2.5c1-0.2,1.9-0.4,2.9-0.5c-3.3-7.7-4.5-14.4-4.9-22.7
				C153.7,97.4,150.8,98,150.8,99.2L150.8,99.2z"/>
		</g>
	</g>
	<g>
		<g>
			<path class="st0" d="M168,108.2c0.3-4.6,0.9-9.2,1.8-13.7c0.3-1.3-2.4-0.4-2.8,0.1c-0.4,0.8-1.1,1.3-1.9,1.5
				c-0.3,0.1-1,0.6-0.9,1c0.4,1.1,0.6,2.1,0.6,3.3c0,0.9,2.8,0.3,2.9-0.6c0.1-1.6,0.2-3-0.5-4.6c-0.5-1-3.3-0.1-2.9,0.8
				c0.6,1.4,0.7,2.6,0.5,4.1c1-0.2,1.9-0.4,2.9-0.6c0-1.2-0.2-2.2-0.6-3.3c-0.3,0.3-0.6,0.7-0.9,1c1.5-0.6,2.6-1.4,3.5-2.7
				c-0.9,0-1.9,0.1-2.8,0.1c-0.9,4.5-1.5,9.1-1.8,13.7C165,109.7,167.9,109.2,168,108.2L168,108.2z"/>
		</g>
	</g>
	<g>
		<g>
			<path class="st0" d="M114.1,153.7c7-0.1,13.7-1.6,20.2-4.2c-0.7-0.2-1.4-0.4-2.1-0.6c-0.4,5.8-1,11.5-4,16.6
				c0.9,0.1,1.8,0.2,2.7,0.2c0.5-1.2,1.1-2.3,1.8-3.4c0.8-1.3-2.1-1.1-2.7-0.2c-2.7,3.9-5.4,7.7-8,11.6c-0.9,1.3,2,1,2.6,0.5
				c2-1.9,3.5-4,4.9-6.4c-0.9,0.1-1.9,0.2-2.8,0.3c-0.8,2.1-2.1,3.8-4.1,4.9c-2.8,1.4-4.4,0.9-4.7-1.4c-1.1-1.6-1.5-4.3-2-6.1
				c-0.4-1.2-3.2-0.5-2.9,0.8c0.3,1.4,0.6,2.5,1.2,3.8c0.9-0.3,1.9-0.7,2.8-1c-0.2-0.3-0.5-0.6-0.7-1c-0.7-1-3.5,0.1-2.7,1.2
				c0.2,0.3,0.5,0.6,0.7,1c0.6,0.8,3.2,0.1,2.8-1c-0.6-1.3-0.9-2.4-1.2-3.8c-1,0.3-1.9,0.5-2.9,0.8c1,3.4,1.9,10.6,6.7,10.2
				c3.6-0.3,10.4-5.4,9.9-9.2c-0.1-1.2-2.5-0.3-2.8,0.3c-1.3,2.2-2.7,4.1-4.6,5.9c0.9,0.2,1.7,0.3,2.6,0.5c2.7-3.9,5.4-7.7,8-11.6
				c-0.9-0.1-1.8-0.2-2.7-0.2c-0.7,1.1-1.3,2.2-1.8,3.4c-0.7,1.5,2.2,1.2,2.7,0.2c3.1-5.3,3.8-11.1,4.2-17.1
				c0.1-1.1-1.5-0.9-2.1-0.6c-6,2.5-12.1,3.7-18.6,3.8C112.8,151.8,112.1,153.7,114.1,153.7L114.1,153.7z"/>
		</g>
	</g>
	<g>
		<g>
			<path class="st0" d="M116,166.1c0-0.8,0-1.6,0-2.4c0-1.6-2.7-1.1-2.9,0.2c-0.1,0.6-0.2,1.2-0.3,1.8c1-0.2,1.9-0.3,2.9-0.5
				c-0.9-3.9-1.1-7.8-0.4-11.8c0.2-1.5-2.7-1.1-2.9,0.2c-0.7,4.2-0.5,8.3,0.5,12.4c0.3,1.3,2.7,0.6,2.9-0.5c0.1-0.6,0.2-1.2,0.3-1.8
				c-1,0.1-2,0.1-2.9,0.2c0,0.8,0,1.6,0,2.4C113.1,167.8,116,167.4,116,166.1L116,166.1z"/>
		</g>
	</g>
	<g>
		<g>
			<path class="st0" d="M112.8,161.5c0.6,2,1.4,3.9,2.2,5.7c0.3,0.6,3.1-0.2,2.9-0.8c-0.5-1.5-0.9-2.9-1.2-4.6
				c-1,0.3-1.9,0.5-2.9,0.8c0.5,2.5,1.2,4.8,2.2,7.1c0.3,0.6,3.1-0.2,2.9-0.8c-0.9-3.3-1.3-6.6-1.2-10c0-0.4-2.9,0-2.9,0.8
				c-0.1,3.9,0.5,7.2,2.1,10.8c0.3,0.7,2.6-0.2,2.9-0.6c2.3-3.7,3.8-7.6,4.6-11.8c-1,0.2-1.9,0.4-2.9,0.6c0.1,2.8,0.3,5.6,0.4,8.3
				c0,0.5,2.9,0,2.9-0.8c0.2-2.8,0.3-5.7,0.5-8.5c0.1-1.8,0.8-3.9-0.7-5.2c-0.4-0.4-3,0.3-2.8,0.9c2,4.4,4.2,7.2,4.3,12.3
				c1-0.3,1.9-0.5,2.9-0.8c-0.5-3.4-0.9-6.8-1.3-10.2c-0.9,0.3-1.9,0.6-2.8,0.9c1.9,0.8,3.2,1.9,4.3,3.8c0.3,0.6,2.9-0.1,2.9-0.8
				c-0.2-2.1-0.3-4.2-0.5-6.3c-1,0.3-1.9,0.5-2.9,0.8c0.3,3.5-0.5,6.9-2.5,9.8c-1,1.4-2.6,3.9-4.6,2.3c-1.4-1.1-1.2-4.6-0.9-6
				c-0.9,0.2-1.9,0.5-2.8,0.7c4,3,7.1,6.6,9.5,10.9c0.4-0.3,0.9-0.5,1.3-0.8c-1.7,0.5-9.5,4.5-10.3,3.8c-0.4-0.4-3.1,0.5-2.8,0.9
				c0.3,0.6,0.7,1.1,1,1.7c0.4,0.7,3.1-0.4,2.9-0.8c-0.3-0.6-0.7-1.1-1-1.7c-0.9,0.3-1.9,0.6-2.8,0.9c1,0.9,2,0.9,3.2,0.6
				c3.5-0.8,6.5-3.4,10-4.5c0.2,0,1.5-0.5,1.3-0.8c-2.4-4.4-5.6-8.1-9.7-11.1c-0.5-0.3-2.7,0.1-2.8,0.7c-0.7,4,0.9,9.6,5.7,7.5
				c5.7-2.5,8.5-9.1,8-14.9c0-0.5-3,0-2.9,0.8c0.2,2.1,0.3,4.2,0.5,6.3c1-0.3,1.9-0.5,2.9-0.8c-1.1-1.9-2.4-3.1-4.5-4
				c-0.5-0.2-2.9,0.1-2.8,0.9c0.4,3.4,0.8,6.8,1.3,10.2c0.1,0.5,2.9-0.1,2.9-0.8c-0.1-5-2.4-7.9-4.3-12.3c-0.9,0.3-1.9,0.6-2.8,0.9
				c1.5,1.4,0.5,5,0.4,6.7c-0.1,2.3-0.3,4.5-0.4,6.8c1-0.3,1.9-0.5,2.9-0.8c-0.1-2.8-0.3-5.6-0.4-8.3c0-0.5-2.8,0.1-2.9,0.6
				c-0.9,4.3-2.4,8.1-4.6,11.8c1-0.2,1.9-0.4,2.9-0.6c-1.5-3.5-2.2-6.9-2.1-10.8c-1,0.3-1.9,0.5-2.9,0.8c0,3.4,0.3,6.7,1.2,10
				c1-0.3,1.9-0.5,2.9-0.8c-1-2.3-1.7-4.6-2.2-7.1c-0.1-0.6-3,0.1-2.9,0.8c0.3,1.6,0.6,3,1.2,4.6c1-0.3,1.9-0.5,2.9-0.8
				c-0.9-1.9-1.6-3.8-2.2-5.7C115.5,160.1,112.6,160.9,112.8,161.5L112.8,161.5z"/>
		</g>
	</g>
	<g>
		<g>
			<path class="st0" d="M186.2,152.9c-0.1,3.8,0.4,7.2,1.8,10.8c1-0.3,1.9-0.5,2.9-0.8c-1.4-1.7-2-3.2-2.3-5.3
				c-0.1-0.5-2.9,0.1-2.9,0.8c0.1,4.3,1.2,8.2,3.3,12c1-0.3,1.9-0.5,2.9-0.8c-1-1.3-1.8-2.5-2.5-3.9c-0.3-0.5-3,0.2-2.9,0.8
				c1.1,3.9,3,7.3,5.8,10.3c0.4,0.5,3-0.6,2.8-0.9c-0.3-0.4-0.5-0.8-0.8-1.2c-0.3-0.5-3,0.2-2.9,0.8c0,0.2,0.1,0.5,0.1,0.7
				c0.9-0.3,1.9-0.6,2.8-0.9c-0.3-0.4-0.6-0.7-0.9-1.1c-0.8,0.3-1.6,0.6-2.4,0.9c3.3,0.2,6.3-0.4,9.3-1.7c1.5-0.6-0.3-0.7-0.9-0.5
				c-6.3,1.6-7.8-7.4-8.7-11.9c-1,0.3-1.9,0.5-2.9,0.8c0.9,2.1,1.9,4.1,2.9,6.2c0.3,0.5,2.7-0.1,2.9-0.7c1.1-4.2,2.1-8.4,3.2-12.6
				c-1,0.2-1.9,0.4-2.9,0.7c1.1,3.6,1.9,7.1,2.3,10.8c1-0.3,1.9-0.5,2.9-0.8c-1.8-4.2,0.2-8.9-0.7-13.5c-0.9,0.3-1.9,0.6-2.8,0.9
				c5.4,2.2,7.2,11.4,5.4,16.4c-0.2,0.5,2.5,0,2.8-0.5c3.2-5.3,4.4-11.1,5.4-17.1c-1,0.3-1.9,0.5-2.9,0.8c0.2,2.1-0.3,3.7-2,5.1
				c0.9-0.2,1.8-0.4,2.7-0.6c-1-0.4-1.8-1.1-2.4-2c-0.4-0.5-3.1,0.4-2.9,0.8c0.2,0.4,0.4,0.9,0.6,1.3c0.3,0.5,2.7-0.2,2.9-0.7
				c0.8-2.9,2-5.4,3.7-7.8c0.3-0.4-2.1,0.1-2.2,0.1c-5.3,2.2-10.7,3.4-16.5,3.7c-0.5,0-3.3,1.1-1.9,1.1c2.2,0,10.4,0.8,11.7-2.2
				c0.1-0.2-0.1-0.2-0.2-0.3c-0.1,0-0.1,0-0.2,0c-0.6-0.1-2.5,0.2-2.6,0.9c0,0,0,0.1,0,0.1c0,0.2,2.7,0.1,2.9-0.8c0,0,0-0.1,0-0.1
				c-0.9,0.3-1.8,0.6-2.6,0.9c-2.1-0.3-4.8,0.4-7,0.4c-0.6,0.4-1.3,0.7-1.9,1.1c7-0.3,13.6-1.8,20-4.5c-0.7,0-1.5,0.1-2.2,0.1
				c-1.8,2.4-3,4.9-3.7,7.8c1-0.2,1.9-0.4,2.9-0.7c-0.2-0.4-0.4-0.9-0.6-1.3c-1,0.3-1.9,0.5-2.9,0.8c0.8,1.1,1.4,1.6,2.6,2.2
				c0.7,0.3,2.1-0.2,2.7-0.6c1.9-1.6,2.6-3.1,2.3-5.6c0-0.5-2.8,0.1-2.9,0.8c-1,5.9-2.1,11.7-5.3,16.9c0.9-0.2,1.9-0.4,2.8-0.5
				c1.8-5.2,0.1-14.5-5.5-16.8c-0.4-0.2-3,0.2-2.8,0.9c0.9,4.7-1.2,9,0.7,13.5c0.2,0.5,3-0.2,2.9-0.8c-0.5-3.7-1.3-7.2-2.3-10.8
				c-0.2-0.5-2.7,0.2-2.9,0.7c-1.1,4.2-2.1,8.4-3.2,12.6c1-0.2,1.9-0.4,2.9-0.7c-1.1-2-2-4.1-2.9-6.2c-0.2-0.6-3,0.2-2.9,0.8
				c0.7,3.5,1.8,10.3,5.4,12.1c0.9,0.4,1.8,0.5,2.8,0.5c0.5,0,1.3-0.1,1.8-0.2c1-0.2,0.5-0.2-1.5,0c-1.1,0.1-2.3,0.1-3.4-0.1
				c-0.3,0-2.6,0.4-2.4,0.9c0.3,1.1,0,0.8,1,1.2c0.4,0.2,3-0.2,2.8-0.9c0-0.2-0.1-0.5-0.1-0.7c-1,0.3-1.9,0.5-2.9,0.8
				c0.3,0.4,0.5,0.8,0.8,1.2c0.9-0.3,1.9-0.6,2.8-0.9c-2.7-3-4.5-6.3-5.6-10.2c-1,0.3-1.9,0.5-2.9,0.8c0.8,1.4,1.6,2.6,2.5,3.9
				c0.4,0.6,3.1-0.4,2.9-0.8c-2.1-3.8-3.2-7.6-3.3-12c-1,0.3-1.9,0.5-2.9,0.8c0.3,2.2,0.9,3.6,2.3,5.3c0.4,0.5,3.1-0.3,2.9-0.8
				c-1.3-3.6-1.9-7-1.8-10.8C189.1,151.8,186.2,152.1,186.2,152.9L186.2,152.9z"/>
		</g>
	</g>
	<g>
		<g>
			<path class="st0" d="M194.9,153c1.5,0.1,3,0,4.5-0.4c0.6-0.2,1.3-0.7,1.2-1.4c-0.2-0.7-1.1-0.8-1.7-0.7c-1.3,0.3-2.7,0.6-4,0.9
				c-0.6,0.1-1.3,0.7-1.2,1.4c0.2,0.7,1.1,0.8,1.7,0.7c1.3-0.3,2.7-0.6,4-0.9c-0.2-0.7-0.4-1.4-0.6-2.1c-1,0.3-2,0.4-3,0.3
				c-0.7-0.1-1.6,0.2-1.9,0.9C193.7,152.3,194.3,152.9,194.9,153L194.9,153z"/>
		</g>
	</g>
	<g>
		<g>
			<path class="st0" d="M147.5,98.5c-0.1,4.6,0.3,9,1.5,13.5c0.5,2,1.2,4.1,2,6c0.6,1.3,2.1,1.2,1.7,3.2c0.9-0.2,1.9-0.5,2.8-0.7
				c-3.3-3-4.4-8.5-4.6-12.7c-0.2-4,0-7.9,4-9.2c0.4-0.1,1.5-0.8,0.5-0.9c-1.2-0.1-2.4-0.2-3.5-0.2c-0.6,0.4-1.3,0.8-1.9,1.1
				c2.7,0.1,5.1-0.3,7.8-1.1c4-1.2,8.3-1.6,12.2-3c-0.6,0-1.3,0.1-1.9,0.1c0.2,5.7-1.2,10.8-4.3,15.6c1-0.2,1.9-0.3,2.9-0.5
				c1.1-3.5,1.8-7,2.2-10.7c0-0.4-2.7,0.1-2.9,0.7c-1.5,3.9-2.8,7.8-3.9,11.8c1-0.2,1.9-0.4,2.9-0.7c-1.2-3.6-1.8-7.1-1.9-10.9
				c-1,0.3-1.9,0.5-2.9,0.8c1.6,3.1,2.6,6.2,3.2,9.6c0.1,0.6,2-0.1,2.3-0.2c0.7-0.3,1.4-0.6,2.1-0.9c-0.8,0.1-1.5,0.1-2.3,0.2
				c0.3,1.7-2,4-2.9,5.3c-0.6,0.8-1.2,2-1.9,2.6c-1.9,1.6-2.7,0.7-4-0.9c-2.7-3.4-3.4-7.7-3.6-12c-0.9,0.3-1.9,0.6-2.8,0.9
				c2.9,2.9,5.6,5.9,8.2,9.1c0.5,0.6,3.1-0.4,2.9-0.8c-1.7-2.8-2.5-5.6-2.6-8.9c-0.9,0.3-1.9,0.6-2.8,0.9c1,0.9,1.8,1.7,2.7,2.7
				c0.4,0.5,2.8-0.2,2.8-0.9c0.3-3.5-0.1-6.6-1.2-9.9c-0.2-0.6-3.1,0.2-2.9,0.8c1.1,3.3,1.5,6.4,1.2,9.9c0.9-0.3,1.9-0.6,2.8-0.9
				c-0.9-0.9-1.8-1.8-2.7-2.7c-0.4-0.4-2.8,0.2-2.8,0.9c0.1,3.3,0.9,6,2.6,8.9c1-0.3,1.9-0.5,2.9-0.8c-2.6-3.2-5.4-6.3-8.4-9.3
				c-0.4-0.4-2.8,0.2-2.8,0.9c0.2,4.4,2.1,15.8,8.7,15.1c1.5-0.2,2.6-1.1,3.7-2.2c1.8-1.9,6.4-6.9,5.9-9.5c-0.1-0.6-2,0.1-2.3,0.2
				c-0.7,0.3-1.4,0.6-2.1,0.9c0.8-0.1,1.5-0.1,2.3-0.2c-0.6-3.4-1.6-6.5-3.2-9.6c-0.3-0.6-2.9,0.1-2.9,0.8c0.1,3.8,0.7,7.3,1.9,10.9
				c0.2,0.6,2.7-0.1,2.9-0.7c1.1-4,2.4-7.9,3.9-11.8c-1,0.2-1.9,0.4-2.9,0.7c-0.4,3.6-1.1,7-2.1,10.5c-0.2,0.6,2.5,0,2.9-0.5
				c3.2-4.9,4.6-10,4.4-15.8c0-0.5-1.8,0-1.9,0.1c-2.2,0.8-4.7,0.9-6.9,1.4c-3.4,0.8-6.4,2.3-10.2,2.1c-0.6,0-3.3,1-1.9,1.1
				c3.8,0.3,2.9-1.2,0.6,0.2c-1.5,1-1.7,2.3-2.1,4c-1.3,5.9-0.3,14.3,4.3,18.6c0.4,0.4,2.7-0.2,2.8-0.7c0.2-1,0.1-1.4-0.2-2.3
				c-0.1-0.3-0.7-0.5-0.9-0.8c-0.8-1.2-1.3-2.3-1.7-3.8c-1.7-5.2-2.4-10.6-2.3-16.1C150.4,97.3,147.5,97.7,147.5,98.5L147.5,98.5z"
				/>
		</g>
	</g>
	<g>
		<g>
			<path class="st0" d="M150.5,106.1c-0.4-0.2-0.5-0.7-0.5-1.1c0-0.6-1.2-0.5-1.5-0.4c-0.5,0.1-1.3,0.4-1.4,1
				c-0.3,0.9-0.2,1.9,0.2,2.8c0.3,0.6,1.1,0.5,1.6,0.4c0.3-0.1,1.5-0.6,1.2-1.1c-0.4-0.8-0.5-1.6-0.2-2.4c-1,0.2-1.9,0.4-2.9,0.6
				c0,0.8,0.5,1.3,1.1,1.7C149,108.1,151.7,106.9,150.5,106.1L150.5,106.1z"/>
		</g>
	</g>
	<path class="st3" d="M135.2,187.6c3.2,1.4,8.9,3.3,16.2,3.2c6.9-0.1,12.2-1.9,15.4-3.2"/>
</g>
</svg>
